<?xml version="1.0" encoding="UTF-8" standalone="no"?><!DOCTYPE svg PUBLIC "-//W3C//DTD SVG 1.1//EN" "http://www.w3.org/Graphics/SVG/1.1/DTD/svg11.dtd"><svg width="100%" height="100%" viewBox="0 0 1240 510" version="1.1" xmlns="http://www.w3.org/2000/svg" xmlns:xlink="http://www.w3.org/1999/xlink" xml:space="preserve" xmlns:serif="http://www.serif.com/" style="fill-rule:evenodd;clip-rule:evenodd;stroke-linecap:round;stroke-linejoin:round;stroke-miterlimit:1.5;"><g><path d="M240,140c0,-13.798 -11.202,-25 -25,-25l-150,0c-13.798,0 -25,11.202 -25,25l0,50c0,13.798 11.202,25 25,25l150,0c13.798,0 25,-11.202 25,-25l0,-50Z" style="fill:#27c278;"/><g transform="matrix(1,0,0,1,-136,-221)"><text x="232.539px" y="381px" style="font-family:'Roboto-Regular', 'Roboto';font-size:32px;fill:#fff;">Async</text><text x="231.328px" y="415px" style="font-family:'Roboto-Regular', 'Roboto';font-size:32px;fill:#fff;">Inﬂate</text></g></g><g><path d="M480,394.875c0,-13.798 -11.202,-25 -25,-25l-150,0c-13.798,0 -25,11.202 -25,25l0,50c0,13.798 11.202,25 25,25l150,0c13.798,0 25,-11.202 25,-25l0,-50Z" style="fill:#27c278;"/><text x="335.328px" y="431.875px" style="font-family:'Roboto-Regular', 'Roboto';font-size:32px;fill:#fff;">Inﬂate</text></g><g><path d="M960,140c0,-13.798 -11.202,-25 -25,-25l-150,0c-13.798,0 -25,11.202 -25,25l0,50c0,13.798 11.202,25 25,25l150,0c13.798,0 25,-11.202 25,-25l0,-50Z" style="fill:#27c278;"/><text x="815.328px" y="177px" style="font-family:'Roboto-Regular', 'Roboto';font-size:32px;fill:#fff;">Inﬂate</text></g><g><path d="M720,140c0,-13.798 -11.202,-25 -25,-25l-150,0c-13.798,0 -25,11.202 -25,25l0,50c0,13.798 11.202,25 25,25l150,0c13.798,0 25,-11.202 25,-25l0,-50Z" style="fill:#ff7676;"/><text x="550.242px" y="177px" style="font-family:'Roboto-Regular', 'Roboto';font-size:32px;fill:#fff;">Ex<tspan x="583.977px " y="177px ">c</tspan>eption</text></g><g><path d="M1200,140c0,-13.798 -11.202,-25 -25,-25l-150,0c-13.798,0 -25,11.202 -25,25l0,50c0,13.798 11.202,25 25,25l150,0c13.798,0 25,-11.202 25,-25l0,-50Z" style="fill:#27c278;"/><text x="1038.95px" y="177px" style="font-family:'Roboto-Regular', 'Roboto';font-size:32px;fill:#fff;">Callback</text></g><text x="36.855px" y="74.5px" style="font-family:'Roboto-Regular', 'Roboto';font-size:46px;fill:#2d2e44;">UI thr<tspan x="146.083px " y="74.5px ">e</tspan>ad</text><text x="36.855px" y="327.5px" style="font-family:'Roboto-Regular', 'Roboto';font-size:46px;fill:#2d2e44;">BG thr<tspan x="163.715px " y="327.5px ">e</tspan>ad</text><path d="M40.651,252.949l1160,0" style="fill:none;stroke:#9697a1;stroke-width:4px;stroke-dasharray:16,16,0,0;stroke-dashoffset:4;"/><path d="M377.625,165l4.75,0l0,195.375l7.125,0l-9.5,9.5l-9.5,-9.5l7.125,0l0,-195.375Z" style="fill:#2d2e44;"/><path d="M720,167.375l0,-4.75l30.5,0l0,-7.125l9.5,9.5l-9.5,9.5l0,-7.125l-30.5,0Z" style="fill:#2d2e44;"/><path d="M960,167.375l0,-4.75l30.5,0l0,-7.125l9.5,9.5l-9.5,9.5l0,-7.125l-30.5,0Z" style="fill:#2d2e44;"/><path d="M1097.62,224.5l-7.125,0l9.5,-9.5l9.5,9.5l-7.125,0l0,200.25l-4.75,0l0,-200.25Z" style="fill:#2d2e44;"/><path d="M617.625,224.5l-7.125,0l9.5,-9.5l9.5,9.5l-7.125,0l0,197.875l-4.75,0l0,-197.875Z" style="fill:#2d2e44;"/><rect x="480" y="420" width="622.375" height="4.75" style="fill:#2d2e44;"/><rect x="240" y="165" width="140" height="4.75" style="fill:#2d2e44;"/></svg>