<?xml version="1.0" encoding="UTF-8" standalone="no"?><!DOCTYPE svg PUBLIC "-//W3C//DTD SVG 1.1//EN" "http://www.w3.org/Graphics/SVG/1.1/DTD/svg11.dtd"><svg width="100%" height="100%" viewBox="0 0 1280 560" version="1.1" xmlns="http://www.w3.org/2000/svg" xmlns:xlink="http://www.w3.org/1999/xlink" xml:space="preserve" xmlns:serif="http://www.serif.com/" style="fill-rule:evenodd;clip-rule:evenodd;stroke-linecap:round;stroke-linejoin:round;stroke-miterlimit:1.5;"><g><path d="M350,180c0,-11.038 -8.962,-20 -20,-20l-160,0c-11.038,0 -20,8.962 -20,20l0,40c0,11.038 8.962,20 20,20l160,0c11.038,0 20,-8.962 20,-20l0,-40Z" style="fill:#27c278;"/><path d="M214.281,204.781c-0.281,2.406 -1.169,4.263 -2.664,5.571c-1.495,1.307 -3.482,1.96 -5.961,1.96c-2.687,0 -4.841,-0.963 -6.461,-2.89c-1.619,-1.927 -2.429,-4.505 -2.429,-7.735l0,-2.187c0,-2.115 0.377,-3.974 1.132,-5.578c0.756,-1.604 1.826,-2.836 3.211,-3.695c1.386,-0.86 2.99,-1.29 4.813,-1.29c2.417,0 4.354,0.675 5.812,2.024c1.459,1.349 2.308,3.216 2.547,5.601l-3.015,0c-0.261,-1.812 -0.826,-3.125 -1.696,-3.937c-0.869,-0.813 -2.086,-1.219 -3.648,-1.219c-1.917,0 -3.419,0.709 -4.508,2.125c-1.088,1.417 -1.633,3.433 -1.633,6.047l0,2.203c0,2.469 0.516,4.433 1.547,5.891c1.031,1.458 2.474,2.187 4.328,2.187c1.667,0 2.946,-0.377 3.836,-1.132c0.891,-0.756 1.482,-2.071 1.774,-3.946l3.015,0Z" style="fill:#fff;fill-rule:nonzero;"/><path d="M217.156,203.391c0,-1.657 0.326,-3.146 0.977,-4.469c0.651,-1.323 1.557,-2.344 2.719,-3.063c1.161,-0.718 2.487,-1.078 3.976,-1.078c2.302,0 4.164,0.797 5.586,2.391c1.422,1.594 2.133,3.713 2.133,6.359l0,0.203c0,1.646 -0.315,3.123 -0.945,4.43c-0.631,1.307 -1.532,2.326 -2.704,3.055c-1.171,0.729 -2.518,1.093 -4.039,1.093c-2.291,0 -4.148,-0.796 -5.57,-2.39c-1.422,-1.594 -2.133,-3.703 -2.133,-6.328l0,-0.203Zm2.906,0.343c0,1.875 0.435,3.381 1.305,4.516c0.87,1.135 2.034,1.703 3.492,1.703c1.469,0 2.636,-0.575 3.5,-1.726c0.865,-1.151 1.297,-2.763 1.297,-4.836c0,-1.855 -0.44,-3.357 -1.32,-4.508c-0.88,-1.151 -2.05,-1.727 -3.508,-1.727c-1.427,0 -2.578,0.568 -3.453,1.703c-0.875,1.136 -1.313,2.761 -1.313,4.875Z" style="fill:#fff;fill-rule:nonzero;"/><rect x="236.422" y="188" width="2.891" height="24" style="fill:#fff;fill-rule:nonzero;"/><path d="M254.375,210.328c-1.125,1.323 -2.776,1.984 -4.953,1.984c-1.802,0 -3.175,-0.523 -4.117,-1.57c-0.943,-1.047 -1.42,-2.596 -1.43,-4.648l0,-11l2.891,0l0,10.922c0,2.562 1.041,3.843 3.125,3.843c2.208,0 3.677,-0.823 4.406,-2.468l0,-12.297l2.89,0l0,16.906l-2.75,0l-0.062,-1.672Z" style="fill:#fff;fill-rule:nonzero;"/><path d="M264.297,195.094l0.078,1.875c1.24,-1.459 2.911,-2.188 5.016,-2.188c2.364,0 3.974,0.906 4.828,2.719c0.562,-0.813 1.294,-1.469 2.195,-1.969c0.901,-0.5 1.966,-0.75 3.195,-0.75c3.709,0 5.594,1.964 5.657,5.891l0,11.328l-2.891,0l0,-11.156c0,-1.209 -0.276,-2.112 -0.828,-2.711c-0.552,-0.599 -1.479,-0.899 -2.781,-0.899c-1.073,0 -1.964,0.321 -2.672,0.961c-0.709,0.641 -1.12,1.503 -1.235,2.586l0,11.219l-2.906,0l0,-11.078c0,-2.458 -1.203,-3.688 -3.609,-3.688c-1.896,0 -3.193,0.808 -3.891,2.422l0,12.344l-2.891,0l0,-16.906l2.735,0Z" style="fill:#fff;fill-rule:nonzero;"/><path d="M292.359,195.094l0.094,2.125c1.292,-1.625 2.979,-2.438 5.063,-2.438c3.573,0 5.375,2.016 5.406,6.047l0,11.172l-2.891,0l0,-11.188c-0.01,-1.218 -0.289,-2.119 -0.836,-2.703c-0.547,-0.583 -1.398,-0.875 -2.554,-0.875c-0.938,0 -1.761,0.25 -2.469,0.75c-0.708,0.5 -1.261,1.157 -1.656,1.969l0,12.047l-2.891,0l0,-16.906l2.734,0Z" style="fill:#fff;fill-rule:nonzero;"/></g><g><path d="M240,340c0,-11.038 -8.962,-20 -20,-20l-160,0c-11.038,0 -20,8.962 -20,20l0,40c0,11.038 8.962,20 20,20l160,0c11.038,0 20,-8.962 20,-20l0,-40Z" style="fill:#27c278;"/><path d="M69.906,362.797l-5.344,0l0,9.203l-3.015,0l0,-22.75l7.531,0c2.563,0 4.534,0.583 5.914,1.75c1.38,1.167 2.07,2.865 2.07,5.094c0,1.416 -0.382,2.651 -1.148,3.703c-0.766,1.052 -1.831,1.838 -3.195,2.359l5.343,9.657l0,0.187l-3.218,0l-4.938,-9.203Zm-5.344,-2.453l4.61,0c1.489,0 2.674,-0.386 3.555,-1.156c0.88,-0.771 1.32,-1.803 1.32,-3.094c0,-1.406 -0.419,-2.485 -1.258,-3.235c-0.838,-0.75 -2.049,-1.13 -3.633,-1.14l-4.594,0l0,8.625Z" style="fill:#fff;fill-rule:nonzero;"/><path d="M91.25,370.328c-1.125,1.323 -2.776,1.985 -4.953,1.985c-1.802,0 -3.175,-0.524 -4.117,-1.571c-0.943,-1.047 -1.42,-2.596 -1.43,-4.648l0,-11l2.891,0l0,10.922c0,2.562 1.041,3.843 3.125,3.843c2.208,0 3.677,-0.823 4.406,-2.468l0,-12.297l2.891,0l-0.001,16.906l-2.749,0l-0.063,-1.672Z" style="fill:#fff;fill-rule:nonzero;"/><rect x="98.703" y="348" width="2.891" height="24" style="fill:#fff;fill-rule:nonzero;"/><path d="M113.234,372.313c-2.291,0 -4.156,-0.753 -5.593,-2.258c-1.438,-1.506 -2.157,-3.519 -2.157,-6.039l0,-0.532c0,-1.677 0.321,-3.174 0.961,-4.492c0.641,-1.318 1.537,-2.349 2.688,-3.094c1.151,-0.744 2.398,-1.117 3.742,-1.117c2.198,0 3.906,0.724 5.125,2.172c1.219,1.448 1.828,3.521 1.828,6.219l0,1.203l-11.453,0c0.042,1.667 0.529,3.013 1.461,4.039c0.932,1.026 2.117,1.539 3.555,1.539c1.02,0 1.885,-0.208 2.593,-0.625c0.709,-0.417 1.328,-0.969 1.86,-1.656l1.765,1.375c-1.416,2.177 -3.541,3.266 -6.375,3.266Zm-0.359,-15.157c-1.167,0 -2.146,0.425 -2.938,1.274c-0.791,0.849 -1.281,2.039 -1.468,3.57l8.468,0l0,-0.219c-0.083,-1.468 -0.479,-2.607 -1.187,-3.414c-0.708,-0.807 -1.667,-1.211 -2.875,-1.211Z" style="fill:#fff;fill-rule:nonzero;"/><path d="M127.078,359.219l2.172,0c1.365,-0.021 2.438,-0.38 3.219,-1.078c0.781,-0.698 1.172,-1.641 1.172,-2.828c0,-2.667 -1.328,-4 -3.985,-4c-1.25,0 -2.247,0.356 -2.992,1.07c-0.745,0.713 -1.117,1.659 -1.117,2.836l-2.891,0c0,-1.802 0.659,-3.3 1.977,-4.492c1.318,-1.193 2.992,-1.789 5.023,-1.789c2.146,0 3.828,0.567 5.047,1.703c1.219,1.135 1.828,2.713 1.828,4.734c0,0.99 -0.32,1.948 -0.961,2.875c-0.64,0.927 -1.513,1.62 -2.617,2.078c1.25,0.396 2.216,1.052 2.899,1.969c0.682,0.917 1.023,2.036 1.023,3.359c0,2.042 -0.667,3.662 -2,4.86c-1.333,1.198 -3.068,1.797 -5.203,1.797c-2.136,0 -3.873,-0.579 -5.211,-1.735c-1.339,-1.156 -2.008,-2.682 -2.008,-4.578l2.906,0c0,1.198 0.391,2.156 1.172,2.875c0.782,0.719 1.828,1.078 3.141,1.078c1.396,0 2.463,-0.364 3.203,-1.094c0.74,-0.729 1.109,-1.776 1.109,-3.14c0,-1.323 -0.406,-2.339 -1.218,-3.047c-0.813,-0.708 -1.985,-1.073 -3.516,-1.094l-2.172,0l0,-2.359Z" style="fill:#fff;fill-rule:nonzero;"/><path d="M153.047,364.359l3.156,0l0,2.36l-3.156,0l0,5.281l-2.906,0l0,-5.281l-10.36,0l0,-1.703l10.188,-15.766l3.078,0l0,15.109Zm-9.984,0l7.078,0l0,-11.156l-0.344,0.625l-6.734,10.531Z" style="fill:#fff;fill-rule:nonzero;"/><rect x="159.781" y="349.25" width="3" height="22.75" style="fill:#fff;fill-rule:nonzero;"/><path d="M171.734,351l0,4.094l3.157,0l0,2.234l-3.157,0l0,10.485c0,0.677 0.141,1.184 0.422,1.523c0.281,0.338 0.761,0.508 1.438,0.508c0.333,0 0.791,-0.063 1.375,-0.188l0,2.344c-0.761,0.208 -1.5,0.313 -2.219,0.313c-1.292,0 -2.266,-0.391 -2.922,-1.172c-0.656,-0.782 -0.984,-1.891 -0.984,-3.328l0,-10.485l-3.078,0l0,-2.234l3.078,0l0,-4.094l2.89,0Z" style="fill:#fff;fill-rule:nonzero;"/><path d="M185.281,372.313c-2.291,0 -4.156,-0.753 -5.594,-2.258c-1.437,-1.506 -2.156,-3.519 -2.156,-6.039l0,-0.532c0,-1.677 0.321,-3.174 0.961,-4.492c0.641,-1.318 1.537,-2.349 2.688,-3.094c1.151,-0.744 2.398,-1.117 3.742,-1.117c2.198,0 3.906,0.724 5.125,2.172c1.219,1.448 1.828,3.521 1.828,6.219l0,1.203l-11.453,0c0.042,1.667 0.529,3.013 1.461,4.039c0.932,1.026 2.117,1.539 3.554,1.539c1.021,0 1.886,-0.208 2.594,-0.625c0.709,-0.417 1.328,-0.969 1.86,-1.656l1.765,1.375c-1.416,2.177 -3.541,3.266 -6.375,3.266Zm-0.359,-15.157c-1.167,0 -2.146,0.425 -2.938,1.274c-0.791,0.849 -1.281,2.039 -1.468,3.57l8.468,0l0,-0.219c-0.083,-1.468 -0.479,-2.607 -1.187,-3.414c-0.708,-0.807 -1.667,-1.211 -2.875,-1.211Z" style="fill:#fff;fill-rule:nonzero;"/><path d="M197.938,355.094l0.078,1.875c1.239,-1.459 2.911,-2.188 5.015,-2.188c2.365,0 3.974,0.907 4.828,2.719c0.563,-0.812 1.295,-1.469 2.196,-1.969c0.901,-0.5 1.966,-0.75 3.195,-0.75c3.708,0 5.594,1.964 5.656,5.891l0,11.328l-2.89,0l0,-11.156c0,-1.209 -0.276,-2.112 -0.829,-2.711c-0.552,-0.599 -1.479,-0.899 -2.781,-0.899c-1.073,0 -1.963,0.321 -2.672,0.961c-0.708,0.641 -1.119,1.503 -1.234,2.586l0,11.219l-2.906,0l0,-11.078c0,-2.458 -1.203,-3.688 -3.61,-3.688c-1.895,0 -3.192,0.808 -3.89,2.422l0,12.344l-2.891,0l0,-16.906l2.734,0Z" style="fill:#fff;fill-rule:nonzero;"/></g><g><path d="M460,340c0,-11.038 -8.962,-20 -20,-20l-160,0c-11.038,0 -20,8.962 -20,20l0,40c0,11.038 8.962,20 20,20l160,0c11.038,0 20,-8.962 20,-20l0,-40Z" style="fill:#27c278;"/><path d="M289.906,362.797l-5.343,0l0,9.203l-3.016,0l0,-22.75l7.531,0c2.563,0 4.534,0.583 5.914,1.75c1.38,1.167 2.071,2.865 2.071,5.094c0,1.416 -0.383,2.651 -1.149,3.703c-0.766,1.052 -1.831,1.838 -3.195,2.359l5.344,9.656l0,0.188l-3.219,0l-4.938,-9.203Zm-5.343,-2.453l4.609,0c1.489,0 2.674,-0.386 3.555,-1.157c0.88,-0.77 1.32,-1.802 1.32,-3.093c0,-1.407 -0.419,-2.485 -1.258,-3.235c-0.838,-0.75 -2.049,-1.13 -3.633,-1.14l-4.593,0l0,8.625Z" style="fill:#fff;fill-rule:nonzero;"/><path d="M311.25,370.328c-1.125,1.323 -2.776,1.984 -4.953,1.984c-1.802,0 -3.175,-0.523 -4.117,-1.57c-0.943,-1.047 -1.42,-2.596 -1.43,-4.648l0,-11l2.891,0l0,10.922c0,2.562 1.041,3.843 3.125,3.843c2.208,0 3.677,-0.823 4.406,-2.468l0,-12.297l2.891,0l0,16.906l-2.75,0l-0.063,-1.672Z" style="fill:#fff;fill-rule:nonzero;"/><rect x="318.703" y="348" width="2.891" height="24" style="fill:#fff;fill-rule:nonzero;"/><path d="M333.234,372.312c-2.291,0 -4.156,-0.752 -5.593,-2.257c-1.438,-1.506 -2.157,-3.519 -2.157,-6.039l0,-0.532c0,-1.677 0.321,-3.174 0.961,-4.492c0.641,-1.318 1.537,-2.349 2.688,-3.094c1.151,-0.744 2.398,-1.117 3.742,-1.117c2.198,0 3.906,0.724 5.125,2.172c1.219,1.448 1.828,3.521 1.828,6.219l0,1.203l-11.453,0c0.042,1.667 0.529,3.013 1.461,4.039c0.932,1.026 2.117,1.539 3.555,1.539c1.02,0 1.885,-0.208 2.593,-0.625c0.709,-0.417 1.329,-0.969 1.86,-1.656l1.765,1.375c-1.416,2.177 -3.541,3.265 -6.375,3.265Zm-0.359,-15.156c-1.167,0 -2.146,0.425 -2.937,1.274c-0.792,0.849 -1.282,2.039 -1.469,3.57l8.469,0l0,-0.219c-0.084,-1.469 -0.48,-2.607 -1.188,-3.414c-0.708,-0.807 -1.667,-1.211 -2.875,-1.211Z" style="fill:#fff;fill-rule:nonzero;"/><path d="M347.078,359.219l2.172,0c1.365,-0.021 2.438,-0.38 3.219,-1.078c0.781,-0.698 1.172,-1.641 1.172,-2.829c0,-2.666 -1.328,-4 -3.985,-4c-1.25,0 -2.247,0.357 -2.992,1.071c-0.745,0.713 -1.117,1.659 -1.117,2.836l-2.891,0c0,-1.802 0.659,-3.3 1.977,-4.492c1.318,-1.193 2.992,-1.79 5.023,-1.79c2.146,0 3.828,0.568 5.047,1.704c1.219,1.135 1.828,2.713 1.828,4.734c0,0.99 -0.32,1.948 -0.961,2.875c-0.64,0.927 -1.513,1.62 -2.617,2.078c1.25,0.396 2.216,1.052 2.899,1.969c0.682,0.917 1.023,2.036 1.023,3.359c0,2.042 -0.667,3.662 -2,4.86c-1.333,1.198 -3.068,1.796 -5.203,1.796c-2.136,0 -3.873,-0.578 -5.211,-1.734c-1.339,-1.156 -2.008,-2.682 -2.008,-4.578l2.906,0c0,1.198 0.391,2.156 1.172,2.875c0.782,0.719 1.828,1.078 3.141,1.078c1.396,0 2.463,-0.364 3.203,-1.094c0.74,-0.729 1.109,-1.776 1.109,-3.14c0,-1.323 -0.406,-2.339 -1.218,-3.047c-0.813,-0.708 -1.985,-1.073 -3.516,-1.094l-2.172,0l0,-2.359Z" style="fill:#fff;fill-rule:nonzero;"/><path d="M373.047,364.359l3.156,0l0,2.36l-3.156,0l0,5.281l-2.906,0l0,-5.281l-10.36,0l0,-1.703l10.188,-15.766l3.078,0l0,15.109Zm-9.984,0l7.078,0l0,-11.156l-0.344,0.625l-6.734,10.531Z" style="fill:#fff;fill-rule:nonzero;"/><rect x="379.781" y="349.25" width="3" height="22.75" style="fill:#fff;fill-rule:nonzero;"/><path d="M391.734,351l0,4.094l3.157,0l0,2.234l-3.157,0l0,10.484c0,0.678 0.141,1.185 0.422,1.524c0.282,0.338 0.761,0.508 1.438,0.508c0.333,0 0.791,-0.063 1.375,-0.188l0,2.344c-0.761,0.208 -1.5,0.312 -2.219,0.312c-1.292,0 -2.266,-0.39 -2.922,-1.171c-0.656,-0.782 -0.984,-1.891 -0.984,-3.329l0,-10.484l-3.078,0l0,-2.234l3.078,0l0,-4.094l2.89,0Z" style="fill:#fff;fill-rule:nonzero;"/><path d="M405.281,372.312c-2.291,0 -4.156,-0.752 -5.593,-2.257c-1.438,-1.506 -2.157,-3.519 -2.157,-6.039l0,-0.532c0,-1.677 0.321,-3.174 0.961,-4.492c0.641,-1.318 1.537,-2.349 2.688,-3.094c1.151,-0.744 2.398,-1.117 3.742,-1.117c2.198,0 3.906,0.724 5.125,2.172c1.219,1.448 1.828,3.521 1.828,6.219l0,1.203l-11.453,0c0.042,1.667 0.529,3.013 1.461,4.039c0.932,1.026 2.117,1.539 3.555,1.539c1.02,0 1.885,-0.208 2.593,-0.625c0.709,-0.417 1.328,-0.969 1.86,-1.656l1.765,1.375c-1.416,2.177 -3.541,3.265 -6.375,3.265Zm-0.359,-15.156c-1.167,0 -2.146,0.425 -2.938,1.274c-0.791,0.849 -1.281,2.039 -1.468,3.57l8.468,0l0,-0.219c-0.083,-1.469 -0.479,-2.607 -1.187,-3.414c-0.708,-0.807 -1.667,-1.211 -2.875,-1.211Z" style="fill:#fff;fill-rule:nonzero;"/><path d="M417.938,355.094l0.078,1.875c1.239,-1.459 2.911,-2.188 5.015,-2.188c2.365,0 3.974,0.906 4.828,2.719c0.563,-0.813 1.295,-1.469 2.196,-1.969c0.901,-0.5 1.966,-0.75 3.195,-0.75c3.708,0 5.594,1.964 5.656,5.891l0,11.328l-2.89,0l0,-11.156c0,-1.209 -0.276,-2.112 -0.828,-2.711c-0.553,-0.599 -1.48,-0.899 -2.782,-0.899c-1.073,0 -1.963,0.321 -2.672,0.961c-0.708,0.641 -1.119,1.503 -1.234,2.586l0,11.219l-2.906,0l0,-11.078c0,-2.458 -1.203,-3.688 -3.61,-3.688c-1.895,0 -3.192,0.808 -3.89,2.422l0,12.344l-2.891,0l0,-16.906l2.735,0Z" style="fill:#fff;fill-rule:nonzero;"/></g><rect x="138.125" y="280" width="224.25" height="4.75" style="fill:#2d2e44;"/><path d="M247.625,240l4.75,0l0,40l-4.75,0l0,-40Z" style="fill:#2d2e44;"/><g><path d="M350,60c0,-11.038 -8.962,-20 -20,-20l-160,0c-11.038,0 -20,8.962 -20,20l0,40c0,11.038 8.962,20 20,20l160,0c11.038,0 20,-8.962 20,-20l0,-40Z" style="fill:#27c278;"/><path d="M211.984,82.797l-5.343,0l0,9.203l-3.016,0l0,-22.75l7.531,0c2.563,0 4.534,0.583 5.914,1.75c1.381,1.167 2.071,2.865 2.071,5.094c0,1.416 -0.383,2.651 -1.149,3.703c-0.765,1.052 -1.831,1.838 -3.195,2.359l5.344,9.656l0,0.188l-3.219,0l-4.938,-9.203Zm-5.343,-2.453l4.609,0c1.49,0 2.674,-0.386 3.555,-1.157c0.88,-0.77 1.32,-1.802 1.32,-3.093c0,-1.407 -0.419,-2.485 -1.258,-3.235c-0.838,-0.75 -2.049,-1.13 -3.633,-1.14l-4.593,0l0,8.625Z" style="fill:#fff;fill-rule:nonzero;"/><path d="M233.328,90.328c-1.125,1.323 -2.776,1.984 -4.953,1.984c-1.802,0 -3.174,-0.523 -4.117,-1.57c-0.943,-1.047 -1.419,-2.596 -1.43,-4.648l0,-11l2.891,0l0,10.922c0,2.562 1.041,3.843 3.125,3.843c2.208,0 3.677,-0.823 4.406,-2.468l0,-12.297l2.891,0l0,16.906l-2.75,0l-0.063,-1.672Z" style="fill:#fff;fill-rule:nonzero;"/><rect x="240.781" y="68" width="2.891" height="24" style="fill:#fff;fill-rule:nonzero;"/><path d="M255.312,92.312c-2.291,0 -4.156,-0.752 -5.593,-2.257c-1.438,-1.506 -2.157,-3.519 -2.157,-6.039l0,-0.532c0,-1.677 0.321,-3.174 0.961,-4.492c0.641,-1.318 1.537,-2.349 2.688,-3.094c1.151,-0.744 2.398,-1.117 3.742,-1.117c2.198,0 3.906,0.724 5.125,2.172c1.219,1.448 1.828,3.521 1.828,6.219l0,1.203l-11.453,0c0.042,1.667 0.529,3.013 1.461,4.039c0.932,1.026 2.117,1.539 3.555,1.539c1.021,0 1.885,-0.208 2.593,-0.625c0.709,-0.417 1.329,-0.969 1.86,-1.656l1.765,1.375c-1.416,2.177 -3.541,3.265 -6.375,3.265Zm-0.359,-15.156c-1.167,0 -2.146,0.425 -2.937,1.274c-0.792,0.849 -1.282,2.039 -1.469,3.57l8.469,0l0,-0.219c-0.084,-1.469 -0.48,-2.607 -1.188,-3.414c-0.708,-0.807 -1.667,-1.211 -2.875,-1.211Z" style="fill:#fff;fill-rule:nonzero;"/><path d="M269.156,79.219l2.172,0c1.365,-0.021 2.438,-0.38 3.219,-1.078c0.781,-0.698 1.172,-1.641 1.172,-2.829c0,-2.666 -1.328,-4 -3.985,-4c-1.25,0 -2.247,0.357 -2.992,1.071c-0.745,0.713 -1.117,1.659 -1.117,2.836l-2.891,0c0,-1.802 0.659,-3.3 1.977,-4.492c1.318,-1.193 2.992,-1.79 5.023,-1.79c2.146,0 3.828,0.568 5.047,1.704c1.219,1.135 1.828,2.713 1.828,4.734c0,0.99 -0.32,1.948 -0.961,2.875c-0.64,0.927 -1.513,1.62 -2.617,2.078c1.25,0.396 2.216,1.052 2.899,1.969c0.682,0.917 1.023,2.036 1.023,3.359c0,2.042 -0.667,3.662 -2,4.86c-1.333,1.198 -3.068,1.796 -5.203,1.796c-2.135,0 -3.872,-0.578 -5.211,-1.734c-1.338,-1.156 -2.008,-2.682 -2.008,-4.578l2.906,0c0,1.198 0.391,2.156 1.172,2.875c0.782,0.719 1.828,1.078 3.141,1.078c1.396,0 2.464,-0.364 3.203,-1.094c0.74,-0.729 1.109,-1.776 1.109,-3.14c0,-1.323 -0.406,-2.339 -1.218,-3.047c-0.813,-0.708 -1.985,-1.073 -3.516,-1.094l-2.172,0l0,-2.359Z" style="fill:#fff;fill-rule:nonzero;"/><path d="M295.125,84.359l3.156,0l0,2.36l-3.156,0l0,5.281l-2.906,0l0,-5.281l-10.36,0l0,-1.703l10.188,-15.766l3.078,0l0,15.109Zm-9.984,0l7.078,0l0,-11.156l-0.344,0.625l-6.734,10.531Z" style="fill:#fff;fill-rule:nonzero;"/></g><path d="M247.625,120l4.75,0l0,30.5l7.125,0l-9.5,9.5l-9.5,-9.5l7.125,0l0,-30.5Z" style="fill:#2d2e44;"/><path d="M357.625,280l4.75,0l0,30.5l7.125,0l-9.5,9.5l-9.5,-9.5l7.125,0l0,-30.5Z" style="fill:#2d2e44;"/><path d="M138.125,280l4.75,0l0,30.5l7.125,0l-9.5,9.5l-9.5,-9.5l7.125,0l0,-30.5Z" style="fill:#2d2e44;"/><g><path d="M240,460c0,-11.038 -8.962,-20 -20,-20l-160,0c-11.038,0 -20,8.962 -20,20l0,40c0,11.038 8.962,20 20,20l160,0c11.038,0 20,-8.962 20,-20l0,-40Z" style="fill:#27c278;"/><path d="M127.953,471.719l-7.312,0l0,20.281l-2.985,0l0,-20.281l-7.297,0l0,-2.469l17.594,0l0,2.469Z" style="fill:#fff;fill-rule:nonzero;"/><path d="M136.344,492.313c-2.292,0 -4.156,-0.753 -5.594,-2.258c-1.438,-1.506 -2.156,-3.519 -2.156,-6.039l0,-0.532c0,-1.677 0.32,-3.174 0.961,-4.492c0.64,-1.318 1.536,-2.349 2.687,-3.094c1.151,-0.744 2.399,-1.117 3.742,-1.117c2.198,0 3.907,0.724 5.125,2.172c1.219,1.448 1.828,3.521 1.828,6.219l0,1.203l-11.453,0c0.042,1.667 0.529,3.013 1.461,4.039c0.933,1.026 2.117,1.539 3.555,1.539c1.021,0 1.885,-0.208 2.594,-0.625c0.708,-0.417 1.328,-0.969 1.859,-1.656l1.766,1.375c-1.417,2.177 -3.542,3.266 -6.375,3.266Zm-0.36,-15.157c-1.166,0 -2.145,0.425 -2.937,1.274c-0.792,0.849 -1.281,2.039 -1.469,3.57l8.469,0l0,-0.219c-0.083,-1.468 -0.479,-2.607 -1.188,-3.414c-0.708,-0.807 -1.666,-1.211 -2.875,-1.211Z" style="fill:#fff;fill-rule:nonzero;"/><path d="M151.953,481.266l3.75,-6.172l3.375,0l-5.531,8.359l5.703,8.547l-3.344,0l-3.906,-6.328l-3.906,6.328l-3.36,0l5.704,-8.547l-5.532,-8.359l3.344,0l3.703,6.172Z" style="fill:#fff;fill-rule:nonzero;"/><path d="M166.063,471l-0.001,4.094l3.157,0l0,2.234l-3.157,0l0,10.485c0,0.677 0.141,1.184 0.422,1.523c0.282,0.338 0.761,0.508 1.438,0.508c0.333,0 0.792,-0.063 1.375,-0.188l0,2.344c-0.761,0.208 -1.5,0.313 -2.219,0.313c-1.292,0 -2.266,-0.391 -2.922,-1.172c-0.656,-0.782 -0.984,-1.891 -0.984,-3.328l0,-10.485l-3.078,0l0,-2.234l3.078,0l0,-4.094l2.891,0Z" style="fill:#fff;fill-rule:nonzero;"/></g><g><path d="M460,460c0,-11.038 -8.962,-20 -20,-20l-160,0c-11.038,0 -20,8.962 -20,20l0,40c0,11.038 8.962,20 20,20l160,0c11.038,0 20,-8.962 20,-20l0,-40Z" style="fill:#27c278;"/><path d="M347.953,471.719l-7.312,0l0,20.281l-2.985,0l0,-20.281l-7.297,0l0,-2.469l17.594,0l0,2.469Z" style="fill:#fff;fill-rule:nonzero;"/><path d="M356.344,492.312c-2.292,0 -4.156,-0.752 -5.594,-2.257c-1.437,-1.506 -2.156,-3.519 -2.156,-6.039l0,-0.532c0,-1.677 0.32,-3.174 0.961,-4.492c0.64,-1.318 1.536,-2.349 2.687,-3.094c1.151,-0.744 2.399,-1.117 3.742,-1.117c2.198,0 3.907,0.724 5.125,2.172c1.219,1.448 1.829,3.521 1.829,6.219l0,1.203l-11.454,0c0.042,1.667 0.529,3.013 1.461,4.039c0.933,1.026 2.118,1.539 3.555,1.539c1.021,0 1.885,-0.208 2.594,-0.625c0.708,-0.417 1.328,-0.969 1.859,-1.656l1.766,1.375c-1.417,2.177 -3.542,3.265 -6.375,3.265Zm-0.36,-15.156c-1.166,0 -2.145,0.425 -2.937,1.274c-0.792,0.849 -1.281,2.039 -1.469,3.57l8.469,0l0,-0.219c-0.083,-1.469 -0.479,-2.607 -1.188,-3.414c-0.708,-0.807 -1.666,-1.211 -2.875,-1.211Z" style="fill:#fff;fill-rule:nonzero;"/><path d="M371.953,481.266l3.75,-6.172l3.375,0l-5.531,8.359l5.703,8.547l-3.344,0l-3.906,-6.328l-3.906,6.328l-3.36,0l5.704,-8.547l-5.532,-8.359l3.344,0l3.703,6.172Z" style="fill:#fff;fill-rule:nonzero;"/><path d="M386.063,471l0,4.094l3.156,0l0,2.234l-3.156,0l0,10.484c0,0.678 0.14,1.185 0.421,1.524c0.282,0.338 0.761,0.508 1.438,0.508c0.333,0 0.792,-0.063 1.375,-0.188l0,2.344c-0.761,0.208 -1.5,0.312 -2.219,0.312c-1.292,0 -2.265,-0.39 -2.922,-1.171c-0.656,-0.782 -0.984,-1.891 -0.984,-3.329l0,-10.484l-3.078,0l0,-2.234l3.078,0l0,-4.094l2.891,0Z" style="fill:#fff;fill-rule:nonzero;"/></g><path d="M357.625,400l4.75,0l0,30.5l7.125,0l-9.5,9.5l-9.5,-9.5l7.125,0l0,-30.5Z" style="fill:#2d2e44;"/><path d="M137.625,400l4.75,0l0,30.5l7.125,0l-9.5,9.5l-9.5,-9.5l7.125,0l0,-30.5Z" style="fill:#2d2e44;"/><g><path d="M1020,180c0,-11.038 -8.962,-20 -20,-20l-160,0c-11.038,0 -20,8.962 -20,20l0,40c0,11.038 8.962,20 20,20l160,0c11.038,0 20,-8.962 20,-20l0,-40Z" style="fill:#27c278;"/><path d="M884.281,204.781c-0.281,2.406 -1.169,4.263 -2.664,5.571c-1.495,1.307 -3.482,1.96 -5.961,1.96c-2.687,0 -4.841,-0.963 -6.461,-2.89c-1.619,-1.927 -2.429,-4.505 -2.429,-7.735l0,-2.187c0,-2.115 0.377,-3.974 1.132,-5.578c0.756,-1.604 1.826,-2.836 3.211,-3.695c1.386,-0.86 2.99,-1.29 4.813,-1.29c2.417,0 4.354,0.675 5.812,2.024c1.459,1.349 2.308,3.216 2.547,5.601l-3.015,0c-0.261,-1.812 -0.826,-3.125 -1.696,-3.937c-0.869,-0.813 -2.086,-1.219 -3.648,-1.219c-1.917,0 -3.419,0.709 -4.508,2.125c-1.088,1.417 -1.633,3.433 -1.633,6.047l0,2.203c0,2.469 0.516,4.433 1.547,5.891c1.031,1.458 2.474,2.187 4.328,2.187c1.667,0 2.946,-0.377 3.836,-1.132c0.891,-0.756 1.482,-2.071 1.774,-3.946l3.015,0Z" style="fill:#fff;fill-rule:nonzero;"/><path d="M887.156,203.391c0,-1.657 0.326,-3.146 0.977,-4.469c0.651,-1.323 1.557,-2.344 2.719,-3.063c1.161,-0.718 2.487,-1.078 3.976,-1.078c2.302,0 4.164,0.797 5.586,2.391c1.422,1.594 2.133,3.713 2.133,6.359l0,0.203c0,1.646 -0.315,3.123 -0.945,4.43c-0.631,1.307 -1.532,2.326 -2.704,3.055c-1.171,0.729 -2.518,1.093 -4.039,1.093c-2.291,0 -4.148,-0.796 -5.57,-2.39c-1.422,-1.594 -2.133,-3.703 -2.133,-6.328l0,-0.203Zm2.907,0.343c0,1.875 0.434,3.381 1.304,4.516c0.87,1.135 2.034,1.703 3.492,1.703c1.469,0 2.636,-0.575 3.5,-1.726c0.865,-1.151 1.297,-2.763 1.297,-4.836c0,-1.855 -0.44,-3.357 -1.32,-4.508c-0.88,-1.151 -2.05,-1.727 -3.508,-1.727c-1.427,0 -2.578,0.568 -3.453,1.703c-0.875,1.136 -1.312,2.761 -1.312,4.875Z" style="fill:#fff;fill-rule:nonzero;"/><rect x="906.422" y="188" width="2.891" height="24" style="fill:#fff;fill-rule:nonzero;"/><path d="M924.375,210.328c-1.125,1.323 -2.776,1.984 -4.953,1.984c-1.802,0 -3.175,-0.523 -4.117,-1.57c-0.943,-1.047 -1.42,-2.596 -1.43,-4.648l0,-11l2.891,0l0,10.922c0,2.562 1.041,3.843 3.125,3.843c2.208,0 3.677,-0.823 4.406,-2.468l0,-12.297l2.891,0l0,16.906l-2.75,0l-0.063,-1.672Z" style="fill:#fff;fill-rule:nonzero;"/><path d="M934.297,195.094l0.078,1.875c1.24,-1.459 2.911,-2.188 5.016,-2.188c2.364,0 3.974,0.906 4.828,2.719c0.562,-0.813 1.294,-1.469 2.195,-1.969c0.901,-0.5 1.966,-0.75 3.195,-0.75c3.709,0 5.594,1.964 5.657,5.891l0,11.328l-2.891,0l0,-11.156c0,-1.209 -0.276,-2.112 -0.828,-2.711c-0.552,-0.599 -1.479,-0.899 -2.781,-0.899c-1.073,0 -1.964,0.321 -2.672,0.961c-0.709,0.641 -1.12,1.503 -1.235,2.586l0,11.219l-2.906,0l0,-11.078c0,-2.458 -1.203,-3.688 -3.609,-3.688c-1.896,0 -3.193,0.808 -3.891,2.422l0,12.344l-2.89,0l0,-16.906l2.734,0Z" style="fill:#fff;fill-rule:nonzero;"/><path d="M962.359,195.094l0.094,2.125c1.292,-1.625 2.979,-2.438 5.063,-2.438c3.573,0 5.375,2.016 5.406,6.047l0,11.172l-2.891,0l0,-11.188c-0.01,-1.218 -0.289,-2.119 -0.836,-2.703c-0.547,-0.583 -1.398,-0.875 -2.554,-0.875c-0.938,0 -1.761,0.25 -2.469,0.75c-0.708,0.5 -1.261,1.157 -1.656,1.969l0,12.047l-2.891,0l0,-16.906l2.734,0Z" style="fill:#fff;fill-rule:nonzero;"/></g><g><path d="M800,340c0,-11.038 -8.962,-20 -20,-20l-160,0c-11.038,0 -20,8.962 -20,20l0,40c0,11.038 8.962,20 20,20l160,0c11.038,0 20,-8.962 20,-20l0,-40Z" style="fill:#27c278;"/><path d="M629.906,362.797l-5.344,0l0,9.203l-3.015,0l0,-22.75l7.531,0c2.563,0 4.534,0.583 5.914,1.75c1.38,1.167 2.071,2.865 2.071,5.094c0,1.416 -0.383,2.651 -1.149,3.703c-0.766,1.052 -1.831,1.838 -3.195,2.359l5.344,9.656l0,0.188l-3.219,0l-4.938,-9.203Zm-5.343,-2.453l4.609,0c1.489,0 2.674,-0.386 3.555,-1.157c0.88,-0.77 1.32,-1.802 1.32,-3.093c0,-1.407 -0.419,-2.485 -1.258,-3.235c-0.838,-0.75 -2.049,-1.13 -3.633,-1.14l-4.593,0l0,8.625Z" style="fill:#fff;fill-rule:nonzero;"/><path d="M651.25,370.328c-1.125,1.323 -2.776,1.984 -4.953,1.984c-1.802,0 -3.175,-0.523 -4.117,-1.57c-0.943,-1.047 -1.42,-2.596 -1.43,-4.648l0,-11l2.891,0l0,10.922c0,2.562 1.041,3.843 3.125,3.843c2.208,0 3.677,-0.823 4.406,-2.468l0,-12.297l2.89,0l0,16.906l-2.75,0l-0.062,-1.672Z" style="fill:#fff;fill-rule:nonzero;"/><rect x="658.703" y="348" width="2.891" height="24" style="fill:#fff;fill-rule:nonzero;"/><path d="M673.234,372.312c-2.291,0 -4.156,-0.752 -5.593,-2.257c-1.438,-1.506 -2.157,-3.519 -2.157,-6.039l0,-0.532c0,-1.677 0.321,-3.174 0.961,-4.492c0.641,-1.318 1.537,-2.349 2.688,-3.094c1.151,-0.744 2.398,-1.117 3.742,-1.117c2.198,0 3.906,0.724 5.125,2.172c1.219,1.448 1.828,3.521 1.828,6.219l0,1.203l-11.453,0c0.042,1.667 0.529,3.013 1.461,4.039c0.932,1.026 2.117,1.539 3.555,1.539c1.02,0 1.885,-0.208 2.593,-0.625c0.709,-0.417 1.329,-0.969 1.86,-1.656l1.765,1.375c-1.416,2.177 -3.541,3.265 -6.375,3.265Zm-0.359,-15.156c-1.167,0 -2.146,0.425 -2.937,1.274c-0.792,0.849 -1.282,2.039 -1.469,3.57l8.469,0l0,-0.219c-0.084,-1.469 -0.48,-2.607 -1.188,-3.414c-0.708,-0.807 -1.667,-1.211 -2.875,-1.211Z" style="fill:#fff;fill-rule:nonzero;"/><path d="M687.078,359.219l2.172,0c1.365,-0.021 2.438,-0.38 3.219,-1.078c0.781,-0.698 1.172,-1.641 1.172,-2.829c0,-2.666 -1.329,-4 -3.985,-4c-1.25,0 -2.247,0.357 -2.992,1.071c-0.745,0.713 -1.117,1.659 -1.117,2.836l-2.891,0c0,-1.802 0.659,-3.3 1.977,-4.492c1.318,-1.193 2.992,-1.79 5.023,-1.79c2.146,0 3.828,0.568 5.047,1.704c1.219,1.135 1.828,2.713 1.828,4.734c0,0.99 -0.32,1.948 -0.961,2.875c-0.64,0.927 -1.513,1.62 -2.617,2.078c1.25,0.396 2.216,1.052 2.899,1.969c0.682,0.917 1.023,2.036 1.023,3.359c0,2.042 -0.667,3.662 -2,4.86c-1.333,1.198 -3.068,1.796 -5.203,1.796c-2.136,0 -3.873,-0.578 -5.211,-1.734c-1.339,-1.156 -2.008,-2.682 -2.008,-4.578l2.906,0c0,1.198 0.391,2.156 1.172,2.875c0.781,0.719 1.828,1.078 3.141,1.078c1.396,0 2.463,-0.364 3.203,-1.094c0.74,-0.729 1.109,-1.776 1.109,-3.14c0,-1.323 -0.406,-2.339 -1.218,-3.047c-0.813,-0.708 -1.985,-1.073 -3.516,-1.094l-2.172,0l0,-2.359Z" style="fill:#fff;fill-rule:nonzero;"/><path d="M713.047,364.359l3.156,0l0,2.36l-3.156,0l0,5.281l-2.906,0l0,-5.281l-10.36,0l0,-1.703l10.188,-15.766l3.078,0l0,15.109Zm-9.985,0l7.079,0l0,-11.156l-0.344,0.625l-6.734,10.531Z" style="fill:#fff;fill-rule:nonzero;"/><rect x="719.781" y="349.25" width="3" height="22.75" style="fill:#fff;fill-rule:nonzero;"/><path d="M731.734,351l0,4.094l3.157,0l0,2.234l-3.157,0l0,10.484c0,0.678 0.141,1.185 0.422,1.524c0.281,0.338 0.761,0.508 1.438,0.508c0.333,0 0.791,-0.063 1.375,-0.188l0,2.344c-0.761,0.208 -1.5,0.312 -2.219,0.312c-1.292,0 -2.266,-0.39 -2.922,-1.171c-0.656,-0.782 -0.984,-1.891 -0.984,-3.329l0,-10.484l-3.078,0l0,-2.234l3.078,0l0,-4.094l2.89,0Z" style="fill:#fff;fill-rule:nonzero;"/><path d="M745.281,372.312c-2.291,0 -4.156,-0.752 -5.594,-2.257c-1.437,-1.506 -2.156,-3.519 -2.156,-6.039l0,-0.532c0,-1.677 0.321,-3.174 0.961,-4.492c0.641,-1.318 1.537,-2.349 2.688,-3.094c1.151,-0.744 2.398,-1.117 3.742,-1.117c2.198,0 3.906,0.724 5.125,2.172c1.219,1.448 1.828,3.521 1.828,6.219l0,1.203l-11.453,0c0.042,1.667 0.529,3.013 1.461,4.039c0.932,1.026 2.117,1.539 3.554,1.539c1.021,0 1.886,-0.208 2.594,-0.625c0.709,-0.417 1.328,-0.969 1.86,-1.656l1.765,1.375c-1.416,2.177 -3.541,3.265 -6.375,3.265Zm-0.359,-15.156c-1.167,0 -2.146,0.425 -2.938,1.274c-0.791,0.849 -1.281,2.039 -1.468,3.57l8.468,0l0,-0.219c-0.083,-1.469 -0.479,-2.607 -1.187,-3.414c-0.708,-0.807 -1.667,-1.211 -2.875,-1.211Z" style="fill:#fff;fill-rule:nonzero;"/><path d="M757.938,355.094l0.078,1.875c1.239,-1.459 2.911,-2.188 5.015,-2.188c2.365,0 3.974,0.906 4.828,2.719c0.563,-0.813 1.295,-1.469 2.196,-1.969c0.901,-0.5 1.966,-0.75 3.195,-0.75c3.708,0 5.594,1.964 5.656,5.891l0,11.328l-2.89,0l0,-11.156c0,-1.209 -0.276,-2.112 -0.828,-2.711c-0.553,-0.599 -1.48,-0.899 -2.782,-0.899c-1.073,0 -1.963,0.321 -2.672,0.961c-0.708,0.641 -1.119,1.503 -1.234,2.586l0,11.219l-2.906,0l0,-11.078c0,-2.458 -1.203,-3.688 -3.61,-3.688c-1.895,0 -3.192,0.808 -3.89,2.422l0,12.344l-2.891,0l0,-16.906l2.735,0Z" style="fill:#fff;fill-rule:nonzero;"/></g><g><path d="M1020,340c0,-11.038 -8.962,-20 -20,-20l-160,0c-11.038,0 -20,8.962 -20,20l0,40c0,11.038 8.962,20 20,20l160,0c11.038,0 20,-8.962 20,-20l0,-40Z" style="fill:#fff;"/><path d="M1000.13,320l0.129,0.002l0.129,0.002l0.129,0.003l0.128,0.003l0.129,0.005l0.128,0.005l0.128,0.006l0.127,0.007l0.128,0.008l0.127,0.008l0.127,0.009l0.127,0.01l0.126,0.011l0.127,0.012l0.126,0.012l0.126,0.014l0.125,0.014l0.126,0.014l0.125,0.016l0.125,0.016l0.124,0.017l0.125,0.018l0.124,0.019l0.124,0.019l0.124,0.02l0.123,0.021l0.123,0.022l0.123,0.022l0.123,0.023l0.122,0.024l0.123,0.025l0.121,0.025l0.122,0.026l0.121,0.027l0.121,0.028l0.121,0.028l0.121,0.029l0.12,0.03l0.12,0.03l0.119,0.031l0.12,0.032l0.119,0.033l0.119,0.033l0.118,0.034l0.118,0.035l0.118,0.036l0.118,0.036l0.117,0.037l0.117,0.037l0.116,0.039l0.117,0.039l0.116,0.039l0.115,0.041l0.116,0.041l0.115,0.041l0.114,0.043l0.115,0.043l0.114,0.044l0.113,0.044l0.227,0.091l0.225,0.094l0.223,0.096l0.223,0.099l0.22,0.101l0.22,0.104l0.217,0.107l0.217,0.109l0.215,0.112l0.213,0.114l0.212,0.117l0.21,0.119l0.208,0.122l0.207,0.124l0.206,0.127l0.204,0.129l0.202,0.131l0.2,0.134l0.199,0.136l0.197,0.138l0.195,0.141l0.193,0.142l0.192,0.146l0.19,0.147l0.188,0.15l0.186,0.151l0.184,0.154l0.183,0.157l0.18,0.158l0.179,0.16l0.176,0.163l0.175,0.164l0.173,0.167l0.17,0.169l0.169,0.17l0.167,0.173l0.164,0.175l0.163,0.176l0.16,0.179l0.158,0.18l0.157,0.183l0.154,0.184l0.151,0.186l0.15,0.188l0.147,0.19l0.146,0.192l0.142,0.193l0.141,0.195l0.138,0.197l0.136,0.199l0.134,0.2l0.131,0.202l0.129,0.204l0.127,0.206l0.124,0.207l0.122,0.208l0.119,0.21l0.117,0.212l0.114,0.213l0.112,0.215l0.109,0.217l0.107,0.217l0.104,0.22l0.101,0.22l0.099,0.223l0.096,0.223l0.094,0.225l0.091,0.227l0.044,0.113l0.044,0.114l0.043,0.115l0.043,0.114l0.041,0.115l0.041,0.116l0.041,0.115l0.039,0.116l0.039,0.117l0.039,0.116l0.037,0.117l0.037,0.117l0.036,0.118l0.036,0.118l0.035,0.118l0.034,0.118l0.033,0.119l0.033,0.119l0.032,0.12l0.031,0.119l0.03,0.12l0.03,0.12l0.029,0.121l0.028,0.121l0.028,0.121l0.027,0.121l0.026,0.122l0.025,0.121l0.025,0.123l0.024,0.122l0.023,0.123l0.022,0.123l0.022,0.123l0.021,0.123l0.02,0.124l0.019,0.124l0.019,0.124l0.018,0.125l0.017,0.124l0.016,0.125l0.016,0.125l0.014,0.126l0.014,0.125l0.014,0.126l0.012,0.126l0.012,0.127l0.011,0.126l0.01,0.127l0.009,0.127l0.008,0.127l0.008,0.128l0.007,0.127l0.006,0.128l0.005,0.128l0.005,0.129l0.003,0.128l0.003,0.129l0.002,0.129l0.002,0.129l0,0.129l0,40l0,0.129l-0.002,0.129l-0.002,0.129l-0.003,0.129l-0.003,0.128l-0.005,0.129l-0.005,0.128l-0.006,0.128l-0.007,0.127l-0.008,0.128l-0.008,0.127l-0.009,0.127l-0.01,0.127l-0.011,0.126l-0.012,0.127l-0.012,0.126l-0.014,0.126l-0.014,0.125l-0.014,0.126l-0.016,0.125l-0.016,0.125l-0.017,0.124l-0.018,0.125l-0.019,0.124l-0.019,0.124l-0.02,0.124l-0.021,0.123l-0.022,0.123l-0.022,0.123l-0.023,0.123l-0.024,0.122l-0.025,0.123l-0.025,0.121l-0.026,0.122l-0.027,0.121l-0.028,0.121l-0.028,0.121l-0.029,0.121l-0.03,0.12l-0.03,0.12l-0.031,0.119l-0.032,0.12l-0.033,0.119l-0.033,0.119l-0.034,0.118l-0.035,0.118l-0.036,0.118l-0.036,0.118l-0.037,0.117l-0.037,0.117l-0.039,0.116l-0.039,0.117l-0.039,0.116l-0.041,0.115l-0.041,0.116l-0.041,0.115l-0.043,0.114l-0.043,0.115l-0.044,0.114l-0.044,0.113l-0.091,0.227l-0.094,0.225l-0.096,0.223l-0.099,0.223l-0.101,0.22l-0.104,0.22l-0.107,0.217l-0.109,0.217l-0.112,0.215l-0.114,0.213l-0.117,0.212l-0.119,0.21l-0.122,0.208l-0.124,0.207l-0.127,0.206l-0.129,0.204l-0.131,0.202l-0.134,0.2l-0.136,0.199l-0.138,0.197l-0.141,0.195l-0.142,0.193l-0.146,0.192l-0.147,0.19l-0.15,0.188l-0.151,0.186l-0.154,0.184l-0.157,0.183l-0.158,0.18l-0.16,0.179l-0.163,0.176l-0.164,0.175l-0.167,0.173l-0.169,0.17l-0.17,0.169l-0.173,0.167l-0.175,0.164l-0.176,0.163l-0.179,0.16l-0.18,0.158l-0.183,0.157l-0.184,0.154l-0.186,0.151l-0.188,0.15l-0.19,0.147l-0.192,0.146l-0.193,0.142l-0.195,0.141l-0.197,0.138l-0.199,0.136l-0.2,0.134l-0.202,0.131l-0.204,0.129l-0.206,0.127l-0.207,0.124l-0.208,0.122l-0.21,0.119l-0.212,0.117l-0.213,0.114l-0.215,0.112l-0.217,0.109l-0.217,0.107l-0.22,0.104l-0.22,0.101l-0.223,0.099l-0.223,0.096l-0.225,0.094l-0.227,0.091l-0.113,0.044l-0.114,0.044l-0.115,0.043l-0.114,0.043l-0.115,0.041l-0.116,0.041l-0.115,0.041l-0.116,0.039l-0.117,0.039l-0.116,0.039l-0.117,0.037l-0.117,0.037l-0.118,0.036l-0.118,0.036l-0.118,0.035l-0.118,0.034l-0.119,0.033l-0.119,0.033l-0.12,0.032l-0.119,0.031l-0.12,0.03l-0.12,0.03l-0.121,0.029l-0.121,0.028l-0.121,0.028l-0.121,0.027l-0.122,0.026l-0.121,0.025l-0.123,0.025l-0.122,0.024l-0.123,0.023l-0.123,0.022l-0.123,0.022l-0.123,0.021l-0.124,0.02l-0.124,0.019l-0.124,0.019l-0.125,0.018l-0.124,0.017l-0.125,0.016l-0.125,0.016l-0.126,0.014l-0.125,0.014l-0.126,0.014l-0.126,0.012l-0.127,0.012l-0.126,0.011l-0.127,0.01l-0.127,0.009l-0.127,0.008l-0.128,0.008l-0.127,0.007l-0.128,0.006l-0.128,0.005l-0.129,0.005l-0.128,0.003l-0.129,0.003l-0.129,0.002l-0.129,0.002l-0.129,0l-160,0l-0.129,0l-0.129,-0.002l-0.129,-0.002l-0.129,-0.003l-0.128,-0.003l-0.129,-0.005l-0.128,-0.005l-0.128,-0.006l-0.127,-0.007l-0.128,-0.008l-0.127,-0.008l-0.127,-0.009l-0.127,-0.01l-0.126,-0.011l-0.127,-0.012l-0.126,-0.012l-0.126,-0.014l-0.125,-0.014l-0.126,-0.014l-0.125,-0.016l-0.125,-0.016l-0.124,-0.017l-0.125,-0.018l-0.124,-0.019l-0.124,-0.019l-0.124,-0.02l-0.123,-0.021l-0.123,-0.022l-0.123,-0.022l-0.123,-0.023l-0.122,-0.024l-0.123,-0.025l-0.121,-0.025l-0.122,-0.026l-0.121,-0.027l-0.121,-0.028l-0.121,-0.028l-0.121,-0.029l-0.12,-0.03l-0.12,-0.03l-0.119,-0.031l-0.12,-0.032l-0.119,-0.033l-0.119,-0.033l-0.118,-0.034l-0.118,-0.035l-0.118,-0.036l-0.118,-0.036l-0.117,-0.037l-0.117,-0.037l-0.116,-0.039l-0.117,-0.039l-0.116,-0.039l-0.115,-0.041l-0.116,-0.041l-0.115,-0.041l-0.114,-0.043l-0.115,-0.043l-0.114,-0.044l-0.113,-0.044l-0.227,-0.091l-0.225,-0.094l-0.223,-0.096l-0.223,-0.099l-0.22,-0.101l-0.22,-0.104l-0.217,-0.107l-0.217,-0.109l-0.215,-0.112l-0.213,-0.114l-0.212,-0.117l-0.21,-0.119l-0.208,-0.122l-0.207,-0.124l-0.206,-0.127l-0.204,-0.129l-0.202,-0.131l-0.2,-0.134l-0.199,-0.136l-0.197,-0.138l-0.195,-0.141l-0.193,-0.142l-0.192,-0.146l-0.19,-0.147l-0.188,-0.15l-0.186,-0.151l-0.184,-0.154l-0.183,-0.157l-0.18,-0.158l-0.179,-0.16l-0.176,-0.163l-0.175,-0.164l-0.173,-0.167l-0.17,-0.169l-0.169,-0.17l-0.167,-0.173l-0.164,-0.175l-0.163,-0.176l-0.16,-0.179l-0.158,-0.18l-0.157,-0.183l-0.154,-0.184l-0.151,-0.186l-0.15,-0.188l-0.147,-0.19l-0.146,-0.192l-0.142,-0.193l-0.141,-0.195l-0.138,-0.197l-0.136,-0.199l-0.134,-0.2l-0.131,-0.202l-0.129,-0.204l-0.127,-0.206l-0.124,-0.207l-0.122,-0.208l-0.119,-0.21l-0.117,-0.212l-0.114,-0.213l-0.112,-0.215l-0.109,-0.217l-0.107,-0.217l-0.104,-0.22l-0.101,-0.22l-0.099,-0.223l-0.096,-0.223l-0.094,-0.225l-0.091,-0.227l-0.044,-0.113l-0.044,-0.114l-0.043,-0.115l-0.043,-0.114l-0.041,-0.115l-0.041,-0.116l-0.041,-0.115l-0.039,-0.116l-0.039,-0.117l-0.039,-0.116l-0.037,-0.117l-0.037,-0.117l-0.036,-0.118l-0.036,-0.118l-0.035,-0.118l-0.034,-0.118l-0.033,-0.119l-0.033,-0.119l-0.032,-0.12l-0.031,-0.119l-0.03,-0.12l-0.03,-0.12l-0.029,-0.121l-0.028,-0.121l-0.028,-0.121l-0.027,-0.121l-0.026,-0.122l-0.025,-0.121l-0.025,-0.123l-0.024,-0.122l-0.023,-0.123l-0.022,-0.123l-0.022,-0.123l-0.021,-0.123l-0.02,-0.124l-0.019,-0.124l-0.019,-0.124l-0.018,-0.125l-0.017,-0.124l-0.016,-0.125l-0.016,-0.125l-0.014,-0.126l-0.014,-0.125l-0.014,-0.126l-0.012,-0.126l-0.012,-0.127l-0.011,-0.126l-0.01,-0.127l-0.009,-0.127l-0.008,-0.127l-0.008,-0.128l-0.007,-0.127l-0.006,-0.128l-0.005,-0.128l-0.005,-0.129l-0.003,-0.128l-0.003,-0.129l-0.002,-0.129l-0.002,-0.129l0,-0.129l0,-40l0,-0.129l0.002,-0.129l0.002,-0.129l0.003,-0.129l0.003,-0.128l0.005,-0.129l0.005,-0.128l0.006,-0.128l0.007,-0.127l0.008,-0.128l0.008,-0.127l0.009,-0.127l0.01,-0.127l0.011,-0.126l0.012,-0.127l0.012,-0.126l0.014,-0.126l0.014,-0.125l0.014,-0.126l0.016,-0.125l0.016,-0.125l0.017,-0.124l0.018,-0.125l0.019,-0.124l0.019,-0.124l0.02,-0.124l0.021,-0.123l0.022,-0.123l0.022,-0.123l0.023,-0.123l0.024,-0.122l0.025,-0.123l0.025,-0.121l0.026,-0.122l0.027,-0.121l0.028,-0.121l0.028,-0.121l0.029,-0.121l0.03,-0.12l0.03,-0.12l0.031,-0.119l0.032,-0.12l0.033,-0.119l0.033,-0.119l0.034,-0.118l0.035,-0.118l0.036,-0.118l0.036,-0.118l0.037,-0.117l0.037,-0.117l0.039,-0.116l0.039,-0.117l0.039,-0.116l0.041,-0.115l0.041,-0.116l0.041,-0.115l0.043,-0.114l0.043,-0.115l0.044,-0.114l0.044,-0.113l0.091,-0.227l0.094,-0.225l0.096,-0.223l0.099,-0.223l0.101,-0.22l0.104,-0.22l0.107,-0.217l0.109,-0.217l0.112,-0.215l0.114,-0.213l0.117,-0.212l0.119,-0.21l0.122,-0.208l0.124,-0.207l0.127,-0.206l0.129,-0.204l0.131,-0.202l0.134,-0.2l0.136,-0.199l0.138,-0.197l0.141,-0.195l0.142,-0.193l0.146,-0.192l0.147,-0.19l0.15,-0.188l0.151,-0.186l0.154,-0.184l0.157,-0.183l0.158,-0.18l0.16,-0.179l0.163,-0.176l0.164,-0.175l0.167,-0.173l0.169,-0.17l0.17,-0.169l0.173,-0.167l0.175,-0.164l0.176,-0.163l0.179,-0.16l0.18,-0.158l0.183,-0.157l0.184,-0.154l0.186,-0.151l0.188,-0.15l0.19,-0.147l0.192,-0.146l0.193,-0.142l0.195,-0.141l0.197,-0.138l0.199,-0.136l0.2,-0.134l0.202,-0.131l0.204,-0.129l0.206,-0.127l0.207,-0.124l0.208,-0.122l0.21,-0.119l0.212,-0.117l0.213,-0.114l0.215,-0.112l0.217,-0.109l0.217,-0.107l0.22,-0.104l0.22,-0.101l0.223,-0.099l0.223,-0.096l0.225,-0.094l0.227,-0.091l0.113,-0.044l0.114,-0.044l0.115,-0.043l0.114,-0.043l0.115,-0.041l0.116,-0.041l0.115,-0.041l0.116,-0.039l0.117,-0.039l0.116,-0.039l0.117,-0.037l0.117,-0.037l0.118,-0.036l0.118,-0.036l0.118,-0.035l0.118,-0.034l0.119,-0.033l0.119,-0.033l0.12,-0.032l0.119,-0.031l0.12,-0.03l0.12,-0.03l0.121,-0.029l0.121,-0.028l0.121,-0.028l0.121,-0.027l0.122,-0.026l0.121,-0.025l0.123,-0.025l0.122,-0.024l0.123,-0.023l0.123,-0.022l0.123,-0.022l0.123,-0.021l0.124,-0.02l0.124,-0.019l0.124,-0.019l0.125,-0.018l0.124,-0.017l0.125,-0.016l0.125,-0.016l0.126,-0.014l0.125,-0.014l0.126,-0.014l0.126,-0.012l0.127,-0.012l0.126,-0.011l0.127,-0.01l0.127,-0.009l0.127,-0.008l0.128,-0.008l0.127,-0.007l0.128,-0.006l0.128,-0.005l0.129,-0.005l0.128,-0.003l0.129,-0.003l0.129,-0.002l0.129,-0.002l0.129,0l160,0l0.129,0Zm-160.123,4l-0.11,0l-0.104,0.001l-0.103,0.002l-0.103,0.002l-0.104,0.003l-0.102,0.004l-0.103,0.004l-0.103,0.005l-0.102,0.005l-0.102,0.007l-0.102,0.006l-0.102,0.008l-0.102,0.008l-0.101,0.009l-0.101,0.009l-0.101,0.01l-0.101,0.01l-0.101,0.012l-0.099,0.011l-0.101,0.013l-0.1,0.013l-0.1,0.014l-0.099,0.014l-0.099,0.015l-0.1,0.015l-0.098,0.016l-0.099,0.017l-0.098,0.017l-0.098,0.018l-0.098,0.019l-0.098,0.019l-0.098,0.019l-0.097,0.021l-0.097,0.02l-0.097,0.022l-0.097,0.022l-0.096,0.022l-0.096,0.024l-0.097,0.023l-0.095,0.025l-0.096,0.025l-0.095,0.025l-0.095,0.026l-0.095,0.027l-0.094,0.027l-0.095,0.028l-0.094,0.028l-0.093,0.029l-0.094,0.029l-0.094,0.031l-0.093,0.03l-0.093,0.031l-0.092,0.032l-0.092,0.032l-0.092,0.033l-0.092,0.033l-0.092,0.034l-0.092,0.035l-0.091,0.035l-0.084,0.033l-0.187,0.075l-0.18,0.074l-0.178,0.077l-0.178,0.079l-0.176,0.081l-0.176,0.084l-0.174,0.085l-0.172,0.087l-0.172,0.089l-0.17,0.092l-0.17,0.093l-0.168,0.096l-0.167,0.097l-0.166,0.099l-0.164,0.102l-0.163,0.103l-0.161,0.105l-0.161,0.107l-0.159,0.109l-0.158,0.11l-0.156,0.113l-0.155,0.115l-0.154,0.116l-0.152,0.118l-0.15,0.12l-0.149,0.121l-0.148,0.124l-0.146,0.125l-0.145,0.127l-0.143,0.128l-0.142,0.13l-0.14,0.132l-0.138,0.134l-0.137,0.135l-0.135,0.137l-0.134,0.139l-0.132,0.139l-0.13,0.142l-0.128,0.143l-0.127,0.144l-0.125,0.147l-0.124,0.148l-0.122,0.149l-0.119,0.15l-0.118,0.152l-0.117,0.154l-0.114,0.155l-0.112,0.156l-0.111,0.158l-0.109,0.159l-0.107,0.16l-0.105,0.162l-0.103,0.163l-0.102,0.165l-0.099,0.165l-0.097,0.167l-0.096,0.168l-0.093,0.169l-0.091,0.171l-0.09,0.171l-0.087,0.173l-0.085,0.175l-0.084,0.175l-0.081,0.176l-0.079,0.178l-0.076,0.178l-0.075,0.18l-0.075,0.187l-0.034,0.085l-0.034,0.091l-0.035,0.09l-0.034,0.093l-0.033,0.092l-0.033,0.091l-0.032,0.093l-0.032,0.093l-0.031,0.092l-0.03,0.093l-0.031,0.094l-0.029,0.094l-0.029,0.093l-0.028,0.094l-0.028,0.095l-0.027,0.095l-0.027,0.093l-0.026,0.095l-0.026,0.097l-0.024,0.095l-0.025,0.095l-0.023,0.096l-0.024,0.097l-0.022,0.097l-0.022,0.095l-0.021,0.097l-0.021,0.098l-0.021,0.097l-0.019,0.098l-0.02,0.098l-0.018,0.098l-0.018,0.097l-0.017,0.099l-0.017,0.099l-0.016,0.098l-0.015,0.1l-0.015,0.099l-0.014,0.1l-0.014,0.1l-0.013,0.099l-0.012,0.1l-0.012,0.101l-0.012,0.1l-0.01,0.101l-0.01,0.101l-0.009,0.101l-0.009,0.102l-0.008,0.102l-0.008,0.101l-0.006,0.101l-0.007,0.104l-0.005,0.102l-0.005,0.101l-0.004,0.102l-0.004,0.104l-0.003,0.104l-0.002,0.103l-0.002,0.104l-0.001,0.103l0,0.11l0,39.988l0,0.11l0.001,0.103l0.002,0.104l0.002,0.103l0.003,0.104l0.004,0.104l0.004,0.102l0.005,0.101l0.005,0.102l0.007,0.104l0.006,0.101l0.008,0.101l0.008,0.102l0.009,0.102l0.009,0.101l0.01,0.101l0.01,0.101l0.012,0.1l0.012,0.101l0.012,0.1l0.013,0.099l0.014,0.1l0.014,0.1l0.015,0.099l0.015,0.1l0.016,0.098l0.017,0.099l0.017,0.099l0.018,0.097l0.018,0.098l0.02,0.098l0.019,0.098l0.021,0.097l0.021,0.098l0.021,0.097l0.022,0.095l0.022,0.097l0.024,0.097l0.023,0.096l0.025,0.095l0.024,0.095l0.026,0.097l0.026,0.095l0.027,0.093l0.027,0.095l0.028,0.095l0.028,0.094l0.029,0.093l0.029,0.094l0.031,0.094l0.03,0.093l0.031,0.092l0.032,0.093l0.032,0.093l0.033,0.091l0.033,0.092l0.034,0.093l0.035,0.09l0.034,0.091l0.034,0.085l0.075,0.187l0.075,0.18l0.076,0.178l0.079,0.178l0.081,0.176l0.084,0.175l0.085,0.175l0.087,0.173l0.09,0.171l0.091,0.171l0.093,0.169l0.096,0.168l0.097,0.167l0.099,0.165l0.102,0.165l0.103,0.163l0.105,0.162l0.107,0.16l0.109,0.159l0.111,0.158l0.112,0.156l0.114,0.155l0.117,0.154l0.118,0.152l0.119,0.15l0.122,0.149l0.124,0.148l0.125,0.147l0.127,0.144l0.128,0.143l0.13,0.141l0.132,0.141l0.134,0.138l0.135,0.137l0.137,0.135l0.138,0.133l0.14,0.133l0.142,0.13l0.143,0.128l0.145,0.127l0.146,0.125l0.148,0.124l0.149,0.121l0.15,0.12l0.152,0.118l0.154,0.116l0.155,0.115l0.156,0.113l0.158,0.11l0.159,0.109l0.16,0.107l0.162,0.105l0.163,0.103l0.164,0.102l0.166,0.099l0.167,0.097l0.168,0.096l0.169,0.093l0.171,0.091l0.172,0.09l0.172,0.087l0.175,0.085l0.175,0.084l0.176,0.081l0.178,0.079l0.178,0.076l0.18,0.075l0.187,0.075l0.084,0.033l0.092,0.035l0.091,0.035l0.091,0.034l0.092,0.033l0.093,0.033l0.092,0.032l0.092,0.032l0.093,0.031l0.094,0.031l0.092,0.029l0.094,0.03l0.094,0.029l0.094,0.028l0.095,0.028l0.094,0.027l0.095,0.027l0.095,0.026l0.095,0.025l0.096,0.025l0.096,0.025l0.095,0.023l0.097,0.024l0.096,0.022l0.097,0.022l0.097,0.022l0.097,0.02l0.097,0.021l0.098,0.019l0.097,0.019l0.099,0.019l0.098,0.018l0.098,0.017l0.098,0.017l0.1,0.016l0.099,0.015l0.099,0.015l0.1,0.015l0.099,0.013l0.1,0.013l0.101,0.013l0.1,0.011l0.1,0.012l0.101,0.01l0.1,0.01l0.102,0.009l0.102,0.009l0.101,0.008l0.102,0.008l0.102,0.006l0.102,0.007l0.102,0.005l0.103,0.005l0.103,0.004l0.103,0.004l0.103,0.003l0.103,0.002l0.104,0.002l0.103,0.001l0.11,0l159.988,0l0.11,0l0.103,-0.001l0.104,-0.002l0.103,-0.002l0.103,-0.003l0.103,-0.004l0.103,-0.004l0.103,-0.005l0.102,-0.005l0.102,-0.007l0.102,-0.006l0.102,-0.008l0.101,-0.008l0.102,-0.009l0.102,-0.009l0.1,-0.01l0.101,-0.01l0.1,-0.012l0.1,-0.011l0.101,-0.013l0.1,-0.013l0.099,-0.013l0.1,-0.015l0.099,-0.015l0.099,-0.015l0.1,-0.016l0.098,-0.017l0.098,-0.017l0.098,-0.018l0.099,-0.019l0.097,-0.019l0.098,-0.019l0.097,-0.021l0.097,-0.02l0.097,-0.022l0.097,-0.022l0.096,-0.022l0.097,-0.024l0.095,-0.023l0.096,-0.025l0.096,-0.025l0.095,-0.025l0.095,-0.026l0.095,-0.027l0.094,-0.027l0.095,-0.028l0.094,-0.028l0.094,-0.029l0.094,-0.03l0.092,-0.029l0.094,-0.031l0.093,-0.031l0.092,-0.032l0.092,-0.032l0.093,-0.033l0.092,-0.033l0.091,-0.034l0.091,-0.035l0.092,-0.035l0.084,-0.033l0.187,-0.075l0.18,-0.075l0.178,-0.076l0.178,-0.079l0.176,-0.081l0.175,-0.084l0.175,-0.085l0.172,-0.087l0.172,-0.09l0.171,-0.091l0.169,-0.093l0.168,-0.096l0.167,-0.097l0.166,-0.099l0.164,-0.102l0.163,-0.103l0.162,-0.105l0.16,-0.107l0.159,-0.109l0.158,-0.11l0.156,-0.113l0.155,-0.115l0.154,-0.116l0.152,-0.118l0.15,-0.12l0.149,-0.121l0.148,-0.124l0.146,-0.125l0.145,-0.127l0.143,-0.128l0.142,-0.13l0.14,-0.133l0.138,-0.133l0.137,-0.135l0.135,-0.137l0.134,-0.138l0.132,-0.141l0.13,-0.141l0.128,-0.143l0.127,-0.144l0.125,-0.147l0.124,-0.148l0.122,-0.149l0.119,-0.15l0.118,-0.152l0.117,-0.154l0.114,-0.155l0.112,-0.156l0.111,-0.158l0.109,-0.159l0.107,-0.16l0.105,-0.162l0.103,-0.163l0.102,-0.165l0.099,-0.165l0.097,-0.167l0.096,-0.168l0.093,-0.169l0.091,-0.171l0.09,-0.171l0.087,-0.173l0.085,-0.175l0.084,-0.175l0.081,-0.176l0.079,-0.178l0.076,-0.178l0.075,-0.18l0.075,-0.187l0.034,-0.085l0.034,-0.091l0.035,-0.09l0.034,-0.093l0.033,-0.092l0.033,-0.091l0.032,-0.093l0.032,-0.093l0.031,-0.092l0.03,-0.093l0.031,-0.094l0.029,-0.094l0.029,-0.093l0.028,-0.094l0.028,-0.095l0.027,-0.095l0.027,-0.093l0.026,-0.095l0.026,-0.097l0.024,-0.095l0.025,-0.095l0.023,-0.096l0.024,-0.097l0.022,-0.097l0.022,-0.095l0.021,-0.097l0.021,-0.098l0.021,-0.097l0.019,-0.098l0.02,-0.098l0.018,-0.098l0.018,-0.097l0.017,-0.099l0.017,-0.099l0.016,-0.098l0.015,-0.1l0.015,-0.099l0.014,-0.1l0.014,-0.1l0.013,-0.099l0.012,-0.1l0.012,-0.101l0.012,-0.1l0.01,-0.101l0.01,-0.101l0.009,-0.101l0.009,-0.102l0.008,-0.102l0.008,-0.101l0.006,-0.101l0.007,-0.104l0.005,-0.102l0.005,-0.101l0.004,-0.102l0.004,-0.104l0.003,-0.104l0.002,-0.103l0.002,-0.104l0.001,-0.103l0,-0.11l0,-39.988l0,-0.11l-0.001,-0.103l-0.002,-0.104l-0.002,-0.103l-0.003,-0.104l-0.004,-0.104l-0.004,-0.102l-0.005,-0.101l-0.005,-0.102l-0.007,-0.104l-0.006,-0.101l-0.008,-0.101l-0.008,-0.102l-0.009,-0.102l-0.009,-0.101l-0.01,-0.101l-0.01,-0.101l-0.012,-0.1l-0.012,-0.101l-0.012,-0.1l-0.013,-0.099l-0.014,-0.1l-0.014,-0.1l-0.015,-0.099l-0.015,-0.1l-0.016,-0.098l-0.017,-0.099l-0.017,-0.099l-0.018,-0.097l-0.018,-0.098l-0.02,-0.098l-0.019,-0.098l-0.021,-0.097l-0.021,-0.098l-0.021,-0.097l-0.022,-0.095l-0.022,-0.097l-0.024,-0.097l-0.023,-0.096l-0.025,-0.095l-0.024,-0.095l-0.026,-0.097l-0.026,-0.095l-0.027,-0.093l-0.027,-0.095l-0.028,-0.095l-0.028,-0.094l-0.029,-0.093l-0.029,-0.094l-0.031,-0.094l-0.03,-0.093l-0.031,-0.092l-0.032,-0.093l-0.032,-0.093l-0.033,-0.091l-0.033,-0.092l-0.034,-0.093l-0.035,-0.09l-0.034,-0.091l-0.034,-0.085l-0.075,-0.187l-0.075,-0.18l-0.076,-0.178l-0.079,-0.178l-0.081,-0.176l-0.084,-0.175l-0.085,-0.175l-0.087,-0.173l-0.09,-0.171l-0.091,-0.171l-0.093,-0.169l-0.096,-0.168l-0.097,-0.167l-0.099,-0.165l-0.102,-0.165l-0.103,-0.163l-0.105,-0.162l-0.107,-0.16l-0.109,-0.159l-0.111,-0.158l-0.112,-0.156l-0.114,-0.155l-0.117,-0.154l-0.118,-0.152l-0.119,-0.15l-0.122,-0.149l-0.124,-0.148l-0.125,-0.147l-0.127,-0.144l-0.128,-0.143l-0.13,-0.142l-0.132,-0.139l-0.134,-0.139l-0.135,-0.137l-0.137,-0.135l-0.138,-0.134l-0.14,-0.132l-0.142,-0.13l-0.143,-0.128l-0.145,-0.127l-0.146,-0.125l-0.148,-0.124l-0.149,-0.121l-0.15,-0.12l-0.152,-0.118l-0.154,-0.116l-0.155,-0.115l-0.156,-0.113l-0.158,-0.11l-0.159,-0.109l-0.161,-0.107l-0.161,-0.105l-0.163,-0.103l-0.164,-0.102l-0.166,-0.099l-0.167,-0.097l-0.168,-0.096l-0.17,-0.093l-0.17,-0.092l-0.172,-0.089l-0.172,-0.087l-0.174,-0.085l-0.176,-0.084l-0.176,-0.081l-0.178,-0.079l-0.178,-0.077l-0.18,-0.074l-0.187,-0.075l-0.084,-0.033l-0.091,-0.035l-0.092,-0.035l-0.092,-0.034l-0.092,-0.033l-0.092,-0.033l-0.092,-0.032l-0.092,-0.032l-0.093,-0.031l-0.093,-0.03l-0.094,-0.031l-0.094,-0.029l-0.093,-0.029l-0.094,-0.028l-0.095,-0.028l-0.094,-0.027l-0.095,-0.027l-0.095,-0.026l-0.095,-0.025l-0.096,-0.025l-0.095,-0.025l-0.097,-0.023l-0.096,-0.024l-0.096,-0.022l-0.097,-0.022l-0.097,-0.022l-0.097,-0.02l-0.097,-0.021l-0.098,-0.019l-0.098,-0.019l-0.098,-0.019l-0.098,-0.018l-0.098,-0.017l-0.099,-0.017l-0.098,-0.016l-0.1,-0.015l-0.099,-0.015l-0.099,-0.014l-0.1,-0.014l-0.1,-0.013l-0.101,-0.013l-0.099,-0.011l-0.101,-0.012l-0.101,-0.01l-0.101,-0.01l-0.101,-0.009l-0.101,-0.009l-0.102,-0.008l-0.102,-0.008l-0.102,-0.006l-0.102,-0.007l-0.102,-0.005l-0.103,-0.005l-0.103,-0.004l-0.102,-0.004l-0.104,-0.003l-0.103,-0.002l-0.103,-0.002l-0.104,-0.001l-0.11,0l-159.988,0Z" style="fill:#27c278;"/><path d="M849.906,362.797l-5.343,0l0,9.203l-3.016,0l0,-22.75l7.531,0c2.563,0 4.534,0.583 5.914,1.75c1.38,1.167 2.071,2.865 2.071,5.094c0,1.416 -0.383,2.651 -1.149,3.703c-0.766,1.052 -1.831,1.838 -3.195,2.359l5.344,9.656l0,0.188l-3.219,0l-4.938,-9.203Zm-5.343,-2.453l4.609,0c1.489,0 2.674,-0.386 3.555,-1.157c0.88,-0.77 1.32,-1.802 1.32,-3.093c0,-1.407 -0.419,-2.485 -1.258,-3.235c-0.838,-0.75 -2.049,-1.13 -3.633,-1.14l-4.593,0l0,8.625Z" style="fill:#2d2e44;fill-rule:nonzero;"/><path d="M871.25,370.328c-1.125,1.323 -2.776,1.984 -4.953,1.984c-1.802,0 -3.175,-0.523 -4.117,-1.57c-0.943,-1.047 -1.42,-2.596 -1.43,-4.648l0,-11l2.891,0l0,10.922c0,2.562 1.041,3.843 3.125,3.843c2.208,0 3.677,-0.823 4.406,-2.468l0,-12.297l2.891,0l0,16.906l-2.75,0l-0.063,-1.672Z" style="fill:#2d2e44;fill-rule:nonzero;"/><rect x="878.703" y="348" width="2.891" height="24" style="fill:#2d2e44;fill-rule:nonzero;"/><path d="M893.234,372.312c-2.291,0 -4.156,-0.752 -5.593,-2.257c-1.438,-1.506 -2.157,-3.519 -2.157,-6.039l0,-0.532c0,-1.677 0.321,-3.174 0.961,-4.492c0.641,-1.318 1.537,-2.349 2.688,-3.094c1.151,-0.744 2.398,-1.117 3.742,-1.117c2.198,0 3.906,0.724 5.125,2.172c1.219,1.448 1.828,3.521 1.828,6.219l0,1.203l-11.453,0c0.042,1.667 0.529,3.013 1.461,4.039c0.932,1.026 2.117,1.539 3.555,1.539c1.02,0 1.885,-0.208 2.593,-0.625c0.709,-0.417 1.329,-0.969 1.86,-1.656l1.765,1.375c-1.416,2.177 -3.541,3.265 -6.375,3.265Zm-0.359,-15.156c-1.167,0 -2.146,0.425 -2.937,1.274c-0.792,0.849 -1.282,2.039 -1.469,3.57l8.469,0l0,-0.219c-0.084,-1.469 -0.48,-2.607 -1.188,-3.414c-0.708,-0.807 -1.667,-1.211 -2.875,-1.211Z" style="fill:#2d2e44;fill-rule:nonzero;"/><path d="M907.078,359.219l2.172,0c1.365,-0.021 2.438,-0.38 3.219,-1.078c0.781,-0.698 1.172,-1.641 1.172,-2.829c0,-2.666 -1.328,-4 -3.985,-4c-1.25,0 -2.247,0.357 -2.992,1.071c-0.745,0.713 -1.117,1.659 -1.117,2.836l-2.891,0c0,-1.802 0.659,-3.3 1.977,-4.492c1.318,-1.193 2.992,-1.79 5.023,-1.79c2.146,0 3.828,0.568 5.047,1.704c1.219,1.135 1.828,2.713 1.828,4.734c0,0.99 -0.32,1.948 -0.961,2.875c-0.64,0.927 -1.513,1.62 -2.617,2.078c1.25,0.396 2.216,1.052 2.899,1.969c0.682,0.917 1.023,2.036 1.023,3.359c0,2.042 -0.667,3.662 -2,4.86c-1.333,1.198 -3.068,1.796 -5.203,1.796c-2.136,0 -3.873,-0.578 -5.211,-1.734c-1.339,-1.156 -2.008,-2.682 -2.008,-4.578l2.906,0c0,1.198 0.391,2.156 1.172,2.875c0.782,0.719 1.828,1.078 3.141,1.078c1.396,0 2.463,-0.364 3.203,-1.094c0.74,-0.729 1.109,-1.776 1.109,-3.14c0,-1.323 -0.406,-2.339 -1.218,-3.047c-0.813,-0.708 -1.985,-1.073 -3.516,-1.094l-2.172,0l0,-2.359Z" style="fill:#2d2e44;fill-rule:nonzero;"/><path d="M933.047,364.359l3.156,0l0,2.36l-3.156,0l0,5.281l-2.906,0l0,-5.281l-10.36,0l0,-1.703l10.188,-15.766l3.078,0l0,15.109Zm-9.984,0l7.078,0l0,-11.156l-0.344,0.625l-6.734,10.531Z" style="fill:#2d2e44;fill-rule:nonzero;"/><rect x="939.781" y="349.25" width="3" height="22.75" style="fill:#2d2e44;fill-rule:nonzero;"/><path d="M951.734,351l0,4.094l3.157,0l0,2.234l-3.157,0l0,10.484c0,0.678 0.141,1.185 0.422,1.524c0.282,0.338 0.761,0.508 1.438,0.508c0.333,0 0.791,-0.063 1.375,-0.188l0,2.344c-0.761,0.208 -1.5,0.312 -2.219,0.312c-1.292,0 -2.266,-0.39 -2.922,-1.171c-0.656,-0.782 -0.984,-1.891 -0.984,-3.329l0,-10.484l-3.078,0l0,-2.234l3.078,0l0,-4.094l2.89,0Z" style="fill:#2d2e44;fill-rule:nonzero;"/><path d="M965.281,372.312c-2.291,0 -4.156,-0.752 -5.593,-2.257c-1.438,-1.506 -2.157,-3.519 -2.157,-6.039l0,-0.532c0,-1.677 0.321,-3.174 0.961,-4.492c0.641,-1.318 1.537,-2.349 2.688,-3.094c1.151,-0.744 2.398,-1.117 3.742,-1.117c2.198,0 3.906,0.724 5.125,2.172c1.219,1.448 1.828,3.521 1.828,6.219l0,1.203l-11.453,0c0.042,1.667 0.529,3.013 1.461,4.039c0.932,1.026 2.117,1.539 3.555,1.539c1.02,0 1.885,-0.208 2.593,-0.625c0.709,-0.417 1.328,-0.969 1.86,-1.656l1.765,1.375c-1.416,2.177 -3.541,3.265 -6.375,3.265Zm-0.359,-15.156c-1.167,0 -2.146,0.425 -2.938,1.274c-0.791,0.849 -1.281,2.039 -1.468,3.57l8.468,0l0,-0.219c-0.083,-1.469 -0.479,-2.607 -1.187,-3.414c-0.708,-0.807 -1.667,-1.211 -2.875,-1.211Z" style="fill:#2d2e44;fill-rule:nonzero;"/><path d="M977.938,355.094l0.078,1.875c1.239,-1.459 2.911,-2.188 5.015,-2.188c2.365,0 3.974,0.906 4.828,2.719c0.563,-0.813 1.295,-1.469 2.196,-1.969c0.901,-0.5 1.966,-0.75 3.195,-0.75c3.708,0 5.594,1.964 5.656,5.891l0,11.328l-2.89,0l0,-11.156c0,-1.209 -0.276,-2.112 -0.828,-2.711c-0.553,-0.599 -1.48,-0.899 -2.782,-0.899c-1.073,0 -1.963,0.321 -2.672,0.961c-0.708,0.641 -1.119,1.503 -1.234,2.586l0,11.219l-2.906,0l0,-11.078c0,-2.458 -1.203,-3.688 -3.61,-3.688c-1.895,0 -3.192,0.808 -3.89,2.422l0,12.344l-2.891,0l0,-16.906l2.735,0Z" style="fill:#2d2e44;fill-rule:nonzero;"/></g><g><path d="M1020,460c0,-11.038 -8.962,-20 -20,-20l-160,0c-11.038,0 -20,8.962 -20,20l0,40c0,11.038 8.962,20 20,20l160,0c11.038,0 20,-8.962 20,-20l0,-40Z" style="fill:#fff;"/><path d="M1000.13,440l0.129,0.002l0.129,0.002l0.129,0.003l0.128,0.003l0.129,0.005l0.128,0.005l0.128,0.006l0.127,0.007l0.128,0.008l0.127,0.008l0.127,0.009l0.127,0.01l0.126,0.011l0.127,0.012l0.126,0.012l0.126,0.014l0.125,0.014l0.126,0.014l0.125,0.016l0.125,0.016l0.124,0.017l0.125,0.018l0.124,0.019l0.124,0.019l0.124,0.02l0.123,0.021l0.123,0.022l0.123,0.022l0.123,0.023l0.122,0.024l0.123,0.025l0.121,0.025l0.122,0.026l0.121,0.027l0.121,0.028l0.121,0.028l0.121,0.029l0.12,0.03l0.12,0.03l0.119,0.031l0.12,0.032l0.119,0.033l0.119,0.033l0.118,0.034l0.118,0.035l0.118,0.036l0.118,0.036l0.117,0.037l0.117,0.037l0.116,0.039l0.117,0.039l0.116,0.039l0.115,0.041l0.116,0.041l0.115,0.041l0.114,0.043l0.115,0.043l0.114,0.044l0.113,0.044l0.227,0.091l0.225,0.094l0.223,0.096l0.223,0.099l0.22,0.101l0.22,0.104l0.217,0.107l0.217,0.109l0.215,0.112l0.213,0.114l0.212,0.117l0.21,0.119l0.208,0.122l0.207,0.124l0.206,0.127l0.204,0.129l0.202,0.131l0.2,0.134l0.199,0.136l0.197,0.138l0.195,0.141l0.193,0.142l0.192,0.146l0.19,0.147l0.188,0.15l0.186,0.151l0.184,0.154l0.183,0.157l0.18,0.158l0.179,0.16l0.176,0.163l0.175,0.164l0.173,0.167l0.17,0.169l0.169,0.17l0.167,0.173l0.164,0.175l0.163,0.176l0.16,0.179l0.158,0.18l0.157,0.183l0.154,0.184l0.151,0.186l0.15,0.188l0.147,0.19l0.146,0.192l0.142,0.193l0.141,0.195l0.138,0.197l0.136,0.199l0.134,0.2l0.131,0.202l0.129,0.204l0.127,0.206l0.124,0.207l0.122,0.208l0.119,0.21l0.117,0.212l0.114,0.213l0.112,0.215l0.109,0.217l0.107,0.217l0.104,0.22l0.101,0.22l0.099,0.223l0.096,0.223l0.094,0.225l0.091,0.227l0.044,0.113l0.044,0.114l0.043,0.115l0.043,0.114l0.041,0.115l0.041,0.116l0.041,0.115l0.039,0.116l0.039,0.117l0.039,0.116l0.037,0.117l0.037,0.117l0.036,0.118l0.036,0.118l0.035,0.118l0.034,0.118l0.033,0.119l0.033,0.119l0.032,0.12l0.031,0.119l0.03,0.12l0.03,0.12l0.029,0.121l0.028,0.121l0.028,0.121l0.027,0.121l0.026,0.122l0.025,0.121l0.025,0.123l0.024,0.122l0.023,0.123l0.022,0.123l0.022,0.123l0.021,0.123l0.02,0.124l0.019,0.124l0.019,0.124l0.018,0.125l0.017,0.124l0.016,0.125l0.016,0.125l0.014,0.126l0.014,0.125l0.014,0.126l0.012,0.126l0.012,0.127l0.011,0.126l0.01,0.127l0.009,0.127l0.008,0.127l0.008,0.128l0.007,0.127l0.006,0.128l0.005,0.128l0.005,0.129l0.003,0.128l0.003,0.129l0.002,0.129l0.002,0.129l0,0.129l0,40l0,0.129l-0.002,0.129l-0.002,0.129l-0.003,0.129l-0.003,0.128l-0.005,0.129l-0.005,0.128l-0.006,0.128l-0.007,0.127l-0.008,0.128l-0.008,0.127l-0.009,0.127l-0.01,0.127l-0.011,0.126l-0.012,0.127l-0.012,0.126l-0.014,0.126l-0.014,0.125l-0.014,0.126l-0.016,0.125l-0.016,0.125l-0.017,0.124l-0.018,0.125l-0.019,0.124l-0.019,0.124l-0.02,0.124l-0.021,0.123l-0.022,0.123l-0.022,0.123l-0.023,0.123l-0.024,0.122l-0.025,0.123l-0.025,0.121l-0.026,0.122l-0.027,0.121l-0.028,0.121l-0.028,0.121l-0.029,0.121l-0.03,0.12l-0.03,0.12l-0.031,0.119l-0.032,0.12l-0.033,0.119l-0.033,0.119l-0.034,0.118l-0.035,0.118l-0.036,0.118l-0.036,0.118l-0.037,0.117l-0.037,0.117l-0.039,0.116l-0.039,0.117l-0.039,0.116l-0.041,0.115l-0.041,0.116l-0.041,0.115l-0.043,0.114l-0.043,0.115l-0.044,0.114l-0.044,0.113l-0.091,0.227l-0.094,0.225l-0.096,0.223l-0.099,0.223l-0.101,0.22l-0.104,0.22l-0.107,0.217l-0.109,0.217l-0.112,0.215l-0.114,0.213l-0.117,0.212l-0.119,0.21l-0.122,0.208l-0.124,0.207l-0.127,0.206l-0.129,0.204l-0.131,0.202l-0.134,0.2l-0.136,0.199l-0.138,0.197l-0.141,0.195l-0.142,0.193l-0.146,0.192l-0.147,0.19l-0.15,0.188l-0.151,0.186l-0.154,0.184l-0.157,0.183l-0.158,0.18l-0.16,0.179l-0.163,0.176l-0.164,0.175l-0.167,0.173l-0.169,0.17l-0.17,0.169l-0.173,0.167l-0.175,0.164l-0.176,0.163l-0.179,0.16l-0.18,0.158l-0.183,0.157l-0.184,0.154l-0.186,0.151l-0.188,0.15l-0.19,0.147l-0.192,0.146l-0.193,0.142l-0.195,0.141l-0.197,0.138l-0.199,0.136l-0.2,0.134l-0.202,0.131l-0.204,0.129l-0.206,0.127l-0.207,0.124l-0.208,0.122l-0.21,0.119l-0.212,0.117l-0.213,0.114l-0.215,0.112l-0.217,0.109l-0.217,0.107l-0.22,0.104l-0.22,0.101l-0.223,0.099l-0.223,0.096l-0.225,0.094l-0.227,0.091l-0.113,0.044l-0.114,0.044l-0.115,0.043l-0.114,0.043l-0.115,0.041l-0.116,0.041l-0.115,0.041l-0.116,0.039l-0.117,0.039l-0.116,0.039l-0.117,0.037l-0.117,0.037l-0.118,0.036l-0.118,0.036l-0.118,0.035l-0.118,0.034l-0.119,0.033l-0.119,0.033l-0.12,0.032l-0.119,0.031l-0.12,0.03l-0.12,0.03l-0.121,0.029l-0.121,0.028l-0.121,0.028l-0.121,0.027l-0.122,0.026l-0.121,0.025l-0.123,0.025l-0.122,0.024l-0.123,0.023l-0.123,0.022l-0.123,0.022l-0.123,0.021l-0.124,0.02l-0.124,0.019l-0.124,0.019l-0.125,0.018l-0.124,0.017l-0.125,0.016l-0.125,0.016l-0.126,0.014l-0.125,0.014l-0.126,0.014l-0.126,0.012l-0.127,0.012l-0.126,0.011l-0.127,0.01l-0.127,0.009l-0.127,0.008l-0.128,0.008l-0.127,0.007l-0.128,0.006l-0.128,0.005l-0.129,0.005l-0.128,0.003l-0.129,0.003l-0.129,0.002l-0.129,0.002l-0.129,0l-160,0l-0.129,0l-0.129,-0.002l-0.129,-0.002l-0.129,-0.003l-0.128,-0.003l-0.129,-0.005l-0.128,-0.005l-0.128,-0.006l-0.127,-0.007l-0.128,-0.008l-0.127,-0.008l-0.127,-0.009l-0.127,-0.01l-0.126,-0.011l-0.127,-0.012l-0.126,-0.012l-0.126,-0.014l-0.125,-0.014l-0.126,-0.014l-0.125,-0.016l-0.125,-0.016l-0.124,-0.017l-0.125,-0.018l-0.124,-0.019l-0.124,-0.019l-0.124,-0.02l-0.123,-0.021l-0.123,-0.022l-0.123,-0.022l-0.123,-0.023l-0.122,-0.024l-0.123,-0.025l-0.121,-0.025l-0.122,-0.026l-0.121,-0.027l-0.121,-0.028l-0.121,-0.028l-0.121,-0.029l-0.12,-0.03l-0.12,-0.03l-0.119,-0.031l-0.12,-0.032l-0.119,-0.033l-0.119,-0.033l-0.118,-0.034l-0.118,-0.035l-0.118,-0.036l-0.118,-0.036l-0.117,-0.037l-0.117,-0.037l-0.116,-0.039l-0.117,-0.039l-0.116,-0.039l-0.115,-0.041l-0.116,-0.041l-0.115,-0.041l-0.114,-0.043l-0.115,-0.043l-0.114,-0.044l-0.113,-0.044l-0.227,-0.091l-0.225,-0.094l-0.223,-0.096l-0.223,-0.099l-0.22,-0.101l-0.22,-0.104l-0.217,-0.107l-0.217,-0.109l-0.215,-0.112l-0.213,-0.114l-0.212,-0.117l-0.21,-0.119l-0.208,-0.122l-0.207,-0.124l-0.206,-0.127l-0.204,-0.129l-0.202,-0.131l-0.2,-0.134l-0.199,-0.136l-0.197,-0.138l-0.195,-0.141l-0.193,-0.142l-0.192,-0.146l-0.19,-0.147l-0.188,-0.15l-0.186,-0.151l-0.184,-0.154l-0.183,-0.157l-0.18,-0.158l-0.179,-0.16l-0.176,-0.163l-0.175,-0.164l-0.173,-0.167l-0.17,-0.169l-0.169,-0.17l-0.167,-0.173l-0.164,-0.175l-0.163,-0.176l-0.16,-0.179l-0.158,-0.18l-0.157,-0.183l-0.154,-0.184l-0.151,-0.186l-0.15,-0.188l-0.147,-0.19l-0.146,-0.192l-0.142,-0.193l-0.141,-0.195l-0.138,-0.197l-0.136,-0.199l-0.134,-0.2l-0.131,-0.202l-0.129,-0.204l-0.127,-0.206l-0.124,-0.207l-0.122,-0.208l-0.119,-0.21l-0.117,-0.212l-0.114,-0.213l-0.112,-0.215l-0.109,-0.217l-0.107,-0.217l-0.104,-0.22l-0.101,-0.22l-0.099,-0.223l-0.096,-0.223l-0.094,-0.225l-0.091,-0.227l-0.044,-0.113l-0.044,-0.114l-0.043,-0.115l-0.043,-0.114l-0.041,-0.115l-0.041,-0.116l-0.041,-0.115l-0.039,-0.116l-0.039,-0.117l-0.039,-0.116l-0.037,-0.117l-0.037,-0.117l-0.036,-0.118l-0.036,-0.118l-0.035,-0.118l-0.034,-0.118l-0.033,-0.119l-0.033,-0.119l-0.032,-0.12l-0.031,-0.119l-0.03,-0.12l-0.03,-0.12l-0.029,-0.121l-0.028,-0.121l-0.028,-0.121l-0.027,-0.121l-0.026,-0.122l-0.025,-0.121l-0.025,-0.123l-0.024,-0.122l-0.023,-0.123l-0.022,-0.123l-0.022,-0.123l-0.021,-0.123l-0.02,-0.124l-0.019,-0.124l-0.019,-0.124l-0.018,-0.125l-0.017,-0.124l-0.016,-0.125l-0.016,-0.125l-0.014,-0.126l-0.014,-0.125l-0.014,-0.126l-0.012,-0.126l-0.012,-0.127l-0.011,-0.126l-0.01,-0.127l-0.009,-0.127l-0.008,-0.127l-0.008,-0.128l-0.007,-0.127l-0.006,-0.128l-0.005,-0.128l-0.005,-0.129l-0.003,-0.128l-0.003,-0.129l-0.002,-0.129l-0.002,-0.129l0,-0.129l0,-40l0,-0.129l0.002,-0.129l0.002,-0.129l0.003,-0.129l0.003,-0.128l0.005,-0.129l0.005,-0.128l0.006,-0.128l0.007,-0.127l0.008,-0.128l0.008,-0.127l0.009,-0.127l0.01,-0.127l0.011,-0.126l0.012,-0.127l0.012,-0.126l0.014,-0.126l0.014,-0.125l0.014,-0.126l0.016,-0.125l0.016,-0.125l0.017,-0.124l0.018,-0.125l0.019,-0.124l0.019,-0.124l0.02,-0.124l0.021,-0.123l0.022,-0.123l0.022,-0.123l0.023,-0.123l0.024,-0.122l0.025,-0.123l0.025,-0.121l0.026,-0.122l0.027,-0.121l0.028,-0.121l0.028,-0.121l0.029,-0.121l0.03,-0.12l0.03,-0.12l0.031,-0.119l0.032,-0.12l0.033,-0.119l0.033,-0.119l0.034,-0.118l0.035,-0.118l0.036,-0.118l0.036,-0.118l0.037,-0.117l0.037,-0.117l0.039,-0.116l0.039,-0.117l0.039,-0.116l0.041,-0.115l0.041,-0.116l0.041,-0.115l0.043,-0.114l0.043,-0.115l0.044,-0.114l0.044,-0.113l0.091,-0.227l0.094,-0.225l0.096,-0.223l0.099,-0.223l0.101,-0.22l0.104,-0.22l0.107,-0.217l0.109,-0.217l0.112,-0.215l0.114,-0.213l0.117,-0.212l0.119,-0.21l0.122,-0.208l0.124,-0.207l0.127,-0.206l0.129,-0.204l0.131,-0.202l0.134,-0.2l0.136,-0.199l0.138,-0.197l0.141,-0.195l0.142,-0.193l0.146,-0.192l0.147,-0.19l0.15,-0.188l0.151,-0.186l0.154,-0.184l0.157,-0.183l0.158,-0.18l0.16,-0.179l0.163,-0.176l0.164,-0.175l0.167,-0.173l0.169,-0.17l0.17,-0.169l0.173,-0.167l0.175,-0.164l0.176,-0.163l0.179,-0.16l0.18,-0.158l0.183,-0.157l0.184,-0.154l0.186,-0.151l0.188,-0.15l0.19,-0.147l0.192,-0.146l0.193,-0.142l0.195,-0.141l0.197,-0.138l0.199,-0.136l0.2,-0.134l0.202,-0.131l0.204,-0.129l0.206,-0.127l0.207,-0.124l0.208,-0.122l0.21,-0.119l0.212,-0.117l0.213,-0.114l0.215,-0.112l0.217,-0.109l0.217,-0.107l0.22,-0.104l0.22,-0.101l0.223,-0.099l0.223,-0.096l0.225,-0.094l0.227,-0.091l0.113,-0.044l0.114,-0.044l0.115,-0.043l0.114,-0.043l0.115,-0.041l0.116,-0.041l0.115,-0.041l0.116,-0.039l0.117,-0.039l0.116,-0.039l0.117,-0.037l0.117,-0.037l0.118,-0.036l0.118,-0.036l0.118,-0.035l0.118,-0.034l0.119,-0.033l0.119,-0.033l0.12,-0.032l0.119,-0.031l0.12,-0.03l0.12,-0.03l0.121,-0.029l0.121,-0.028l0.121,-0.028l0.121,-0.027l0.122,-0.026l0.121,-0.025l0.123,-0.025l0.122,-0.024l0.123,-0.023l0.123,-0.022l0.123,-0.022l0.123,-0.021l0.124,-0.02l0.124,-0.019l0.124,-0.019l0.125,-0.018l0.124,-0.017l0.125,-0.016l0.125,-0.016l0.126,-0.014l0.125,-0.014l0.126,-0.014l0.126,-0.012l0.127,-0.012l0.126,-0.011l0.127,-0.01l0.127,-0.009l0.127,-0.008l0.128,-0.008l0.127,-0.007l0.128,-0.006l0.128,-0.005l0.129,-0.005l0.128,-0.003l0.129,-0.003l0.129,-0.002l0.129,-0.002l0.129,0l160,0l0.129,0Zm-160.123,4l-0.11,0l-0.103,0.001l-0.104,0.002l-0.103,0.002l-0.103,0.003l-0.103,0.004l-0.103,0.004l-0.103,0.005l-0.102,0.005l-0.102,0.007l-0.102,0.006l-0.102,0.008l-0.101,0.008l-0.102,0.009l-0.102,0.009l-0.1,0.01l-0.101,0.01l-0.1,0.012l-0.1,0.011l-0.101,0.013l-0.1,0.013l-0.099,0.013l-0.1,0.015l-0.099,0.015l-0.099,0.015l-0.1,0.016l-0.098,0.017l-0.098,0.017l-0.098,0.018l-0.099,0.019l-0.097,0.019l-0.098,0.019l-0.097,0.021l-0.097,0.02l-0.097,0.022l-0.097,0.022l-0.096,0.022l-0.097,0.024l-0.095,0.023l-0.096,0.025l-0.096,0.025l-0.095,0.025l-0.095,0.026l-0.095,0.027l-0.094,0.027l-0.095,0.028l-0.094,0.028l-0.094,0.029l-0.094,0.03l-0.092,0.029l-0.094,0.031l-0.093,0.031l-0.092,0.032l-0.092,0.032l-0.093,0.033l-0.092,0.033l-0.091,0.034l-0.091,0.035l-0.092,0.035l-0.084,0.033l-0.187,0.075l-0.18,0.075l-0.178,0.076l-0.178,0.079l-0.176,0.081l-0.175,0.084l-0.175,0.085l-0.172,0.087l-0.172,0.09l-0.171,0.091l-0.169,0.093l-0.168,0.096l-0.167,0.097l-0.166,0.099l-0.164,0.102l-0.163,0.103l-0.162,0.105l-0.16,0.107l-0.159,0.109l-0.158,0.11l-0.156,0.113l-0.155,0.115l-0.154,0.116l-0.152,0.118l-0.15,0.12l-0.149,0.121l-0.148,0.124l-0.146,0.125l-0.145,0.127l-0.143,0.128l-0.142,0.13l-0.14,0.133l-0.138,0.133l-0.137,0.135l-0.135,0.137l-0.134,0.138l-0.132,0.141l-0.13,0.141l-0.128,0.143l-0.127,0.144l-0.125,0.147l-0.124,0.148l-0.122,0.149l-0.119,0.15l-0.118,0.152l-0.117,0.154l-0.114,0.155l-0.112,0.156l-0.111,0.158l-0.109,0.159l-0.107,0.16l-0.105,0.162l-0.103,0.163l-0.102,0.165l-0.099,0.165l-0.097,0.167l-0.096,0.168l-0.093,0.169l-0.091,0.171l-0.09,0.171l-0.087,0.173l-0.085,0.175l-0.084,0.175l-0.081,0.176l-0.079,0.178l-0.076,0.178l-0.075,0.18l-0.075,0.187l-0.034,0.085l-0.034,0.091l-0.035,0.09l-0.034,0.093l-0.033,0.092l-0.033,0.091l-0.032,0.093l-0.032,0.093l-0.031,0.092l-0.03,0.093l-0.031,0.094l-0.029,0.094l-0.029,0.093l-0.028,0.094l-0.028,0.095l-0.027,0.095l-0.027,0.093l-0.026,0.095l-0.026,0.097l-0.024,0.095l-0.025,0.095l-0.023,0.096l-0.024,0.097l-0.022,0.097l-0.022,0.095l-0.021,0.097l-0.021,0.098l-0.021,0.097l-0.019,0.098l-0.02,0.098l-0.018,0.098l-0.018,0.097l-0.017,0.099l-0.017,0.099l-0.016,0.098l-0.015,0.1l-0.015,0.099l-0.014,0.1l-0.014,0.1l-0.013,0.099l-0.012,0.1l-0.012,0.101l-0.012,0.1l-0.01,0.101l-0.01,0.101l-0.009,0.101l-0.009,0.102l-0.008,0.102l-0.008,0.101l-0.006,0.101l-0.007,0.104l-0.005,0.102l-0.005,0.101l-0.004,0.102l-0.004,0.104l-0.003,0.104l-0.002,0.103l-0.002,0.104l-0.001,0.103l0,0.11l0,39.988l0,0.11l0.001,0.103l0.002,0.104l0.002,0.103l0.003,0.104l0.004,0.104l0.004,0.102l0.005,0.101l0.005,0.102l0.007,0.104l0.006,0.101l0.008,0.101l0.008,0.102l0.009,0.102l0.009,0.101l0.01,0.101l0.01,0.101l0.012,0.1l0.012,0.101l0.012,0.1l0.013,0.099l0.014,0.1l0.014,0.1l0.015,0.099l0.015,0.1l0.016,0.098l0.017,0.099l0.017,0.099l0.018,0.097l0.018,0.098l0.02,0.098l0.019,0.098l0.021,0.097l0.021,0.098l0.021,0.097l0.022,0.095l0.022,0.097l0.024,0.097l0.023,0.096l0.025,0.095l0.024,0.095l0.026,0.097l0.026,0.095l0.027,0.093l0.027,0.095l0.028,0.095l0.028,0.094l0.029,0.093l0.029,0.094l0.031,0.094l0.03,0.093l0.031,0.092l0.032,0.093l0.032,0.093l0.033,0.091l0.033,0.092l0.034,0.093l0.035,0.09l0.034,0.091l0.034,0.085l0.075,0.187l0.075,0.18l0.076,0.178l0.079,0.178l0.081,0.176l0.084,0.175l0.085,0.175l0.087,0.173l0.09,0.171l0.091,0.171l0.093,0.169l0.096,0.168l0.097,0.167l0.099,0.165l0.102,0.165l0.103,0.163l0.105,0.162l0.107,0.16l0.109,0.159l0.111,0.158l0.112,0.156l0.114,0.155l0.117,0.154l0.118,0.152l0.119,0.15l0.122,0.149l0.124,0.148l0.125,0.147l0.127,0.144l0.128,0.143l0.13,0.141l0.132,0.141l0.134,0.138l0.135,0.137l0.137,0.135l0.138,0.133l0.14,0.133l0.142,0.13l0.143,0.128l0.145,0.127l0.146,0.125l0.148,0.124l0.149,0.121l0.15,0.12l0.152,0.118l0.154,0.116l0.155,0.115l0.156,0.113l0.158,0.11l0.159,0.109l0.16,0.107l0.162,0.105l0.163,0.103l0.164,0.102l0.166,0.099l0.167,0.097l0.168,0.096l0.169,0.093l0.171,0.091l0.172,0.09l0.172,0.087l0.175,0.085l0.175,0.084l0.176,0.081l0.178,0.079l0.178,0.076l0.18,0.075l0.187,0.075l0.084,0.033l0.092,0.035l0.091,0.035l0.091,0.034l0.092,0.033l0.093,0.033l0.092,0.032l0.092,0.032l0.093,0.031l0.094,0.031l0.092,0.029l0.094,0.03l0.094,0.029l0.094,0.028l0.095,0.028l0.094,0.027l0.095,0.027l0.095,0.026l0.095,0.025l0.096,0.025l0.096,0.025l0.095,0.023l0.097,0.024l0.096,0.022l0.097,0.022l0.097,0.022l0.097,0.02l0.097,0.021l0.098,0.019l0.097,0.019l0.099,0.019l0.098,0.018l0.098,0.017l0.098,0.017l0.1,0.016l0.099,0.015l0.099,0.015l0.1,0.015l0.099,0.013l0.1,0.013l0.101,0.013l0.1,0.011l0.1,0.012l0.101,0.01l0.1,0.01l0.102,0.009l0.102,0.009l0.101,0.008l0.102,0.008l0.102,0.006l0.102,0.007l0.102,0.005l0.103,0.005l0.103,0.004l0.103,0.004l0.103,0.003l0.103,0.002l0.104,0.002l0.103,0.001l0.11,0l159.988,0l0.11,0l0.103,-0.001l0.104,-0.002l0.103,-0.002l0.103,-0.003l0.103,-0.004l0.103,-0.004l0.103,-0.005l0.102,-0.005l0.102,-0.007l0.102,-0.006l0.102,-0.008l0.101,-0.008l0.102,-0.009l0.102,-0.009l0.1,-0.01l0.101,-0.01l0.1,-0.012l0.1,-0.011l0.101,-0.013l0.1,-0.013l0.099,-0.013l0.1,-0.015l0.099,-0.015l0.099,-0.015l0.1,-0.016l0.098,-0.017l0.098,-0.017l0.098,-0.018l0.099,-0.019l0.097,-0.019l0.098,-0.019l0.097,-0.021l0.097,-0.02l0.097,-0.022l0.097,-0.022l0.096,-0.022l0.097,-0.024l0.095,-0.023l0.096,-0.025l0.096,-0.025l0.095,-0.025l0.095,-0.026l0.095,-0.027l0.094,-0.027l0.095,-0.028l0.094,-0.028l0.094,-0.029l0.094,-0.03l0.092,-0.029l0.094,-0.031l0.093,-0.031l0.092,-0.032l0.092,-0.032l0.093,-0.033l0.092,-0.033l0.091,-0.034l0.091,-0.035l0.092,-0.035l0.084,-0.033l0.187,-0.075l0.18,-0.075l0.178,-0.076l0.178,-0.079l0.176,-0.081l0.175,-0.084l0.175,-0.085l0.172,-0.087l0.172,-0.09l0.171,-0.091l0.169,-0.093l0.168,-0.096l0.167,-0.097l0.166,-0.099l0.164,-0.102l0.163,-0.103l0.162,-0.105l0.16,-0.107l0.159,-0.109l0.158,-0.11l0.156,-0.113l0.155,-0.115l0.154,-0.116l0.152,-0.118l0.15,-0.12l0.149,-0.121l0.148,-0.124l0.146,-0.125l0.145,-0.127l0.143,-0.128l0.142,-0.13l0.14,-0.133l0.138,-0.133l0.137,-0.135l0.135,-0.137l0.134,-0.138l0.132,-0.141l0.13,-0.141l0.128,-0.143l0.127,-0.144l0.125,-0.147l0.124,-0.148l0.122,-0.149l0.119,-0.15l0.118,-0.152l0.117,-0.154l0.114,-0.155l0.112,-0.156l0.111,-0.158l0.109,-0.159l0.107,-0.16l0.105,-0.162l0.103,-0.163l0.102,-0.165l0.099,-0.165l0.097,-0.167l0.096,-0.168l0.093,-0.169l0.091,-0.171l0.09,-0.171l0.087,-0.173l0.085,-0.175l0.084,-0.175l0.081,-0.176l0.079,-0.178l0.076,-0.178l0.075,-0.18l0.075,-0.187l0.034,-0.085l0.034,-0.091l0.035,-0.09l0.034,-0.093l0.033,-0.092l0.033,-0.091l0.032,-0.093l0.032,-0.093l0.031,-0.092l0.03,-0.093l0.031,-0.094l0.029,-0.094l0.029,-0.093l0.028,-0.094l0.028,-0.095l0.027,-0.095l0.027,-0.093l0.026,-0.095l0.026,-0.097l0.024,-0.095l0.025,-0.095l0.023,-0.096l0.024,-0.097l0.022,-0.097l0.022,-0.095l0.021,-0.097l0.021,-0.098l0.021,-0.097l0.019,-0.098l0.02,-0.098l0.018,-0.098l0.018,-0.097l0.017,-0.099l0.017,-0.099l0.016,-0.098l0.015,-0.1l0.015,-0.099l0.014,-0.1l0.014,-0.1l0.013,-0.099l0.012,-0.1l0.012,-0.101l0.012,-0.1l0.01,-0.101l0.01,-0.101l0.009,-0.101l0.009,-0.102l0.008,-0.102l0.008,-0.101l0.006,-0.101l0.007,-0.104l0.005,-0.102l0.005,-0.101l0.004,-0.102l0.004,-0.104l0.003,-0.104l0.002,-0.103l0.002,-0.104l0.001,-0.103l0,-0.11l0,-39.988l0,-0.11l-0.001,-0.103l-0.002,-0.104l-0.002,-0.103l-0.003,-0.104l-0.004,-0.104l-0.004,-0.102l-0.005,-0.101l-0.005,-0.102l-0.007,-0.104l-0.006,-0.101l-0.008,-0.101l-0.008,-0.102l-0.009,-0.102l-0.009,-0.101l-0.01,-0.101l-0.01,-0.101l-0.012,-0.1l-0.012,-0.101l-0.012,-0.1l-0.013,-0.099l-0.014,-0.1l-0.014,-0.1l-0.015,-0.099l-0.015,-0.1l-0.016,-0.098l-0.017,-0.099l-0.017,-0.099l-0.018,-0.097l-0.018,-0.098l-0.02,-0.098l-0.019,-0.098l-0.021,-0.097l-0.021,-0.098l-0.021,-0.097l-0.022,-0.095l-0.022,-0.097l-0.024,-0.097l-0.023,-0.096l-0.025,-0.095l-0.024,-0.095l-0.026,-0.097l-0.026,-0.095l-0.027,-0.093l-0.027,-0.095l-0.028,-0.095l-0.028,-0.094l-0.029,-0.093l-0.029,-0.094l-0.031,-0.094l-0.03,-0.093l-0.031,-0.092l-0.032,-0.093l-0.032,-0.093l-0.033,-0.091l-0.033,-0.092l-0.034,-0.093l-0.035,-0.09l-0.034,-0.091l-0.034,-0.085l-0.075,-0.187l-0.075,-0.18l-0.076,-0.178l-0.079,-0.178l-0.081,-0.176l-0.084,-0.175l-0.085,-0.175l-0.087,-0.173l-0.09,-0.171l-0.091,-0.171l-0.093,-0.169l-0.096,-0.168l-0.097,-0.167l-0.099,-0.165l-0.102,-0.165l-0.103,-0.163l-0.105,-0.162l-0.107,-0.16l-0.109,-0.159l-0.111,-0.158l-0.112,-0.156l-0.114,-0.155l-0.117,-0.154l-0.118,-0.152l-0.119,-0.15l-0.122,-0.149l-0.124,-0.148l-0.125,-0.147l-0.127,-0.144l-0.128,-0.143l-0.13,-0.141l-0.132,-0.141l-0.134,-0.138l-0.135,-0.137l-0.137,-0.135l-0.138,-0.133l-0.14,-0.133l-0.142,-0.13l-0.143,-0.128l-0.145,-0.127l-0.146,-0.125l-0.148,-0.124l-0.149,-0.121l-0.15,-0.12l-0.152,-0.118l-0.154,-0.116l-0.155,-0.115l-0.156,-0.113l-0.158,-0.11l-0.159,-0.109l-0.16,-0.107l-0.162,-0.105l-0.163,-0.103l-0.164,-0.102l-0.166,-0.099l-0.167,-0.097l-0.168,-0.096l-0.169,-0.093l-0.171,-0.091l-0.172,-0.09l-0.172,-0.087l-0.175,-0.085l-0.175,-0.084l-0.176,-0.081l-0.178,-0.079l-0.178,-0.076l-0.18,-0.075l-0.187,-0.075l-0.084,-0.033l-0.092,-0.035l-0.091,-0.035l-0.091,-0.034l-0.092,-0.033l-0.093,-0.033l-0.092,-0.032l-0.092,-0.032l-0.093,-0.031l-0.094,-0.031l-0.092,-0.029l-0.094,-0.03l-0.094,-0.029l-0.094,-0.028l-0.095,-0.028l-0.094,-0.027l-0.095,-0.027l-0.095,-0.026l-0.095,-0.025l-0.096,-0.025l-0.096,-0.025l-0.095,-0.023l-0.097,-0.024l-0.096,-0.022l-0.097,-0.022l-0.097,-0.022l-0.097,-0.02l-0.097,-0.021l-0.098,-0.019l-0.097,-0.019l-0.099,-0.019l-0.098,-0.018l-0.098,-0.017l-0.098,-0.017l-0.1,-0.016l-0.099,-0.015l-0.099,-0.015l-0.1,-0.015l-0.099,-0.013l-0.1,-0.013l-0.101,-0.013l-0.1,-0.011l-0.1,-0.012l-0.101,-0.01l-0.1,-0.01l-0.102,-0.009l-0.102,-0.009l-0.101,-0.008l-0.102,-0.008l-0.102,-0.006l-0.102,-0.007l-0.102,-0.005l-0.103,-0.005l-0.103,-0.004l-0.103,-0.004l-0.103,-0.003l-0.103,-0.002l-0.104,-0.002l-0.103,-0.001l-0.11,0l-159.988,0Z" style="fill:#27c278;"/><path d="M907.953,471.719l-7.312,0l0,20.281l-2.985,0l0,-20.281l-7.297,0l0,-2.469l17.594,0l0,2.469Z" style="fill:#2d2e44;fill-rule:nonzero;"/><path d="M916.344,492.312c-2.292,0 -4.156,-0.752 -5.594,-2.257c-1.437,-1.506 -2.156,-3.519 -2.156,-6.039l0,-0.532c0,-1.677 0.32,-3.174 0.961,-4.492c0.64,-1.318 1.536,-2.349 2.687,-3.094c1.151,-0.744 2.399,-1.117 3.742,-1.117c2.198,0 3.907,0.724 5.125,2.172c1.219,1.448 1.829,3.521 1.829,6.219l0,1.203l-11.454,0c0.042,1.667 0.529,3.013 1.461,4.039c0.933,1.026 2.118,1.539 3.555,1.539c1.021,0 1.885,-0.208 2.594,-0.625c0.708,-0.417 1.328,-0.969 1.859,-1.656l1.766,1.375c-1.417,2.177 -3.542,3.265 -6.375,3.265Zm-0.36,-15.156c-1.166,0 -2.145,0.425 -2.937,1.274c-0.792,0.849 -1.281,2.039 -1.469,3.57l8.469,0l0,-0.219c-0.083,-1.469 -0.479,-2.607 -1.188,-3.414c-0.708,-0.807 -1.666,-1.211 -2.875,-1.211Z" style="fill:#2d2e44;fill-rule:nonzero;"/><path d="M931.953,481.266l3.75,-6.172l3.375,0l-5.531,8.359l5.703,8.547l-3.344,0l-3.906,-6.328l-3.906,6.328l-3.36,0l5.704,-8.547l-5.532,-8.359l3.344,0l3.703,6.172Z" style="fill:#2d2e44;fill-rule:nonzero;"/><path d="M946.063,471l0,4.094l3.156,0l0,2.234l-3.156,0l0,10.484c0,0.678 0.14,1.185 0.421,1.524c0.282,0.338 0.761,0.508 1.438,0.508c0.333,0 0.792,-0.063 1.375,-0.188l0,2.344c-0.761,0.208 -1.5,0.312 -2.219,0.312c-1.292,0 -2.265,-0.39 -2.922,-1.171c-0.656,-0.782 -0.984,-1.891 -0.984,-3.329l0,-10.484l-3.078,0l0,-2.234l3.078,0l0,-4.094l2.891,0Z" style="fill:#2d2e44;fill-rule:nonzero;"/></g><g><path d="M1240,340c0,-11.038 -8.962,-20 -20,-20l-160,0c-11.038,0 -20,8.962 -20,20l0,40c0,11.038 8.962,20 20,20l160,0c11.038,0 20,-8.962 20,-20l0,-40Z" style="fill:#27c278;"/><path d="M1069.91,362.797l-5.343,0l0,9.203l-3.016,0l0,-22.75l7.531,0c2.563,0 4.534,0.583 5.914,1.75c1.38,1.167 2.071,2.865 2.071,5.094c0,1.416 -0.383,2.651 -1.149,3.703c-0.766,1.052 -1.831,1.838 -3.195,2.359l5.344,9.656l0,0.188l-3.219,0l-4.938,-9.203Zm-5.343,-2.453l4.609,0c1.489,0 2.674,-0.386 3.555,-1.157c0.88,-0.77 1.32,-1.802 1.32,-3.093c0,-1.407 -0.419,-2.485 -1.258,-3.235c-0.838,-0.75 -2.049,-1.13 -3.633,-1.14l-4.593,0l0,8.625Z" style="fill:#fff;fill-rule:nonzero;"/><path d="M1091.25,370.328c-1.125,1.323 -2.776,1.984 -4.953,1.984c-1.802,0 -3.175,-0.523 -4.117,-1.57c-0.943,-1.047 -1.42,-2.596 -1.43,-4.648l0,-11l2.891,0l0,10.922c0,2.562 1.041,3.843 3.125,3.843c2.208,0 3.677,-0.823 4.406,-2.468l0,-12.297l2.891,0l0,16.906l-2.75,0l-0.063,-1.672Z" style="fill:#fff;fill-rule:nonzero;"/><rect x="1098.7" y="348" width="2.891" height="24" style="fill:#fff;fill-rule:nonzero;"/><path d="M1113.23,372.312c-2.291,0 -4.156,-0.752 -5.593,-2.257c-1.438,-1.506 -2.157,-3.519 -2.157,-6.039l0,-0.532c0,-1.677 0.321,-3.174 0.961,-4.492c0.641,-1.318 1.537,-2.349 2.688,-3.094c1.151,-0.744 2.398,-1.117 3.742,-1.117c2.198,0 3.906,0.724 5.125,2.172c1.219,1.448 1.828,3.521 1.828,6.219l0,1.203l-11.453,0c0.042,1.667 0.529,3.013 1.461,4.039c0.932,1.026 2.117,1.539 3.555,1.539c1.02,0 1.885,-0.208 2.593,-0.625c0.709,-0.417 1.329,-0.969 1.86,-1.656l1.765,1.375c-1.416,2.177 -3.541,3.265 -6.375,3.265Zm-0.359,-15.156c-1.167,0 -2.146,0.425 -2.937,1.274c-0.792,0.849 -1.282,2.039 -1.469,3.57l8.469,0l0,-0.219c-0.084,-1.469 -0.48,-2.607 -1.188,-3.414c-0.708,-0.807 -1.667,-1.211 -2.875,-1.211Z" style="fill:#fff;fill-rule:nonzero;"/><path d="M1127.08,359.219l2.172,0c1.365,-0.021 2.438,-0.38 3.219,-1.078c0.781,-0.698 1.172,-1.641 1.172,-2.829c0,-2.666 -1.328,-4 -3.985,-4c-1.25,0 -2.247,0.357 -2.992,1.071c-0.745,0.713 -1.117,1.659 -1.117,2.836l-2.891,0c0,-1.802 0.659,-3.3 1.977,-4.492c1.318,-1.193 2.992,-1.79 5.023,-1.79c2.146,0 3.828,0.568 5.047,1.704c1.219,1.135 1.828,2.713 1.828,4.734c0,0.99 -0.32,1.948 -0.961,2.875c-0.64,0.927 -1.513,1.62 -2.617,2.078c1.25,0.396 2.216,1.052 2.899,1.969c0.682,0.917 1.023,2.036 1.023,3.359c0,2.042 -0.667,3.662 -2,4.86c-1.333,1.198 -3.068,1.796 -5.203,1.796c-2.136,0 -3.873,-0.578 -5.211,-1.734c-1.339,-1.156 -2.008,-2.682 -2.008,-4.578l2.906,0c0,1.198 0.391,2.156 1.172,2.875c0.782,0.719 1.828,1.078 3.141,1.078c1.396,0 2.463,-0.364 3.203,-1.094c0.74,-0.729 1.109,-1.776 1.109,-3.14c0,-1.323 -0.406,-2.339 -1.218,-3.047c-0.813,-0.708 -1.985,-1.073 -3.516,-1.094l-2.172,0l0,-2.359Z" style="fill:#fff;fill-rule:nonzero;"/><path d="M1153.05,364.359l3.156,0l0,2.36l-3.156,0l0,5.281l-2.906,0l0,-5.281l-10.36,0l0,-1.703l10.188,-15.766l3.078,0l0,15.109Zm-9.984,0l7.078,0l0,-11.156l-0.344,0.625l-6.734,10.531Z" style="fill:#fff;fill-rule:nonzero;"/><rect x="1159.78" y="349.25" width="3" height="22.75" style="fill:#fff;fill-rule:nonzero;"/><path d="M1171.73,351l0,4.094l3.157,0l0,2.234l-3.157,0l0,10.484c0,0.678 0.141,1.185 0.422,1.524c0.282,0.338 0.761,0.508 1.438,0.508c0.333,0 0.791,-0.063 1.375,-0.188l0,2.344c-0.761,0.208 -1.5,0.312 -2.219,0.312c-1.292,0 -2.266,-0.39 -2.922,-1.171c-0.656,-0.782 -0.984,-1.891 -0.984,-3.329l0,-10.484l-3.078,0l0,-2.234l3.078,0l0,-4.094l2.89,0Z" style="fill:#fff;fill-rule:nonzero;"/><path d="M1185.28,372.312c-2.291,0 -4.156,-0.752 -5.593,-2.257c-1.438,-1.506 -2.157,-3.519 -2.157,-6.039l0,-0.532c0,-1.677 0.321,-3.174 0.961,-4.492c0.641,-1.318 1.537,-2.349 2.688,-3.094c1.151,-0.744 2.398,-1.117 3.742,-1.117c2.198,0 3.906,0.724 5.125,2.172c1.219,1.448 1.828,3.521 1.828,6.219l0,1.203l-11.453,0c0.042,1.667 0.529,3.013 1.461,4.039c0.932,1.026 2.117,1.539 3.555,1.539c1.02,0 1.885,-0.208 2.593,-0.625c0.709,-0.417 1.328,-0.969 1.86,-1.656l1.765,1.375c-1.416,2.177 -3.541,3.265 -6.375,3.265Zm-0.359,-15.156c-1.167,0 -2.146,0.425 -2.938,1.274c-0.791,0.849 -1.281,2.039 -1.468,3.57l8.468,0l0,-0.219c-0.083,-1.469 -0.479,-2.607 -1.187,-3.414c-0.708,-0.807 -1.667,-1.211 -2.875,-1.211Z" style="fill:#fff;fill-rule:nonzero;"/><path d="M1197.94,355.094l0.078,1.875c1.239,-1.459 2.911,-2.188 5.015,-2.188c2.365,0 3.974,0.906 4.828,2.719c0.563,-0.813 1.295,-1.469 2.196,-1.969c0.901,-0.5 1.966,-0.75 3.195,-0.75c3.708,0 5.594,1.964 5.656,5.891l0,11.328l-2.89,0l0,-11.156c0,-1.209 -0.276,-2.112 -0.828,-2.711c-0.553,-0.599 -1.48,-0.899 -2.782,-0.899c-1.073,0 -1.963,0.321 -2.672,0.961c-0.708,0.641 -1.119,1.503 -1.234,2.586l0,11.219l-2.906,0l0,-11.078c0,-2.458 -1.203,-3.688 -3.61,-3.688c-1.895,0 -3.192,0.808 -3.89,2.422l0,12.344l-2.891,0l0,-16.906l2.735,0Z" style="fill:#fff;fill-rule:nonzero;"/></g><rect x="700" y="280" width="440" height="4.75" style="fill:#2d2e44;"/><path d="M917.625,240l4.75,0l0,70.5l7.125,0l-9.5,9.5l-9.5,-9.5l7.125,0l0,-70.5Z" style="fill:#2d2e44;"/><g><path d="M1020,60c0,-11.038 -8.962,-20 -20,-20l-160,0c-11.038,0 -20,8.962 -20,20l0,40c0,11.038 8.962,20 20,20l160,0c11.038,0 20,-8.962 20,-20l0,-40Z" style="fill:#27c278;"/><path d="M881.984,82.797l-5.343,0l0,9.203l-3.016,0l0,-22.75l7.531,0c2.563,0 4.534,0.583 5.914,1.75c1.381,1.167 2.071,2.865 2.071,5.094c0,1.416 -0.383,2.651 -1.149,3.703c-0.765,1.052 -1.831,1.838 -3.195,2.359l5.344,9.656l0,0.188l-3.219,0l-4.938,-9.203Zm-5.343,-2.453l4.609,0c1.49,0 2.674,-0.386 3.555,-1.157c0.88,-0.77 1.32,-1.802 1.32,-3.093c0,-1.407 -0.419,-2.485 -1.258,-3.235c-0.838,-0.75 -2.049,-1.13 -3.633,-1.14l-4.593,0l0,8.625Z" style="fill:#fff;fill-rule:nonzero;"/><path d="M903.328,90.328c-1.125,1.323 -2.776,1.984 -4.953,1.984c-1.802,0 -3.174,-0.523 -4.117,-1.57c-0.943,-1.047 -1.419,-2.596 -1.43,-4.648l0,-11l2.891,0l0,10.922c0,2.562 1.041,3.843 3.125,3.843c2.208,0 3.677,-0.823 4.406,-2.468l0,-12.297l2.891,0l0,16.906l-2.75,0l-0.063,-1.672Z" style="fill:#fff;fill-rule:nonzero;"/><rect x="910.781" y="68" width="2.891" height="24" style="fill:#fff;fill-rule:nonzero;"/><path d="M925.313,92.312c-2.292,0 -4.157,-0.752 -5.594,-2.257c-1.438,-1.506 -2.156,-3.519 -2.156,-6.039l0,-0.532c0,-1.677 0.32,-3.174 0.96,-4.492c0.641,-1.318 1.537,-2.349 2.688,-3.094c1.151,-0.744 2.398,-1.117 3.742,-1.117c2.198,0 3.906,0.724 5.125,2.172c1.219,1.448 1.828,3.521 1.828,6.219l0,1.203l-11.453,0c0.042,1.667 0.529,3.013 1.461,4.039c0.932,1.026 2.117,1.539 3.555,1.539c1.021,0 1.885,-0.208 2.594,-0.625c0.708,-0.417 1.328,-0.969 1.859,-1.656l1.766,1.375c-1.417,2.177 -3.542,3.265 -6.375,3.265Zm-0.36,-15.156c-1.167,0 -2.146,0.425 -2.937,1.274c-0.792,0.849 -1.282,2.039 -1.469,3.57l8.469,0l0,-0.219c-0.084,-1.469 -0.48,-2.607 -1.188,-3.414c-0.708,-0.807 -1.667,-1.211 -2.875,-1.211Z" style="fill:#fff;fill-rule:nonzero;"/><path d="M939.156,79.219l2.172,0c1.365,-0.021 2.438,-0.38 3.219,-1.078c0.781,-0.698 1.172,-1.641 1.172,-2.829c0,-2.666 -1.328,-4 -3.985,-4c-1.25,0 -2.247,0.357 -2.992,1.071c-0.745,0.713 -1.117,1.659 -1.117,2.836l-2.891,0c0,-1.802 0.659,-3.3 1.977,-4.492c1.318,-1.193 2.992,-1.79 5.023,-1.79c2.146,0 3.829,0.568 5.047,1.704c1.219,1.135 1.828,2.713 1.828,4.734c0,0.99 -0.32,1.948 -0.961,2.875c-0.64,0.927 -1.513,1.62 -2.617,2.078c1.25,0.396 2.216,1.052 2.899,1.969c0.682,0.917 1.023,2.036 1.023,3.359c0,2.042 -0.667,3.662 -2,4.86c-1.333,1.198 -3.068,1.796 -5.203,1.796c-2.135,0 -3.872,-0.578 -5.211,-1.734c-1.338,-1.156 -2.008,-2.682 -2.008,-4.578l2.907,0c0,1.198 0.39,2.156 1.171,2.875c0.782,0.719 1.829,1.078 3.141,1.078c1.396,0 2.464,-0.364 3.203,-1.094c0.74,-0.729 1.11,-1.776 1.11,-3.14c0,-1.323 -0.407,-2.339 -1.219,-3.047c-0.813,-0.708 -1.985,-1.073 -3.516,-1.094l-2.172,0l0,-2.359Z" style="fill:#fff;fill-rule:nonzero;"/><path d="M965.125,84.359l3.156,0l0,2.36l-3.156,0l0,5.281l-2.906,0l0,-5.281l-10.36,0l0,-1.703l10.188,-15.766l3.078,0l0,15.109Zm-9.984,0l7.078,0l0,-11.156l-0.344,0.625l-6.734,10.531Z" style="fill:#fff;fill-rule:nonzero;"/></g><path d="M917.625,120l4.75,0l0,30.5l7.125,0l-9.5,9.5l-9.5,-9.5l7.125,0l0,-30.5Z" style="fill:#2d2e44;"/><path d="M917.625,400l4.75,0l0,30.5l7.125,0l-9.5,9.5l-9.5,-9.5l7.125,0l0,-30.5Z" style="fill:#2d2e44;"/><path d="M1137.62,280l4.75,0l0,30.5l7.125,0l-9.5,9.5l-9.5,-9.5l7.125,0l0,-30.5Z" style="fill:#2d2e44;"/><path d="M697.625,280l4.75,0l0,30.5l7.125,0l-9.5,9.5l-9.5,-9.5l7.125,0l0,-30.5Z" style="fill:#2d2e44;"/><g><path d="M800,460c0,-11.038 -8.962,-20 -20,-20l-160,0c-11.038,0 -20,8.962 -20,20l0,40c0,11.038 8.962,20 20,20l160,0c11.038,0 20,-8.962 20,-20l0,-40Z" style="fill:#27c278;"/><path d="M687.953,471.719l-7.312,0l0,20.281l-2.985,0l0,-20.281l-7.297,0l0,-2.469l17.594,0l0,2.469Z" style="fill:#fff;fill-rule:nonzero;"/><path d="M696.344,492.312c-2.292,0 -4.157,-0.752 -5.594,-2.257c-1.438,-1.506 -2.156,-3.519 -2.156,-6.039l0,-0.532c0,-1.677 0.32,-3.174 0.961,-4.492c0.64,-1.318 1.536,-2.349 2.687,-3.094c1.151,-0.744 2.399,-1.117 3.742,-1.117c2.198,0 3.907,0.724 5.125,2.172c1.219,1.448 1.828,3.521 1.828,6.219l0,1.203l-11.453,0c0.042,1.667 0.529,3.013 1.461,4.039c0.933,1.026 2.117,1.539 3.555,1.539c1.021,0 1.885,-0.208 2.594,-0.625c0.708,-0.417 1.328,-0.969 1.859,-1.656l1.766,1.375c-1.417,2.177 -3.542,3.265 -6.375,3.265Zm-0.36,-15.156c-1.166,0 -2.145,0.425 -2.937,1.274c-0.792,0.849 -1.281,2.039 -1.469,3.57l8.469,0l0,-0.219c-0.083,-1.469 -0.479,-2.607 -1.188,-3.414c-0.708,-0.807 -1.666,-1.211 -2.875,-1.211Z" style="fill:#fff;fill-rule:nonzero;"/><path d="M711.953,481.266l3.75,-6.172l3.375,0l-5.531,8.359l5.703,8.547l-3.344,0l-3.906,-6.328l-3.906,6.328l-3.36,0l5.703,-8.547l-5.531,-8.359l3.344,0l3.703,6.172Z" style="fill:#fff;fill-rule:nonzero;"/><path d="M726.063,471l0,4.094l3.156,0l0,2.234l-3.156,0l0,10.484c0,0.678 0.14,1.185 0.421,1.524c0.282,0.338 0.761,0.508 1.438,0.508c0.333,0 0.792,-0.063 1.375,-0.188l0,2.344c-0.761,0.208 -1.5,0.312 -2.219,0.312c-1.292,0 -2.265,-0.39 -2.922,-1.171c-0.656,-0.782 -0.984,-1.891 -0.984,-3.329l0,-10.484l-3.078,0l0,-2.234l3.078,0l0,-4.094l2.891,0Z" style="fill:#fff;fill-rule:nonzero;"/></g><g><path d="M1240,460c0,-11.038 -8.962,-20 -20,-20l-160,0c-11.038,0 -20,8.962 -20,20l0,40c0,11.038 8.962,20 20,20l160,0c11.038,0 20,-8.962 20,-20l0,-40Z" style="fill:#27c278;"/><path d="M1127.95,471.719l-7.312,0l0,20.281l-2.985,0l0,-20.281l-7.297,0l0,-2.469l17.594,0l0,2.469Z" style="fill:#fff;fill-rule:nonzero;"/><path d="M1136.34,492.312c-2.292,0 -4.156,-0.752 -5.594,-2.257c-1.437,-1.506 -2.156,-3.519 -2.156,-6.039l0,-0.532c0,-1.677 0.32,-3.174 0.961,-4.492c0.64,-1.318 1.536,-2.349 2.687,-3.094c1.151,-0.744 2.399,-1.117 3.742,-1.117c2.198,0 3.907,0.724 5.125,2.172c1.219,1.448 1.829,3.521 1.829,6.219l0,1.203l-11.454,0c0.042,1.667 0.529,3.013 1.461,4.039c0.933,1.026 2.118,1.539 3.555,1.539c1.021,0 1.885,-0.208 2.594,-0.625c0.708,-0.417 1.328,-0.969 1.859,-1.656l1.766,1.375c-1.417,2.177 -3.542,3.265 -6.375,3.265Zm-0.36,-15.156c-1.166,0 -2.145,0.425 -2.937,1.274c-0.792,0.849 -1.281,2.039 -1.469,3.57l8.469,0l0,-0.219c-0.083,-1.469 -0.479,-2.607 -1.188,-3.414c-0.708,-0.807 -1.666,-1.211 -2.875,-1.211Z" style="fill:#fff;fill-rule:nonzero;"/><path d="M1151.95,481.266l3.75,-6.172l3.375,0l-5.531,8.359l5.703,8.547l-3.344,0l-3.906,-6.328l-3.906,6.328l-3.36,0l5.704,-8.547l-5.532,-8.359l3.344,0l3.703,6.172Z" style="fill:#fff;fill-rule:nonzero;"/><path d="M1166.06,471l0,4.094l3.156,0l0,2.234l-3.156,0l0,10.484c0,0.678 0.14,1.185 0.421,1.524c0.282,0.338 0.761,0.508 1.438,0.508c0.333,0 0.792,-0.063 1.375,-0.188l0,2.344c-0.761,0.208 -1.5,0.312 -2.219,0.312c-1.292,0 -2.265,-0.39 -2.922,-1.171c-0.656,-0.782 -0.984,-1.891 -0.984,-3.329l0,-10.484l-3.078,0l0,-2.234l3.078,0l0,-4.094l2.891,0Z" style="fill:#fff;fill-rule:nonzero;"/></g><path d="M1137.62,400l4.75,0l0,30.5l7.125,0l-9.5,9.5l-9.5,-9.5l7.125,0l0,-30.5Z" style="fill:#2d2e44;"/><path d="M697.625,400l4.75,0l0,30.5l7.125,0l-9.5,9.5l-9.5,-9.5l7.125,0l0,-30.5Z" style="fill:#2d2e44;"/><path d="M515,242.375l30,40l-30,40" style="fill:none;stroke:#2d2e44;stroke-width:8px;"/></svg>