<?xml version="1.0" encoding="UTF-8" standalone="no"?><!DOCTYPE svg PUBLIC "-//W3C//DTD SVG 1.1//EN" "http://www.w3.org/Graphics/SVG/1.1/DTD/svg11.dtd"><svg width="100%" height="100%" viewBox="0 0 1280 560" version="1.1" xmlns="http://www.w3.org/2000/svg" xmlns:xlink="http://www.w3.org/1999/xlink" xml:space="preserve" xmlns:serif="http://www.serif.com/" style="fill-rule:evenodd;clip-rule:evenodd;stroke-linecap:round;stroke-linejoin:round;stroke-miterlimit:1.5;"><g><path d="M350,180c0,-11.038 -8.962,-20 -20,-20l-160,0c-11.038,0 -20,8.962 -20,20l0,40c0,11.038 8.962,20 20,20l160,0c11.038,0 20,-8.962 20,-20l0,-40Z" style="fill:#27c278;"/><text x="194.906px" y="212px" style="font-family:'Roboto-Regular', 'Roboto';font-size:32px;fill:#fff;">Column</text></g><g><path d="M240,340c0,-11.038 -8.962,-20 -20,-20l-160,0c-11.038,0 -20,8.962 -20,20l0,40c0,11.038 8.962,20 20,20l160,0c11.038,0 20,-8.962 20,-20l0,-40Z" style="fill:#27c278;"/><text x="58.922px" y="372px" style="font-family:'Roboto-Regular', 'Roboto';font-size:32px;fill:#fff;">Rule34Item</text></g><g><path d="M460,340c0,-11.038 -8.962,-20 -20,-20l-160,0c-11.038,0 -20,8.962 -20,20l0,40c0,11.038 8.962,20 20,20l160,0c11.038,0 20,-8.962 20,-20l0,-40Z" style="fill:#27c278;"/><text x="278.922px" y="372px" style="font-family:'Roboto-Regular', 'Roboto';font-size:32px;fill:#fff;">Rule34Item</text></g><rect x="138.125" y="280" width="224.25" height="4.75" style="fill:#2d2e44;"/><path d="M247.625,240l4.75,0l0,40l-4.75,0l0,-40Z" style="fill:#2d2e44;"/><g><path d="M350,60c0,-11.038 -8.962,-20 -20,-20l-160,0c-11.038,0 -20,8.962 -20,20l0,40c0,11.038 8.962,20 20,20l160,0c11.038,0 20,-8.962 20,-20l0,-40Z" style="fill:#27c278;"/><text x="201px" y="92px" style="font-family:'Roboto-Regular', 'Roboto';font-size:32px;fill:#fff;">Rule34</text></g><path d="M247.625,120l4.75,0l0,30.5l7.125,0l-9.5,9.5l-9.5,-9.5l7.125,0l0,-30.5Z" style="fill:#2d2e44;"/><path d="M357.625,280l4.75,0l0,30.5l7.125,0l-9.5,9.5l-9.5,-9.5l7.125,0l0,-30.5Z" style="fill:#2d2e44;"/><path d="M138.125,280l4.75,0l0,30.5l7.125,0l-9.5,9.5l-9.5,-9.5l7.125,0l0,-30.5Z" style="fill:#2d2e44;"/><g><path d="M240,460c0,-11.038 -8.962,-20 -20,-20l-160,0c-11.038,0 -20,8.962 -20,20l0,40c0,11.038 8.962,20 20,20l160,0c11.038,0 20,-8.962 20,-20l0,-40Z" style="fill:#27c278;"/><text x="109.594px" y="492px" style="font-family:'Roboto-Regular', 'Roboto';font-size:32px;fill:#fff;">T<tspan x="127.141px " y="492px ">e</tspan>xt</text></g><g><path d="M460,460c0,-11.038 -8.962,-20 -20,-20l-160,0c-11.038,0 -20,8.962 -20,20l0,40c0,11.038 8.962,20 20,20l160,0c11.038,0 20,-8.962 20,-20l0,-40Z" style="fill:#27c278;"/><text x="329.594px" y="492px" style="font-family:'Roboto-Regular', 'Roboto';font-size:32px;fill:#fff;">T<tspan x="347.141px " y="492px ">e</tspan>xt</text></g><path d="M357.625,400l4.75,0l0,30.5l7.125,0l-9.5,9.5l-9.5,-9.5l7.125,0l0,-30.5Z" style="fill:#2d2e44;"/><path d="M137.625,400l4.75,0l0,30.5l7.125,0l-9.5,9.5l-9.5,-9.5l7.125,0l0,-30.5Z" style="fill:#2d2e44;"/><g><path d="M1020,180c0,-11.038 -8.962,-20 -20,-20l-160,0c-11.038,0 -20,8.962 -20,20l0,40c0,11.038 8.962,20 20,20l160,0c11.038,0 20,-8.962 20,-20l0,-40Z" style="fill:#27c278;"/><text x="864.906px" y="212px" style="font-family:'Roboto-Regular', 'Roboto';font-size:32px;fill:#fff;">Column</text></g><g><path d="M800,340c0,-11.038 -8.962,-20 -20,-20l-160,0c-11.038,0 -20,8.962 -20,20l0,40c0,11.038 8.962,20 20,20l160,0c11.038,0 20,-8.962 20,-20l0,-40Z" style="fill:#27c278;"/><text x="618.922px" y="372px" style="font-family:'Roboto-Regular', 'Roboto';font-size:32px;fill:#fff;">Rule34Item</text></g><g><path d="M1020,340c0,-11.038 -8.962,-20 -20,-20l-160,0c-11.038,0 -20,8.962 -20,20l0,40c0,11.038 8.962,20 20,20l160,0c11.038,0 20,-8.962 20,-20l0,-40Z" style="fill:#fff;"/><path d="M1000.13,320l0.129,0.002l0.129,0.002l0.129,0.003l0.128,0.003l0.129,0.005l0.128,0.005l0.128,0.006l0.127,0.007l0.128,0.008l0.127,0.008l0.127,0.009l0.127,0.01l0.126,0.011l0.127,0.012l0.126,0.012l0.126,0.014l0.125,0.014l0.126,0.014l0.125,0.016l0.125,0.016l0.124,0.017l0.125,0.018l0.124,0.019l0.124,0.019l0.124,0.02l0.123,0.021l0.123,0.022l0.123,0.022l0.123,0.023l0.122,0.024l0.123,0.025l0.121,0.025l0.122,0.026l0.121,0.027l0.121,0.028l0.121,0.028l0.121,0.029l0.12,0.03l0.12,0.03l0.119,0.031l0.12,0.032l0.119,0.033l0.119,0.033l0.118,0.034l0.118,0.035l0.118,0.036l0.118,0.036l0.117,0.037l0.117,0.037l0.116,0.039l0.117,0.039l0.116,0.039l0.115,0.041l0.116,0.041l0.115,0.041l0.114,0.043l0.115,0.043l0.114,0.044l0.113,0.044l0.227,0.091l0.225,0.094l0.223,0.096l0.223,0.099l0.22,0.101l0.22,0.104l0.217,0.107l0.217,0.109l0.215,0.112l0.213,0.114l0.212,0.117l0.21,0.119l0.208,0.122l0.207,0.124l0.206,0.127l0.204,0.129l0.202,0.131l0.2,0.134l0.199,0.136l0.197,0.138l0.195,0.141l0.193,0.142l0.192,0.146l0.19,0.147l0.188,0.15l0.186,0.151l0.184,0.154l0.183,0.157l0.18,0.158l0.179,0.16l0.176,0.163l0.175,0.164l0.173,0.167l0.17,0.169l0.169,0.17l0.167,0.173l0.164,0.175l0.163,0.176l0.16,0.179l0.158,0.18l0.157,0.183l0.154,0.184l0.151,0.186l0.15,0.188l0.147,0.19l0.146,0.192l0.142,0.193l0.141,0.195l0.138,0.197l0.136,0.199l0.134,0.2l0.131,0.202l0.129,0.204l0.127,0.206l0.124,0.207l0.122,0.208l0.119,0.21l0.117,0.212l0.114,0.213l0.112,0.215l0.109,0.217l0.107,0.217l0.104,0.22l0.101,0.22l0.099,0.223l0.096,0.223l0.094,0.225l0.091,0.227l0.044,0.113l0.044,0.114l0.043,0.115l0.043,0.114l0.041,0.115l0.041,0.116l0.041,0.115l0.039,0.116l0.039,0.117l0.039,0.116l0.037,0.117l0.037,0.117l0.036,0.118l0.036,0.118l0.035,0.118l0.034,0.118l0.033,0.119l0.033,0.119l0.032,0.12l0.031,0.119l0.03,0.12l0.03,0.12l0.029,0.121l0.028,0.121l0.028,0.121l0.027,0.121l0.026,0.122l0.025,0.121l0.025,0.123l0.024,0.122l0.023,0.123l0.022,0.123l0.022,0.123l0.021,0.123l0.02,0.124l0.019,0.124l0.019,0.124l0.018,0.125l0.017,0.124l0.016,0.125l0.016,0.125l0.014,0.126l0.014,0.125l0.014,0.126l0.012,0.126l0.012,0.127l0.011,0.126l0.01,0.127l0.009,0.127l0.008,0.127l0.008,0.128l0.007,0.127l0.006,0.128l0.005,0.128l0.005,0.129l0.003,0.128l0.003,0.129l0.002,0.129l0.002,0.129l0,0.129l0,40l0,0.129l-0.002,0.129l-0.002,0.129l-0.003,0.129l-0.003,0.128l-0.005,0.129l-0.005,0.128l-0.006,0.128l-0.007,0.127l-0.008,0.128l-0.008,0.127l-0.009,0.127l-0.01,0.127l-0.011,0.126l-0.012,0.127l-0.012,0.126l-0.014,0.126l-0.014,0.125l-0.014,0.126l-0.016,0.125l-0.016,0.125l-0.017,0.124l-0.018,0.125l-0.019,0.124l-0.019,0.124l-0.02,0.124l-0.021,0.123l-0.022,0.123l-0.022,0.123l-0.023,0.123l-0.024,0.122l-0.025,0.123l-0.025,0.121l-0.026,0.122l-0.027,0.121l-0.028,0.121l-0.028,0.121l-0.029,0.121l-0.03,0.12l-0.03,0.12l-0.031,0.119l-0.032,0.12l-0.033,0.119l-0.033,0.119l-0.034,0.118l-0.035,0.118l-0.036,0.118l-0.036,0.118l-0.037,0.117l-0.037,0.117l-0.039,0.116l-0.039,0.117l-0.039,0.116l-0.041,0.115l-0.041,0.116l-0.041,0.115l-0.043,0.114l-0.043,0.115l-0.044,0.114l-0.044,0.113l-0.091,0.227l-0.094,0.225l-0.096,0.223l-0.099,0.223l-0.101,0.22l-0.104,0.22l-0.107,0.217l-0.109,0.217l-0.112,0.215l-0.114,0.213l-0.117,0.212l-0.119,0.21l-0.122,0.208l-0.124,0.207l-0.127,0.206l-0.129,0.204l-0.131,0.202l-0.134,0.2l-0.136,0.199l-0.138,0.197l-0.141,0.195l-0.142,0.193l-0.146,0.192l-0.147,0.19l-0.15,0.188l-0.151,0.186l-0.154,0.184l-0.157,0.183l-0.158,0.18l-0.16,0.179l-0.163,0.176l-0.164,0.175l-0.167,0.173l-0.169,0.17l-0.17,0.169l-0.173,0.167l-0.175,0.164l-0.176,0.163l-0.179,0.16l-0.18,0.158l-0.183,0.157l-0.184,0.154l-0.186,0.151l-0.188,0.15l-0.19,0.147l-0.192,0.146l-0.193,0.142l-0.195,0.141l-0.197,0.138l-0.199,0.136l-0.2,0.134l-0.202,0.131l-0.204,0.129l-0.206,0.127l-0.207,0.124l-0.208,0.122l-0.21,0.119l-0.212,0.117l-0.213,0.114l-0.215,0.112l-0.217,0.109l-0.217,0.107l-0.22,0.104l-0.22,0.101l-0.223,0.099l-0.223,0.096l-0.225,0.094l-0.227,0.091l-0.113,0.044l-0.114,0.044l-0.115,0.043l-0.114,0.043l-0.115,0.041l-0.116,0.041l-0.115,0.041l-0.116,0.039l-0.117,0.039l-0.116,0.039l-0.117,0.037l-0.117,0.037l-0.118,0.036l-0.118,0.036l-0.118,0.035l-0.118,0.034l-0.119,0.033l-0.119,0.033l-0.12,0.032l-0.119,0.031l-0.12,0.03l-0.12,0.03l-0.121,0.029l-0.121,0.028l-0.121,0.028l-0.121,0.027l-0.122,0.026l-0.121,0.025l-0.123,0.025l-0.122,0.024l-0.123,0.023l-0.123,0.022l-0.123,0.022l-0.123,0.021l-0.124,0.02l-0.124,0.019l-0.124,0.019l-0.125,0.018l-0.124,0.017l-0.125,0.016l-0.125,0.016l-0.126,0.014l-0.125,0.014l-0.126,0.014l-0.126,0.012l-0.127,0.012l-0.126,0.011l-0.127,0.01l-0.127,0.009l-0.127,0.008l-0.128,0.008l-0.127,0.007l-0.128,0.006l-0.128,0.005l-0.129,0.005l-0.128,0.003l-0.129,0.003l-0.129,0.002l-0.129,0.002l-0.129,0l-160,0l-0.129,0l-0.129,-0.002l-0.129,-0.002l-0.129,-0.003l-0.128,-0.003l-0.129,-0.005l-0.128,-0.005l-0.128,-0.006l-0.127,-0.007l-0.128,-0.008l-0.127,-0.008l-0.127,-0.009l-0.127,-0.01l-0.126,-0.011l-0.127,-0.012l-0.126,-0.012l-0.126,-0.014l-0.125,-0.014l-0.126,-0.014l-0.125,-0.016l-0.125,-0.016l-0.124,-0.017l-0.125,-0.018l-0.124,-0.019l-0.124,-0.019l-0.124,-0.02l-0.123,-0.021l-0.123,-0.022l-0.123,-0.022l-0.123,-0.023l-0.122,-0.024l-0.123,-0.025l-0.121,-0.025l-0.122,-0.026l-0.121,-0.027l-0.121,-0.028l-0.121,-0.028l-0.121,-0.029l-0.12,-0.03l-0.12,-0.03l-0.119,-0.031l-0.12,-0.032l-0.119,-0.033l-0.119,-0.033l-0.118,-0.034l-0.118,-0.035l-0.118,-0.036l-0.118,-0.036l-0.117,-0.037l-0.117,-0.037l-0.116,-0.039l-0.117,-0.039l-0.116,-0.039l-0.115,-0.041l-0.116,-0.041l-0.115,-0.041l-0.114,-0.043l-0.115,-0.043l-0.114,-0.044l-0.113,-0.044l-0.227,-0.091l-0.225,-0.094l-0.223,-0.096l-0.223,-0.099l-0.22,-0.101l-0.22,-0.104l-0.217,-0.107l-0.217,-0.109l-0.215,-0.112l-0.213,-0.114l-0.212,-0.117l-0.21,-0.119l-0.208,-0.122l-0.207,-0.124l-0.206,-0.127l-0.204,-0.129l-0.202,-0.131l-0.2,-0.134l-0.199,-0.136l-0.197,-0.138l-0.195,-0.141l-0.193,-0.142l-0.192,-0.146l-0.19,-0.147l-0.188,-0.15l-0.186,-0.151l-0.184,-0.154l-0.183,-0.157l-0.18,-0.158l-0.179,-0.16l-0.176,-0.163l-0.175,-0.164l-0.173,-0.167l-0.17,-0.169l-0.169,-0.17l-0.167,-0.173l-0.164,-0.175l-0.163,-0.176l-0.16,-0.179l-0.158,-0.18l-0.157,-0.183l-0.154,-0.184l-0.151,-0.186l-0.15,-0.188l-0.147,-0.19l-0.146,-0.192l-0.142,-0.193l-0.141,-0.195l-0.138,-0.197l-0.136,-0.199l-0.134,-0.2l-0.131,-0.202l-0.129,-0.204l-0.127,-0.206l-0.124,-0.207l-0.122,-0.208l-0.119,-0.21l-0.117,-0.212l-0.114,-0.213l-0.112,-0.215l-0.109,-0.217l-0.107,-0.217l-0.104,-0.22l-0.101,-0.22l-0.099,-0.223l-0.096,-0.223l-0.094,-0.225l-0.091,-0.227l-0.044,-0.113l-0.044,-0.114l-0.043,-0.115l-0.043,-0.114l-0.041,-0.115l-0.041,-0.116l-0.041,-0.115l-0.039,-0.116l-0.039,-0.117l-0.039,-0.116l-0.037,-0.117l-0.037,-0.117l-0.036,-0.118l-0.036,-0.118l-0.035,-0.118l-0.034,-0.118l-0.033,-0.119l-0.033,-0.119l-0.032,-0.12l-0.031,-0.119l-0.03,-0.12l-0.03,-0.12l-0.029,-0.121l-0.028,-0.121l-0.028,-0.121l-0.027,-0.121l-0.026,-0.122l-0.025,-0.121l-0.025,-0.123l-0.024,-0.122l-0.023,-0.123l-0.022,-0.123l-0.022,-0.123l-0.021,-0.123l-0.02,-0.124l-0.019,-0.124l-0.019,-0.124l-0.018,-0.125l-0.017,-0.124l-0.016,-0.125l-0.016,-0.125l-0.014,-0.126l-0.014,-0.125l-0.014,-0.126l-0.012,-0.126l-0.012,-0.127l-0.011,-0.126l-0.01,-0.127l-0.009,-0.127l-0.008,-0.127l-0.008,-0.128l-0.007,-0.127l-0.006,-0.128l-0.005,-0.128l-0.005,-0.129l-0.003,-0.128l-0.003,-0.129l-0.002,-0.129l-0.002,-0.129l0,-0.129l0,-40l0,-0.129l0.002,-0.129l0.002,-0.129l0.003,-0.129l0.003,-0.128l0.005,-0.129l0.005,-0.128l0.006,-0.128l0.007,-0.127l0.008,-0.128l0.008,-0.127l0.009,-0.127l0.01,-0.127l0.011,-0.126l0.012,-0.127l0.012,-0.126l0.014,-0.126l0.014,-0.125l0.014,-0.126l0.016,-0.125l0.016,-0.125l0.017,-0.124l0.018,-0.125l0.019,-0.124l0.019,-0.124l0.02,-0.124l0.021,-0.123l0.022,-0.123l0.022,-0.123l0.023,-0.123l0.024,-0.122l0.025,-0.123l0.025,-0.121l0.026,-0.122l0.027,-0.121l0.028,-0.121l0.028,-0.121l0.029,-0.121l0.03,-0.12l0.03,-0.12l0.031,-0.119l0.032,-0.12l0.033,-0.119l0.033,-0.119l0.034,-0.118l0.035,-0.118l0.036,-0.118l0.036,-0.118l0.037,-0.117l0.037,-0.117l0.039,-0.116l0.039,-0.117l0.039,-0.116l0.041,-0.115l0.041,-0.116l0.041,-0.115l0.043,-0.114l0.043,-0.115l0.044,-0.114l0.044,-0.113l0.091,-0.227l0.094,-0.225l0.096,-0.223l0.099,-0.223l0.101,-0.22l0.104,-0.22l0.107,-0.217l0.109,-0.217l0.112,-0.215l0.114,-0.213l0.117,-0.212l0.119,-0.21l0.122,-0.208l0.124,-0.207l0.127,-0.206l0.129,-0.204l0.131,-0.202l0.134,-0.2l0.136,-0.199l0.138,-0.197l0.141,-0.195l0.142,-0.193l0.146,-0.192l0.147,-0.19l0.15,-0.188l0.151,-0.186l0.154,-0.184l0.157,-0.183l0.158,-0.18l0.16,-0.179l0.163,-0.176l0.164,-0.175l0.167,-0.173l0.169,-0.17l0.17,-0.169l0.173,-0.167l0.175,-0.164l0.176,-0.163l0.179,-0.16l0.18,-0.158l0.183,-0.157l0.184,-0.154l0.186,-0.151l0.188,-0.15l0.19,-0.147l0.192,-0.146l0.193,-0.142l0.195,-0.141l0.197,-0.138l0.199,-0.136l0.2,-0.134l0.202,-0.131l0.204,-0.129l0.206,-0.127l0.207,-0.124l0.208,-0.122l0.21,-0.119l0.212,-0.117l0.213,-0.114l0.215,-0.112l0.217,-0.109l0.217,-0.107l0.22,-0.104l0.22,-0.101l0.223,-0.099l0.223,-0.096l0.225,-0.094l0.227,-0.091l0.113,-0.044l0.114,-0.044l0.115,-0.043l0.114,-0.043l0.115,-0.041l0.116,-0.041l0.115,-0.041l0.116,-0.039l0.117,-0.039l0.116,-0.039l0.117,-0.037l0.117,-0.037l0.118,-0.036l0.118,-0.036l0.118,-0.035l0.118,-0.034l0.119,-0.033l0.119,-0.033l0.12,-0.032l0.119,-0.031l0.12,-0.03l0.12,-0.03l0.121,-0.029l0.121,-0.028l0.121,-0.028l0.121,-0.027l0.122,-0.026l0.121,-0.025l0.123,-0.025l0.122,-0.024l0.123,-0.023l0.123,-0.022l0.123,-0.022l0.123,-0.021l0.124,-0.02l0.124,-0.019l0.124,-0.019l0.125,-0.018l0.124,-0.017l0.125,-0.016l0.125,-0.016l0.126,-0.014l0.125,-0.014l0.126,-0.014l0.126,-0.012l0.127,-0.012l0.126,-0.011l0.127,-0.01l0.127,-0.009l0.127,-0.008l0.128,-0.008l0.127,-0.007l0.128,-0.006l0.128,-0.005l0.129,-0.005l0.128,-0.003l0.129,-0.003l0.129,-0.002l0.129,-0.002l0.129,0l160,0l0.129,0Zm-160.123,4l-0.11,0l-0.104,0.001l-0.103,0.002l-0.103,0.002l-0.104,0.003l-0.102,0.004l-0.103,0.004l-0.103,0.005l-0.102,0.005l-0.102,0.007l-0.102,0.006l-0.102,0.008l-0.102,0.008l-0.101,0.009l-0.101,0.009l-0.101,0.01l-0.101,0.01l-0.101,0.012l-0.099,0.011l-0.101,0.013l-0.1,0.013l-0.1,0.014l-0.099,0.014l-0.099,0.015l-0.1,0.015l-0.098,0.016l-0.099,0.017l-0.098,0.017l-0.098,0.018l-0.098,0.019l-0.098,0.019l-0.098,0.019l-0.097,0.021l-0.097,0.02l-0.097,0.022l-0.097,0.022l-0.096,0.022l-0.096,0.024l-0.097,0.023l-0.095,0.025l-0.096,0.025l-0.095,0.025l-0.095,0.026l-0.095,0.027l-0.094,0.027l-0.095,0.028l-0.094,0.028l-0.093,0.029l-0.094,0.029l-0.094,0.031l-0.093,0.03l-0.093,0.031l-0.092,0.032l-0.092,0.032l-0.092,0.033l-0.092,0.033l-0.092,0.034l-0.092,0.035l-0.091,0.035l-0.084,0.033l-0.187,0.075l-0.18,0.074l-0.178,0.077l-0.178,0.079l-0.176,0.081l-0.176,0.084l-0.174,0.085l-0.172,0.087l-0.172,0.089l-0.17,0.092l-0.17,0.093l-0.168,0.096l-0.167,0.097l-0.166,0.099l-0.164,0.102l-0.163,0.103l-0.161,0.105l-0.161,0.107l-0.159,0.109l-0.158,0.11l-0.156,0.113l-0.155,0.115l-0.154,0.116l-0.152,0.118l-0.15,0.12l-0.149,0.121l-0.148,0.124l-0.146,0.125l-0.145,0.127l-0.143,0.128l-0.142,0.13l-0.14,0.132l-0.138,0.134l-0.137,0.135l-0.135,0.137l-0.134,0.139l-0.132,0.139l-0.13,0.142l-0.128,0.143l-0.127,0.144l-0.125,0.147l-0.124,0.148l-0.122,0.149l-0.119,0.15l-0.118,0.152l-0.117,0.154l-0.114,0.155l-0.112,0.156l-0.111,0.158l-0.109,0.159l-0.107,0.16l-0.105,0.162l-0.103,0.163l-0.102,0.165l-0.099,0.165l-0.097,0.167l-0.096,0.168l-0.093,0.169l-0.091,0.171l-0.09,0.171l-0.087,0.173l-0.085,0.175l-0.084,0.175l-0.081,0.176l-0.079,0.178l-0.076,0.178l-0.075,0.18l-0.075,0.187l-0.034,0.085l-0.034,0.091l-0.035,0.09l-0.034,0.093l-0.033,0.092l-0.033,0.091l-0.032,0.093l-0.032,0.093l-0.031,0.092l-0.03,0.093l-0.031,0.094l-0.029,0.094l-0.029,0.093l-0.028,0.094l-0.028,0.095l-0.027,0.095l-0.027,0.093l-0.026,0.095l-0.026,0.097l-0.024,0.095l-0.025,0.095l-0.023,0.096l-0.024,0.097l-0.022,0.097l-0.022,0.095l-0.021,0.097l-0.021,0.098l-0.021,0.097l-0.019,0.098l-0.02,0.098l-0.018,0.098l-0.018,0.097l-0.017,0.099l-0.017,0.099l-0.016,0.098l-0.015,0.1l-0.015,0.099l-0.014,0.1l-0.014,0.1l-0.013,0.099l-0.012,0.1l-0.012,0.101l-0.012,0.1l-0.01,0.101l-0.01,0.101l-0.009,0.101l-0.009,0.102l-0.008,0.102l-0.008,0.101l-0.006,0.101l-0.007,0.104l-0.005,0.102l-0.005,0.101l-0.004,0.102l-0.004,0.104l-0.003,0.104l-0.002,0.103l-0.002,0.104l-0.001,0.103l0,0.11l0,39.988l0,0.11l0.001,0.103l0.002,0.104l0.002,0.103l0.003,0.104l0.004,0.104l0.004,0.102l0.005,0.101l0.005,0.102l0.007,0.104l0.006,0.101l0.008,0.101l0.008,0.102l0.009,0.102l0.009,0.101l0.01,0.101l0.01,0.101l0.012,0.1l0.012,0.101l0.012,0.1l0.013,0.099l0.014,0.1l0.014,0.1l0.015,0.099l0.015,0.1l0.016,0.098l0.017,0.099l0.017,0.099l0.018,0.097l0.018,0.098l0.02,0.098l0.019,0.098l0.021,0.097l0.021,0.098l0.021,0.097l0.022,0.095l0.022,0.097l0.024,0.097l0.023,0.096l0.025,0.095l0.024,0.095l0.026,0.097l0.026,0.095l0.027,0.093l0.027,0.095l0.028,0.095l0.028,0.094l0.029,0.093l0.029,0.094l0.031,0.094l0.03,0.093l0.031,0.092l0.032,0.093l0.032,0.093l0.033,0.091l0.033,0.092l0.034,0.093l0.035,0.09l0.034,0.091l0.034,0.085l0.075,0.187l0.075,0.18l0.076,0.178l0.079,0.178l0.081,0.176l0.084,0.175l0.085,0.175l0.087,0.173l0.09,0.171l0.091,0.171l0.093,0.169l0.096,0.168l0.097,0.167l0.099,0.165l0.102,0.165l0.103,0.163l0.105,0.162l0.107,0.16l0.109,0.159l0.111,0.158l0.112,0.156l0.114,0.155l0.117,0.154l0.118,0.152l0.119,0.15l0.122,0.149l0.124,0.148l0.125,0.147l0.127,0.144l0.128,0.143l0.13,0.141l0.132,0.141l0.134,0.138l0.135,0.137l0.137,0.135l0.138,0.133l0.14,0.133l0.142,0.13l0.143,0.128l0.145,0.127l0.146,0.125l0.148,0.124l0.149,0.121l0.15,0.12l0.152,0.118l0.154,0.116l0.155,0.115l0.156,0.113l0.158,0.11l0.159,0.109l0.16,0.107l0.162,0.105l0.163,0.103l0.164,0.102l0.166,0.099l0.167,0.097l0.168,0.096l0.169,0.093l0.171,0.091l0.172,0.09l0.172,0.087l0.175,0.085l0.175,0.084l0.176,0.081l0.178,0.079l0.178,0.076l0.18,0.075l0.187,0.075l0.084,0.033l0.092,0.035l0.091,0.035l0.091,0.034l0.092,0.033l0.093,0.033l0.092,0.032l0.092,0.032l0.093,0.031l0.094,0.031l0.092,0.029l0.094,0.03l0.094,0.029l0.094,0.028l0.095,0.028l0.094,0.027l0.095,0.027l0.095,0.026l0.095,0.025l0.096,0.025l0.096,0.025l0.095,0.023l0.097,0.024l0.096,0.022l0.097,0.022l0.097,0.022l0.097,0.02l0.097,0.021l0.098,0.019l0.097,0.019l0.099,0.019l0.098,0.018l0.098,0.017l0.098,0.017l0.1,0.016l0.099,0.015l0.099,0.015l0.1,0.015l0.099,0.013l0.1,0.013l0.101,0.013l0.1,0.011l0.1,0.012l0.101,0.01l0.1,0.01l0.102,0.009l0.102,0.009l0.101,0.008l0.102,0.008l0.102,0.006l0.102,0.007l0.102,0.005l0.103,0.005l0.103,0.004l0.103,0.004l0.103,0.003l0.103,0.002l0.104,0.002l0.103,0.001l0.11,0l159.988,0l0.11,0l0.103,-0.001l0.104,-0.002l0.103,-0.002l0.103,-0.003l0.103,-0.004l0.103,-0.004l0.103,-0.005l0.102,-0.005l0.102,-0.007l0.102,-0.006l0.102,-0.008l0.101,-0.008l0.102,-0.009l0.102,-0.009l0.1,-0.01l0.101,-0.01l0.1,-0.012l0.1,-0.011l0.101,-0.013l0.1,-0.013l0.099,-0.013l0.1,-0.015l0.099,-0.015l0.099,-0.015l0.1,-0.016l0.098,-0.017l0.098,-0.017l0.098,-0.018l0.099,-0.019l0.097,-0.019l0.098,-0.019l0.097,-0.021l0.097,-0.02l0.097,-0.022l0.097,-0.022l0.096,-0.022l0.097,-0.024l0.095,-0.023l0.096,-0.025l0.096,-0.025l0.095,-0.025l0.095,-0.026l0.095,-0.027l0.094,-0.027l0.095,-0.028l0.094,-0.028l0.094,-0.029l0.094,-0.03l0.092,-0.029l0.094,-0.031l0.093,-0.031l0.092,-0.032l0.092,-0.032l0.093,-0.033l0.092,-0.033l0.091,-0.034l0.091,-0.035l0.092,-0.035l0.084,-0.033l0.187,-0.075l0.18,-0.075l0.178,-0.076l0.178,-0.079l0.176,-0.081l0.175,-0.084l0.175,-0.085l0.172,-0.087l0.172,-0.09l0.171,-0.091l0.169,-0.093l0.168,-0.096l0.167,-0.097l0.166,-0.099l0.164,-0.102l0.163,-0.103l0.162,-0.105l0.16,-0.107l0.159,-0.109l0.158,-0.11l0.156,-0.113l0.155,-0.115l0.154,-0.116l0.152,-0.118l0.15,-0.12l0.149,-0.121l0.148,-0.124l0.146,-0.125l0.145,-0.127l0.143,-0.128l0.142,-0.13l0.14,-0.133l0.138,-0.133l0.137,-0.135l0.135,-0.137l0.134,-0.138l0.132,-0.141l0.13,-0.141l0.128,-0.143l0.127,-0.144l0.125,-0.147l0.124,-0.148l0.122,-0.149l0.119,-0.15l0.118,-0.152l0.117,-0.154l0.114,-0.155l0.112,-0.156l0.111,-0.158l0.109,-0.159l0.107,-0.16l0.105,-0.162l0.103,-0.163l0.102,-0.165l0.099,-0.165l0.097,-0.167l0.096,-0.168l0.093,-0.169l0.091,-0.171l0.09,-0.171l0.087,-0.173l0.085,-0.175l0.084,-0.175l0.081,-0.176l0.079,-0.178l0.076,-0.178l0.075,-0.18l0.075,-0.187l0.034,-0.085l0.034,-0.091l0.035,-0.09l0.034,-0.093l0.033,-0.092l0.033,-0.091l0.032,-0.093l0.032,-0.093l0.031,-0.092l0.03,-0.093l0.031,-0.094l0.029,-0.094l0.029,-0.093l0.028,-0.094l0.028,-0.095l0.027,-0.095l0.027,-0.093l0.026,-0.095l0.026,-0.097l0.024,-0.095l0.025,-0.095l0.023,-0.096l0.024,-0.097l0.022,-0.097l0.022,-0.095l0.021,-0.097l0.021,-0.098l0.021,-0.097l0.019,-0.098l0.02,-0.098l0.018,-0.098l0.018,-0.097l0.017,-0.099l0.017,-0.099l0.016,-0.098l0.015,-0.1l0.015,-0.099l0.014,-0.1l0.014,-0.1l0.013,-0.099l0.012,-0.1l0.012,-0.101l0.012,-0.1l0.01,-0.101l0.01,-0.101l0.009,-0.101l0.009,-0.102l0.008,-0.102l0.008,-0.101l0.006,-0.101l0.007,-0.104l0.005,-0.102l0.005,-0.101l0.004,-0.102l0.004,-0.104l0.003,-0.104l0.002,-0.103l0.002,-0.104l0.001,-0.103l0,-0.11l0,-39.988l0,-0.11l-0.001,-0.103l-0.002,-0.104l-0.002,-0.103l-0.003,-0.104l-0.004,-0.104l-0.004,-0.102l-0.005,-0.101l-0.005,-0.102l-0.007,-0.104l-0.006,-0.101l-0.008,-0.101l-0.008,-0.102l-0.009,-0.102l-0.009,-0.101l-0.01,-0.101l-0.01,-0.101l-0.012,-0.1l-0.012,-0.101l-0.012,-0.1l-0.013,-0.099l-0.014,-0.1l-0.014,-0.1l-0.015,-0.099l-0.015,-0.1l-0.016,-0.098l-0.017,-0.099l-0.017,-0.099l-0.018,-0.097l-0.018,-0.098l-0.02,-0.098l-0.019,-0.098l-0.021,-0.097l-0.021,-0.098l-0.021,-0.097l-0.022,-0.095l-0.022,-0.097l-0.024,-0.097l-0.023,-0.096l-0.025,-0.095l-0.024,-0.095l-0.026,-0.097l-0.026,-0.095l-0.027,-0.093l-0.027,-0.095l-0.028,-0.095l-0.028,-0.094l-0.029,-0.093l-0.029,-0.094l-0.031,-0.094l-0.03,-0.093l-0.031,-0.092l-0.032,-0.093l-0.032,-0.093l-0.033,-0.091l-0.033,-0.092l-0.034,-0.093l-0.035,-0.09l-0.034,-0.091l-0.034,-0.085l-0.075,-0.187l-0.075,-0.18l-0.076,-0.178l-0.079,-0.178l-0.081,-0.176l-0.084,-0.175l-0.085,-0.175l-0.087,-0.173l-0.09,-0.171l-0.091,-0.171l-0.093,-0.169l-0.096,-0.168l-0.097,-0.167l-0.099,-0.165l-0.102,-0.165l-0.103,-0.163l-0.105,-0.162l-0.107,-0.16l-0.109,-0.159l-0.111,-0.158l-0.112,-0.156l-0.114,-0.155l-0.117,-0.154l-0.118,-0.152l-0.119,-0.15l-0.122,-0.149l-0.124,-0.148l-0.125,-0.147l-0.127,-0.144l-0.128,-0.143l-0.13,-0.142l-0.132,-0.139l-0.134,-0.139l-0.135,-0.137l-0.137,-0.135l-0.138,-0.134l-0.14,-0.132l-0.142,-0.13l-0.143,-0.128l-0.145,-0.127l-0.146,-0.125l-0.148,-0.124l-0.149,-0.121l-0.15,-0.12l-0.152,-0.118l-0.154,-0.116l-0.155,-0.115l-0.156,-0.113l-0.158,-0.11l-0.159,-0.109l-0.161,-0.107l-0.161,-0.105l-0.163,-0.103l-0.164,-0.102l-0.166,-0.099l-0.167,-0.097l-0.168,-0.096l-0.17,-0.093l-0.17,-0.092l-0.172,-0.089l-0.172,-0.087l-0.174,-0.085l-0.176,-0.084l-0.176,-0.081l-0.178,-0.079l-0.178,-0.077l-0.18,-0.074l-0.187,-0.075l-0.084,-0.033l-0.091,-0.035l-0.092,-0.035l-0.092,-0.034l-0.092,-0.033l-0.092,-0.033l-0.092,-0.032l-0.092,-0.032l-0.093,-0.031l-0.093,-0.03l-0.094,-0.031l-0.094,-0.029l-0.093,-0.029l-0.094,-0.028l-0.095,-0.028l-0.094,-0.027l-0.095,-0.027l-0.095,-0.026l-0.095,-0.025l-0.096,-0.025l-0.095,-0.025l-0.097,-0.023l-0.096,-0.024l-0.096,-0.022l-0.097,-0.022l-0.097,-0.022l-0.097,-0.02l-0.097,-0.021l-0.098,-0.019l-0.098,-0.019l-0.098,-0.019l-0.098,-0.018l-0.098,-0.017l-0.099,-0.017l-0.098,-0.016l-0.1,-0.015l-0.099,-0.015l-0.099,-0.014l-0.1,-0.014l-0.1,-0.013l-0.101,-0.013l-0.099,-0.011l-0.101,-0.012l-0.101,-0.01l-0.101,-0.01l-0.101,-0.009l-0.101,-0.009l-0.102,-0.008l-0.102,-0.008l-0.102,-0.006l-0.102,-0.007l-0.102,-0.005l-0.103,-0.005l-0.103,-0.004l-0.102,-0.004l-0.104,-0.003l-0.103,-0.002l-0.103,-0.002l-0.104,-0.001l-0.11,0l-159.988,0Z" style="fill:#27c278;"/><text x="838.922px" y="372px" style="font-family:'Roboto-Regular', 'Roboto';font-size:32px;fill:#2d2e44;">Rule34Item</text></g><g><path d="M1020,460c0,-11.038 -8.962,-20 -20,-20l-160,0c-11.038,0 -20,8.962 -20,20l0,40c0,11.038 8.962,20 20,20l160,0c11.038,0 20,-8.962 20,-20l0,-40Z" style="fill:#fff;"/><path d="M1000.13,440l0.129,0.002l0.129,0.002l0.129,0.003l0.128,0.003l0.129,0.005l0.128,0.005l0.128,0.006l0.127,0.007l0.128,0.008l0.127,0.008l0.127,0.009l0.127,0.01l0.126,0.011l0.127,0.012l0.126,0.012l0.126,0.014l0.125,0.014l0.126,0.014l0.125,0.016l0.125,0.016l0.124,0.017l0.125,0.018l0.124,0.019l0.124,0.019l0.124,0.02l0.123,0.021l0.123,0.022l0.123,0.022l0.123,0.023l0.122,0.024l0.123,0.025l0.121,0.025l0.122,0.026l0.121,0.027l0.121,0.028l0.121,0.028l0.121,0.029l0.12,0.03l0.12,0.03l0.119,0.031l0.12,0.032l0.119,0.033l0.119,0.033l0.118,0.034l0.118,0.035l0.118,0.036l0.118,0.036l0.117,0.037l0.117,0.037l0.116,0.039l0.117,0.039l0.116,0.039l0.115,0.041l0.116,0.041l0.115,0.041l0.114,0.043l0.115,0.043l0.114,0.044l0.113,0.044l0.227,0.091l0.225,0.094l0.223,0.096l0.223,0.099l0.22,0.101l0.22,0.104l0.217,0.107l0.217,0.109l0.215,0.112l0.213,0.114l0.212,0.117l0.21,0.119l0.208,0.122l0.207,0.124l0.206,0.127l0.204,0.129l0.202,0.131l0.2,0.134l0.199,0.136l0.197,0.138l0.195,0.141l0.193,0.142l0.192,0.146l0.19,0.147l0.188,0.15l0.186,0.151l0.184,0.154l0.183,0.157l0.18,0.158l0.179,0.16l0.176,0.163l0.175,0.164l0.173,0.167l0.17,0.169l0.169,0.17l0.167,0.173l0.164,0.175l0.163,0.176l0.16,0.179l0.158,0.18l0.157,0.183l0.154,0.184l0.151,0.186l0.15,0.188l0.147,0.19l0.146,0.192l0.142,0.193l0.141,0.195l0.138,0.197l0.136,0.199l0.134,0.2l0.131,0.202l0.129,0.204l0.127,0.206l0.124,0.207l0.122,0.208l0.119,0.21l0.117,0.212l0.114,0.213l0.112,0.215l0.109,0.217l0.107,0.217l0.104,0.22l0.101,0.22l0.099,0.223l0.096,0.223l0.094,0.225l0.091,0.227l0.044,0.113l0.044,0.114l0.043,0.115l0.043,0.114l0.041,0.115l0.041,0.116l0.041,0.115l0.039,0.116l0.039,0.117l0.039,0.116l0.037,0.117l0.037,0.117l0.036,0.118l0.036,0.118l0.035,0.118l0.034,0.118l0.033,0.119l0.033,0.119l0.032,0.12l0.031,0.119l0.03,0.12l0.03,0.12l0.029,0.121l0.028,0.121l0.028,0.121l0.027,0.121l0.026,0.122l0.025,0.121l0.025,0.123l0.024,0.122l0.023,0.123l0.022,0.123l0.022,0.123l0.021,0.123l0.02,0.124l0.019,0.124l0.019,0.124l0.018,0.125l0.017,0.124l0.016,0.125l0.016,0.125l0.014,0.126l0.014,0.125l0.014,0.126l0.012,0.126l0.012,0.127l0.011,0.126l0.01,0.127l0.009,0.127l0.008,0.127l0.008,0.128l0.007,0.127l0.006,0.128l0.005,0.128l0.005,0.129l0.003,0.128l0.003,0.129l0.002,0.129l0.002,0.129l0,0.129l0,40l0,0.129l-0.002,0.129l-0.002,0.129l-0.003,0.129l-0.003,0.128l-0.005,0.129l-0.005,0.128l-0.006,0.128l-0.007,0.127l-0.008,0.128l-0.008,0.127l-0.009,0.127l-0.01,0.127l-0.011,0.126l-0.012,0.127l-0.012,0.126l-0.014,0.126l-0.014,0.125l-0.014,0.126l-0.016,0.125l-0.016,0.125l-0.017,0.124l-0.018,0.125l-0.019,0.124l-0.019,0.124l-0.02,0.124l-0.021,0.123l-0.022,0.123l-0.022,0.123l-0.023,0.123l-0.024,0.122l-0.025,0.123l-0.025,0.121l-0.026,0.122l-0.027,0.121l-0.028,0.121l-0.028,0.121l-0.029,0.121l-0.03,0.12l-0.03,0.12l-0.031,0.119l-0.032,0.12l-0.033,0.119l-0.033,0.119l-0.034,0.118l-0.035,0.118l-0.036,0.118l-0.036,0.118l-0.037,0.117l-0.037,0.117l-0.039,0.116l-0.039,0.117l-0.039,0.116l-0.041,0.115l-0.041,0.116l-0.041,0.115l-0.043,0.114l-0.043,0.115l-0.044,0.114l-0.044,0.113l-0.091,0.227l-0.094,0.225l-0.096,0.223l-0.099,0.223l-0.101,0.22l-0.104,0.22l-0.107,0.217l-0.109,0.217l-0.112,0.215l-0.114,0.213l-0.117,0.212l-0.119,0.21l-0.122,0.208l-0.124,0.207l-0.127,0.206l-0.129,0.204l-0.131,0.202l-0.134,0.2l-0.136,0.199l-0.138,0.197l-0.141,0.195l-0.142,0.193l-0.146,0.192l-0.147,0.19l-0.15,0.188l-0.151,0.186l-0.154,0.184l-0.157,0.183l-0.158,0.18l-0.16,0.179l-0.163,0.176l-0.164,0.175l-0.167,0.173l-0.169,0.17l-0.17,0.169l-0.173,0.167l-0.175,0.164l-0.176,0.163l-0.179,0.16l-0.18,0.158l-0.183,0.157l-0.184,0.154l-0.186,0.151l-0.188,0.15l-0.19,0.147l-0.192,0.146l-0.193,0.142l-0.195,0.141l-0.197,0.138l-0.199,0.136l-0.2,0.134l-0.202,0.131l-0.204,0.129l-0.206,0.127l-0.207,0.124l-0.208,0.122l-0.21,0.119l-0.212,0.117l-0.213,0.114l-0.215,0.112l-0.217,0.109l-0.217,0.107l-0.22,0.104l-0.22,0.101l-0.223,0.099l-0.223,0.096l-0.225,0.094l-0.227,0.091l-0.113,0.044l-0.114,0.044l-0.115,0.043l-0.114,0.043l-0.115,0.041l-0.116,0.041l-0.115,0.041l-0.116,0.039l-0.117,0.039l-0.116,0.039l-0.117,0.037l-0.117,0.037l-0.118,0.036l-0.118,0.036l-0.118,0.035l-0.118,0.034l-0.119,0.033l-0.119,0.033l-0.12,0.032l-0.119,0.031l-0.12,0.03l-0.12,0.03l-0.121,0.029l-0.121,0.028l-0.121,0.028l-0.121,0.027l-0.122,0.026l-0.121,0.025l-0.123,0.025l-0.122,0.024l-0.123,0.023l-0.123,0.022l-0.123,0.022l-0.123,0.021l-0.124,0.02l-0.124,0.019l-0.124,0.019l-0.125,0.018l-0.124,0.017l-0.125,0.016l-0.125,0.016l-0.126,0.014l-0.125,0.014l-0.126,0.014l-0.126,0.012l-0.127,0.012l-0.126,0.011l-0.127,0.01l-0.127,0.009l-0.127,0.008l-0.128,0.008l-0.127,0.007l-0.128,0.006l-0.128,0.005l-0.129,0.005l-0.128,0.003l-0.129,0.003l-0.129,0.002l-0.129,0.002l-0.129,0l-160,0l-0.129,0l-0.129,-0.002l-0.129,-0.002l-0.129,-0.003l-0.128,-0.003l-0.129,-0.005l-0.128,-0.005l-0.128,-0.006l-0.127,-0.007l-0.128,-0.008l-0.127,-0.008l-0.127,-0.009l-0.127,-0.01l-0.126,-0.011l-0.127,-0.012l-0.126,-0.012l-0.126,-0.014l-0.125,-0.014l-0.126,-0.014l-0.125,-0.016l-0.125,-0.016l-0.124,-0.017l-0.125,-0.018l-0.124,-0.019l-0.124,-0.019l-0.124,-0.02l-0.123,-0.021l-0.123,-0.022l-0.123,-0.022l-0.123,-0.023l-0.122,-0.024l-0.123,-0.025l-0.121,-0.025l-0.122,-0.026l-0.121,-0.027l-0.121,-0.028l-0.121,-0.028l-0.121,-0.029l-0.12,-0.03l-0.12,-0.03l-0.119,-0.031l-0.12,-0.032l-0.119,-0.033l-0.119,-0.033l-0.118,-0.034l-0.118,-0.035l-0.118,-0.036l-0.118,-0.036l-0.117,-0.037l-0.117,-0.037l-0.116,-0.039l-0.117,-0.039l-0.116,-0.039l-0.115,-0.041l-0.116,-0.041l-0.115,-0.041l-0.114,-0.043l-0.115,-0.043l-0.114,-0.044l-0.113,-0.044l-0.227,-0.091l-0.225,-0.094l-0.223,-0.096l-0.223,-0.099l-0.22,-0.101l-0.22,-0.104l-0.217,-0.107l-0.217,-0.109l-0.215,-0.112l-0.213,-0.114l-0.212,-0.117l-0.21,-0.119l-0.208,-0.122l-0.207,-0.124l-0.206,-0.127l-0.204,-0.129l-0.202,-0.131l-0.2,-0.134l-0.199,-0.136l-0.197,-0.138l-0.195,-0.141l-0.193,-0.142l-0.192,-0.146l-0.19,-0.147l-0.188,-0.15l-0.186,-0.151l-0.184,-0.154l-0.183,-0.157l-0.18,-0.158l-0.179,-0.16l-0.176,-0.163l-0.175,-0.164l-0.173,-0.167l-0.17,-0.169l-0.169,-0.17l-0.167,-0.173l-0.164,-0.175l-0.163,-0.176l-0.16,-0.179l-0.158,-0.18l-0.157,-0.183l-0.154,-0.184l-0.151,-0.186l-0.15,-0.188l-0.147,-0.19l-0.146,-0.192l-0.142,-0.193l-0.141,-0.195l-0.138,-0.197l-0.136,-0.199l-0.134,-0.2l-0.131,-0.202l-0.129,-0.204l-0.127,-0.206l-0.124,-0.207l-0.122,-0.208l-0.119,-0.21l-0.117,-0.212l-0.114,-0.213l-0.112,-0.215l-0.109,-0.217l-0.107,-0.217l-0.104,-0.22l-0.101,-0.22l-0.099,-0.223l-0.096,-0.223l-0.094,-0.225l-0.091,-0.227l-0.044,-0.113l-0.044,-0.114l-0.043,-0.115l-0.043,-0.114l-0.041,-0.115l-0.041,-0.116l-0.041,-0.115l-0.039,-0.116l-0.039,-0.117l-0.039,-0.116l-0.037,-0.117l-0.037,-0.117l-0.036,-0.118l-0.036,-0.118l-0.035,-0.118l-0.034,-0.118l-0.033,-0.119l-0.033,-0.119l-0.032,-0.12l-0.031,-0.119l-0.03,-0.12l-0.03,-0.12l-0.029,-0.121l-0.028,-0.121l-0.028,-0.121l-0.027,-0.121l-0.026,-0.122l-0.025,-0.121l-0.025,-0.123l-0.024,-0.122l-0.023,-0.123l-0.022,-0.123l-0.022,-0.123l-0.021,-0.123l-0.02,-0.124l-0.019,-0.124l-0.019,-0.124l-0.018,-0.125l-0.017,-0.124l-0.016,-0.125l-0.016,-0.125l-0.014,-0.126l-0.014,-0.125l-0.014,-0.126l-0.012,-0.126l-0.012,-0.127l-0.011,-0.126l-0.01,-0.127l-0.009,-0.127l-0.008,-0.127l-0.008,-0.128l-0.007,-0.127l-0.006,-0.128l-0.005,-0.128l-0.005,-0.129l-0.003,-0.128l-0.003,-0.129l-0.002,-0.129l-0.002,-0.129l0,-0.129l0,-40l0,-0.129l0.002,-0.129l0.002,-0.129l0.003,-0.129l0.003,-0.128l0.005,-0.129l0.005,-0.128l0.006,-0.128l0.007,-0.127l0.008,-0.128l0.008,-0.127l0.009,-0.127l0.01,-0.127l0.011,-0.126l0.012,-0.127l0.012,-0.126l0.014,-0.126l0.014,-0.125l0.014,-0.126l0.016,-0.125l0.016,-0.125l0.017,-0.124l0.018,-0.125l0.019,-0.124l0.019,-0.124l0.02,-0.124l0.021,-0.123l0.022,-0.123l0.022,-0.123l0.023,-0.123l0.024,-0.122l0.025,-0.123l0.025,-0.121l0.026,-0.122l0.027,-0.121l0.028,-0.121l0.028,-0.121l0.029,-0.121l0.03,-0.12l0.03,-0.12l0.031,-0.119l0.032,-0.12l0.033,-0.119l0.033,-0.119l0.034,-0.118l0.035,-0.118l0.036,-0.118l0.036,-0.118l0.037,-0.117l0.037,-0.117l0.039,-0.116l0.039,-0.117l0.039,-0.116l0.041,-0.115l0.041,-0.116l0.041,-0.115l0.043,-0.114l0.043,-0.115l0.044,-0.114l0.044,-0.113l0.091,-0.227l0.094,-0.225l0.096,-0.223l0.099,-0.223l0.101,-0.22l0.104,-0.22l0.107,-0.217l0.109,-0.217l0.112,-0.215l0.114,-0.213l0.117,-0.212l0.119,-0.21l0.122,-0.208l0.124,-0.207l0.127,-0.206l0.129,-0.204l0.131,-0.202l0.134,-0.2l0.136,-0.199l0.138,-0.197l0.141,-0.195l0.142,-0.193l0.146,-0.192l0.147,-0.19l0.15,-0.188l0.151,-0.186l0.154,-0.184l0.157,-0.183l0.158,-0.18l0.16,-0.179l0.163,-0.176l0.164,-0.175l0.167,-0.173l0.169,-0.17l0.17,-0.169l0.173,-0.167l0.175,-0.164l0.176,-0.163l0.179,-0.16l0.18,-0.158l0.183,-0.157l0.184,-0.154l0.186,-0.151l0.188,-0.15l0.19,-0.147l0.192,-0.146l0.193,-0.142l0.195,-0.141l0.197,-0.138l0.199,-0.136l0.2,-0.134l0.202,-0.131l0.204,-0.129l0.206,-0.127l0.207,-0.124l0.208,-0.122l0.21,-0.119l0.212,-0.117l0.213,-0.114l0.215,-0.112l0.217,-0.109l0.217,-0.107l0.22,-0.104l0.22,-0.101l0.223,-0.099l0.223,-0.096l0.225,-0.094l0.227,-0.091l0.113,-0.044l0.114,-0.044l0.115,-0.043l0.114,-0.043l0.115,-0.041l0.116,-0.041l0.115,-0.041l0.116,-0.039l0.117,-0.039l0.116,-0.039l0.117,-0.037l0.117,-0.037l0.118,-0.036l0.118,-0.036l0.118,-0.035l0.118,-0.034l0.119,-0.033l0.119,-0.033l0.12,-0.032l0.119,-0.031l0.12,-0.03l0.12,-0.03l0.121,-0.029l0.121,-0.028l0.121,-0.028l0.121,-0.027l0.122,-0.026l0.121,-0.025l0.123,-0.025l0.122,-0.024l0.123,-0.023l0.123,-0.022l0.123,-0.022l0.123,-0.021l0.124,-0.02l0.124,-0.019l0.124,-0.019l0.125,-0.018l0.124,-0.017l0.125,-0.016l0.125,-0.016l0.126,-0.014l0.125,-0.014l0.126,-0.014l0.126,-0.012l0.127,-0.012l0.126,-0.011l0.127,-0.01l0.127,-0.009l0.127,-0.008l0.128,-0.008l0.127,-0.007l0.128,-0.006l0.128,-0.005l0.129,-0.005l0.128,-0.003l0.129,-0.003l0.129,-0.002l0.129,-0.002l0.129,0l160,0l0.129,0Zm-160.123,4l-0.11,0l-0.103,0.001l-0.104,0.002l-0.103,0.002l-0.103,0.003l-0.103,0.004l-0.103,0.004l-0.103,0.005l-0.102,0.005l-0.102,0.007l-0.102,0.006l-0.102,0.008l-0.101,0.008l-0.102,0.009l-0.102,0.009l-0.1,0.01l-0.101,0.01l-0.1,0.012l-0.1,0.011l-0.101,0.013l-0.1,0.013l-0.099,0.013l-0.1,0.015l-0.099,0.015l-0.099,0.015l-0.1,0.016l-0.098,0.017l-0.098,0.017l-0.098,0.018l-0.099,0.019l-0.097,0.019l-0.098,0.019l-0.097,0.021l-0.097,0.02l-0.097,0.022l-0.097,0.022l-0.096,0.022l-0.097,0.024l-0.095,0.023l-0.096,0.025l-0.096,0.025l-0.095,0.025l-0.095,0.026l-0.095,0.027l-0.094,0.027l-0.095,0.028l-0.094,0.028l-0.094,0.029l-0.094,0.03l-0.092,0.029l-0.094,0.031l-0.093,0.031l-0.092,0.032l-0.092,0.032l-0.093,0.033l-0.092,0.033l-0.091,0.034l-0.091,0.035l-0.092,0.035l-0.084,0.033l-0.187,0.075l-0.18,0.075l-0.178,0.076l-0.178,0.079l-0.176,0.081l-0.175,0.084l-0.175,0.085l-0.172,0.087l-0.172,0.09l-0.171,0.091l-0.169,0.093l-0.168,0.096l-0.167,0.097l-0.166,0.099l-0.164,0.102l-0.163,0.103l-0.162,0.105l-0.16,0.107l-0.159,0.109l-0.158,0.11l-0.156,0.113l-0.155,0.115l-0.154,0.116l-0.152,0.118l-0.15,0.12l-0.149,0.121l-0.148,0.124l-0.146,0.125l-0.145,0.127l-0.143,0.128l-0.142,0.13l-0.14,0.133l-0.138,0.133l-0.137,0.135l-0.135,0.137l-0.134,0.138l-0.132,0.141l-0.13,0.141l-0.128,0.143l-0.127,0.144l-0.125,0.147l-0.124,0.148l-0.122,0.149l-0.119,0.15l-0.118,0.152l-0.117,0.154l-0.114,0.155l-0.112,0.156l-0.111,0.158l-0.109,0.159l-0.107,0.16l-0.105,0.162l-0.103,0.163l-0.102,0.165l-0.099,0.165l-0.097,0.167l-0.096,0.168l-0.093,0.169l-0.091,0.171l-0.09,0.171l-0.087,0.173l-0.085,0.175l-0.084,0.175l-0.081,0.176l-0.079,0.178l-0.076,0.178l-0.075,0.18l-0.075,0.187l-0.034,0.085l-0.034,0.091l-0.035,0.09l-0.034,0.093l-0.033,0.092l-0.033,0.091l-0.032,0.093l-0.032,0.093l-0.031,0.092l-0.03,0.093l-0.031,0.094l-0.029,0.094l-0.029,0.093l-0.028,0.094l-0.028,0.095l-0.027,0.095l-0.027,0.093l-0.026,0.095l-0.026,0.097l-0.024,0.095l-0.025,0.095l-0.023,0.096l-0.024,0.097l-0.022,0.097l-0.022,0.095l-0.021,0.097l-0.021,0.098l-0.021,0.097l-0.019,0.098l-0.02,0.098l-0.018,0.098l-0.018,0.097l-0.017,0.099l-0.017,0.099l-0.016,0.098l-0.015,0.1l-0.015,0.099l-0.014,0.1l-0.014,0.1l-0.013,0.099l-0.012,0.1l-0.012,0.101l-0.012,0.1l-0.01,0.101l-0.01,0.101l-0.009,0.101l-0.009,0.102l-0.008,0.102l-0.008,0.101l-0.006,0.101l-0.007,0.104l-0.005,0.102l-0.005,0.101l-0.004,0.102l-0.004,0.104l-0.003,0.104l-0.002,0.103l-0.002,0.104l-0.001,0.103l0,0.11l0,39.988l0,0.11l0.001,0.103l0.002,0.104l0.002,0.103l0.003,0.104l0.004,0.104l0.004,0.102l0.005,0.101l0.005,0.102l0.007,0.104l0.006,0.101l0.008,0.101l0.008,0.102l0.009,0.102l0.009,0.101l0.01,0.101l0.01,0.101l0.012,0.1l0.012,0.101l0.012,0.1l0.013,0.099l0.014,0.1l0.014,0.1l0.015,0.099l0.015,0.1l0.016,0.098l0.017,0.099l0.017,0.099l0.018,0.097l0.018,0.098l0.02,0.098l0.019,0.098l0.021,0.097l0.021,0.098l0.021,0.097l0.022,0.095l0.022,0.097l0.024,0.097l0.023,0.096l0.025,0.095l0.024,0.095l0.026,0.097l0.026,0.095l0.027,0.093l0.027,0.095l0.028,0.095l0.028,0.094l0.029,0.093l0.029,0.094l0.031,0.094l0.03,0.093l0.031,0.092l0.032,0.093l0.032,0.093l0.033,0.091l0.033,0.092l0.034,0.093l0.035,0.09l0.034,0.091l0.034,0.085l0.075,0.187l0.075,0.18l0.076,0.178l0.079,0.178l0.081,0.176l0.084,0.175l0.085,0.175l0.087,0.173l0.09,0.171l0.091,0.171l0.093,0.169l0.096,0.168l0.097,0.167l0.099,0.165l0.102,0.165l0.103,0.163l0.105,0.162l0.107,0.16l0.109,0.159l0.111,0.158l0.112,0.156l0.114,0.155l0.117,0.154l0.118,0.152l0.119,0.15l0.122,0.149l0.124,0.148l0.125,0.147l0.127,0.144l0.128,0.143l0.13,0.141l0.132,0.141l0.134,0.138l0.135,0.137l0.137,0.135l0.138,0.133l0.14,0.133l0.142,0.13l0.143,0.128l0.145,0.127l0.146,0.125l0.148,0.124l0.149,0.121l0.15,0.12l0.152,0.118l0.154,0.116l0.155,0.115l0.156,0.113l0.158,0.11l0.159,0.109l0.16,0.107l0.162,0.105l0.163,0.103l0.164,0.102l0.166,0.099l0.167,0.097l0.168,0.096l0.169,0.093l0.171,0.091l0.172,0.09l0.172,0.087l0.175,0.085l0.175,0.084l0.176,0.081l0.178,0.079l0.178,0.076l0.18,0.075l0.187,0.075l0.084,0.033l0.092,0.035l0.091,0.035l0.091,0.034l0.092,0.033l0.093,0.033l0.092,0.032l0.092,0.032l0.093,0.031l0.094,0.031l0.092,0.029l0.094,0.03l0.094,0.029l0.094,0.028l0.095,0.028l0.094,0.027l0.095,0.027l0.095,0.026l0.095,0.025l0.096,0.025l0.096,0.025l0.095,0.023l0.097,0.024l0.096,0.022l0.097,0.022l0.097,0.022l0.097,0.02l0.097,0.021l0.098,0.019l0.097,0.019l0.099,0.019l0.098,0.018l0.098,0.017l0.098,0.017l0.1,0.016l0.099,0.015l0.099,0.015l0.1,0.015l0.099,0.013l0.1,0.013l0.101,0.013l0.1,0.011l0.1,0.012l0.101,0.01l0.1,0.01l0.102,0.009l0.102,0.009l0.101,0.008l0.102,0.008l0.102,0.006l0.102,0.007l0.102,0.005l0.103,0.005l0.103,0.004l0.103,0.004l0.103,0.003l0.103,0.002l0.104,0.002l0.103,0.001l0.11,0l159.988,0l0.11,0l0.103,-0.001l0.104,-0.002l0.103,-0.002l0.103,-0.003l0.103,-0.004l0.103,-0.004l0.103,-0.005l0.102,-0.005l0.102,-0.007l0.102,-0.006l0.102,-0.008l0.101,-0.008l0.102,-0.009l0.102,-0.009l0.1,-0.01l0.101,-0.01l0.1,-0.012l0.1,-0.011l0.101,-0.013l0.1,-0.013l0.099,-0.013l0.1,-0.015l0.099,-0.015l0.099,-0.015l0.1,-0.016l0.098,-0.017l0.098,-0.017l0.098,-0.018l0.099,-0.019l0.097,-0.019l0.098,-0.019l0.097,-0.021l0.097,-0.02l0.097,-0.022l0.097,-0.022l0.096,-0.022l0.097,-0.024l0.095,-0.023l0.096,-0.025l0.096,-0.025l0.095,-0.025l0.095,-0.026l0.095,-0.027l0.094,-0.027l0.095,-0.028l0.094,-0.028l0.094,-0.029l0.094,-0.03l0.092,-0.029l0.094,-0.031l0.093,-0.031l0.092,-0.032l0.092,-0.032l0.093,-0.033l0.092,-0.033l0.091,-0.034l0.091,-0.035l0.092,-0.035l0.084,-0.033l0.187,-0.075l0.18,-0.075l0.178,-0.076l0.178,-0.079l0.176,-0.081l0.175,-0.084l0.175,-0.085l0.172,-0.087l0.172,-0.09l0.171,-0.091l0.169,-0.093l0.168,-0.096l0.167,-0.097l0.166,-0.099l0.164,-0.102l0.163,-0.103l0.162,-0.105l0.16,-0.107l0.159,-0.109l0.158,-0.11l0.156,-0.113l0.155,-0.115l0.154,-0.116l0.152,-0.118l0.15,-0.12l0.149,-0.121l0.148,-0.124l0.146,-0.125l0.145,-0.127l0.143,-0.128l0.142,-0.13l0.14,-0.133l0.138,-0.133l0.137,-0.135l0.135,-0.137l0.134,-0.138l0.132,-0.141l0.13,-0.141l0.128,-0.143l0.127,-0.144l0.125,-0.147l0.124,-0.148l0.122,-0.149l0.119,-0.15l0.118,-0.152l0.117,-0.154l0.114,-0.155l0.112,-0.156l0.111,-0.158l0.109,-0.159l0.107,-0.16l0.105,-0.162l0.103,-0.163l0.102,-0.165l0.099,-0.165l0.097,-0.167l0.096,-0.168l0.093,-0.169l0.091,-0.171l0.09,-0.171l0.087,-0.173l0.085,-0.175l0.084,-0.175l0.081,-0.176l0.079,-0.178l0.076,-0.178l0.075,-0.18l0.075,-0.187l0.034,-0.085l0.034,-0.091l0.035,-0.09l0.034,-0.093l0.033,-0.092l0.033,-0.091l0.032,-0.093l0.032,-0.093l0.031,-0.092l0.03,-0.093l0.031,-0.094l0.029,-0.094l0.029,-0.093l0.028,-0.094l0.028,-0.095l0.027,-0.095l0.027,-0.093l0.026,-0.095l0.026,-0.097l0.024,-0.095l0.025,-0.095l0.023,-0.096l0.024,-0.097l0.022,-0.097l0.022,-0.095l0.021,-0.097l0.021,-0.098l0.021,-0.097l0.019,-0.098l0.02,-0.098l0.018,-0.098l0.018,-0.097l0.017,-0.099l0.017,-0.099l0.016,-0.098l0.015,-0.1l0.015,-0.099l0.014,-0.1l0.014,-0.1l0.013,-0.099l0.012,-0.1l0.012,-0.101l0.012,-0.1l0.01,-0.101l0.01,-0.101l0.009,-0.101l0.009,-0.102l0.008,-0.102l0.008,-0.101l0.006,-0.101l0.007,-0.104l0.005,-0.102l0.005,-0.101l0.004,-0.102l0.004,-0.104l0.003,-0.104l0.002,-0.103l0.002,-0.104l0.001,-0.103l0,-0.11l0,-39.988l0,-0.11l-0.001,-0.103l-0.002,-0.104l-0.002,-0.103l-0.003,-0.104l-0.004,-0.104l-0.004,-0.102l-0.005,-0.101l-0.005,-0.102l-0.007,-0.104l-0.006,-0.101l-0.008,-0.101l-0.008,-0.102l-0.009,-0.102l-0.009,-0.101l-0.01,-0.101l-0.01,-0.101l-0.012,-0.1l-0.012,-0.101l-0.012,-0.1l-0.013,-0.099l-0.014,-0.1l-0.014,-0.1l-0.015,-0.099l-0.015,-0.1l-0.016,-0.098l-0.017,-0.099l-0.017,-0.099l-0.018,-0.097l-0.018,-0.098l-0.02,-0.098l-0.019,-0.098l-0.021,-0.097l-0.021,-0.098l-0.021,-0.097l-0.022,-0.095l-0.022,-0.097l-0.024,-0.097l-0.023,-0.096l-0.025,-0.095l-0.024,-0.095l-0.026,-0.097l-0.026,-0.095l-0.027,-0.093l-0.027,-0.095l-0.028,-0.095l-0.028,-0.094l-0.029,-0.093l-0.029,-0.094l-0.031,-0.094l-0.03,-0.093l-0.031,-0.092l-0.032,-0.093l-0.032,-0.093l-0.033,-0.091l-0.033,-0.092l-0.034,-0.093l-0.035,-0.09l-0.034,-0.091l-0.034,-0.085l-0.075,-0.187l-0.075,-0.18l-0.076,-0.178l-0.079,-0.178l-0.081,-0.176l-0.084,-0.175l-0.085,-0.175l-0.087,-0.173l-0.09,-0.171l-0.091,-0.171l-0.093,-0.169l-0.096,-0.168l-0.097,-0.167l-0.099,-0.165l-0.102,-0.165l-0.103,-0.163l-0.105,-0.162l-0.107,-0.16l-0.109,-0.159l-0.111,-0.158l-0.112,-0.156l-0.114,-0.155l-0.117,-0.154l-0.118,-0.152l-0.119,-0.15l-0.122,-0.149l-0.124,-0.148l-0.125,-0.147l-0.127,-0.144l-0.128,-0.143l-0.13,-0.141l-0.132,-0.141l-0.134,-0.138l-0.135,-0.137l-0.137,-0.135l-0.138,-0.133l-0.14,-0.133l-0.142,-0.13l-0.143,-0.128l-0.145,-0.127l-0.146,-0.125l-0.148,-0.124l-0.149,-0.121l-0.15,-0.12l-0.152,-0.118l-0.154,-0.116l-0.155,-0.115l-0.156,-0.113l-0.158,-0.11l-0.159,-0.109l-0.16,-0.107l-0.162,-0.105l-0.163,-0.103l-0.164,-0.102l-0.166,-0.099l-0.167,-0.097l-0.168,-0.096l-0.169,-0.093l-0.171,-0.091l-0.172,-0.09l-0.172,-0.087l-0.175,-0.085l-0.175,-0.084l-0.176,-0.081l-0.178,-0.079l-0.178,-0.076l-0.18,-0.075l-0.187,-0.075l-0.084,-0.033l-0.092,-0.035l-0.091,-0.035l-0.091,-0.034l-0.092,-0.033l-0.093,-0.033l-0.092,-0.032l-0.092,-0.032l-0.093,-0.031l-0.094,-0.031l-0.092,-0.029l-0.094,-0.03l-0.094,-0.029l-0.094,-0.028l-0.095,-0.028l-0.094,-0.027l-0.095,-0.027l-0.095,-0.026l-0.095,-0.025l-0.096,-0.025l-0.096,-0.025l-0.095,-0.023l-0.097,-0.024l-0.096,-0.022l-0.097,-0.022l-0.097,-0.022l-0.097,-0.02l-0.097,-0.021l-0.098,-0.019l-0.097,-0.019l-0.099,-0.019l-0.098,-0.018l-0.098,-0.017l-0.098,-0.017l-0.1,-0.016l-0.099,-0.015l-0.099,-0.015l-0.1,-0.015l-0.099,-0.013l-0.1,-0.013l-0.101,-0.013l-0.1,-0.011l-0.1,-0.012l-0.101,-0.01l-0.1,-0.01l-0.102,-0.009l-0.102,-0.009l-0.101,-0.008l-0.102,-0.008l-0.102,-0.006l-0.102,-0.007l-0.102,-0.005l-0.103,-0.005l-0.103,-0.004l-0.103,-0.004l-0.103,-0.003l-0.103,-0.002l-0.104,-0.002l-0.103,-0.001l-0.11,0l-159.988,0Z" style="fill:#27c278;"/><text x="889.594px" y="492px" style="font-family:'Roboto-Regular', 'Roboto';font-size:32px;fill:#2d2e44;">T<tspan x="907.141px " y="492px ">e</tspan>xt</text></g><g><path d="M1240,340c0,-11.038 -8.962,-20 -20,-20l-160,0c-11.038,0 -20,8.962 -20,20l0,40c0,11.038 8.962,20 20,20l160,0c11.038,0 20,-8.962 20,-20l0,-40Z" style="fill:#27c278;"/><text x="1058.92px" y="372px" style="font-family:'Roboto-Regular', 'Roboto';font-size:32px;fill:#fff;">Rule34Item</text></g><rect x="700" y="280" width="440" height="4.75" style="fill:#2d2e44;"/><path d="M917.625,240l4.75,0l0,70.5l7.125,0l-9.5,9.5l-9.5,-9.5l7.125,0l0,-70.5Z" style="fill:#2d2e44;"/><g><path d="M1020,60c0,-11.038 -8.962,-20 -20,-20l-160,0c-11.038,0 -20,8.962 -20,20l0,40c0,11.038 8.962,20 20,20l160,0c11.038,0 20,-8.962 20,-20l0,-40Z" style="fill:#27c278;"/><text x="871px" y="92px" style="font-family:'Roboto-Regular', 'Roboto';font-size:32px;fill:#fff;">Rule34</text></g><path d="M917.625,120l4.75,0l0,30.5l7.125,0l-9.5,9.5l-9.5,-9.5l7.125,0l0,-30.5Z" style="fill:#2d2e44;"/><path d="M917.625,400l4.75,0l0,30.5l7.125,0l-9.5,9.5l-9.5,-9.5l7.125,0l0,-30.5Z" style="fill:#2d2e44;"/><path d="M1137.62,280l4.75,0l0,30.5l7.125,0l-9.5,9.5l-9.5,-9.5l7.125,0l0,-30.5Z" style="fill:#2d2e44;"/><path d="M697.625,280l4.75,0l0,30.5l7.125,0l-9.5,9.5l-9.5,-9.5l7.125,0l0,-30.5Z" style="fill:#2d2e44;"/><g><path d="M800,460c0,-11.038 -8.962,-20 -20,-20l-160,0c-11.038,0 -20,8.962 -20,20l0,40c0,11.038 8.962,20 20,20l160,0c11.038,0 20,-8.962 20,-20l0,-40Z" style="fill:#27c278;"/><text x="669.594px" y="492px" style="font-family:'Roboto-Regular', 'Roboto';font-size:32px;fill:#fff;">T<tspan x="687.141px " y="492px ">e</tspan>xt</text></g><g><path d="M1240,460c0,-11.038 -8.962,-20 -20,-20l-160,0c-11.038,0 -20,8.962 -20,20l0,40c0,11.038 8.962,20 20,20l160,0c11.038,0 20,-8.962 20,-20l0,-40Z" style="fill:#27c278;"/><text x="1109.59px" y="492px" style="font-family:'Roboto-Regular', 'Roboto';font-size:32px;fill:#fff;">T<tspan x="1127.14px " y="492px ">e</tspan>xt</text></g><path d="M1137.62,400l4.75,0l0,30.5l7.125,0l-9.5,9.5l-9.5,-9.5l7.125,0l0,-30.5Z" style="fill:#2d2e44;"/><path d="M697.625,400l4.75,0l0,30.5l7.125,0l-9.5,9.5l-9.5,-9.5l7.125,0l0,-30.5Z" style="fill:#2d2e44;"/><path d="M515,242.375l30,40l-30,40" style="fill:none;stroke:#2d2e44;stroke-width:8px;"/></svg>