<?xml version="1.0" encoding="UTF-8" standalone="no"?><!DOCTYPE svg PUBLIC "-//W3C//DTD SVG 1.1//EN" "http://www.w3.org/Graphics/SVG/1.1/DTD/svg11.dtd"><svg width="100%" height="100%" viewBox="0 0 1000 360" version="1.1" xmlns="http://www.w3.org/2000/svg" xmlns:xlink="http://www.w3.org/1999/xlink" xml:space="preserve" xmlns:serif="http://www.serif.com/" style="fill-rule:evenodd;clip-rule:evenodd;stroke-linecap:round;stroke-linejoin:round;stroke-miterlimit:1.5;"><g><path d="M320,80c0,-22.077 -17.923,-40 -40,-40l-200,0c-22.077,0 -40,17.923 -40,40l0,200c0,22.077 17.923,40 40,40l200,0c22.077,0 40,-17.923 40,-40l0,-200Z" style="fill:#fff;stroke:#27c278;stroke-width:4px;"/><text x="96.703px" y="88px" style="font-family:'Roboto-Medium', 'Roboto';font-weight:500;font-size:32px;fill:#2d2e44;">Component</text><g><path d="M285.66,137.5c0,-9.659 -7.841,-17.5 -17.5,-17.5l-176.32,0c-9.659,0 -17.5,7.841 -17.5,17.5l0,35c0,9.659 7.841,17.5 17.5,17.5l176.32,0c9.659,0 17.5,-7.841 17.5,-17.5l0,-35Z" style="fill:#27c278;"/><text x="133.602px" y="167px" style="font-family:'Roboto-Regular', 'Roboto';font-size:32px;fill:#fff;">Pr<tspan x="164.305px " y="167px ">o</tspan>p 1</text></g><g><path d="M285.66,237.5c0,-9.659 -7.841,-17.5 -17.5,-17.5l-176.32,0c-9.659,0 -17.5,7.841 -17.5,17.5l0,35c0,9.659 7.841,17.5 17.5,17.5l176.32,0c9.659,0 17.5,-7.841 17.5,-17.5l0,-35Z" style="fill:#27c278;"/><text x="133.602px" y="267px" style="font-family:'Roboto-Regular', 'Roboto';font-size:32px;fill:#fff;">Pr<tspan x="164.305px " y="267px ">o</tspan>p 2</text></g></g><g><path d="M640,80c0,-22.077 -17.923,-40 -40,-40l-200,0c-22.077,0 -40,17.923 -40,40l0,200c0,22.077 17.923,40 40,40l200,0c22.077,0 40,-17.923 40,-40l0,-200Z" style="fill:#fff;stroke:#27c278;stroke-width:4px;"/><g transform="matrix(1,0,0,1,184,-272)"><text x="288.445px" y="360px" style="font-family:'Roboto-Medium', 'Roboto';font-weight:500;font-size:32px;fill:#2d2e44;">Sub</text><text x="232.703px" y="392px" style="font-family:'Roboto-Medium', 'Roboto';font-weight:500;font-size:32px;fill:#2d2e44;">Component</text></g><g><path d="M605.66,237.5c0,-9.659 -7.841,-17.5 -17.5,-17.5l-176.32,0c-9.659,0 -17.5,7.841 -17.5,17.5l0,35c0,9.659 7.841,17.5 17.5,17.5l176.32,0c9.659,0 17.5,-7.841 17.5,-17.5l0,-35Z" style="fill:#27c278;"/><text x="453.602px" y="267px" style="font-family:'Roboto-Regular', 'Roboto';font-size:32px;fill:#fff;">Pr<tspan x="484.305px " y="267px ">o</tspan>p 2</text></g></g><g><path d="M960,80c0,-22.077 -17.923,-40 -40,-40l-200,0c-22.077,0 -40,17.923 -40,40l0,200c0,22.077 17.923,40 40,40l200,0c22.077,0 40,-17.923 40,-40l0,-200Z" style="fill:#fff;stroke:#27c278;stroke-width:4px;"/><g transform="matrix(1,0,0,1,504,-270.577)"><text x="288.445px" y="360px" style="font-family:'Roboto-Medium', 'Roboto';font-weight:500;font-size:32px;fill:#2d2e44;">Sub</text><text x="288.445px" y="392px" style="font-family:'Roboto-Medium', 'Roboto';font-weight:500;font-size:32px;fill:#2d2e44;">Sub</text><text x="232.703px" y="424px" style="font-family:'Roboto-Medium', 'Roboto';font-weight:500;font-size:32px;fill:#2d2e44;">Component</text></g><g><path d="M925.66,237.5c0,-9.659 -7.841,-17.5 -17.5,-17.5l-176.32,0c-9.659,0 -17.5,7.841 -17.5,17.5l0,35c0,9.659 7.841,17.5 17.5,17.5l176.32,0c9.659,0 17.5,-7.841 17.5,-17.5l0,-35Z" style="fill:#27c278;"/><text x="773.602px" y="267px" style="font-family:'Roboto-Regular', 'Roboto';font-size:32px;fill:#fff;">Pr<tspan x="804.305px " y="267px ">o</tspan>p 2</text></g></g><path d="M285,258.375l0,-4.75l99.84,0l0,-7.125l9.5,9.5l-9.5,9.5l0,-7.125l-99.84,0Z" style="fill:#2d2e44;"/><path d="M605.66,258.375l0,-4.75l99.84,0l0,-7.125l9.5,9.5l-9.5,9.5l0,-7.125l-99.84,0Z" style="fill:#2d2e44;"/></svg>