<?xml version="1.0" encoding="UTF-8" standalone="no"?><!DOCTYPE svg PUBLIC "-//W3C//DTD SVG 1.1//EN" "http://www.w3.org/Graphics/SVG/1.1/DTD/svg11.dtd"><svg width="100%" height="100%" viewBox="0 0 1000 360" version="1.1" xmlns="http://www.w3.org/2000/svg" xmlns:xlink="http://www.w3.org/1999/xlink" xml:space="preserve" xmlns:serif="http://www.serif.com/" style="fill-rule:evenodd;clip-rule:evenodd;stroke-linecap:round;stroke-linejoin:round;stroke-miterlimit:1.5;"><g><path d="M320,80c0,-22.077 -17.923,-40 -40,-40l-200,0c-22.077,0 -40,17.923 -40,40l0,200c0,22.077 17.923,40 40,40l200,0c22.077,0 40,-17.923 40,-40l0,-200Z" style="fill:#fff;stroke:#27c278;stroke-width:4px;"/><path d="M116.375,80.594c-0.229,2.427 -1.125,4.32 -2.687,5.679c-1.563,1.36 -3.641,2.04 -6.235,2.04c-1.812,0 -3.409,-0.43 -4.789,-1.29c-1.38,-0.859 -2.445,-2.08 -3.195,-3.664c-0.75,-1.583 -1.141,-3.421 -1.172,-5.515l0,-2.125c0,-2.146 0.38,-4.037 1.141,-5.672c0.76,-1.636 1.851,-2.896 3.273,-3.781c1.422,-0.886 3.065,-1.328 4.93,-1.328c2.51,0 4.531,0.682 6.062,2.046c1.531,1.365 2.422,3.292 2.672,5.782l-3.937,0c-0.188,-1.636 -0.665,-2.815 -1.43,-3.539c-0.766,-0.724 -1.888,-1.086 -3.367,-1.086c-1.719,0 -3.039,0.627 -3.961,1.882c-0.922,1.256 -1.394,3.097 -1.414,5.524l0,2.016c0,2.458 0.44,4.333 1.32,5.625c0.88,1.291 2.169,1.937 3.867,1.937c1.552,0 2.719,-0.349 3.5,-1.047c0.781,-0.698 1.276,-1.859 1.485,-3.484l3.937,0Z" style="fill:#2d2e44;fill-rule:nonzero;"/><path d="M118.828,79.391c0,-1.657 0.328,-3.149 0.985,-4.477c0.656,-1.328 1.578,-2.349 2.765,-3.062c1.188,-0.714 2.552,-1.071 4.094,-1.071c2.281,0 4.133,0.735 5.555,2.203c1.421,1.469 2.19,3.417 2.304,5.844l0.016,0.891c0,1.666 -0.32,3.156 -0.961,4.469c-0.641,1.312 -1.557,2.328 -2.75,3.046c-1.193,0.719 -2.57,1.079 -4.133,1.079c-2.385,0 -4.294,-0.795 -5.726,-2.383c-1.433,-1.589 -2.149,-3.706 -2.149,-6.352l0,-0.187Zm3.797,0.328c0,1.739 0.359,3.101 1.078,4.086c0.719,0.984 1.719,1.476 3,1.476c1.281,0 2.279,-0.5 2.992,-1.5c0.714,-1 1.071,-2.463 1.071,-4.39c0,-1.709 -0.368,-3.063 -1.102,-4.063c-0.734,-1 -1.732,-1.5 -2.992,-1.5c-1.24,0 -2.224,0.492 -2.953,1.477c-0.729,0.984 -1.094,2.455 -1.094,4.414Z" style="fill:#2d2e44;fill-rule:nonzero;"/><path d="M141.328,71.094l0.11,1.765c1.187,-1.385 2.812,-2.078 4.875,-2.078c2.26,0 3.807,0.865 4.64,2.594c1.229,-1.729 2.958,-2.594 5.188,-2.594c1.864,0 3.252,0.516 4.164,1.547c0.911,1.031 1.377,2.552 1.398,4.563l0,11.109l-3.797,0l0,-11c0,-1.073 -0.234,-1.859 -0.703,-2.359c-0.469,-0.5 -1.245,-0.75 -2.328,-0.75c-0.865,0 -1.57,0.231 -2.117,0.695c-0.547,0.463 -0.93,1.07 -1.149,1.82l0.016,11.594l-3.797,0l0,-11.125c-0.052,-1.99 -1.068,-2.984 -3.047,-2.984c-1.521,0 -2.599,0.619 -3.234,1.859l0,12.25l-3.797,0l0,-16.906l3.578,0Z" style="fill:#2d2e44;fill-rule:nonzero;"/><path d="M180.406,79.719c0,2.614 -0.593,4.7 -1.781,6.258c-1.187,1.557 -2.781,2.336 -4.781,2.336c-1.854,0 -3.339,-0.61 -4.453,-1.829l0,8.016l-3.797,0l0,-23.406l3.5,0l0.156,1.719c1.115,-1.355 2.63,-2.032 4.547,-2.032c2.062,0 3.68,0.768 4.851,2.305c1.172,1.536 1.758,3.669 1.758,6.398l0,0.235Zm-3.781,-0.328c0,-1.688 -0.336,-3.026 -1.008,-4.016c-0.672,-0.99 -1.633,-1.484 -2.883,-1.484c-1.552,0 -2.666,0.64 -3.343,1.922l0,7.5c0.687,1.312 1.812,1.968 3.375,1.968c1.208,0 2.153,-0.487 2.836,-1.461c0.682,-0.974 1.023,-2.45 1.023,-4.429Z" style="fill:#2d2e44;fill-rule:nonzero;"/><path d="M182.906,79.391c0,-1.657 0.328,-3.149 0.985,-4.477c0.656,-1.328 1.578,-2.349 2.765,-3.062c1.188,-0.714 2.552,-1.071 4.094,-1.071c2.281,0 4.133,0.735 5.555,2.203c1.422,1.469 2.19,3.417 2.304,5.844l0.016,0.891c0,1.666 -0.32,3.156 -0.961,4.469c-0.641,1.312 -1.557,2.328 -2.75,3.046c-1.193,0.719 -2.57,1.079 -4.133,1.079c-2.385,0 -4.294,-0.795 -5.726,-2.383c-1.433,-1.589 -2.149,-3.706 -2.149,-6.352l0,-0.187Zm3.797,0.328c0,1.739 0.36,3.101 1.078,4.086c0.719,0.984 1.719,1.476 3,1.476c1.282,0 2.279,-0.5 2.992,-1.5c0.714,-1 1.071,-2.463 1.071,-4.39c0,-1.709 -0.367,-3.063 -1.102,-4.063c-0.734,-1 -1.732,-1.5 -2.992,-1.5c-1.24,0 -2.224,0.492 -2.953,1.477c-0.729,0.984 -1.094,2.455 -1.094,4.414Z" style="fill:#2d2e44;fill-rule:nonzero;"/><path d="M205.359,71.094l0.11,1.953c1.25,-1.511 2.89,-2.266 4.922,-2.266c3.52,0 5.312,2.016 5.375,6.047l0,11.172l-3.797,0l0,-10.953c0,-1.073 -0.232,-1.867 -0.696,-2.383c-0.463,-0.516 -1.221,-0.773 -2.273,-0.773c-1.531,0 -2.672,0.692 -3.422,2.078l0,12.031l-3.797,0l0,-16.906l3.578,0Z" style="fill:#2d2e44;fill-rule:nonzero;"/><path d="M227.078,88.313c-2.406,0 -4.357,-0.758 -5.851,-2.274c-1.495,-1.516 -2.243,-3.534 -2.243,-6.055l0,-0.468c0,-1.688 0.326,-3.196 0.977,-4.524c0.651,-1.328 1.565,-2.362 2.742,-3.101c1.177,-0.74 2.49,-1.11 3.938,-1.11c2.302,0 4.08,0.735 5.336,2.203c1.255,1.469 1.882,3.547 1.882,6.235l0,1.531l-11.046,0c0.114,1.396 0.58,2.5 1.398,3.313c0.818,0.812 1.846,1.218 3.086,1.218c1.739,0 3.156,-0.703 4.25,-2.109l2.047,1.953c-0.677,1.01 -1.581,1.794 -2.711,2.352c-1.13,0.557 -2.399,0.836 -3.805,0.836Zm-0.453,-14.485c-1.042,0 -1.883,0.365 -2.523,1.094c-0.641,0.729 -1.05,1.745 -1.227,3.047l7.234,0l0,-0.281c-0.083,-1.271 -0.421,-2.232 -1.015,-2.883c-0.594,-0.651 -1.417,-0.977 -2.469,-0.977Z" style="fill:#2d2e44;fill-rule:nonzero;"/><path d="M240.328,71.094l0.11,1.953c1.25,-1.511 2.89,-2.266 4.921,-2.266c3.521,0 5.313,2.016 5.375,6.047l0,11.172l-3.796,0l0,-10.953c0,-1.073 -0.232,-1.867 -0.696,-2.383c-0.463,-0.516 -1.221,-0.773 -2.273,-0.773c-1.531,0 -2.672,0.692 -3.422,2.078l0,12.031l-3.797,0l0,-16.906l3.578,0Z" style="fill:#2d2e44;fill-rule:nonzero;"/><path d="M259.359,66.984l0,4.11l2.985,0l0,2.812l-2.985,0l0,9.438c0,0.646 0.128,1.112 0.383,1.398c0.255,0.287 0.711,0.43 1.367,0.43c0.438,0 0.881,-0.052 1.329,-0.156l0,2.937c-0.865,0.24 -1.698,0.36 -2.5,0.36c-2.917,0 -4.375,-1.61 -4.375,-4.829l0,-9.578l-2.782,0l0,-2.812l2.782,0l0,-4.11l3.796,0Z" style="fill:#2d2e44;fill-rule:nonzero;"/><g><path d="M285.66,137.5c0,-9.659 -7.841,-17.5 -17.5,-17.5l-176.32,0c-9.659,0 -17.5,7.841 -17.5,17.5l0,35c0,9.659 7.841,17.5 17.5,17.5l176.32,0c9.659,0 17.5,-7.841 17.5,-17.5l0,-35Z" style="fill:#27c278;"/><path d="M139.242,158.094l0,8.906l-3,0l0,-22.75l8.391,0c2.489,0 4.44,0.635 5.851,1.906c1.412,1.271 2.118,2.953 2.118,5.047c0,2.208 -0.691,3.909 -2.071,5.102c-1.38,1.192 -3.357,1.789 -5.929,1.789l-5.36,0Zm0,-2.453l5.391,0c1.604,0 2.833,-0.378 3.687,-1.133c0.854,-0.755 1.282,-1.847 1.282,-3.274c0,-1.354 -0.428,-2.437 -1.282,-3.25c-0.854,-0.812 -2.026,-1.234 -3.515,-1.265l-5.563,0l0,8.922Z" style="fill:#fff;fill-rule:nonzero;"/><path d="M164.148,152.688c-0.437,-0.073 -0.911,-0.11 -1.421,-0.11c-1.896,0 -3.183,0.807 -3.86,2.422l0,12l-2.89,0l0,-16.906l2.812,0l0.047,1.953c0.948,-1.511 2.292,-2.266 4.031,-2.266c0.563,0 0.99,0.073 1.281,0.219l0,2.688Z" style="fill:#fff;fill-rule:nonzero;"/><path d="M165.727,158.391c0,-1.657 0.325,-3.146 0.976,-4.469c0.651,-1.323 1.557,-2.344 2.719,-3.063c1.161,-0.718 2.487,-1.078 3.976,-1.078c2.303,0 4.165,0.797 5.586,2.391c1.422,1.594 2.133,3.713 2.133,6.359l0,0.203c0,1.646 -0.315,3.123 -0.945,4.43c-0.63,1.307 -1.531,2.326 -2.703,3.055c-1.172,0.729 -2.518,1.094 -4.039,1.094c-2.292,0 -4.149,-0.797 -5.571,-2.391c-1.421,-1.594 -2.132,-3.703 -2.132,-6.328l0,-0.203Zm2.906,0.343c0,1.875 0.435,3.381 1.305,4.516c0.869,1.135 2.033,1.703 3.492,1.703c1.468,0 2.635,-0.575 3.5,-1.726c0.864,-1.151 1.297,-2.763 1.297,-4.836c0,-1.855 -0.441,-3.357 -1.321,-4.508c-0.88,-1.151 -2.049,-1.727 -3.508,-1.727c-1.427,0 -2.578,0.568 -3.453,1.703c-0.875,1.136 -1.312,2.761 -1.312,4.875Z" style="fill:#fff;fill-rule:nonzero;"/><path d="M199.023,158.734c0,2.573 -0.588,4.646 -1.765,6.219c-1.177,1.573 -2.771,2.36 -4.781,2.36c-2.053,0 -3.667,-0.652 -4.844,-1.954l0,8.141l-2.891,0l0,-23.406l2.641,0l0.14,1.875c1.178,-1.459 2.813,-2.188 4.907,-2.188c2.031,0 3.638,0.766 4.82,2.297c1.182,1.531 1.773,3.662 1.773,6.391l0,0.265Zm-2.89,-0.328c0,-1.906 -0.406,-3.411 -1.219,-4.515c-0.812,-1.105 -1.927,-1.657 -3.344,-1.657c-1.75,0 -3.062,0.776 -3.937,2.329l0,8.078c0.864,1.541 2.187,2.312 3.969,2.312c1.385,0 2.487,-0.549 3.304,-1.648c0.818,-1.099 1.227,-2.732 1.227,-4.899Z" style="fill:#fff;fill-rule:nonzero;"/><path d="M219.82,167l-2.906,0l0,-19.266l-5.828,2.141l0,-2.625l8.281,-3.109l0.453,0l0,22.859Z" style="fill:#fff;fill-rule:nonzero;"/></g><g><path d="M285.66,237.5c0,-9.659 -7.841,-17.5 -17.5,-17.5l-176.32,0c-9.659,0 -17.5,7.841 -17.5,17.5l0,35c0,9.659 7.841,17.5 17.5,17.5l176.32,0c9.659,0 17.5,-7.841 17.5,-17.5l0,-35Z" style="fill:#27c278;"/><path d="M139.242,258.094l0,8.906l-3,0l0,-22.75l8.391,0c2.489,0 4.44,0.635 5.851,1.906c1.412,1.271 2.118,2.953 2.118,5.047c0,2.208 -0.691,3.909 -2.071,5.102c-1.38,1.192 -3.357,1.789 -5.929,1.789l-5.36,0Zm0,-2.453l5.391,0c1.604,0 2.833,-0.378 3.687,-1.133c0.854,-0.755 1.282,-1.847 1.282,-3.274c0,-1.354 -0.428,-2.437 -1.282,-3.25c-0.854,-0.812 -2.026,-1.234 -3.515,-1.265l-5.563,0l0,8.922Z" style="fill:#fff;fill-rule:nonzero;"/><path d="M164.148,252.688c-0.437,-0.073 -0.911,-0.11 -1.421,-0.11c-1.896,0 -3.183,0.807 -3.86,2.422l0,12l-2.89,0l0,-16.906l2.812,0l0.047,1.953c0.948,-1.511 2.292,-2.266 4.031,-2.266c0.563,0 0.99,0.073 1.281,0.219l0,2.688Z" style="fill:#fff;fill-rule:nonzero;"/><path d="M165.727,258.391c0,-1.657 0.325,-3.146 0.976,-4.469c0.651,-1.323 1.557,-2.344 2.719,-3.063c1.161,-0.718 2.487,-1.078 3.976,-1.078c2.303,0 4.165,0.797 5.586,2.391c1.422,1.594 2.133,3.713 2.133,6.359l0,0.203c0,1.646 -0.315,3.123 -0.945,4.43c-0.63,1.307 -1.531,2.326 -2.703,3.055c-1.172,0.729 -2.518,1.094 -4.039,1.094c-2.292,0 -4.149,-0.797 -5.571,-2.391c-1.421,-1.594 -2.132,-3.703 -2.132,-6.328l0,-0.203Zm2.906,0.343c0,1.875 0.435,3.381 1.305,4.516c0.869,1.135 2.033,1.703 3.492,1.703c1.468,0 2.635,-0.575 3.5,-1.726c0.864,-1.151 1.297,-2.763 1.297,-4.836c0,-1.855 -0.441,-3.357 -1.321,-4.508c-0.88,-1.151 -2.049,-1.727 -3.508,-1.727c-1.427,0 -2.578,0.568 -3.453,1.703c-0.875,1.136 -1.312,2.761 -1.312,4.875Z" style="fill:#fff;fill-rule:nonzero;"/><path d="M199.023,258.734c0,2.573 -0.588,4.646 -1.765,6.219c-1.177,1.573 -2.771,2.36 -4.781,2.36c-2.053,0 -3.667,-0.652 -4.844,-1.954l0,8.141l-2.891,0l0,-23.406l2.641,0l0.14,1.875c1.178,-1.459 2.813,-2.188 4.907,-2.188c2.031,0 3.638,0.766 4.82,2.297c1.182,1.531 1.773,3.662 1.773,6.391l0,0.265Zm-2.89,-0.328c0,-1.906 -0.406,-3.411 -1.219,-4.515c-0.812,-1.105 -1.927,-1.657 -3.344,-1.657c-1.75,0 -3.062,0.776 -3.937,2.329l0,8.078c0.864,1.541 2.187,2.312 3.969,2.312c1.385,0 2.487,-0.549 3.304,-1.648c0.818,-1.099 1.227,-2.732 1.227,-4.899Z" style="fill:#fff;fill-rule:nonzero;"/><path d="M225.227,267l-14.907,0l0,-2.078l7.875,-8.75c1.167,-1.323 1.972,-2.399 2.414,-3.227c0.443,-0.828 0.664,-1.685 0.664,-2.57c0,-1.187 -0.359,-2.161 -1.078,-2.922c-0.718,-0.76 -1.677,-1.14 -2.875,-1.14c-1.437,0 -2.554,0.408 -3.351,1.226c-0.797,0.818 -1.196,1.956 -1.196,3.414l-2.89,0c0,-2.094 0.674,-3.786 2.023,-5.078c1.349,-1.292 3.154,-1.937 5.414,-1.937c2.115,0 3.787,0.554 5.016,1.664c1.229,1.109 1.844,2.586 1.844,4.429c0,2.24 -1.427,4.907 -4.282,8l-6.093,6.61l11.422,0l0,2.359Z" style="fill:#fff;fill-rule:nonzero;"/></g></g><g><path d="M640,80c0,-22.077 -17.923,-40 -40,-40l-200,0c-22.077,0 -40,17.923 -40,40l0,200c0,22.077 17.923,40 40,40l200,0c22.077,0 40,-17.923 40,-40l0,-200Z" style="fill:#fff;stroke:#27c278;stroke-width:4px;"/><g transform="matrix(1,0,0,1,184,-272)"><path d="M302.648,354.141c0,-1 -0.351,-1.771 -1.054,-2.313c-0.703,-0.542 -1.972,-1.088 -3.805,-1.641c-1.833,-0.552 -3.292,-1.166 -4.375,-1.843c-2.073,-1.302 -3.109,-3 -3.109,-5.094c0,-1.833 0.747,-3.344 2.242,-4.531c1.495,-1.188 3.435,-1.781 5.82,-1.781c1.584,0 2.995,0.291 4.235,0.875c1.239,0.583 2.213,1.414 2.921,2.492c0.709,1.078 1.063,2.273 1.063,3.586l-3.938,0c0,-1.188 -0.372,-2.118 -1.117,-2.789c-0.745,-0.672 -1.81,-1.008 -3.195,-1.008c-1.292,0 -2.294,0.276 -3.008,0.828c-0.713,0.552 -1.07,1.323 -1.07,2.312c0,0.834 0.385,1.529 1.156,2.086c0.771,0.558 2.042,1.099 3.813,1.625c1.77,0.526 3.192,1.125 4.265,1.797c1.073,0.672 1.86,1.443 2.36,2.313c0.5,0.869 0.75,1.888 0.75,3.054c0,1.896 -0.727,3.404 -2.18,4.524c-1.453,1.12 -3.425,1.679 -5.914,1.679c-1.646,0 -3.159,-0.304 -4.539,-0.914c-1.38,-0.609 -2.453,-1.45 -3.219,-2.523c-0.766,-1.073 -1.148,-2.323 -1.148,-3.75l3.953,0c0,1.292 0.427,2.292 1.281,3c0.854,0.708 2.078,1.063 3.672,1.063c1.375,0 2.409,-0.279 3.101,-0.836c0.693,-0.558 1.039,-1.295 1.039,-2.211Z" style="fill:#2d2e44;fill-rule:nonzero;"/><path d="M319.945,358.344c-1.114,1.312 -2.698,1.969 -4.75,1.969c-1.833,0 -3.221,-0.537 -4.164,-1.61c-0.942,-1.073 -1.414,-2.625 -1.414,-4.656l0,-10.953l3.797,0l0,10.906c0,2.146 0.891,3.219 2.672,3.219c1.844,0 3.088,-0.662 3.734,-1.985l0,-12.14l3.797,0l0,16.906l-3.578,0l-0.094,-1.656Z" style="fill:#2d2e44;fill-rule:nonzero;"/><path d="M342.32,351.719c0,2.625 -0.586,4.713 -1.757,6.265c-1.172,1.552 -2.784,2.329 -4.836,2.329c-1.98,0 -3.521,-0.714 -4.625,-2.141l-0.188,1.828l-3.437,0l0,-24l3.796,0l0,8.719c1.094,-1.292 2.568,-1.938 4.422,-1.938c2.063,0 3.683,0.766 4.86,2.297c1.177,1.531 1.765,3.672 1.765,6.422l0,0.219Zm-3.797,-0.328c0,-1.834 -0.322,-3.209 -0.968,-4.125c-0.646,-0.917 -1.584,-1.375 -2.813,-1.375c-1.646,0 -2.802,0.718 -3.469,2.156l0,6.969c0.678,1.468 1.844,2.203 3.5,2.203c1.188,0 2.105,-0.443 2.75,-1.328c0.646,-0.886 0.98,-2.224 1,-4.016l0,-0.484Z" style="fill:#2d2e44;fill-rule:nonzero;"/><path d="M252.375,384.594c-0.229,2.427 -1.125,4.32 -2.687,5.679c-1.563,1.36 -3.641,2.04 -6.235,2.04c-1.812,0 -3.409,-0.43 -4.789,-1.29c-1.38,-0.859 -2.445,-2.08 -3.195,-3.664c-0.75,-1.583 -1.141,-3.421 -1.172,-5.515l0,-2.125c0,-2.146 0.38,-4.037 1.141,-5.672c0.76,-1.636 1.851,-2.896 3.273,-3.781c1.422,-0.886 3.065,-1.328 4.93,-1.328c2.51,0 4.531,0.682 6.062,2.046c1.531,1.365 2.422,3.292 2.672,5.782l-3.937,0c-0.188,-1.636 -0.665,-2.815 -1.43,-3.539c-0.766,-0.724 -1.888,-1.086 -3.367,-1.086c-1.719,0 -3.039,0.627 -3.961,1.882c-0.922,1.256 -1.394,3.097 -1.414,5.524l0,2.016c0,2.458 0.44,4.333 1.32,5.625c0.88,1.291 2.169,1.937 3.867,1.937c1.552,0 2.719,-0.349 3.5,-1.047c0.781,-0.698 1.276,-1.859 1.485,-3.484l3.937,0Z" style="fill:#2d2e44;fill-rule:nonzero;"/><path d="M254.828,383.391c0,-1.657 0.328,-3.149 0.985,-4.477c0.656,-1.328 1.578,-2.349 2.765,-3.062c1.188,-0.714 2.552,-1.071 4.094,-1.071c2.281,0 4.133,0.735 5.555,2.203c1.421,1.469 2.19,3.417 2.304,5.844l0.016,0.891c0,1.666 -0.32,3.156 -0.961,4.469c-0.641,1.312 -1.557,2.328 -2.75,3.046c-1.193,0.719 -2.57,1.079 -4.133,1.079c-2.385,0 -4.294,-0.795 -5.726,-2.383c-1.433,-1.589 -2.149,-3.706 -2.149,-6.352l0,-0.187Zm3.797,0.328c0,1.739 0.359,3.101 1.078,4.086c0.719,0.984 1.719,1.476 3,1.476c1.281,0 2.279,-0.5 2.992,-1.5c0.714,-1 1.071,-2.463 1.071,-4.39c0,-1.709 -0.368,-3.063 -1.102,-4.063c-0.734,-1 -1.732,-1.5 -2.992,-1.5c-1.24,0 -2.224,0.492 -2.953,1.477c-0.729,0.984 -1.094,2.455 -1.094,4.414Z" style="fill:#2d2e44;fill-rule:nonzero;"/><path d="M277.328,375.094l0.109,1.765c1.188,-1.385 2.813,-2.078 4.875,-2.078c2.261,0 3.808,0.865 4.641,2.594c1.229,-1.729 2.958,-2.594 5.188,-2.594c1.864,0 3.252,0.516 4.164,1.547c0.911,1.031 1.377,2.552 1.398,4.563l0,11.109l-3.797,0l0,-11c0,-1.073 -0.234,-1.859 -0.703,-2.359c-0.469,-0.5 -1.245,-0.75 -2.328,-0.75c-0.865,0 -1.57,0.231 -2.117,0.695c-0.547,0.463 -0.93,1.07 -1.149,1.82l0.016,11.594l-3.797,0l0,-11.125c-0.052,-1.99 -1.068,-2.984 -3.047,-2.984c-1.521,0 -2.599,0.619 -3.234,1.859l0,12.25l-3.797,0l0,-16.906l3.578,0Z" style="fill:#2d2e44;fill-rule:nonzero;"/><path d="M316.406,383.719c0,2.614 -0.594,4.7 -1.781,6.258c-1.188,1.557 -2.781,2.336 -4.781,2.336c-1.854,0 -3.339,-0.61 -4.453,-1.829l0,8.016l-3.797,0l0,-23.406l3.5,0l0.156,1.719c1.115,-1.355 2.63,-2.032 4.547,-2.032c2.062,0 3.68,0.768 4.851,2.305c1.172,1.536 1.758,3.669 1.758,6.398l0,0.235Zm-3.781,-0.328c0,-1.688 -0.336,-3.026 -1.008,-4.016c-0.672,-0.99 -1.633,-1.484 -2.883,-1.484c-1.552,0 -2.666,0.64 -3.343,1.921l0,7.5c0.687,1.313 1.812,1.969 3.375,1.969c1.208,0 2.153,-0.487 2.836,-1.461c0.682,-0.974 1.023,-2.45 1.023,-4.429Z" style="fill:#2d2e44;fill-rule:nonzero;"/><path d="M318.906,383.391c0,-1.657 0.328,-3.149 0.985,-4.477c0.656,-1.328 1.578,-2.349 2.765,-3.062c1.188,-0.714 2.552,-1.071 4.094,-1.071c2.281,0 4.133,0.735 5.555,2.203c1.422,1.469 2.19,3.417 2.304,5.844l0.016,0.891c0,1.666 -0.32,3.156 -0.961,4.469c-0.641,1.312 -1.557,2.328 -2.75,3.046c-1.193,0.719 -2.57,1.079 -4.133,1.079c-2.385,0 -4.294,-0.795 -5.726,-2.383c-1.433,-1.589 -2.149,-3.706 -2.149,-6.352l0,-0.187Zm3.797,0.328c0,1.739 0.359,3.101 1.078,4.086c0.719,0.984 1.719,1.476 3,1.476c1.281,0 2.279,-0.5 2.992,-1.5c0.714,-1 1.071,-2.463 1.071,-4.39c0,-1.709 -0.367,-3.063 -1.102,-4.063c-0.734,-1 -1.732,-1.5 -2.992,-1.5c-1.24,0 -2.224,0.492 -2.953,1.477c-0.729,0.984 -1.094,2.455 -1.094,4.414Z" style="fill:#2d2e44;fill-rule:nonzero;"/><path d="M341.359,375.094l0.11,1.953c1.25,-1.511 2.89,-2.266 4.922,-2.266c3.52,0 5.312,2.016 5.375,6.047l0,11.172l-3.797,0l0,-10.953c0,-1.073 -0.232,-1.867 -0.696,-2.383c-0.463,-0.516 -1.221,-0.773 -2.273,-0.773c-1.531,0 -2.672,0.692 -3.422,2.078l0,12.031l-3.797,0l0,-16.906l3.578,0Z" style="fill:#2d2e44;fill-rule:nonzero;"/><path d="M363.078,392.313c-2.406,0 -4.357,-0.758 -5.851,-2.274c-1.495,-1.516 -2.243,-3.534 -2.243,-6.055l0,-0.468c0,-1.688 0.326,-3.196 0.977,-4.524c0.651,-1.328 1.565,-2.362 2.742,-3.101c1.177,-0.74 2.49,-1.11 3.938,-1.11c2.302,0 4.08,0.735 5.336,2.203c1.255,1.469 1.882,3.547 1.882,6.235l0,1.531l-11.047,0c0.115,1.396 0.581,2.5 1.399,3.313c0.818,0.812 1.846,1.218 3.086,1.218c1.739,0 3.156,-0.703 4.25,-2.109l2.047,1.953c-0.677,1.01 -1.581,1.794 -2.711,2.352c-1.13,0.557 -2.399,0.836 -3.805,0.836Zm-0.453,-14.485c-1.042,0 -1.883,0.365 -2.523,1.094c-0.641,0.729 -1.05,1.745 -1.227,3.047l7.234,0l0,-0.281c-0.083,-1.271 -0.422,-2.232 -1.015,-2.883c-0.594,-0.651 -1.417,-0.977 -2.469,-0.977Z" style="fill:#2d2e44;fill-rule:nonzero;"/><path d="M376.328,375.094l0.109,1.953c1.25,-1.511 2.891,-2.266 4.922,-2.266c3.521,0 5.313,2.016 5.375,6.047l0,11.172l-3.797,0l0,-10.953c0,-1.073 -0.231,-1.867 -0.695,-2.383c-0.463,-0.516 -1.221,-0.773 -2.273,-0.773c-1.531,0 -2.672,0.692 -3.422,2.078l0,12.031l-3.797,0l0,-16.906l3.578,0Z" style="fill:#2d2e44;fill-rule:nonzero;"/><path d="M395.359,370.984l0,4.11l2.985,0l0,2.812l-2.985,0l0,9.438c0,0.646 0.128,1.112 0.383,1.398c0.255,0.287 0.711,0.43 1.367,0.43c0.438,0 0.881,-0.052 1.329,-0.156l0,2.937c-0.865,0.24 -1.698,0.359 -2.5,0.359c-2.917,0 -4.375,-1.609 -4.375,-4.828l0,-9.578l-2.782,0l0,-2.812l2.781,0l0,-4.11l3.797,0Z" style="fill:#2d2e44;fill-rule:nonzero;"/></g><g><path d="M605.66,237.5c0,-9.659 -7.841,-17.5 -17.5,-17.5l-176.32,0c-9.659,0 -17.5,7.841 -17.5,17.5l0,35c0,9.659 7.841,17.5 17.5,17.5l176.32,0c9.659,0 17.5,-7.841 17.5,-17.5l0,-35Z" style="fill:#27c278;"/><path d="M459.242,258.094l0,8.906l-3,0l0,-22.75l8.391,0c2.489,0 4.44,0.635 5.851,1.906c1.412,1.271 2.118,2.953 2.118,5.047c0,2.208 -0.691,3.909 -2.071,5.102c-1.38,1.192 -3.357,1.789 -5.929,1.789l-5.36,0Zm0,-2.453l5.391,0c1.604,0 2.833,-0.378 3.687,-1.133c0.854,-0.755 1.282,-1.847 1.282,-3.274c0,-1.354 -0.428,-2.437 -1.282,-3.25c-0.854,-0.812 -2.026,-1.234 -3.515,-1.265l-5.563,0l0,8.922Z" style="fill:#fff;fill-rule:nonzero;"/><path d="M484.148,252.687c-0.437,-0.072 -0.911,-0.109 -1.421,-0.109c-1.896,0 -3.183,0.807 -3.86,2.422l0,12l-2.89,0l0,-16.906l2.812,0l0.047,1.953c0.948,-1.511 2.292,-2.266 4.031,-2.266c0.563,0 0.99,0.073 1.281,0.219l0,2.687Z" style="fill:#fff;fill-rule:nonzero;"/><path d="M485.727,258.391c0,-1.657 0.325,-3.146 0.976,-4.469c0.651,-1.323 1.557,-2.344 2.719,-3.063c1.161,-0.718 2.487,-1.078 3.976,-1.078c2.303,0 4.164,0.797 5.586,2.391c1.422,1.594 2.133,3.713 2.133,6.359l0,0.203c0,1.646 -0.315,3.123 -0.945,4.43c-0.63,1.307 -1.531,2.326 -2.703,3.055c-1.172,0.729 -2.518,1.094 -4.039,1.094c-2.292,0 -4.149,-0.797 -5.571,-2.391c-1.422,-1.594 -2.132,-3.703 -2.132,-6.328l0,-0.203Zm2.906,0.343c0,1.875 0.435,3.381 1.304,4.516c0.87,1.135 2.034,1.703 3.493,1.703c1.468,0 2.635,-0.575 3.5,-1.726c0.864,-1.151 1.297,-2.763 1.297,-4.836c0,-1.855 -0.441,-3.357 -1.321,-4.508c-0.88,-1.151 -2.049,-1.727 -3.508,-1.727c-1.427,0 -2.578,0.568 -3.453,1.703c-0.875,1.136 -1.312,2.761 -1.312,4.875Z" style="fill:#fff;fill-rule:nonzero;"/><path d="M519.023,258.734c0,2.573 -0.588,4.646 -1.765,6.219c-1.177,1.573 -2.771,2.36 -4.781,2.36c-2.053,0 -3.667,-0.652 -4.844,-1.954l0,8.141l-2.891,0l0,-23.406l2.641,0l0.14,1.875c1.178,-1.459 2.813,-2.188 4.907,-2.188c2.031,0 3.638,0.766 4.82,2.297c1.182,1.531 1.773,3.662 1.773,6.391l0,0.265Zm-2.89,-0.328c0,-1.906 -0.406,-3.411 -1.219,-4.515c-0.812,-1.105 -1.927,-1.657 -3.344,-1.657c-1.75,0 -3.062,0.776 -3.937,2.328l0,8.079c0.864,1.541 2.187,2.312 3.969,2.312c1.385,0 2.487,-0.549 3.304,-1.648c0.818,-1.099 1.227,-2.732 1.227,-4.899Z" style="fill:#fff;fill-rule:nonzero;"/><path d="M545.227,267l-14.907,0l0,-2.078l7.875,-8.75c1.167,-1.323 1.972,-2.399 2.414,-3.227c0.443,-0.828 0.664,-1.685 0.664,-2.57c0,-1.188 -0.359,-2.161 -1.078,-2.922c-0.718,-0.76 -1.677,-1.141 -2.875,-1.141c-1.437,0 -2.554,0.409 -3.351,1.227c-0.797,0.818 -1.196,1.956 -1.196,3.414l-2.89,0c0,-2.094 0.674,-3.786 2.023,-5.078c1.349,-1.292 3.154,-1.938 5.414,-1.938c2.115,0 3.787,0.555 5.016,1.665c1.229,1.109 1.844,2.585 1.844,4.429c0,2.24 -1.427,4.906 -4.282,8l-6.093,6.61l11.422,0l0,2.359Z" style="fill:#fff;fill-rule:nonzero;"/></g></g><g><path d="M960,80c0,-22.077 -17.923,-40 -40,-40l-200,0c-22.077,0 -40,17.923 -40,40l0,200c0,22.077 17.923,40 40,40l200,0c22.077,0 40,-17.923 40,-40l0,-200Z" style="fill:#fff;stroke:#27c278;stroke-width:4px;"/><g transform="matrix(1,0,0,1,504,-270.577)"><path d="M302.648,354.141c0,-1 -0.351,-1.771 -1.054,-2.313c-0.703,-0.542 -1.972,-1.088 -3.805,-1.641c-1.833,-0.552 -3.292,-1.166 -4.375,-1.843c-2.073,-1.302 -3.109,-3 -3.109,-5.094c0,-1.833 0.747,-3.344 2.242,-4.531c1.495,-1.188 3.435,-1.782 5.82,-1.782c1.584,0 2.995,0.292 4.235,0.875c1.239,0.584 2.213,1.415 2.921,2.493c0.709,1.078 1.063,2.273 1.063,3.586l-3.938,0c0,-1.188 -0.372,-2.118 -1.117,-2.789c-0.745,-0.672 -1.81,-1.008 -3.195,-1.008c-1.292,0 -2.294,0.276 -3.008,0.828c-0.713,0.552 -1.07,1.323 -1.07,2.312c0,0.834 0.385,1.529 1.156,2.086c0.771,0.558 2.042,1.099 3.813,1.625c1.77,0.526 3.192,1.125 4.265,1.797c1.073,0.672 1.86,1.443 2.36,2.313c0.5,0.869 0.75,1.888 0.75,3.054c0,1.896 -0.727,3.404 -2.18,4.524c-1.453,1.12 -3.425,1.679 -5.914,1.679c-1.646,0 -3.159,-0.304 -4.539,-0.914c-1.38,-0.609 -2.453,-1.45 -3.219,-2.523c-0.766,-1.073 -1.148,-2.323 -1.148,-3.75l3.953,0c0,1.292 0.427,2.292 1.281,3c0.854,0.708 2.078,1.062 3.672,1.062c1.375,0 2.409,-0.278 3.101,-0.835c0.693,-0.558 1.039,-1.295 1.039,-2.211Z" style="fill:#2d2e44;fill-rule:nonzero;"/><path d="M319.945,358.344c-1.114,1.312 -2.698,1.968 -4.75,1.968c-1.833,0 -3.221,-0.536 -4.164,-1.609c-0.942,-1.073 -1.414,-2.625 -1.414,-4.656l0,-10.953l3.797,0l0,10.906c0,2.146 0.891,3.219 2.672,3.219c1.844,0 3.088,-0.662 3.734,-1.985l0,-12.14l3.797,0l0,16.906l-3.578,0l-0.094,-1.656Z" style="fill:#2d2e44;fill-rule:nonzero;"/><path d="M342.32,351.719c0,2.625 -0.586,4.713 -1.758,6.265c-1.171,1.552 -2.783,2.328 -4.835,2.328c-1.98,0 -3.521,-0.713 -4.625,-2.14l-0.188,1.828l-3.437,0l0,-24l3.796,0l0,8.719c1.094,-1.292 2.568,-1.938 4.422,-1.938c2.063,0 3.683,0.766 4.86,2.297c1.177,1.531 1.765,3.672 1.765,6.422l0,0.219Zm-3.797,-0.328c0,-1.834 -0.322,-3.209 -0.968,-4.125c-0.646,-0.917 -1.584,-1.375 -2.813,-1.375c-1.646,0 -2.802,0.718 -3.469,2.156l0,6.969c0.678,1.468 1.844,2.203 3.5,2.203c1.188,0 2.105,-0.443 2.75,-1.328c0.646,-0.886 0.98,-2.224 1,-4.016l0,-0.484Z" style="fill:#2d2e44;fill-rule:nonzero;"/><path d="M302.648,386.141c0,-1 -0.351,-1.771 -1.054,-2.313c-0.703,-0.542 -1.972,-1.088 -3.805,-1.641c-1.833,-0.552 -3.292,-1.166 -4.375,-1.843c-2.073,-1.302 -3.109,-3 -3.109,-5.094c0,-1.833 0.747,-3.344 2.242,-4.531c1.495,-1.188 3.435,-1.782 5.82,-1.782c1.584,0 2.995,0.292 4.235,0.875c1.239,0.584 2.213,1.415 2.921,2.493c0.709,1.078 1.063,2.273 1.063,3.586l-3.938,0c0,-1.188 -0.372,-2.118 -1.117,-2.789c-0.745,-0.672 -1.81,-1.008 -3.195,-1.008c-1.292,0 -2.294,0.276 -3.008,0.828c-0.713,0.552 -1.07,1.323 -1.07,2.312c0,0.834 0.385,1.529 1.156,2.086c0.771,0.558 2.042,1.099 3.813,1.625c1.77,0.526 3.192,1.125 4.265,1.797c1.073,0.672 1.86,1.443 2.36,2.313c0.5,0.869 0.75,1.888 0.75,3.054c0,1.896 -0.727,3.404 -2.18,4.524c-1.453,1.12 -3.425,1.679 -5.914,1.679c-1.646,0 -3.159,-0.304 -4.539,-0.914c-1.38,-0.609 -2.453,-1.45 -3.219,-2.523c-0.766,-1.073 -1.148,-2.323 -1.148,-3.75l3.953,0c0,1.292 0.427,2.292 1.281,3c0.854,0.708 2.078,1.062 3.672,1.062c1.375,0 2.409,-0.278 3.101,-0.835c0.693,-0.558 1.039,-1.295 1.039,-2.211Z" style="fill:#2d2e44;fill-rule:nonzero;"/><path d="M319.945,390.344c-1.114,1.312 -2.698,1.968 -4.75,1.968c-1.833,0 -3.221,-0.536 -4.164,-1.609c-0.942,-1.073 -1.414,-2.625 -1.414,-4.656l0,-10.953l3.797,0l0,10.906c0,2.146 0.891,3.219 2.672,3.219c1.844,0 3.088,-0.662 3.734,-1.985l0,-12.14l3.797,0l0,16.906l-3.578,0l-0.094,-1.656Z" style="fill:#2d2e44;fill-rule:nonzero;"/><path d="M342.32,383.719c0,2.625 -0.586,4.713 -1.758,6.265c-1.171,1.552 -2.783,2.328 -4.835,2.328c-1.98,0 -3.521,-0.713 -4.625,-2.14l-0.188,1.828l-3.437,0l0,-24l3.796,0l0,8.719c1.094,-1.292 2.568,-1.938 4.422,-1.938c2.063,0 3.683,0.766 4.86,2.297c1.177,1.531 1.765,3.672 1.765,6.422l0,0.219Zm-3.797,-0.328c0,-1.834 -0.322,-3.209 -0.968,-4.125c-0.646,-0.917 -1.584,-1.375 -2.813,-1.375c-1.646,0 -2.802,0.718 -3.469,2.156l0,6.969c0.678,1.468 1.844,2.203 3.5,2.203c1.188,0 2.105,-0.443 2.75,-1.328c0.646,-0.886 0.98,-2.224 1,-4.016l0,-0.484Z" style="fill:#2d2e44;fill-rule:nonzero;"/><path d="M252.375,416.594c-0.229,2.427 -1.125,4.32 -2.688,5.679c-1.562,1.36 -3.64,2.039 -6.234,2.039c-1.812,0 -3.409,-0.429 -4.789,-1.289c-1.38,-0.859 -2.445,-2.08 -3.195,-3.664c-0.75,-1.583 -1.141,-3.422 -1.172,-5.515l0,-2.125c0,-2.146 0.38,-4.037 1.14,-5.672c0.761,-1.636 1.852,-2.896 3.274,-3.781c1.422,-0.886 3.065,-1.329 4.93,-1.329c2.51,0 4.531,0.683 6.062,2.047c1.531,1.365 2.422,3.292 2.672,5.782l-3.938,0c-0.187,-1.636 -0.664,-2.815 -1.429,-3.539c-0.766,-0.724 -1.888,-1.086 -3.367,-1.086c-1.719,0 -3.039,0.627 -3.961,1.882c-0.922,1.256 -1.394,3.097 -1.414,5.524l0,2.015c0,2.459 0.44,4.334 1.32,5.625c0.88,1.292 2.169,1.938 3.867,1.938c1.552,0 2.719,-0.349 3.5,-1.047c0.781,-0.698 1.276,-1.859 1.484,-3.484l3.938,0Z" style="fill:#2d2e44;fill-rule:nonzero;"/><path d="M254.828,415.391c0,-1.657 0.328,-3.149 0.984,-4.477c0.657,-1.328 1.579,-2.349 2.766,-3.062c1.188,-0.714 2.552,-1.071 4.094,-1.071c2.281,0 4.133,0.735 5.555,2.203c1.421,1.469 2.19,3.417 2.304,5.844l0.016,0.891c0,1.666 -0.32,3.156 -0.961,4.468c-0.641,1.313 -1.557,2.329 -2.75,3.047c-1.193,0.719 -2.57,1.078 -4.133,1.078c-2.385,0 -4.294,-0.794 -5.726,-2.382c-1.433,-1.589 -2.149,-3.706 -2.149,-6.352l0,-0.187Zm3.797,0.328c0,1.739 0.359,3.101 1.078,4.086c0.719,0.984 1.719,1.476 3,1.476c1.281,0 2.279,-0.5 2.992,-1.5c0.714,-1 1.071,-2.463 1.071,-4.39c0,-1.709 -0.368,-3.063 -1.102,-4.063c-0.734,-1 -1.732,-1.5 -2.992,-1.5c-1.24,0 -2.224,0.492 -2.953,1.477c-0.729,0.984 -1.094,2.455 -1.094,4.414Z" style="fill:#2d2e44;fill-rule:nonzero;"/><path d="M277.328,407.094l0.109,1.765c1.188,-1.385 2.813,-2.078 4.875,-2.078c2.261,0 3.808,0.865 4.641,2.594c1.229,-1.729 2.958,-2.594 5.188,-2.594c1.864,0 3.252,0.516 4.164,1.547c0.911,1.031 1.377,2.552 1.398,4.563l0,11.109l-3.797,0l0,-11c0,-1.073 -0.234,-1.859 -0.703,-2.359c-0.469,-0.5 -1.245,-0.75 -2.328,-0.75c-0.865,0 -1.57,0.231 -2.117,0.695c-0.547,0.463 -0.93,1.07 -1.149,1.82l0.016,11.594l-3.797,0l0,-11.125c-0.052,-1.99 -1.068,-2.984 -3.047,-2.984c-1.521,0 -2.599,0.619 -3.234,1.859l0,12.25l-3.797,0l0,-16.906l3.578,0Z" style="fill:#2d2e44;fill-rule:nonzero;"/><path d="M316.406,415.719c0,2.614 -0.594,4.7 -1.781,6.258c-1.188,1.557 -2.781,2.335 -4.781,2.335c-1.854,0 -3.339,-0.609 -4.453,-1.828l0,8.016l-3.797,0l0,-23.406l3.5,0l0.156,1.718c1.115,-1.354 2.63,-2.031 4.547,-2.031c2.062,0 3.68,0.768 4.851,2.305c1.172,1.536 1.758,3.669 1.758,6.398l0,0.235Zm-3.781,-0.328c0,-1.688 -0.336,-3.026 -1.008,-4.016c-0.672,-0.99 -1.633,-1.484 -2.883,-1.484c-1.552,0 -2.666,0.64 -3.343,1.921l0,7.5c0.687,1.313 1.812,1.969 3.375,1.969c1.208,0 2.153,-0.487 2.836,-1.461c0.682,-0.974 1.023,-2.45 1.023,-4.429Z" style="fill:#2d2e44;fill-rule:nonzero;"/><path d="M318.906,415.391c0,-1.657 0.328,-3.149 0.985,-4.477c0.656,-1.328 1.578,-2.349 2.765,-3.062c1.188,-0.714 2.552,-1.071 4.094,-1.071c2.281,0 4.133,0.735 5.555,2.203c1.422,1.469 2.19,3.417 2.304,5.844l0.016,0.891c0,1.666 -0.32,3.156 -0.961,4.468c-0.641,1.313 -1.557,2.329 -2.75,3.047c-1.193,0.719 -2.57,1.078 -4.133,1.078c-2.385,0 -4.294,-0.794 -5.726,-2.382c-1.433,-1.589 -2.149,-3.706 -2.149,-6.352l0,-0.187Zm3.797,0.328c0,1.739 0.359,3.101 1.078,4.086c0.719,0.984 1.719,1.476 3,1.476c1.281,0 2.279,-0.5 2.992,-1.5c0.714,-1 1.071,-2.463 1.071,-4.39c0,-1.709 -0.367,-3.063 -1.102,-4.063c-0.734,-1 -1.732,-1.5 -2.992,-1.5c-1.24,0 -2.224,0.492 -2.953,1.477c-0.729,0.984 -1.094,2.455 -1.094,4.414Z" style="fill:#2d2e44;fill-rule:nonzero;"/><path d="M341.359,407.094l0.11,1.953c1.25,-1.511 2.89,-2.266 4.922,-2.266c3.52,0 5.312,2.016 5.375,6.047l0,11.172l-3.797,0l0,-10.953c0,-1.073 -0.232,-1.867 -0.696,-2.383c-0.463,-0.516 -1.221,-0.773 -2.273,-0.773c-1.531,0 -2.672,0.692 -3.422,2.078l0,12.031l-3.797,0l0,-16.906l3.578,0Z" style="fill:#2d2e44;fill-rule:nonzero;"/><path d="M363.078,424.312c-2.406,0 -4.357,-0.757 -5.851,-2.273c-1.495,-1.516 -2.243,-3.534 -2.243,-6.055l0,-0.468c0,-1.688 0.326,-3.196 0.977,-4.524c0.651,-1.328 1.565,-2.362 2.742,-3.101c1.177,-0.74 2.49,-1.11 3.938,-1.11c2.302,0 4.08,0.735 5.336,2.203c1.255,1.469 1.882,3.547 1.882,6.235l0,1.531l-11.047,0c0.115,1.396 0.581,2.5 1.399,3.312c0.818,0.813 1.846,1.219 3.086,1.219c1.739,0 3.156,-0.703 4.25,-2.109l2.047,1.953c-0.677,1.01 -1.581,1.794 -2.711,2.352c-1.13,0.557 -2.399,0.835 -3.805,0.835Zm-0.453,-14.484c-1.042,0 -1.883,0.365 -2.523,1.094c-0.641,0.729 -1.05,1.745 -1.227,3.047l7.234,0l0,-0.282c-0.083,-1.27 -0.422,-2.231 -1.015,-2.882c-0.594,-0.651 -1.417,-0.977 -2.469,-0.977Z" style="fill:#2d2e44;fill-rule:nonzero;"/><path d="M376.328,407.094l0.109,1.953c1.25,-1.511 2.891,-2.266 4.922,-2.266c3.521,0 5.313,2.016 5.375,6.047l0,11.172l-3.797,0l0,-10.953c0,-1.073 -0.231,-1.867 -0.695,-2.383c-0.463,-0.516 -1.221,-0.773 -2.273,-0.773c-1.532,0 -2.672,0.692 -3.422,2.078l0,12.031l-3.797,0l0,-16.906l3.578,0Z" style="fill:#2d2e44;fill-rule:nonzero;"/><path d="M395.359,402.984l0,4.11l2.985,0l0,2.812l-2.985,0l0,9.438c0,0.646 0.128,1.112 0.383,1.398c0.255,0.287 0.711,0.43 1.367,0.43c0.438,0 0.881,-0.052 1.328,-0.156l0,2.937c-0.864,0.24 -1.697,0.359 -2.5,0.359c-2.916,0 -4.375,-1.609 -4.375,-4.828l0,-9.578l-2.781,0l0,-2.812l2.781,0l0,-4.11l3.797,0Z" style="fill:#2d2e44;fill-rule:nonzero;"/></g><g><path d="M925.66,237.5c0,-9.659 -7.841,-17.5 -17.5,-17.5l-176.32,0c-9.659,0 -17.5,7.841 -17.5,17.5l0,35c0,9.659 7.841,17.5 17.5,17.5l176.32,0c9.659,0 17.5,-7.841 17.5,-17.5l0,-35Z" style="fill:#27c278;"/><path d="M779.242,258.094l0,8.906l-3,0l0,-22.75l8.391,0c2.489,0 4.44,0.635 5.851,1.906c1.412,1.271 2.118,2.953 2.118,5.047c0,2.208 -0.691,3.909 -2.071,5.102c-1.38,1.192 -3.357,1.789 -5.929,1.789l-5.36,0Zm0,-2.453l5.391,0c1.604,0 2.833,-0.378 3.687,-1.133c0.854,-0.755 1.282,-1.847 1.282,-3.274c0,-1.354 -0.428,-2.437 -1.282,-3.25c-0.854,-0.812 -2.026,-1.234 -3.515,-1.265l-5.563,0l0,8.922Z" style="fill:#fff;fill-rule:nonzero;"/><path d="M804.148,252.688c-0.437,-0.073 -0.911,-0.11 -1.421,-0.11c-1.896,0 -3.183,0.807 -3.86,2.422l0,12l-2.89,0l0,-16.906l2.812,0l0.047,1.953c0.948,-1.511 2.292,-2.266 4.031,-2.266c0.563,0 0.99,0.073 1.281,0.219l0,2.688Z" style="fill:#fff;fill-rule:nonzero;"/><path d="M805.727,258.391c0,-1.657 0.325,-3.146 0.976,-4.469c0.651,-1.323 1.557,-2.344 2.719,-3.063c1.161,-0.718 2.487,-1.078 3.976,-1.078c2.303,0 4.164,0.797 5.586,2.391c1.422,1.594 2.133,3.713 2.133,6.359l0,0.203c0,1.646 -0.315,3.123 -0.945,4.43c-0.63,1.307 -1.531,2.326 -2.703,3.055c-1.172,0.729 -2.518,1.094 -4.039,1.094c-2.292,0 -4.149,-0.797 -5.571,-2.391c-1.422,-1.594 -2.132,-3.703 -2.132,-6.328l0,-0.203Zm2.906,0.343c0,1.875 0.435,3.381 1.304,4.516c0.87,1.135 2.034,1.703 3.493,1.703c1.468,0 2.635,-0.575 3.5,-1.726c0.864,-1.151 1.297,-2.763 1.297,-4.836c0,-1.855 -0.441,-3.357 -1.321,-4.508c-0.88,-1.151 -2.049,-1.727 -3.508,-1.727c-1.427,0 -2.578,0.568 -3.453,1.703c-0.875,1.136 -1.312,2.761 -1.312,4.875Z" style="fill:#fff;fill-rule:nonzero;"/><path d="M839.023,258.734c0,2.573 -0.588,4.646 -1.765,6.219c-1.177,1.573 -2.771,2.36 -4.781,2.36c-2.053,0 -3.667,-0.652 -4.844,-1.954l0,8.141l-2.891,0l0,-23.406l2.641,0l0.14,1.875c1.178,-1.459 2.813,-2.188 4.907,-2.188c2.031,0 3.638,0.766 4.82,2.297c1.182,1.531 1.773,3.662 1.773,6.391l0,0.265Zm-2.89,-0.328c0,-1.906 -0.406,-3.411 -1.219,-4.515c-0.812,-1.105 -1.927,-1.657 -3.344,-1.657c-1.75,0 -3.062,0.776 -3.937,2.328l0,8.079c0.864,1.541 2.187,2.312 3.969,2.312c1.385,0 2.487,-0.549 3.304,-1.648c0.818,-1.099 1.227,-2.732 1.227,-4.899Z" style="fill:#fff;fill-rule:nonzero;"/><path d="M865.227,267l-14.907,0l0,-2.078l7.875,-8.75c1.167,-1.323 1.972,-2.399 2.414,-3.227c0.443,-0.828 0.664,-1.685 0.664,-2.57c0,-1.188 -0.359,-2.161 -1.078,-2.922c-0.718,-0.76 -1.677,-1.141 -2.875,-1.141c-1.437,0 -2.554,0.409 -3.351,1.227c-0.797,0.818 -1.196,1.956 -1.196,3.414l-2.89,0c0,-2.094 0.674,-3.786 2.023,-5.078c1.349,-1.292 3.154,-1.938 5.414,-1.938c2.115,0 3.787,0.555 5.016,1.665c1.229,1.109 1.844,2.585 1.844,4.429c0,2.24 -1.427,4.906 -4.282,8l-6.093,6.61l11.422,0l0,2.359Z" style="fill:#fff;fill-rule:nonzero;"/></g></g><path d="M285,258.375l0,-4.75l99.84,0l0,-7.125l9.5,9.5l-9.5,9.5l0,-7.125l-99.84,0Z" style="fill:#2d2e44;"/><path d="M605.66,258.375l0,-4.75l99.84,0l0,-7.125l9.5,9.5l-9.5,9.5l0,-7.125l-99.84,0Z" style="fill:#2d2e44;"/></svg>