<?xml version="1.0" encoding="UTF-8" standalone="no"?><!DOCTYPE svg PUBLIC "-//W3C//DTD SVG 1.1//EN" "http://www.w3.org/Graphics/SVG/1.1/DTD/svg11.dtd"><svg width="100%" height="100%" viewBox="0 0 120 120" version="1.1" xmlns="http://www.w3.org/2000/svg" xmlns:xlink="http://www.w3.org/1999/xlink" xml:space="preserve" xmlns:serif="http://www.serif.com/" style="fill-rule:evenodd;clip-rule:evenodd;stroke-linejoin:round;stroke-miterlimit:1.41421;"><path d="M59.994,1.481c-33.128,0 -59.994,26.863 -59.994,60.005c0,26.506 17.19,48.996 41.033,56.93c3.001,0.549 4.095,-1.304 4.095,-2.891c0,-1.425 -0.051,-5.197 -0.081,-10.207c-16.689,3.629 -20.21,-8.04 -20.21,-8.04c-2.73,-6.932 -6.663,-8.778 -6.663,-8.778c-5.448,-3.724 0.412,-3.646 0.412,-3.646c6.022,0.423 9.19,6.18 9.19,6.18c5.352,9.172 14.045,6.524 17.463,4.988c0.545,-3.879 2.096,-6.524 3.809,-8.023c-13.323,-1.514 -27.331,-6.663 -27.331,-29.654c0,-6.549 2.339,-11.905 6.177,-16.1c-0.619,-1.518 -2.678,-7.618 0.589,-15.879c0,0 5.035,-1.614 16.498,6.151c4.785,-1.33 9.919,-1.997 15.021,-2.019c5.098,0.022 10.228,0.689 15.021,2.019c11.455,-7.765 16.483,-6.151 16.483,-6.151c3.274,8.261 1.215,14.361 0.6,15.879c3.845,4.195 6.166,9.551 6.166,16.1c0,23.05 -14.03,28.122 -27.393,29.606c2.151,1.853 4.07,5.514 4.07,11.113c0,8.022 -0.074,14.494 -0.074,16.461c0,1.602 1.083,3.47 4.126,2.884c23.823,-7.949 40.999,-30.424 40.999,-56.923c0,-33.142 -26.866,-60.005 -60.006,-60.005Z" style="fill:#181717;"/></svg>