<?xml version="1.0" encoding="UTF-8" standalone="no"?><!DOCTYPE svg PUBLIC "-//W3C//DTD SVG 1.1//EN" "http://www.w3.org/Graphics/SVG/1.1/DTD/svg11.dtd"><svg width="100%" height="100%" viewBox="0 0 680 480" version="1.1" xmlns="http://www.w3.org/2000/svg" xmlns:xlink="http://www.w3.org/1999/xlink" xml:space="preserve" xmlns:serif="http://www.serif.com/" style="fill-rule:evenodd;clip-rule:evenodd;stroke-linecap:round;stroke-linejoin:round;stroke-miterlimit:1.5;"><path d="M640,60c0,-11.038 -8.962,-20 -20,-20l-560,0c-11.038,0 -20,8.962 -20,20l0,360c0,11.038 8.962,20 20,20l560,0c11.038,0 20,-8.962 20,-20l0,-360Z" style="fill:#27c278;"/><path d="M170,70c0,-5.519 -4.481,-10 -10,-10l-90,0c-5.519,0 -10,4.481 -10,10l0,90c0,5.519 4.481,10 10,10l90,0c5.519,0 10,-4.481 10,-10l0,-90Z" style="fill:#fff;"/><path d="M590,239c0,-5.519 -4.481,-10 -10,-10l-510,0c-5.519,0 -10,4.481 -10,10c0,5.519 4.481,10 10,10l510,0c5.519,0 10,-4.481 10,-10Z" style="fill:#fff;"/><path d="M600,269c0,-5.519 -4.481,-10 -10,-10l-520,0c-5.519,0 -10,4.481 -10,10c0,5.519 4.481,10 10,10l520,0c5.519,0 10,-4.481 10,-10Z" style="fill:#fff;"/><path d="M560,299c0,-5.519 -4.481,-10 -10,-10l-480,0c-5.519,0 -10,4.481 -10,10c0,5.519 4.481,10 10,10l480,0c5.519,0 10,-4.481 10,-10Z" style="fill:#fff;"/><path d="M260,329c0,-5.519 -4.481,-10 -10,-10l-180,0c-5.519,0 -10,4.481 -10,10c0,5.519 4.481,10 10,10l180,0c5.519,0 10,-4.481 10,-10Z" style="fill:#fff;"/><path d="M360,390c0,-5.519 -4.481,-10 -10,-10l-280,0c-5.519,0 -10,4.481 -10,10c0,5.519 4.481,10 10,10l280,0c5.519,0 10,-4.481 10,-10Z" style="fill:#fff;"/><path d="M60,199.5l250,0" style="fill:none;stroke:#fff;stroke-width:4px;"/><path d="M115,75c-22.083,0 -40,17.917 -40,40c0,22.083 17.917,40 40,40c22.083,0 40,-17.917 40,-40c0,-22.083 -17.917,-40 -40,-40Zm26.533,49.4c4.22,-0.037 7.634,-3.802 7.617,-8.433c0,-4.667 -3.45,-8.45 -7.7,-8.45c-0.333,0 -0.65,0.066 -0.983,0.116c-18.417,0.434 -34.9,-8.116 -39.417,-16.866l0,0.05l-0.017,-0.017c-0.966,5.2 -6.683,11.95 -13.65,16.833l0,0.017c-3.7,0.6 -6.55,4.083 -6.55,8.317c0,4.433 3.117,8.033 7.084,8.366c3.616,12.5 14.233,21.584 26.816,21.584c12.567,0 23.167,-9.05 26.8,-21.517Zm-17.55,7.617c-2.483,1.916 -5.666,2.983 -8.983,2.983c-3.317,0 -6.5,-1.067 -8.983,-2.983c-0.717,-0.567 -1.767,-0.434 -2.334,0.3c-0.566,0.733 -0.433,1.766 0.3,2.333c3.05,2.367 6.967,3.683 11.017,3.683c4.05,0 7.967,-1.316 11.017,-3.683c0.733,-0.567 0.866,-1.617 0.3,-2.333c-0.567,-0.734 -1.617,-0.867 -2.334,-0.3Zm-20.65,-18.684c1.84,0 3.334,1.494 3.334,3.334c0,1.839 -1.494,3.333 -3.334,3.333c-1.839,0 -3.333,-1.494 -3.333,-3.333c0,-1.84 1.494,-3.334 3.333,-3.334Zm23.334,0c1.839,0 3.333,1.494 3.333,3.334c0,1.839 -1.494,3.333 -3.333,3.333c-1.84,0 -3.334,-1.494 -3.334,-3.333c0,-1.84 1.494,-3.334 3.334,-3.334Z" style="fill:#27c278;fill-opacity:0.301961;"/></svg>