<?xml version="1.0" encoding="UTF-8" standalone="no"?><!DOCTYPE svg PUBLIC "-//W3C//DTD SVG 1.1//EN" "http://www.w3.org/Graphics/SVG/1.1/DTD/svg11.dtd"><svg width="100%" height="100%" viewBox="0 0 1280 284" version="1.1" xmlns="http://www.w3.org/2000/svg" xmlns:xlink="http://www.w3.org/1999/xlink" xml:space="preserve" xmlns:serif="http://www.serif.com/" style="fill-rule:evenodd;clip-rule:evenodd;stroke-linejoin:round;stroke-miterlimit:1.41421;"><path d="M965.459,91.6c16.691,-31.865 50.074,-31.865 66.766,-16.006c16.692,15.86 16.692,47.58 0,79.3c-11.684,23.79 -41.729,47.579 -66.766,63.439c-25.037,-15.86 -55.081,-39.649 -66.766,-63.439c-16.691,-31.72 -16.691,-63.44 0,-79.3c16.692,-15.859 50.075,-15.859 66.766,16.006Z" style="fill:#f64343;"/><path d="M88.048,181.774l0,-124.875c0,-4.638 1.779,-8.612 5.322,-11.923c3.437,-3.27 8.028,-5.058 12.772,-4.973c4.966,0 9.173,1.655 12.621,4.966c3.55,3.311 5.322,7.285 5.322,11.923l0,124.882c0,17.033 -6.431,31.604 -19.311,43.712c-12.977,12.019 -28.587,18.025 -46.831,18.025c-4.973,0 -9.18,-1.656 -12.621,-4.967c-3.557,-3.215 -5.322,-7.141 -5.322,-11.779c0,-4.638 1.772,-8.612 5.322,-11.923c3.441,-3.311 7.648,-4.966 12.621,-4.966c8.311,0 15.405,-2.737 21.288,-8.23c5.883,-5.486 8.817,-12.108 8.817,-19.872Zm246.426,31.837c-20.002,19.933 -44.081,29.9 -72.237,29.9c-28.162,0 -52.193,-9.967 -72.1,-29.9c-20.008,-19.838 -30.009,-43.794 -30.009,-71.854c0,-28.06 10.001,-52.057 30.003,-71.991c19.906,-19.844 43.95,-29.763 72.1,-29.763c28.162,0 52.241,9.919 72.243,29.757c19.906,19.94 29.866,43.937 29.866,71.997c0,28.06 -9.953,52.009 -29.866,71.854Zm-25.502,-118.432c-12.976,-12.84 -28.552,-19.263 -46.741,-19.263c-18.183,0 -33.725,6.423 -46.605,19.263c-12.977,12.929 -19.462,28.457 -19.462,46.578c0,18.127 6.485,33.601 19.462,46.448c12.887,12.928 28.422,19.393 46.605,19.393c18.189,0 33.765,-6.465 46.741,-19.4c12.888,-12.84 19.332,-28.32 19.332,-46.441c0,-18.128 -6.444,-33.649 -19.332,-46.585l0,0.007Zm253.746,118.432c-20.002,19.933 -44.081,29.9 -72.237,29.9c-28.163,0 -52.194,-9.967 -72.107,-29.9c-20.002,-19.838 -30.01,-43.794 -30.01,-71.854c0,-28.06 10.008,-52.057 30.01,-71.991c19.906,-19.837 43.944,-29.763 72.1,-29.763c28.163,0 52.242,9.919 72.244,29.757c19.906,19.94 29.866,43.937 29.866,71.997c0,28.06 -9.953,52.009 -29.866,71.854Zm-25.502,-118.432c-12.977,-12.84 -28.553,-19.263 -46.742,-19.263c-18.182,0 -33.724,6.423 -46.605,19.263c-12.977,12.929 -19.462,28.457 -19.462,46.578c0,18.127 6.485,33.601 19.462,46.448c12.888,12.928 28.423,19.393 46.605,19.393c18.189,0 33.765,-6.465 46.742,-19.4c12.887,-12.84 19.331,-28.32 19.331,-46.441c0,-18.128 -6.444,-33.649 -19.331,-46.585l0,0.007Zm178.806,108.827c-1.361,-2.394 -19.153,-31.487 -53.391,-87.286l0,110.1c0,4.624 -1.669,8.537 -5.021,11.745c-3.17,3.228 -7.529,5.019 -12.053,4.953c-4.485,0.083 -8.806,-1.714 -11.909,-4.953c-3.27,-3.02 -5.1,-7.295 -5.028,-11.745l0,-170.099c0,-3.769 1.149,-7.114 3.448,-10.042c2.245,-2.986 5.431,-5.131 9.043,-6.088c3.557,-0.946 7.323,-0.747 10.76,0.568c3.537,1.416 6.314,3.728 8.325,6.936l70.609,115.039l70.608,-115.039c1.916,-3.215 4.638,-5.52 8.175,-6.936c3.489,-1.319 7.304,-1.518 10.911,-0.568c3.632,1.04 6.601,3.065 8.892,6.088c2.299,2.921 3.448,6.273 3.448,10.042l0,170.099c0.083,4.421 -1.687,8.682 -4.877,11.745c-3.172,3.23 -7.534,5.021 -12.06,4.953c-4.524,0.066 -8.883,-1.725 -12.053,-4.953c-3.191,-3.063 -4.96,-7.324 -4.878,-11.745l0,-110.1c-33.909,55.799 -51.749,84.851 -53.527,87.17c-2.668,3.475 -7.504,9.693 -14.708,9.693c-7.21,0 -12.682,-5.985 -14.714,-9.577Z" style="fill:#3d3f56;"/><path d="M1223.91,40c-4.439,0 -8.231,1.608 -11.376,4.825c-3.145,3.217 -4.717,7.097 -4.717,11.638l0,114.392c0,10.975 -3.792,20.342 -11.376,28.101c-7.584,7.758 -16.694,11.638 -27.33,11.638c-10.729,0 -19.885,-3.88 -27.469,-11.638c-7.584,-7.759 -11.376,-17.126 -11.376,-28.101l0,-114.392c0,-4.541 -1.573,-8.421 -4.717,-11.638c-3.145,-3.217 -6.937,-4.825 -11.376,-4.825c-4.44,0 -8.232,1.608 -11.376,4.825c-3.145,3.217 -4.717,7.097 -4.717,11.638l0,114.392c0,20.059 6.936,37.184 20.81,51.377c13.873,14.192 30.613,21.288 50.221,21.288c19.515,0 36.209,-7.096 50.082,-21.288c13.873,-14.193 20.81,-31.318 20.81,-51.377l0,-114.392c0,-4.541 -1.572,-8.421 -4.717,-11.638c-3.144,-3.217 -6.937,-4.825 -11.376,-4.825Z" style="fill:#3d3f56;fill-rule:nonzero;"/></svg>