<?xml version="1.0" encoding="UTF-8" standalone="no"?><!DOCTYPE svg PUBLIC "-//W3C//DTD SVG 1.1//EN" "http://www.w3.org/Graphics/SVG/1.1/DTD/svg11.dtd"><svg width="100%" height="100%" viewBox="0 0 1000 320" version="1.1" xmlns="http://www.w3.org/2000/svg" xmlns:xlink="http://www.w3.org/1999/xlink" xml:space="preserve" xmlns:serif="http://www.serif.com/" style="fill-rule:evenodd;clip-rule:evenodd;stroke-linecap:round;stroke-linejoin:round;stroke-miterlimit:1.5;"><g><path d="M960,100c0,-33.115 -26.885,-60 -60,-60l-800,0c-33.115,0 -60,26.885 -60,60l0,120c0,33.115 26.885,60 60,60l800,0c33.115,0 60,-26.885 60,-60l0,-120Z" style="fill:#fff;stroke:#27c278;stroke-width:4px;"/><path d="M350.797,90.44l10.328,0l0,3.156l-14.281,0l0,-22.75l3.953,0l0,19.594Z" style="fill:#2d2e44;fill-rule:nonzero;"/><path d="M373.891,93.596c-0.167,-0.323 -0.313,-0.849 -0.438,-1.578c-1.208,1.261 -2.687,1.891 -4.437,1.891c-1.698,0 -3.084,-0.485 -4.157,-1.453c-1.073,-0.969 -1.609,-2.167 -1.609,-3.594c0,-1.802 0.669,-3.185 2.008,-4.149c1.338,-0.963 3.252,-1.445 5.742,-1.445l2.328,0l0,-1.109c0,-0.875 -0.245,-1.576 -0.734,-2.102c-0.49,-0.526 -1.235,-0.789 -2.235,-0.789c-0.864,0 -1.573,0.216 -2.125,0.649c-0.552,0.432 -0.828,0.981 -0.828,1.648l-3.797,0c0,-0.927 0.308,-1.794 0.922,-2.602c0.615,-0.807 1.451,-1.44 2.508,-1.898c1.057,-0.458 2.237,-0.687 3.539,-0.687c1.979,0 3.557,0.497 4.734,1.492c1.178,0.995 1.782,2.393 1.813,4.195l0,7.625c0,1.521 0.214,2.734 0.641,3.641l0,0.265l-3.875,0Zm-4.172,-2.734c0.75,0 1.455,-0.182 2.117,-0.547c0.661,-0.365 1.159,-0.854 1.492,-1.469l0,-3.187l-2.047,0c-1.406,0 -2.463,0.245 -3.172,0.734c-0.708,0.49 -1.062,1.182 -1.062,2.078c0,0.729 0.242,1.31 0.726,1.742c0.485,0.433 1.133,0.649 1.946,0.649Z" style="fill:#2d2e44;fill-rule:nonzero;"/><path d="M386.781,88.159l3.438,-11.469l4.047,0l-6.719,19.469c-1.031,2.844 -2.781,4.265 -5.25,4.265c-0.552,0 -1.162,-0.093 -1.828,-0.281l0,-2.937l0.718,0.047c0.959,0 1.68,-0.175 2.165,-0.524c0.484,-0.349 0.867,-0.935 1.148,-1.758l0.547,-1.453l-5.938,-16.828l4.094,0l3.578,11.469Z" style="fill:#2d2e44;fill-rule:nonzero;"/><path d="M395.5,84.987c0,-1.656 0.328,-3.149 0.984,-4.477c0.657,-1.328 1.578,-2.349 2.766,-3.062c1.188,-0.714 2.552,-1.07 4.094,-1.07c2.281,0 4.133,0.734 5.554,2.203c1.422,1.468 2.191,3.416 2.305,5.843l0.016,0.891c0,1.667 -0.321,3.156 -0.961,4.469c-0.641,1.312 -1.557,2.328 -2.75,3.047c-1.193,0.718 -2.57,1.078 -4.133,1.078c-2.385,0 -4.294,-0.794 -5.727,-2.383c-1.432,-1.589 -2.148,-3.706 -2.148,-6.352l0,-0.187Zm3.797,0.328c0,1.74 0.359,3.102 1.078,4.086c0.719,0.984 1.719,1.477 3,1.477c1.281,0 2.279,-0.5 2.992,-1.5c0.714,-1 1.07,-2.464 1.07,-4.391c0,-1.708 -0.367,-3.063 -1.101,-4.063c-0.734,-1 -1.732,-1.5 -2.992,-1.5c-1.24,0 -2.224,0.493 -2.953,1.477c-0.73,0.984 -1.094,2.456 -1.094,4.414Z" style="fill:#2d2e44;fill-rule:nonzero;"/><path d="M424.672,91.94c-1.115,1.313 -2.698,1.969 -4.75,1.969c-1.833,0 -3.221,-0.537 -4.164,-1.61c-0.943,-1.072 -1.414,-2.625 -1.414,-4.656l0,-10.953l3.797,0l0,10.906c0,2.146 0.89,3.219 2.671,3.219c1.844,0 3.089,-0.661 3.735,-1.984l0,-12.141l3.797,0l0,16.906l-3.578,0l-0.094,-1.656Z" style="fill:#2d2e44;fill-rule:nonzero;"/><path d="M436.969,72.581l0,4.109l2.984,0l0,2.813l-2.984,0l0,9.437c0,0.646 0.127,1.112 0.383,1.398c0.255,0.287 0.711,0.43 1.367,0.43c0.437,0 0.88,-0.052 1.328,-0.156l0,2.937c-0.865,0.24 -1.698,0.36 -2.5,0.36c-2.917,0 -4.375,-1.61 -4.375,-4.828l0,-9.578l-2.781,0l0,-2.813l2.781,0l0,-4.109l3.797,0Z" style="fill:#2d2e44;fill-rule:nonzero;"/><path d="M468.547,86.19c-0.229,2.427 -1.125,4.32 -2.688,5.68c-1.562,1.359 -3.64,2.039 -6.234,2.039c-1.813,0 -3.409,-0.43 -4.789,-1.289c-1.38,-0.86 -2.445,-2.081 -3.195,-3.664c-0.75,-1.584 -1.141,-3.422 -1.172,-5.516l0,-2.125c0,-2.146 0.38,-4.036 1.14,-5.672c0.761,-1.635 1.852,-2.896 3.274,-3.781c1.422,-0.885 3.065,-1.328 4.929,-1.328c2.511,0 4.532,0.682 6.063,2.047c1.531,1.364 2.422,3.291 2.672,5.781l-3.938,0c-0.187,-1.635 -0.664,-2.815 -1.429,-3.539c-0.766,-0.724 -1.888,-1.086 -3.368,-1.086c-1.718,0 -3.039,0.628 -3.96,1.883c-0.922,1.255 -1.394,3.096 -1.415,5.523l0,2.016c0,2.458 0.441,4.333 1.321,5.625c0.88,1.291 2.169,1.937 3.867,1.937c1.552,0 2.719,-0.349 3.5,-1.047c0.781,-0.697 1.276,-1.859 1.484,-3.484l3.938,0Z" style="fill:#2d2e44;fill-rule:nonzero;"/><path d="M471,84.987c0,-1.656 0.328,-3.149 0.984,-4.477c0.657,-1.328 1.579,-2.349 2.766,-3.062c1.188,-0.714 2.552,-1.07 4.094,-1.07c2.281,0 4.133,0.734 5.554,2.203c1.422,1.468 2.191,3.416 2.305,5.843l0.016,0.891c0,1.667 -0.321,3.156 -0.961,4.469c-0.641,1.312 -1.557,2.328 -2.75,3.047c-1.193,0.718 -2.57,1.078 -4.133,1.078c-2.385,0 -4.294,-0.794 -5.727,-2.383c-1.432,-1.589 -2.148,-3.706 -2.148,-6.352l0,-0.187Zm3.797,0.328c0,1.74 0.359,3.102 1.078,4.086c0.719,0.984 1.719,1.477 3,1.477c1.281,0 2.279,-0.5 2.992,-1.5c0.714,-1 1.07,-2.464 1.07,-4.391c0,-1.708 -0.367,-3.063 -1.101,-4.063c-0.734,-1 -1.732,-1.5 -2.992,-1.5c-1.24,0 -2.224,0.493 -2.953,1.477c-0.73,0.984 -1.094,2.456 -1.094,4.414Z" style="fill:#2d2e44;fill-rule:nonzero;"/><path d="M493.5,76.69l0.109,1.766c1.188,-1.386 2.813,-2.078 4.875,-2.078c2.261,0 3.808,0.864 4.641,2.593c1.229,-1.729 2.958,-2.593 5.188,-2.593c1.864,0 3.252,0.515 4.164,1.546c0.911,1.032 1.377,2.553 1.398,4.563l0,11.109l-3.797,0l0,-11c0,-1.073 -0.234,-1.859 -0.703,-2.359c-0.469,-0.5 -1.245,-0.75 -2.328,-0.75c-0.865,0 -1.57,0.232 -2.117,0.695c-0.547,0.464 -0.93,1.071 -1.149,1.821l0.016,11.593l-3.797,0l0,-11.125c-0.052,-1.989 -1.068,-2.984 -3.047,-2.984c-1.521,0 -2.599,0.62 -3.234,1.859l0,12.25l-3.797,0l0,-16.906l3.578,0Z" style="fill:#2d2e44;fill-rule:nonzero;"/><path d="M532.578,85.315c0,2.615 -0.594,4.701 -1.781,6.258c-1.188,1.557 -2.781,2.336 -4.781,2.336c-1.855,0 -3.339,-0.61 -4.454,-1.828l0,8.015l-3.796,0l0,-23.406l3.5,0l0.156,1.719c1.114,-1.354 2.63,-2.031 4.547,-2.031c2.062,0 3.679,0.768 4.851,2.304c1.172,1.537 1.758,3.67 1.758,6.399l0,0.234Zm-3.781,-0.328c0,-1.688 -0.336,-3.026 -1.008,-4.016c-0.672,-0.989 -1.633,-1.484 -2.883,-1.484c-1.552,0 -2.666,0.641 -3.344,1.922l0,7.5c0.688,1.312 1.813,1.969 3.375,1.969c1.209,0 2.154,-0.487 2.836,-1.461c0.683,-0.974 1.024,-2.451 1.024,-4.43Z" style="fill:#2d2e44;fill-rule:nonzero;"/><path d="M535.078,84.987c0,-1.656 0.328,-3.149 0.985,-4.477c0.656,-1.328 1.578,-2.349 2.765,-3.062c1.188,-0.714 2.552,-1.07 4.094,-1.07c2.281,0 4.133,0.734 5.555,2.203c1.421,1.468 2.19,3.416 2.304,5.843l0.016,0.891c0,1.667 -0.32,3.156 -0.961,4.469c-0.641,1.312 -1.557,2.328 -2.75,3.047c-1.193,0.718 -2.57,1.078 -4.133,1.078c-2.385,0 -4.294,-0.794 -5.726,-2.383c-1.433,-1.589 -2.149,-3.706 -2.149,-6.352l0,-0.187Zm3.797,0.328c0,1.74 0.359,3.102 1.078,4.086c0.719,0.984 1.719,1.477 3,1.477c1.281,0 2.279,-0.5 2.992,-1.5c0.714,-1 1.071,-2.464 1.071,-4.391c0,-1.708 -0.368,-3.063 -1.102,-4.063c-0.734,-1 -1.732,-1.5 -2.992,-1.5c-1.24,0 -2.224,0.493 -2.953,1.477c-0.729,0.984 -1.094,2.456 -1.094,4.414Z" style="fill:#2d2e44;fill-rule:nonzero;"/><path d="M557.531,76.69l0.11,1.953c1.25,-1.51 2.89,-2.265 4.921,-2.265c3.521,0 5.313,2.015 5.375,6.046l0,11.172l-3.796,0l0,-10.953c0,-1.073 -0.232,-1.867 -0.696,-2.383c-0.463,-0.515 -1.221,-0.773 -2.273,-0.773c-1.531,0 -2.672,0.693 -3.422,2.078l0,12.031l-3.797,0l0,-16.906l3.578,0Z" style="fill:#2d2e44;fill-rule:nonzero;"/><path d="M579.25,93.909c-2.406,0 -4.357,-0.758 -5.852,-2.274c-1.494,-1.515 -2.242,-3.533 -2.242,-6.054l0,-0.469c0,-1.688 0.326,-3.195 0.977,-4.524c0.651,-1.328 1.565,-2.361 2.742,-3.101c1.177,-0.74 2.49,-1.109 3.938,-1.109c2.302,0 4.08,0.734 5.335,2.203c1.256,1.468 1.883,3.547 1.883,6.234l0,1.531l-11.047,0c0.115,1.396 0.581,2.5 1.399,3.313c0.818,0.812 1.846,1.219 3.086,1.219c1.739,0 3.156,-0.704 4.25,-2.11l2.047,1.953c-0.677,1.011 -1.581,1.795 -2.711,2.352c-1.131,0.557 -2.399,0.836 -3.805,0.836Zm-0.453,-14.485c-1.042,0 -1.883,0.365 -2.524,1.094c-0.64,0.729 -1.049,1.745 -1.226,3.047l7.234,0l0,-0.281c-0.083,-1.271 -0.422,-2.232 -1.015,-2.883c-0.594,-0.651 -1.417,-0.977 -2.469,-0.977Z" style="fill:#2d2e44;fill-rule:nonzero;"/><path d="M592.5,76.69l0.109,1.953c1.25,-1.51 2.891,-2.265 4.922,-2.265c3.521,0 5.313,2.015 5.375,6.046l0,11.172l-3.797,0l0,-10.953c0,-1.073 -0.231,-1.867 -0.695,-2.383c-0.463,-0.515 -1.221,-0.773 -2.273,-0.773c-1.532,0 -2.672,0.693 -3.422,2.078l0,12.031l-3.797,0l0,-16.906l3.578,0Z" style="fill:#2d2e44;fill-rule:nonzero;"/><path d="M611.531,72.581l0,4.109l2.985,0l0,2.813l-2.985,0l0,9.437c0,0.646 0.128,1.112 0.383,1.398c0.255,0.287 0.711,0.43 1.367,0.43c0.438,0 0.88,-0.052 1.328,-0.156l0,2.937c-0.864,0.24 -1.698,0.36 -2.5,0.36c-2.916,0 -4.375,-1.61 -4.375,-4.828l0,-9.578l-2.781,0l0,-2.813l2.781,0l0,-4.109l3.797,0Z" style="fill:#2d2e44;fill-rule:nonzero;"/></g><g><path d="M320,165c0,-13.798 -11.202,-25 -25,-25l-190,0c-13.798,0 -25,11.202 -25,25l0,50c0,13.798 11.202,25 25,25l190,0c13.798,0 25,-11.202 25,-25l0,-50Z" style="fill:#27c278;"/><path d="M123.406,194.781c-0.281,2.406 -1.169,4.263 -2.664,5.571c-1.495,1.307 -3.482,1.96 -5.961,1.96c-2.687,0 -4.841,-0.963 -6.461,-2.89c-1.619,-1.927 -2.429,-4.505 -2.429,-7.735l0,-2.187c0,-2.115 0.377,-3.974 1.132,-5.578c0.756,-1.604 1.826,-2.836 3.211,-3.695c1.386,-0.86 2.99,-1.29 4.813,-1.29c2.417,0 4.354,0.675 5.812,2.024c1.459,1.349 2.308,3.216 2.547,5.601l-3.015,0c-0.261,-1.812 -0.826,-3.125 -1.696,-3.937c-0.869,-0.813 -2.086,-1.219 -3.648,-1.219c-1.917,0 -3.419,0.709 -4.508,2.125c-1.088,1.417 -1.633,3.433 -1.633,6.047l0,2.203c0,2.469 0.516,4.433 1.547,5.891c1.031,1.458 2.474,2.187 4.328,2.187c1.667,0 2.946,-0.377 3.836,-1.132c0.891,-0.756 1.482,-2.071 1.774,-3.946l3.015,0Z" style="fill:#fff;fill-rule:nonzero;"/><path d="M126.281,193.391c0,-1.657 0.326,-3.146 0.977,-4.469c0.651,-1.323 1.557,-2.344 2.719,-3.063c1.161,-0.718 2.487,-1.078 3.976,-1.078c2.302,0 4.164,0.797 5.586,2.391c1.422,1.594 2.133,3.713 2.133,6.359l0,0.203c0,1.646 -0.315,3.123 -0.945,4.43c-0.631,1.307 -1.532,2.326 -2.704,3.055c-1.171,0.729 -2.518,1.093 -4.039,1.093c-2.291,0 -4.148,-0.796 -5.57,-2.39c-1.422,-1.594 -2.133,-3.703 -2.133,-6.328l0,-0.203Zm2.906,0.343c0,1.875 0.435,3.381 1.305,4.516c0.87,1.135 2.034,1.703 3.492,1.703c1.469,0 2.636,-0.575 3.5,-1.726c0.865,-1.151 1.297,-2.763 1.297,-4.836c0,-1.855 -0.44,-3.357 -1.32,-4.508c-0.88,-1.151 -2.05,-1.727 -3.508,-1.727c-1.427,0 -2.578,0.568 -3.453,1.703c-0.875,1.136 -1.313,2.761 -1.313,4.875Z" style="fill:#fff;fill-rule:nonzero;"/><path d="M148.016,185.094l0.078,1.875c1.239,-1.459 2.911,-2.188 5.015,-2.188c2.365,0 3.974,0.906 4.829,2.719c0.562,-0.813 1.294,-1.469 2.195,-1.969c0.901,-0.5 1.966,-0.75 3.195,-0.75c3.708,0 5.594,1.964 5.656,5.891l0,11.328l-2.89,0l0,-11.156c0,-1.209 -0.276,-2.112 -0.828,-2.711c-0.552,-0.599 -1.48,-0.899 -2.782,-0.899c-1.073,0 -1.963,0.321 -2.671,0.961c-0.709,0.641 -1.12,1.503 -1.235,2.586l0,11.219l-2.906,0l0,-11.078c0,-2.458 -1.203,-3.688 -3.609,-3.688c-1.896,0 -3.193,0.808 -3.891,2.422l0,12.344l-2.891,0l0,-16.906l2.735,0Z" style="fill:#fff;fill-rule:nonzero;"/><path d="M187.625,193.734c0,2.573 -0.589,4.646 -1.766,6.219c-1.177,1.573 -2.77,2.359 -4.781,2.359c-2.052,0 -3.667,-0.651 -4.844,-1.953l0,8.141l-2.89,0l0,-23.406l2.64,0l0.141,1.875c1.177,-1.459 2.813,-2.188 4.906,-2.188c2.031,0 3.638,0.766 4.821,2.297c1.182,1.531 1.773,3.662 1.773,6.391l0,0.265Zm-2.891,-0.328c0,-1.906 -0.406,-3.411 -1.218,-4.515c-0.813,-1.105 -1.927,-1.657 -3.344,-1.657c-1.75,0 -3.063,0.776 -3.938,2.328l0,8.079c0.865,1.541 2.188,2.312 3.969,2.312c1.386,0 2.487,-0.549 3.305,-1.648c0.818,-1.099 1.226,-2.732 1.226,-4.899Z" style="fill:#fff;fill-rule:nonzero;"/><path d="M190.531,193.391c0,-1.657 0.326,-3.146 0.977,-4.469c0.651,-1.323 1.557,-2.344 2.719,-3.063c1.161,-0.718 2.487,-1.078 3.976,-1.078c2.302,0 4.164,0.797 5.586,2.391c1.422,1.594 2.133,3.713 2.133,6.359l0,0.203c0,1.646 -0.315,3.123 -0.945,4.43c-0.631,1.307 -1.532,2.326 -2.704,3.055c-1.171,0.729 -2.518,1.093 -4.039,1.093c-2.291,0 -4.148,-0.796 -5.57,-2.39c-1.422,-1.594 -2.133,-3.703 -2.133,-6.328l0,-0.203Zm2.906,0.343c0,1.875 0.435,3.381 1.305,4.516c0.87,1.135 2.034,1.703 3.492,1.703c1.469,0 2.636,-0.575 3.5,-1.726c0.865,-1.151 1.297,-2.763 1.297,-4.836c0,-1.855 -0.44,-3.357 -1.32,-4.508c-0.88,-1.151 -2.05,-1.727 -3.508,-1.727c-1.427,0 -2.578,0.568 -3.453,1.703c-0.875,1.136 -1.313,2.761 -1.313,4.875Z" style="fill:#fff;fill-rule:nonzero;"/><path d="M212.281,185.094l0.094,2.125c1.292,-1.625 2.979,-2.438 5.063,-2.438c3.572,0 5.375,2.016 5.406,6.047l0,11.172l-2.891,0l0,-11.188c-0.01,-1.218 -0.289,-2.119 -0.836,-2.703c-0.547,-0.583 -1.398,-0.875 -2.554,-0.875c-0.938,0 -1.761,0.25 -2.469,0.75c-0.709,0.5 -1.261,1.157 -1.656,1.969l0,12.047l-2.891,0l0,-16.906l2.734,0Z" style="fill:#fff;fill-rule:nonzero;"/><path d="M234.219,202.312c-2.292,0 -4.156,-0.752 -5.594,-2.257c-1.438,-1.506 -2.156,-3.519 -2.156,-6.039l0,-0.532c0,-1.677 0.32,-3.174 0.961,-4.492c0.64,-1.318 1.536,-2.349 2.687,-3.094c1.151,-0.744 2.399,-1.117 3.742,-1.117c2.198,0 3.907,0.724 5.125,2.172c1.219,1.448 1.828,3.521 1.828,6.219l0,1.203l-11.453,0c0.042,1.667 0.529,3.013 1.461,4.039c0.933,1.026 2.117,1.539 3.555,1.539c1.021,0 1.885,-0.208 2.594,-0.625c0.708,-0.417 1.328,-0.969 1.859,-1.656l1.766,1.375c-1.417,2.177 -3.542,3.265 -6.375,3.265Zm-0.36,-15.156c-1.166,0 -2.145,0.425 -2.937,1.274c-0.792,0.849 -1.281,2.039 -1.469,3.57l8.469,0l0,-0.219c-0.083,-1.469 -0.479,-2.607 -1.188,-3.414c-0.708,-0.807 -1.666,-1.211 -2.875,-1.211Z" style="fill:#fff;fill-rule:nonzero;"/><path d="M246.891,185.094l0.093,2.125c1.292,-1.625 2.98,-2.438 5.063,-2.438c3.573,0 5.375,2.016 5.406,6.047l0,11.172l-2.89,0l0,-11.188c-0.011,-1.218 -0.29,-2.119 -0.836,-2.703c-0.547,-0.583 -1.399,-0.875 -2.555,-0.875c-0.938,0 -1.761,0.25 -2.469,0.75c-0.708,0.5 -1.26,1.157 -1.656,1.969l0,12.047l-2.891,0l0,-16.906l2.735,0Z" style="fill:#fff;fill-rule:nonzero;"/><path d="M265.734,181l0,4.094l3.157,0l0,2.234l-3.157,0l0,10.484c0,0.678 0.141,1.185 0.422,1.524c0.281,0.338 0.761,0.508 1.438,0.508c0.333,0 0.791,-0.063 1.375,-0.188l0,2.344c-0.761,0.208 -1.5,0.312 -2.219,0.312c-1.292,0 -2.266,-0.39 -2.922,-1.171c-0.656,-0.782 -0.984,-1.891 -0.984,-3.329l0,-10.484l-3.078,0l0,-2.234l3.078,0l0,-4.094l2.89,0Z" style="fill:#fff;fill-rule:nonzero;"/><path d="M289.391,202l-2.907,0l0,-19.266l-5.828,2.141l0,-2.625l8.281,-3.109l0.454,0l0,22.859Z" style="fill:#fff;fill-rule:nonzero;"/></g><g><path d="M600,165c0,-13.798 -11.202,-25 -25,-25l-190,0c-13.798,0 -25,11.202 -25,25l0,50c0,13.798 11.202,25 25,25l190,0c13.798,0 25,-11.202 25,-25l0,-50Z" style="fill:#27c278;"/><path d="M403.406,194.781c-0.281,2.406 -1.169,4.263 -2.664,5.571c-1.495,1.307 -3.482,1.96 -5.961,1.96c-2.687,0 -4.841,-0.963 -6.461,-2.89c-1.619,-1.927 -2.429,-4.505 -2.429,-7.735l0,-2.187c0,-2.115 0.377,-3.974 1.132,-5.578c0.756,-1.604 1.826,-2.836 3.211,-3.695c1.386,-0.86 2.99,-1.29 4.813,-1.29c2.417,0 4.354,0.675 5.812,2.024c1.459,1.349 2.308,3.216 2.547,5.601l-3.015,0c-0.261,-1.812 -0.826,-3.125 -1.696,-3.937c-0.869,-0.813 -2.086,-1.219 -3.648,-1.219c-1.917,0 -3.419,0.709 -4.508,2.125c-1.088,1.417 -1.633,3.433 -1.633,6.047l0,2.203c0,2.469 0.516,4.433 1.547,5.891c1.031,1.458 2.474,2.187 4.328,2.187c1.667,0 2.946,-0.377 3.836,-1.132c0.891,-0.756 1.482,-2.071 1.774,-3.946l3.015,0Z" style="fill:#fff;fill-rule:nonzero;"/><path d="M406.281,193.391c0,-1.657 0.326,-3.146 0.977,-4.469c0.651,-1.323 1.557,-2.344 2.719,-3.063c1.161,-0.718 2.487,-1.078 3.976,-1.078c2.302,0 4.164,0.797 5.586,2.391c1.422,1.594 2.133,3.713 2.133,6.359l0,0.203c0,1.646 -0.315,3.123 -0.945,4.43c-0.631,1.307 -1.532,2.326 -2.704,3.055c-1.171,0.729 -2.518,1.093 -4.039,1.093c-2.291,0 -4.148,-0.796 -5.57,-2.39c-1.422,-1.594 -2.133,-3.703 -2.133,-6.328l0,-0.203Zm2.906,0.343c0,1.875 0.435,3.381 1.305,4.516c0.87,1.135 2.034,1.703 3.492,1.703c1.469,0 2.636,-0.575 3.5,-1.726c0.865,-1.151 1.297,-2.763 1.297,-4.836c0,-1.855 -0.44,-3.357 -1.32,-4.508c-0.88,-1.151 -2.05,-1.727 -3.508,-1.727c-1.427,0 -2.578,0.568 -3.453,1.703c-0.875,1.136 -1.313,2.761 -1.313,4.875Z" style="fill:#fff;fill-rule:nonzero;"/><path d="M428.016,185.094l0.078,1.875c1.239,-1.459 2.911,-2.188 5.015,-2.188c2.365,0 3.974,0.906 4.829,2.719c0.562,-0.813 1.294,-1.469 2.195,-1.969c0.901,-0.5 1.966,-0.75 3.195,-0.75c3.708,0 5.594,1.964 5.656,5.891l0,11.328l-2.89,0l0,-11.156c0,-1.209 -0.276,-2.112 -0.828,-2.711c-0.552,-0.599 -1.48,-0.899 -2.782,-0.899c-1.073,0 -1.963,0.321 -2.672,0.961c-0.708,0.641 -1.119,1.503 -1.234,2.586l0,11.219l-2.906,0l0,-11.078c0,-2.458 -1.203,-3.688 -3.61,-3.688c-1.895,0 -3.192,0.808 -3.89,2.422l0,12.344l-2.891,0l0,-16.906l2.735,0Z" style="fill:#fff;fill-rule:nonzero;"/><path d="M467.625,193.734c0,2.573 -0.589,4.646 -1.766,6.219c-1.177,1.573 -2.77,2.359 -4.781,2.359c-2.052,0 -3.667,-0.651 -4.844,-1.953l0,8.141l-2.89,0l0,-23.406l2.64,0l0.141,1.875c1.177,-1.459 2.813,-2.188 4.906,-2.188c2.031,0 3.638,0.766 4.821,2.297c1.182,1.531 1.773,3.662 1.773,6.391l0,0.265Zm-2.891,-0.328c0,-1.906 -0.406,-3.411 -1.218,-4.515c-0.813,-1.105 -1.927,-1.657 -3.344,-1.657c-1.75,0 -3.063,0.776 -3.938,2.328l0,8.079c0.865,1.541 2.188,2.312 3.969,2.312c1.386,0 2.487,-0.549 3.305,-1.648c0.818,-1.099 1.226,-2.732 1.226,-4.899Z" style="fill:#fff;fill-rule:nonzero;"/><path d="M470.531,193.391c0,-1.657 0.326,-3.146 0.977,-4.469c0.651,-1.323 1.557,-2.344 2.719,-3.063c1.161,-0.718 2.487,-1.078 3.976,-1.078c2.302,0 4.164,0.797 5.586,2.391c1.422,1.594 2.133,3.713 2.133,6.359l0,0.203c0,1.646 -0.315,3.123 -0.945,4.43c-0.631,1.307 -1.532,2.326 -2.704,3.055c-1.171,0.729 -2.518,1.093 -4.039,1.093c-2.291,0 -4.148,-0.796 -5.57,-2.39c-1.422,-1.594 -2.133,-3.703 -2.133,-6.328l0,-0.203Zm2.906,0.343c0,1.875 0.435,3.381 1.305,4.516c0.87,1.135 2.034,1.703 3.492,1.703c1.469,0 2.636,-0.575 3.5,-1.726c0.865,-1.151 1.297,-2.763 1.297,-4.836c0,-1.855 -0.44,-3.357 -1.32,-4.508c-0.88,-1.151 -2.05,-1.727 -3.508,-1.727c-1.427,0 -2.578,0.568 -3.453,1.703c-0.875,1.136 -1.313,2.761 -1.313,4.875Z" style="fill:#fff;fill-rule:nonzero;"/><path d="M492.281,185.094l0.094,2.125c1.292,-1.625 2.979,-2.438 5.063,-2.438c3.572,0 5.375,2.016 5.406,6.047l0,11.172l-2.891,0l0,-11.188c-0.01,-1.218 -0.289,-2.119 -0.836,-2.703c-0.547,-0.583 -1.398,-0.875 -2.554,-0.875c-0.938,0 -1.761,0.25 -2.469,0.75c-0.709,0.5 -1.261,1.157 -1.656,1.969l0,12.047l-2.891,0l0,-16.906l2.734,0Z" style="fill:#fff;fill-rule:nonzero;"/><path d="M514.219,202.312c-2.292,0 -4.157,-0.752 -5.594,-2.257c-1.438,-1.506 -2.156,-3.519 -2.156,-6.039l0,-0.532c0,-1.677 0.32,-3.174 0.961,-4.492c0.64,-1.318 1.536,-2.349 2.687,-3.094c1.151,-0.744 2.399,-1.117 3.742,-1.117c2.198,0 3.907,0.724 5.125,2.172c1.219,1.448 1.828,3.521 1.828,6.219l0,1.203l-11.453,0c0.042,1.667 0.529,3.013 1.461,4.039c0.933,1.026 2.117,1.539 3.555,1.539c1.021,0 1.885,-0.208 2.594,-0.625c0.708,-0.417 1.328,-0.969 1.859,-1.656l1.766,1.375c-1.417,2.177 -3.542,3.265 -6.375,3.265Zm-0.36,-15.156c-1.166,0 -2.145,0.425 -2.937,1.274c-0.792,0.849 -1.281,2.039 -1.469,3.57l8.469,0l0,-0.219c-0.083,-1.469 -0.479,-2.607 -1.188,-3.414c-0.708,-0.807 -1.666,-1.211 -2.875,-1.211Z" style="fill:#fff;fill-rule:nonzero;"/><path d="M526.891,185.094l0.093,2.125c1.292,-1.625 2.98,-2.438 5.063,-2.438c3.573,0 5.375,2.016 5.406,6.047l0,11.172l-2.89,0l0,-11.188c-0.011,-1.218 -0.29,-2.119 -0.836,-2.703c-0.547,-0.583 -1.399,-0.875 -2.555,-0.875c-0.938,0 -1.761,0.25 -2.469,0.75c-0.708,0.5 -1.26,1.157 -1.656,1.969l0,12.047l-2.891,0l0,-16.906l2.735,0Z" style="fill:#fff;fill-rule:nonzero;"/><path d="M545.734,181l0,4.094l3.157,0l0,2.234l-3.157,0l0,10.484c0,0.678 0.141,1.185 0.422,1.524c0.281,0.338 0.761,0.508 1.438,0.508c0.333,0 0.791,-0.063 1.375,-0.188l0,2.344c-0.761,0.208 -1.5,0.312 -2.219,0.312c-1.292,0 -2.266,-0.39 -2.922,-1.171c-0.656,-0.782 -0.984,-1.891 -0.984,-3.329l0,-10.484l-3.078,0l0,-2.234l3.078,0l0,-4.094l2.89,0Z" style="fill:#fff;fill-rule:nonzero;"/><path d="M574.797,202l-14.906,0l0,-2.078l7.875,-8.75c1.166,-1.323 1.971,-2.399 2.414,-3.227c0.442,-0.828 0.664,-1.685 0.664,-2.57c0,-1.188 -0.36,-2.161 -1.078,-2.922c-0.719,-0.76 -1.677,-1.141 -2.875,-1.141c-1.438,0 -2.555,0.409 -3.352,1.227c-0.797,0.818 -1.195,1.956 -1.195,3.414l-2.891,0c0,-2.094 0.675,-3.786 2.024,-5.078c1.349,-1.292 3.153,-1.938 5.414,-1.938c2.114,0 3.786,0.555 5.015,1.665c1.229,1.109 1.844,2.585 1.844,4.429c0,2.24 -1.427,4.906 -4.281,8l-6.094,6.61l11.422,0l0,2.359Z" style="fill:#fff;fill-rule:nonzero;"/></g><g><path d="M920,165c0,-13.798 -11.202,-25 -25,-25l-190,0c-13.798,0 -25,11.202 -25,25l0,50c0,13.798 11.202,25 25,25l190,0c13.798,0 25,-11.202 25,-25l0,-50Z" style="fill:#27c278;"/><path d="M720.984,194.781c-0.281,2.406 -1.169,4.263 -2.664,5.571c-1.494,1.307 -3.481,1.96 -5.961,1.96c-2.687,0 -4.841,-0.963 -6.461,-2.89c-1.619,-1.927 -2.429,-4.505 -2.429,-7.735l0,-2.187c0,-2.115 0.377,-3.974 1.133,-5.578c0.755,-1.604 1.825,-2.836 3.21,-3.695c1.386,-0.86 2.99,-1.29 4.813,-1.29c2.417,0 4.354,0.675 5.812,2.024c1.459,1.349 2.308,3.216 2.547,5.601l-3.015,0c-0.261,-1.812 -0.826,-3.125 -1.696,-3.937c-0.869,-0.813 -2.086,-1.219 -3.648,-1.219c-1.917,0 -3.419,0.709 -4.508,2.125c-1.088,1.417 -1.633,3.433 -1.633,6.047l0,2.203c0,2.469 0.516,4.433 1.547,5.891c1.031,1.458 2.474,2.187 4.328,2.187c1.667,0 2.946,-0.377 3.836,-1.132c0.891,-0.756 1.482,-2.071 1.774,-3.946l3.015,0Z" style="fill:#fff;fill-rule:nonzero;"/><path d="M723.859,193.391c0,-1.657 0.326,-3.146 0.977,-4.469c0.651,-1.323 1.557,-2.344 2.719,-3.063c1.161,-0.718 2.487,-1.078 3.976,-1.078c2.302,0 4.164,0.797 5.586,2.391c1.422,1.594 2.133,3.713 2.133,6.359l0,0.203c0,1.646 -0.315,3.123 -0.945,4.43c-0.631,1.307 -1.532,2.326 -2.703,3.055c-1.172,0.729 -2.519,1.093 -4.04,1.093c-2.291,0 -4.148,-0.796 -5.57,-2.39c-1.422,-1.594 -2.133,-3.703 -2.133,-6.328l0,-0.203Zm2.907,0.343c0,1.875 0.435,3.381 1.304,4.516c0.87,1.135 2.034,1.703 3.492,1.703c1.469,0 2.636,-0.575 3.5,-1.726c0.865,-1.151 1.297,-2.763 1.297,-4.836c0,-1.855 -0.44,-3.357 -1.32,-4.508c-0.88,-1.151 -2.049,-1.727 -3.508,-1.727c-1.427,0 -2.578,0.568 -3.453,1.703c-0.875,1.136 -1.312,2.761 -1.312,4.875Z" style="fill:#fff;fill-rule:nonzero;"/><path d="M745.594,185.094l0.078,1.875c1.239,-1.459 2.911,-2.188 5.015,-2.188c2.365,0 3.974,0.906 4.829,2.719c0.562,-0.813 1.294,-1.469 2.195,-1.969c0.901,-0.5 1.966,-0.75 3.195,-0.75c3.709,0 5.594,1.964 5.656,5.891l0,11.328l-2.89,0l0,-11.156c0,-1.209 -0.276,-2.112 -0.828,-2.711c-0.552,-0.599 -1.479,-0.899 -2.782,-0.899c-1.072,0 -1.963,0.321 -2.671,0.961c-0.709,0.641 -1.12,1.503 -1.235,2.586l0,11.219l-2.906,0l0,-11.078c0,-2.458 -1.203,-3.688 -3.609,-3.688c-1.896,0 -3.193,0.808 -3.891,2.422l0,12.344l-2.891,0l0,-16.906l2.735,0Z" style="fill:#fff;fill-rule:nonzero;"/><path d="M785.203,193.734c0,2.573 -0.588,4.646 -1.765,6.219c-1.178,1.573 -2.771,2.359 -4.782,2.359c-2.052,0 -3.666,-0.651 -4.843,-1.953l0,8.141l-2.891,0l0,-23.406l2.64,0l0.141,1.875c1.177,-1.459 2.813,-2.188 4.906,-2.188c2.032,0 3.638,0.766 4.821,2.297c1.182,1.531 1.773,3.662 1.773,6.391l0,0.265Zm-2.89,-0.328c0,-1.906 -0.407,-3.411 -1.219,-4.515c-0.813,-1.105 -1.927,-1.657 -3.344,-1.657c-1.75,0 -3.062,0.776 -3.937,2.329l0,8.078c0.864,1.541 2.187,2.312 3.968,2.312c1.386,0 2.487,-0.549 3.305,-1.648c0.818,-1.099 1.227,-2.732 1.227,-4.899Z" style="fill:#fff;fill-rule:nonzero;"/><path d="M788.109,193.391c0,-1.657 0.326,-3.146 0.977,-4.469c0.651,-1.323 1.557,-2.344 2.719,-3.063c1.161,-0.718 2.487,-1.078 3.976,-1.078c2.302,0 4.164,0.797 5.586,2.391c1.422,1.594 2.133,3.713 2.133,6.359l0,0.203c0,1.646 -0.315,3.123 -0.945,4.43c-0.631,1.307 -1.532,2.326 -2.703,3.055c-1.172,0.729 -2.519,1.093 -4.04,1.093c-2.291,0 -4.148,-0.796 -5.57,-2.39c-1.422,-1.594 -2.133,-3.703 -2.133,-6.328l0,-0.203Zm2.907,0.343c0,1.875 0.435,3.381 1.304,4.516c0.87,1.135 2.034,1.703 3.492,1.703c1.469,0 2.636,-0.575 3.5,-1.726c0.865,-1.151 1.297,-2.763 1.297,-4.836c0,-1.855 -0.44,-3.357 -1.32,-4.508c-0.88,-1.151 -2.049,-1.727 -3.508,-1.727c-1.427,0 -2.578,0.568 -3.453,1.703c-0.875,1.136 -1.312,2.761 -1.312,4.875Z" style="fill:#fff;fill-rule:nonzero;"/><path d="M809.859,185.094l0.094,2.125c1.292,-1.625 2.979,-2.438 5.063,-2.438c3.573,0 5.375,2.016 5.406,6.047l0,11.172l-2.891,0l0,-11.188c-0.01,-1.218 -0.289,-2.119 -0.836,-2.703c-0.547,-0.583 -1.398,-0.875 -2.554,-0.875c-0.938,0 -1.761,0.25 -2.469,0.75c-0.708,0.5 -1.261,1.157 -1.656,1.969l0,12.047l-2.891,0l0,-16.906l2.734,0Z" style="fill:#fff;fill-rule:nonzero;"/><path d="M831.797,202.313c-2.292,-0.001 -4.156,-0.753 -5.594,-2.258c-1.437,-1.506 -2.156,-3.519 -2.156,-6.039l0,-0.532c0,-1.677 0.32,-3.174 0.961,-4.492c0.64,-1.318 1.536,-2.349 2.687,-3.094c1.151,-0.744 2.399,-1.117 3.742,-1.117c2.198,0 3.907,0.724 5.125,2.172c1.219,1.448 1.829,3.521 1.829,6.219l0,1.203l-11.453,0c0.041,1.667 0.528,3.013 1.46,4.039c0.933,1.026 2.118,1.539 3.555,1.539c1.021,0 1.886,-0.208 2.594,-0.625c0.708,-0.417 1.328,-0.969 1.859,-1.656l1.766,1.375c-1.417,2.177 -3.542,3.266 -6.375,3.266Zm-0.36,-15.157c-1.166,0 -2.145,0.425 -2.937,1.274c-0.792,0.849 -1.281,2.039 -1.469,3.57l8.469,0l0,-0.219c-0.083,-1.468 -0.479,-2.607 -1.188,-3.414c-0.708,-0.807 -1.666,-1.211 -2.875,-1.211Z" style="fill:#fff;fill-rule:nonzero;"/><path d="M844.469,185.094l0.093,2.125c1.292,-1.625 2.98,-2.438 5.063,-2.438c3.573,0 5.375,2.016 5.406,6.047l0,11.172l-2.89,0l0,-11.188c-0.011,-1.218 -0.289,-2.119 -0.836,-2.703c-0.547,-0.583 -1.399,-0.875 -2.555,-0.875c-0.938,0 -1.76,0.25 -2.469,0.75c-0.708,0.5 -1.26,1.157 -1.656,1.969l0,12.047l-2.891,0l0,-16.906l2.735,0Z" style="fill:#fff;fill-rule:nonzero;"/><path d="M863.313,181l0,4.094l3.156,0l0,2.234l-3.156,0l0,10.484c0,0.678 0.14,1.185 0.421,1.524c0.282,0.338 0.761,0.508 1.438,0.508c0.333,0 0.792,-0.063 1.375,-0.188l0,2.344c-0.761,0.208 -1.5,0.312 -2.219,0.312c-1.292,0 -2.265,-0.39 -2.922,-1.171c-0.656,-0.782 -0.984,-1.891 -0.984,-3.329l0,-10.484l-3.078,0l0,-2.234l3.078,0l0,-4.094l2.891,0Z" style="fill:#fff;fill-rule:nonzero;"/><path d="M895.703,202l-3.015,0l-11.454,-17.531l0,17.531l-3.015,0l0,-22.75l3.015,0l11.485,17.609l0,-17.609l2.984,0l0,22.75Z" style="fill:#fff;fill-rule:nonzero;"/></g><circle cx="640" cy="190" r="3" style="fill:#2d2e44;"/><circle cx="630" cy="190" r="3" style="fill:#2d2e44;"/><circle cx="650" cy="190" r="3" style="fill:#2d2e44;"/></svg>