<?xml version="1.0" encoding="UTF-8" standalone="no"?><!DOCTYPE svg PUBLIC "-//W3C//DTD SVG 1.1//EN" "http://www.w3.org/Graphics/SVG/1.1/DTD/svg11.dtd"><svg width="100%" height="100%" viewBox="0 0 740 320" version="1.1" xmlns="http://www.w3.org/2000/svg" xmlns:xlink="http://www.w3.org/1999/xlink" xml:space="preserve" xmlns:serif="http://www.serif.com/" style="fill-rule:evenodd;clip-rule:evenodd;stroke-linecap:round;stroke-linejoin:round;stroke-miterlimit:1.5;"><g><path d="M700,100c0,-33.115 -26.885,-60 -60,-60l-540,0c-33.115,0 -60,26.885 -60,60l0,120c0,33.115 26.885,60 60,60l540,0c33.115,0 60,-26.885 60,-60l0,-120Z" style="fill:#fff;stroke:#27c278;stroke-width:4px;"/><text x="342.422px" y="202px" style="font-family:'Roboto-Medium', 'Roboto';font-weight:500;font-size:32px;fill:#2d2e44;">или</text><text x="236.492px" y="93.596px" style="font-family:'Roboto-Medium', 'Roboto';font-weight:500;font-size:32px;fill:#2d2e44;">Mount Component</text></g><g><path d="M320,165c0,-13.798 -11.202,-25 -25,-25l-190,0c-13.798,0 -25,11.202 -25,25l0,50c0,13.798 11.202,25 25,25l190,0c13.798,0 25,-11.202 25,-25l0,-50Z" style="fill:#27c278;"/><text x="133.641px" y="202px" style="font-family:'Roboto-Regular', 'Roboto';font-size:32px;fill:#fff;">Dr<tspan x="164.828px " y="202px ">a</tspan>wable</text></g><g><path d="M660,165c0,-13.798 -11.202,-25 -25,-25l-190,0c-13.798,0 -25,11.202 -25,25l0,50c0,13.798 11.202,25 25,25l190,0c13.798,0 25,-11.202 25,-25l0,-50Z" style="fill:#27c278;"/><text x="505.438px" y="202px" style="font-family:'Roboto-Regular', 'Roboto';font-size:32px;fill:#fff;">View</text></g></svg>