<?xml version="1.0" encoding="UTF-8" standalone="no"?><!DOCTYPE svg PUBLIC "-//W3C//DTD SVG 1.1//EN" "http://www.w3.org/Graphics/SVG/1.1/DTD/svg11.dtd"><svg width="100%" height="100%" viewBox="0 0 860 320" version="1.1" xmlns="http://www.w3.org/2000/svg" xmlns:xlink="http://www.w3.org/1999/xlink" xml:space="preserve" xmlns:serif="http://www.serif.com/" style="fill-rule:evenodd;clip-rule:evenodd;stroke-linecap:round;stroke-linejoin:round;stroke-miterlimit:1.5;"><g><path d="M240,65c0,-13.798 -11.202,-25 -25,-25l-150,0c-13.798,0 -25,11.202 -25,25l0,50c0,13.798 11.202,25 25,25l150,0c13.798,0 25,-11.202 25,-25l0,-50Z" style="fill:#27c278;"/><path d="M103.938,93.094l0,8.906l-3,0l0,-22.75l8.39,0c2.49,0 4.44,0.635 5.852,1.906c1.411,1.271 2.117,2.953 2.117,5.047c0,2.208 -0.69,3.909 -2.07,5.102c-1.381,1.192 -3.357,1.789 -5.93,1.789l-5.359,0Zm0,-2.453l5.39,0c1.604,0 2.833,-0.378 3.688,-1.133c0.854,-0.755 1.281,-1.847 1.281,-3.274c0,-1.354 -0.427,-2.437 -1.281,-3.25c-0.855,-0.812 -2.026,-1.234 -3.516,-1.265l-5.562,0l0,8.922Z" style="fill:#fff;fill-rule:nonzero;"/><path d="M128.844,87.687c-0.438,-0.072 -0.912,-0.109 -1.422,-0.109c-1.896,0 -3.182,0.807 -3.859,2.422l0,12l-2.891,0l0,-16.906l2.812,0l0.047,1.953c0.948,-1.511 2.292,-2.266 4.032,-2.266c0.562,0 0.989,0.073 1.281,0.219l0,2.687Z" style="fill:#fff;fill-rule:nonzero;"/><path d="M130.422,93.391c0,-1.657 0.325,-3.146 0.976,-4.469c0.651,-1.323 1.558,-2.344 2.719,-3.063c1.162,-0.718 2.487,-1.078 3.977,-1.078c2.302,0 4.164,0.797 5.586,2.391c1.422,1.594 2.133,3.713 2.133,6.359l0,0.203c0,1.646 -0.316,3.123 -0.946,4.43c-0.63,1.307 -1.531,2.326 -2.703,3.055c-1.172,0.729 -2.518,1.093 -4.039,1.093c-2.292,0 -4.148,-0.796 -5.57,-2.39c-1.422,-1.594 -2.133,-3.703 -2.133,-6.328l0,-0.203Zm2.906,0.343c0,1.875 0.435,3.381 1.305,4.516c0.87,1.135 2.034,1.703 3.492,1.703c1.469,0 2.635,-0.575 3.5,-1.726c0.865,-1.151 1.297,-2.763 1.297,-4.836c0,-1.855 -0.44,-3.357 -1.32,-4.508c-0.881,-1.151 -2.05,-1.727 -3.508,-1.727c-1.427,0 -2.578,0.568 -3.453,1.703c-0.875,1.136 -1.313,2.761 -1.313,4.875Z" style="fill:#fff;fill-rule:nonzero;"/><path d="M163.719,93.734c0,2.573 -0.589,4.646 -1.766,6.219c-1.177,1.573 -2.771,2.359 -4.781,2.359c-2.052,0 -3.667,-0.651 -4.844,-1.953l0,8.141l-2.89,0l0,-23.406l2.64,0l0.141,1.875c1.177,-1.459 2.812,-2.188 4.906,-2.188c2.031,0 3.638,0.766 4.82,2.297c1.183,1.531 1.774,3.662 1.774,6.391l0,0.265Zm-2.891,-0.328c0,-1.906 -0.406,-3.411 -1.219,-4.515c-0.812,-1.105 -1.927,-1.657 -3.343,-1.657c-1.75,0 -3.063,0.776 -3.938,2.328l0,8.079c0.865,1.541 2.188,2.312 3.969,2.312c1.385,0 2.487,-0.549 3.305,-1.648c0.817,-1.099 1.226,-2.732 1.226,-4.899Z" style="fill:#fff;fill-rule:nonzero;"/><path d="M177.234,97.516c0,-0.782 -0.294,-1.388 -0.882,-1.821c-0.589,-0.432 -1.615,-0.804 -3.079,-1.117c-1.463,-0.312 -2.625,-0.687 -3.484,-1.125c-0.859,-0.437 -1.495,-0.958 -1.906,-1.562c-0.412,-0.605 -0.617,-1.323 -0.617,-2.157c0,-1.385 0.586,-2.557 1.757,-3.515c1.172,-0.959 2.67,-1.438 4.493,-1.438c1.916,0 3.471,0.495 4.664,1.485c1.192,0.989 1.789,2.255 1.789,3.796l-2.906,0c0,-0.791 -0.336,-1.473 -1.008,-2.046c-0.672,-0.573 -1.519,-0.86 -2.539,-0.86c-1.052,0 -1.875,0.229 -2.469,0.688c-0.594,0.458 -0.891,1.057 -0.891,1.797c0,0.698 0.276,1.224 0.828,1.578c0.552,0.354 1.55,0.692 2.993,1.015c1.442,0.323 2.612,0.709 3.507,1.157c0.896,0.448 1.56,0.987 1.993,1.617c0.432,0.63 0.648,1.398 0.648,2.304c0,1.511 -0.604,2.722 -1.812,3.633c-1.209,0.912 -2.777,1.367 -4.704,1.367c-1.354,0 -2.552,-0.239 -3.593,-0.718c-1.042,-0.479 -1.857,-1.149 -2.446,-2.008c-0.588,-0.859 -0.882,-1.789 -0.882,-2.789l2.89,0c0.052,0.969 0.44,1.737 1.164,2.305c0.724,0.567 1.68,0.851 2.867,0.851c1.094,0 1.972,-0.221 2.633,-0.664c0.662,-0.443 0.992,-1.034 0.992,-1.773Z" style="fill:#fff;fill-rule:nonzero;"/></g><g><path d="M240,205c0,-13.798 -11.202,-25 -25,-25l-150,0c-13.798,0 -25,11.202 -25,25l0,50c0,13.798 11.202,25 25,25l150,0c13.798,0 25,-11.202 25,-25l0,-50Z" style="fill:#fff;stroke:#27c278;stroke-width:4px;"/><path d="M112.219,231.859c-2.573,-0.739 -4.446,-1.648 -5.617,-2.726c-1.172,-1.078 -1.758,-2.409 -1.758,-3.992c0,-1.792 0.716,-3.274 2.148,-4.446c1.432,-1.172 3.294,-1.758 5.586,-1.758c1.563,0 2.956,0.303 4.18,0.907c1.224,0.604 2.172,1.437 2.844,2.5c0.671,1.062 1.007,2.224 1.007,3.484l-3.015,0c0,-1.375 -0.438,-2.456 -1.313,-3.242c-0.875,-0.787 -2.109,-1.18 -3.703,-1.18c-1.479,0 -2.633,0.326 -3.461,0.977c-0.828,0.651 -1.242,1.554 -1.242,2.711c0,0.927 0.393,1.711 1.18,2.351c0.786,0.641 2.125,1.227 4.015,1.758c1.891,0.531 3.37,1.117 4.438,1.758c1.068,0.641 1.859,1.388 2.375,2.242c0.515,0.854 0.773,1.859 0.773,3.016c0,1.843 -0.719,3.32 -2.156,4.429c-1.438,1.11 -3.359,1.664 -5.766,1.664c-1.562,0 -3.02,-0.299 -4.375,-0.898c-1.354,-0.599 -2.398,-1.419 -3.132,-2.461c-0.735,-1.042 -1.102,-2.224 -1.102,-3.547l3.016,0c0,1.375 0.507,2.461 1.523,3.258c1.016,0.797 2.372,1.195 4.07,1.195c1.584,0 2.797,-0.323 3.641,-0.968c0.844,-0.646 1.266,-1.526 1.266,-2.641c0,-1.115 -0.391,-1.977 -1.172,-2.586c-0.782,-0.609 -2.198,-1.211 -4.25,-1.805Z" style="fill:#27c278;fill-rule:nonzero;"/><path d="M127.969,221l0,4.094l3.156,0l0,2.234l-3.156,0l0,10.484c0,0.678 0.14,1.185 0.422,1.524c0.281,0.338 0.76,0.508 1.437,0.508c0.333,0 0.792,-0.063 1.375,-0.188l0,2.344c-0.76,0.208 -1.5,0.312 -2.219,0.312c-1.291,0 -2.265,-0.39 -2.922,-1.171c-0.656,-0.782 -0.984,-1.891 -0.984,-3.329l0,-10.484l-3.078,0l0,-2.234l3.078,0l0,-4.094l2.891,0Z" style="fill:#27c278;fill-rule:nonzero;"/><path d="M144.937,242c-0.166,-0.333 -0.302,-0.927 -0.406,-1.781c-1.344,1.396 -2.948,2.093 -4.812,2.093c-1.667,0 -3.034,-0.471 -4.102,-1.414c-1.068,-0.942 -1.601,-2.138 -1.601,-3.586c0,-1.76 0.669,-3.127 2.007,-4.101c1.339,-0.974 3.222,-1.461 5.649,-1.461l2.812,0l0,-1.328c0,-1.011 -0.302,-1.815 -0.906,-2.414c-0.604,-0.599 -1.495,-0.899 -2.672,-0.899c-1.031,0 -1.896,0.261 -2.594,0.782c-0.697,0.52 -1.046,1.151 -1.046,1.89l-2.907,0c0,-0.844 0.3,-1.659 0.899,-2.445c0.599,-0.787 1.411,-1.409 2.437,-1.867c1.026,-0.459 2.154,-0.688 3.383,-0.688c1.948,0 3.474,0.487 4.578,1.461c1.104,0.974 1.677,2.315 1.719,4.024l0,7.781c0,1.552 0.198,2.786 0.594,3.703l0,0.25l-3.032,0Zm-4.796,-2.203c0.906,0 1.765,-0.235 2.578,-0.703c0.812,-0.469 1.401,-1.078 1.765,-1.828l0,-3.469l-2.265,0c-3.542,0 -5.313,1.036 -5.313,3.109c0,0.906 0.302,1.615 0.906,2.125c0.605,0.511 1.381,0.766 2.329,0.766Z" style="fill:#27c278;fill-rule:nonzero;"/><path d="M155.828,221l0,4.094l3.156,0l0,2.234l-3.156,0l0,10.484c0,0.678 0.141,1.185 0.422,1.524c0.281,0.338 0.76,0.508 1.437,0.508c0.334,0 0.792,-0.063 1.375,-0.188l0,2.344c-0.76,0.208 -1.5,0.312 -2.218,0.312c-1.292,0 -2.266,-0.39 -2.922,-1.171c-0.656,-0.782 -0.985,-1.891 -0.985,-3.329l0,-10.484l-3.078,0l0,-2.234l3.078,0l0,-4.094l2.891,0Z" style="fill:#27c278;fill-rule:nonzero;"/><path d="M169.375,242.312c-2.292,0 -4.156,-0.752 -5.594,-2.257c-1.437,-1.506 -2.156,-3.519 -2.156,-6.039l0,-0.532c0,-1.677 0.32,-3.174 0.961,-4.492c0.641,-1.318 1.536,-2.349 2.687,-3.094c1.151,-0.744 2.399,-1.117 3.743,-1.117c2.198,0 3.906,0.724 5.125,2.172c1.218,1.448 1.828,3.521 1.828,6.219l0,1.203l-11.453,0c0.041,1.667 0.528,3.013 1.461,4.039c0.932,1.026 2.117,1.539 3.554,1.539c1.021,0 1.886,-0.208 2.594,-0.625c0.708,-0.417 1.328,-0.969 1.859,-1.656l1.766,1.375c-1.417,2.177 -3.542,3.265 -6.375,3.265Zm-0.359,-15.156c-1.167,0 -2.146,0.425 -2.938,1.274c-0.792,0.849 -1.281,2.039 -1.469,3.57l8.469,0l0,-0.219c-0.083,-1.469 -0.479,-2.607 -1.187,-3.414c-0.709,-0.807 -1.667,-1.211 -2.875,-1.211Z" style="fill:#27c278;fill-rule:nonzero;"/></g><g><path d="M580,65c0,-13.798 -11.202,-25 -25,-25l-250,0c-13.798,0 -25,11.202 -25,25l0,190c0,13.798 11.202,25 25,25l250,0c13.798,0 25,-11.202 25,-25l0,-190Z" style="fill:#27c278;"/><g transform="matrix(1,0,0,1,104,-296)"><path d="M248.453,420.844l10.328,0l0,3.156l-14.281,0l0,-22.75l3.953,0l0,19.594Z" style="fill:#fff;fill-rule:nonzero;"/><path d="M271.547,424c-0.167,-0.323 -0.313,-0.849 -0.438,-1.578c-1.208,1.26 -2.687,1.89 -4.437,1.89c-1.698,0 -3.083,-0.484 -4.156,-1.453c-1.073,-0.968 -1.61,-2.166 -1.61,-3.593c0,-1.802 0.67,-3.185 2.008,-4.149c1.339,-0.963 3.253,-1.445 5.742,-1.445l2.328,0l0,-1.11c0,-0.875 -0.244,-1.575 -0.734,-2.101c-0.49,-0.526 -1.234,-0.789 -2.234,-0.789c-0.865,0 -1.573,0.216 -2.125,0.648c-0.552,0.433 -0.829,0.982 -0.829,1.649l-3.796,0c0,-0.927 0.307,-1.795 0.921,-2.602c0.615,-0.807 1.451,-1.44 2.508,-1.898c1.058,-0.459 2.237,-0.688 3.539,-0.688c1.98,0 3.558,0.498 4.735,1.492c1.177,0.995 1.781,2.394 1.812,4.196l0,7.625c0,1.521 0.214,2.734 0.641,3.64l0,0.266l-3.875,0Zm-4.172,-2.734c0.75,0 1.456,-0.183 2.117,-0.547c0.662,-0.365 1.159,-0.854 1.492,-1.469l0,-3.188l-2.047,0c-1.406,0 -2.463,0.245 -3.171,0.735c-0.709,0.489 -1.063,1.182 -1.063,2.078c0,0.729 0.242,1.31 0.727,1.742c0.484,0.432 1.132,0.649 1.945,0.649Z" style="fill:#fff;fill-rule:nonzero;"/><path d="M284.437,418.563l3.438,-11.469l4.047,0l-6.719,19.469c-1.031,2.843 -2.781,4.265 -5.25,4.265c-0.552,0 -1.161,-0.094 -1.828,-0.281l0,-2.938l0.719,0.047c0.958,0 1.679,-0.174 2.164,-0.523c0.484,-0.349 0.867,-0.935 1.148,-1.758l0.547,-1.453l-5.937,-16.828l4.093,0l3.578,11.468Z" style="fill:#fff;fill-rule:nonzero;"/><path d="M293.156,415.391c0,-1.657 0.328,-3.149 0.985,-4.477c0.656,-1.328 1.578,-2.349 2.765,-3.062c1.188,-0.714 2.552,-1.071 4.094,-1.071c2.281,0 4.133,0.735 5.555,2.203c1.422,1.469 2.19,3.417 2.304,5.844l0.016,0.891c0,1.666 -0.32,3.156 -0.961,4.469c-0.641,1.312 -1.557,2.328 -2.75,3.046c-1.193,0.719 -2.57,1.079 -4.133,1.079c-2.385,0 -4.294,-0.795 -5.726,-2.383c-1.433,-1.589 -2.149,-3.706 -2.149,-6.352l0,-0.187Zm3.797,0.328c0,1.739 0.359,3.101 1.078,4.086c0.719,0.984 1.719,1.476 3,1.476c1.281,0 2.279,-0.5 2.992,-1.5c0.714,-1 1.071,-2.463 1.071,-4.39c0,-1.709 -0.367,-3.063 -1.102,-4.063c-0.734,-1 -1.732,-1.5 -2.992,-1.5c-1.24,0 -2.224,0.492 -2.953,1.477c-0.729,0.984 -1.094,2.455 -1.094,4.414Z" style="fill:#fff;fill-rule:nonzero;"/><path d="M322.328,422.344c-1.114,1.312 -2.698,1.969 -4.75,1.969c-1.833,0 -3.221,-0.537 -4.164,-1.61c-0.943,-1.073 -1.414,-2.625 -1.414,-4.656l0,-10.953l3.797,0l0,10.906c0,2.146 0.89,3.219 2.672,3.219c1.843,0 3.088,-0.662 3.734,-1.985l0,-12.14l3.797,0l0,16.906l-3.578,0l-0.094,-1.656Z" style="fill:#fff;fill-rule:nonzero;"/><path d="M334.625,402.984l0,4.11l2.984,0l0,2.812l-2.984,0l0,9.438c0,0.646 0.128,1.112 0.383,1.398c0.255,0.287 0.711,0.43 1.367,0.43c0.437,0 0.88,-0.052 1.328,-0.156l0,2.937c-0.864,0.24 -1.698,0.359 -2.5,0.359c-2.917,0 -4.375,-1.609 -4.375,-4.828l0,-9.578l-2.781,0l0,-2.812l2.781,0l0,-4.11l3.797,0Z" style="fill:#fff;fill-rule:nonzero;"/><path d="M352.766,418.141c0,-1 -0.352,-1.771 -1.055,-2.313c-0.703,-0.542 -1.971,-1.088 -3.805,-1.641c-1.833,-0.552 -3.291,-1.166 -4.375,-1.843c-2.073,-1.302 -3.109,-3 -3.109,-5.094c0,-1.833 0.747,-3.344 2.242,-4.531c1.495,-1.188 3.435,-1.781 5.82,-1.781c1.584,0 2.995,0.291 4.235,0.875c1.239,0.583 2.213,1.414 2.922,2.492c0.708,1.078 1.062,2.273 1.062,3.586l-3.937,0c0,-1.188 -0.373,-2.118 -1.118,-2.789c-0.744,-0.672 -1.809,-1.008 -3.195,-1.008c-1.292,0 -2.294,0.276 -3.008,0.828c-0.713,0.552 -1.07,1.323 -1.07,2.312c0,0.834 0.385,1.529 1.156,2.086c0.771,0.558 2.042,1.099 3.813,1.625c1.771,0.526 3.192,1.125 4.265,1.797c1.073,0.672 1.86,1.443 2.36,2.313c0.5,0.869 0.75,1.888 0.75,3.054c0,1.896 -0.727,3.404 -2.18,4.524c-1.453,1.12 -3.424,1.679 -5.914,1.679c-1.646,0 -3.159,-0.304 -4.539,-0.914c-1.38,-0.609 -2.453,-1.45 -3.219,-2.523c-0.765,-1.073 -1.148,-2.323 -1.148,-3.75l3.953,0c0,1.292 0.427,2.292 1.281,3c0.854,0.708 2.078,1.063 3.672,1.063c1.375,0 2.409,-0.279 3.102,-0.836c0.692,-0.558 1.039,-1.295 1.039,-2.211Z" style="fill:#fff;fill-rule:nonzero;"/><path d="M374.625,415.719c0,2.614 -0.594,4.7 -1.781,6.258c-1.188,1.557 -2.782,2.336 -4.782,2.336c-1.854,0 -3.338,-0.61 -4.453,-1.829l0,8.016l-3.797,0l0,-23.406l3.5,0l0.157,1.719c1.114,-1.355 2.63,-2.032 4.547,-2.032c2.062,0 3.679,0.768 4.851,2.305c1.172,1.536 1.758,3.669 1.758,6.398l0,0.235Zm-3.781,-0.328c0,-1.688 -0.336,-3.026 -1.008,-4.016c-0.672,-0.99 -1.633,-1.484 -2.883,-1.484c-1.552,0 -2.667,0.64 -3.344,1.921l0,7.5c0.688,1.313 1.813,1.969 3.375,1.969c1.209,0 2.154,-0.487 2.836,-1.461c0.683,-0.974 1.024,-2.45 1.024,-4.429Z" style="fill:#fff;fill-rule:nonzero;"/><path d="M385.281,424.313c-2.406,0 -4.357,-0.758 -5.851,-2.274c-1.495,-1.516 -2.243,-3.534 -2.243,-6.055l0,-0.468c0,-1.688 0.326,-3.196 0.977,-4.524c0.651,-1.328 1.565,-2.362 2.742,-3.101c1.177,-0.74 2.49,-1.11 3.938,-1.11c2.302,0 4.08,0.735 5.336,2.203c1.255,1.469 1.882,3.547 1.882,6.235l0,1.531l-11.046,0c0.114,1.396 0.58,2.5 1.398,3.313c0.818,0.812 1.846,1.218 3.086,1.218c1.74,0 3.156,-0.703 4.25,-2.109l2.047,1.953c-0.677,1.01 -1.581,1.794 -2.711,2.352c-1.13,0.557 -2.399,0.836 -3.805,0.836Zm-0.453,-14.485c-1.042,0 -1.883,0.365 -2.523,1.094c-0.641,0.729 -1.05,1.745 -1.227,3.047l7.234,0l0,-0.281c-0.083,-1.271 -0.421,-2.232 -1.015,-2.883c-0.594,-0.651 -1.417,-0.977 -2.469,-0.977Z" style="fill:#fff;fill-rule:nonzero;"/><path d="M401.953,421.281c0.948,0 1.734,-0.276 2.359,-0.828c0.625,-0.552 0.959,-1.234 1,-2.047l3.579,0c-0.042,1.052 -0.37,2.034 -0.985,2.946c-0.614,0.911 -1.448,1.632 -2.5,2.164c-1.052,0.531 -2.187,0.796 -3.406,0.796c-2.365,0 -4.24,-0.765 -5.625,-2.296c-1.385,-1.532 -2.078,-3.646 -2.078,-6.344l0,-0.391c0,-2.573 0.687,-4.633 2.062,-6.179c1.375,-1.547 3.25,-2.321 5.625,-2.321c2.011,0 3.649,0.586 4.914,1.758c1.266,1.172 1.93,2.711 1.993,4.617l-3.579,0c-0.041,-0.969 -0.372,-1.765 -0.992,-2.39c-0.619,-0.625 -1.409,-0.938 -2.367,-0.938c-1.229,0 -2.177,0.445 -2.844,1.336c-0.666,0.891 -1.005,2.242 -1.015,4.055l0,0.609c0,1.833 0.33,3.201 0.992,4.102c0.661,0.901 1.617,1.351 2.867,1.351Z" style="fill:#fff;fill-rule:nonzero;"/><path d="M311.406,451.094l2.891,0l0,16.906l-2.891,0l0,-12.328l-7.797,12.328l-2.89,0l0,-16.906l2.89,0l0,12.344l7.797,-12.344Z" style="fill:#fff;fill-rule:nonzero;"/><path d="M332.797,451.094l0,16.906l-2.906,0l0,-14.516l-5.75,0l-0.344,6.329c-0.188,2.906 -0.675,4.984 -1.461,6.234c-0.787,1.25 -2.034,1.901 -3.742,1.953l-1.157,0l0,-2.547l0.829,-0.062c0.937,-0.105 1.609,-0.646 2.015,-1.625c0.406,-0.98 0.667,-2.792 0.781,-5.438l0.313,-7.234l11.422,0Z" style="fill:#fff;fill-rule:nonzero;"/><path d="M348.375,451.094l2.891,0l0,16.906l-2.891,0l0,-12.328l-7.797,12.328l-2.891,0l0,-16.906l2.891,0l0,12.344l7.797,-12.344Z" style="fill:#fff;fill-rule:nonzero;"/><path d="M251.586,489.25l6.562,17.438l6.547,-17.438l5.11,0l0,22.75l-3.938,0l0,-7.5l0.391,-10.031l-6.719,17.531l-2.828,0l-6.703,-17.516l0.39,10.016l0,7.5l-3.937,0l0,-22.75l5.125,0Z" style="fill:#fff;fill-rule:nonzero;"/><path d="M273.398,503.391c0,-1.657 0.329,-3.149 0.985,-4.477c0.656,-1.328 1.578,-2.349 2.765,-3.062c1.188,-0.714 2.553,-1.071 4.094,-1.071c2.281,0 4.133,0.735 5.555,2.203c1.422,1.469 2.19,3.417 2.305,5.844l0.015,0.891c0,1.666 -0.32,3.156 -0.961,4.469c-0.64,1.312 -1.557,2.328 -2.75,3.046c-1.192,0.719 -2.57,1.079 -4.133,1.079c-2.385,0 -4.294,-0.795 -5.726,-2.383c-1.432,-1.589 -2.149,-3.706 -2.149,-6.352l0,-0.187Zm3.797,0.328c0,1.739 0.36,3.101 1.078,4.086c0.719,0.984 1.719,1.476 3,1.476c1.282,0 2.279,-0.5 2.993,-1.5c0.713,-1 1.07,-2.463 1.07,-4.39c0,-1.709 -0.367,-3.063 -1.102,-4.063c-0.734,-1 -1.731,-1.5 -2.992,-1.5c-1.239,0 -2.224,0.492 -2.953,1.477c-0.729,0.984 -1.094,2.455 -1.094,4.414Z" style="fill:#fff;fill-rule:nonzero;"/><path d="M302.57,510.344c-1.114,1.312 -2.698,1.969 -4.75,1.969c-1.833,0 -3.221,-0.537 -4.164,-1.61c-0.942,-1.073 -1.414,-2.625 -1.414,-4.656l0,-10.953l3.797,0l0,10.906c0,2.146 0.891,3.219 2.672,3.219c1.844,0 3.088,-0.662 3.734,-1.985l0,-12.14l3.797,0l0,16.906l-3.578,0l-0.094,-1.656Z" style="fill:#fff;fill-rule:nonzero;"/><path d="M313.633,495.094l0.109,1.953c1.25,-1.511 2.891,-2.266 4.922,-2.266c3.521,0 5.313,2.016 5.375,6.047l0,11.172l-3.797,0l0,-10.953c0,-1.073 -0.232,-1.867 -0.695,-2.383c-0.464,-0.516 -1.221,-0.773 -2.274,-0.773c-1.531,0 -2.671,0.692 -3.421,2.078l0,12.031l-3.797,0l0,-16.906l3.578,0Z" style="fill:#fff;fill-rule:nonzero;"/><path d="M332.664,490.984l0,4.11l2.984,0l0,2.812l-2.984,0l0,9.438c0,0.646 0.128,1.112 0.383,1.398c0.255,0.287 0.711,0.43 1.367,0.43c0.438,0 0.88,-0.052 1.328,-0.156l0,2.937c-0.864,0.24 -1.698,0.359 -2.5,0.359c-2.916,0 -4.375,-1.609 -4.375,-4.828l0,-9.578l-2.781,0l0,-2.812l2.781,0l0,-4.11l3.797,0Z" style="fill:#fff;fill-rule:nonzero;"/><path d="M350.805,506.141c0,-1 -0.352,-1.771 -1.055,-2.313c-0.703,-0.542 -1.971,-1.088 -3.805,-1.641c-1.833,-0.552 -3.291,-1.166 -4.375,-1.843c-2.073,-1.302 -3.109,-3 -3.109,-5.094c0,-1.833 0.747,-3.344 2.242,-4.531c1.495,-1.188 3.435,-1.781 5.82,-1.781c1.584,0 2.995,0.291 4.235,0.875c1.239,0.583 2.213,1.414 2.922,2.492c0.708,1.078 1.062,2.273 1.062,3.586l-3.937,0c0,-1.188 -0.373,-2.118 -1.118,-2.789c-0.744,-0.672 -1.809,-1.008 -3.195,-1.008c-1.291,0 -2.294,0.276 -3.008,0.828c-0.713,0.552 -1.07,1.323 -1.07,2.312c0,0.834 0.385,1.529 1.156,2.086c0.771,0.558 2.042,1.099 3.813,1.625c1.771,0.526 3.193,1.125 4.265,1.797c1.073,0.672 1.86,1.443 2.36,2.313c0.5,0.869 0.75,1.888 0.75,3.054c0,1.896 -0.727,3.404 -2.18,4.524c-1.453,1.12 -3.424,1.679 -5.914,1.679c-1.646,0 -3.159,-0.304 -4.539,-0.914c-1.38,-0.609 -2.453,-1.45 -3.219,-2.523c-0.765,-1.073 -1.148,-2.323 -1.148,-3.75l3.953,0c0,1.292 0.427,2.292 1.281,3c0.854,0.708 2.078,1.063 3.672,1.063c1.375,0 2.409,-0.279 3.102,-0.836c0.692,-0.558 1.039,-1.295 1.039,-2.211Z" style="fill:#fff;fill-rule:nonzero;"/><path d="M372.664,503.719c0,2.614 -0.594,4.7 -1.781,6.258c-1.188,1.557 -2.781,2.336 -4.781,2.336c-1.855,0 -3.339,-0.61 -4.454,-1.829l0,8.016l-3.796,0l0,-23.406l3.5,0l0.156,1.719c1.114,-1.355 2.63,-2.032 4.547,-2.032c2.062,0 3.679,0.768 4.851,2.305c1.172,1.536 1.758,3.669 1.758,6.398l0,0.235Zm-3.781,-0.328c0,-1.688 -0.336,-3.026 -1.008,-4.016c-0.672,-0.99 -1.633,-1.484 -2.883,-1.484c-1.552,0 -2.666,0.64 -3.344,1.921l0,7.5c0.688,1.313 1.813,1.969 3.375,1.969c1.209,0 2.154,-0.487 2.836,-1.461c0.683,-0.974 1.024,-2.45 1.024,-4.429Z" style="fill:#fff;fill-rule:nonzero;"/><path d="M383.32,512.313c-2.406,0 -4.356,-0.758 -5.851,-2.274c-1.495,-1.516 -2.242,-3.534 -2.242,-6.055l0,-0.468c0,-1.688 0.325,-3.196 0.976,-4.524c0.651,-1.328 1.565,-2.362 2.742,-3.101c1.177,-0.74 2.49,-1.11 3.938,-1.11c2.302,0 4.081,0.735 5.336,2.203c1.255,1.469 1.883,3.547 1.883,6.235l0,1.531l-11.047,0c0.114,1.396 0.58,2.5 1.398,3.313c0.818,0.812 1.846,1.218 3.086,1.218c1.74,0 3.156,-0.703 4.25,-2.109l2.047,1.953c-0.677,1.01 -1.581,1.794 -2.711,2.352c-1.13,0.557 -2.398,0.836 -3.805,0.836Zm-0.453,-14.485c-1.041,0 -1.883,0.365 -2.523,1.094c-0.641,0.729 -1.05,1.745 -1.227,3.047l7.235,0l0,-0.281c-0.084,-1.271 -0.422,-2.232 -1.016,-2.883c-0.594,-0.651 -1.417,-0.977 -2.469,-0.977Z" style="fill:#fff;fill-rule:nonzero;"/><path d="M399.992,509.281c0.948,0 1.735,-0.276 2.36,-0.828c0.625,-0.552 0.958,-1.234 1,-2.047l3.578,0c-0.042,1.052 -0.37,2.034 -0.985,2.946c-0.614,0.911 -1.448,1.632 -2.5,2.164c-1.052,0.531 -2.187,0.796 -3.406,0.796c-2.365,0 -4.24,-0.765 -5.625,-2.296c-1.385,-1.532 -2.078,-3.646 -2.078,-6.344l0,-0.391c0,-2.573 0.687,-4.633 2.062,-6.179c1.375,-1.547 3.25,-2.321 5.625,-2.321c2.011,0 3.649,0.586 4.914,1.758c1.266,1.172 1.93,2.711 1.993,4.617l-3.578,0c-0.042,-0.969 -0.373,-1.765 -0.993,-2.39c-0.619,-0.625 -1.408,-0.938 -2.367,-0.938c-1.229,0 -2.177,0.445 -2.844,1.336c-0.666,0.891 -1.005,2.242 -1.015,4.055l0,0.609c0,1.833 0.331,3.201 0.992,4.102c0.661,0.901 1.617,1.351 2.867,1.351Z" style="fill:#fff;fill-rule:nonzero;"/></g></g><g><path d="M820,135c0,-13.798 -11.202,-25 -25,-25l-150,0c-13.798,0 -25,11.202 -25,25l0,50c0,13.798 11.202,25 25,25l150,0c13.798,0 25,-11.202 25,-25l0,-50Z" style="fill:#27c278;"/><path d="M656.352,164.781c-0.282,2.406 -1.17,4.263 -2.665,5.571c-1.494,1.307 -3.481,1.96 -5.96,1.96c-2.688,0 -4.842,-0.963 -6.461,-2.89c-1.62,-1.927 -2.43,-4.505 -2.43,-7.735l0,-2.187c0,-2.115 0.378,-3.974 1.133,-5.578c0.755,-1.604 1.825,-2.836 3.211,-3.695c1.385,-0.86 2.989,-1.29 4.812,-1.29c2.417,0 4.354,0.675 5.813,2.024c1.458,1.349 2.307,3.216 2.547,5.601l-3.016,0c-0.26,-1.812 -0.826,-3.125 -1.695,-3.937c-0.87,-0.813 -2.086,-1.219 -3.649,-1.219c-1.916,0 -3.419,0.709 -4.508,2.125c-1.088,1.417 -1.632,3.433 -1.632,6.047l0,2.203c0,2.469 0.515,4.433 1.546,5.891c1.032,1.458 2.474,2.187 4.329,2.187c1.666,0 2.945,-0.377 3.835,-1.132c0.891,-0.756 1.482,-2.071 1.774,-3.946l3.016,0Z" style="fill:#fff;fill-rule:nonzero;"/><path d="M659.227,163.391c0,-1.657 0.325,-3.146 0.976,-4.469c0.651,-1.323 1.557,-2.344 2.719,-3.063c1.161,-0.718 2.487,-1.078 3.976,-1.078c2.303,0 4.164,0.797 5.586,2.391c1.422,1.594 2.133,3.713 2.133,6.359l0,0.203c0,1.646 -0.315,3.123 -0.945,4.43c-0.63,1.307 -1.531,2.326 -2.703,3.055c-1.172,0.729 -2.518,1.093 -4.039,1.093c-2.292,0 -4.149,-0.796 -5.571,-2.39c-1.422,-1.594 -2.132,-3.703 -2.132,-6.328l0,-0.203Zm2.906,0.343c0,1.875 0.435,3.381 1.304,4.516c0.87,1.135 2.034,1.703 3.493,1.703c1.468,0 2.635,-0.575 3.5,-1.726c0.864,-1.151 1.297,-2.763 1.297,-4.836c0,-1.855 -0.441,-3.357 -1.321,-4.508c-0.88,-1.151 -2.049,-1.727 -3.508,-1.727c-1.427,0 -2.578,0.568 -3.453,1.703c-0.875,1.136 -1.312,2.761 -1.312,4.875Z" style="fill:#fff;fill-rule:nonzero;"/><path d="M680.961,155.094l0.078,1.875c1.24,-1.459 2.912,-2.188 5.016,-2.188c2.364,0 3.974,0.906 4.828,2.719c0.562,-0.813 1.294,-1.469 2.195,-1.969c0.901,-0.5 1.966,-0.75 3.195,-0.75c3.709,0 5.594,1.964 5.657,5.891l0,11.328l-2.891,0l0,-11.156c0,-1.209 -0.276,-2.112 -0.828,-2.711c-0.552,-0.599 -1.479,-0.899 -2.781,-0.899c-1.073,0 -1.964,0.321 -2.672,0.961c-0.709,0.641 -1.12,1.503 -1.235,2.586l0,11.219l-2.906,0l0,-11.078c0,-2.458 -1.203,-3.688 -3.609,-3.688c-1.896,0 -3.193,0.808 -3.891,2.422l0,12.344l-2.89,0l0,-16.906l2.734,0Z" style="fill:#fff;fill-rule:nonzero;"/><path d="M720.57,163.734c0,2.573 -0.588,4.646 -1.765,6.219c-1.177,1.573 -2.771,2.359 -4.782,2.359c-2.052,0 -3.666,-0.651 -4.843,-1.953l0,8.141l-2.891,0l0,-23.406l2.641,0l0.14,1.875c1.177,-1.459 2.813,-2.188 4.907,-2.188c2.031,0 3.638,0.766 4.82,2.297c1.182,1.531 1.773,3.662 1.773,6.391l0,0.265Zm-2.89,-0.328c0,-1.906 -0.407,-3.411 -1.219,-4.515c-0.813,-1.105 -1.927,-1.657 -3.344,-1.657c-1.75,0 -3.062,0.776 -3.937,2.329l0,8.078c0.864,1.541 2.187,2.312 3.968,2.312c1.386,0 2.487,-0.549 3.305,-1.648c0.818,-1.099 1.227,-2.732 1.227,-4.899Z" style="fill:#fff;fill-rule:nonzero;"/><path d="M723.477,163.391c0,-1.657 0.325,-3.146 0.976,-4.469c0.651,-1.323 1.557,-2.344 2.719,-3.063c1.161,-0.718 2.487,-1.078 3.976,-1.078c2.303,0 4.164,0.797 5.586,2.391c1.422,1.594 2.133,3.713 2.133,6.359l0,0.203c0,1.646 -0.315,3.123 -0.945,4.43c-0.63,1.307 -1.531,2.326 -2.703,3.055c-1.172,0.729 -2.518,1.093 -4.039,1.093c-2.292,0 -4.149,-0.796 -5.571,-2.39c-1.422,-1.594 -2.132,-3.703 -2.132,-6.328l0,-0.203Zm2.906,0.343c0,1.875 0.435,3.381 1.304,4.516c0.87,1.135 2.034,1.703 3.493,1.703c1.468,0 2.635,-0.575 3.5,-1.726c0.864,-1.151 1.297,-2.763 1.297,-4.836c0,-1.855 -0.441,-3.357 -1.321,-4.508c-0.88,-1.151 -2.049,-1.727 -3.508,-1.727c-1.427,0 -2.578,0.568 -3.453,1.703c-0.875,1.136 -1.312,2.761 -1.312,4.875Z" style="fill:#fff;fill-rule:nonzero;"/><path d="M745.227,155.094l0.093,2.125c1.292,-1.625 2.979,-2.438 5.063,-2.438c3.573,0 5.375,2.016 5.406,6.047l0,11.172l-2.891,0l0,-11.188c-0.01,-1.218 -0.289,-2.119 -0.836,-2.703c-0.546,-0.583 -1.398,-0.875 -2.554,-0.875c-0.938,0 -1.761,0.25 -2.469,0.75c-0.708,0.5 -1.26,1.157 -1.656,1.969l0,12.047l-2.891,0l0,-16.906l2.735,0Z" style="fill:#fff;fill-rule:nonzero;"/><path d="M767.164,172.313c-2.292,-0.001 -4.156,-0.753 -5.594,-2.258c-1.437,-1.506 -2.156,-3.519 -2.156,-6.039l0,-0.532c0,-1.677 0.32,-3.174 0.961,-4.492c0.641,-1.318 1.536,-2.349 2.687,-3.094c1.152,-0.744 2.399,-1.117 3.743,-1.117c2.198,0 3.906,0.724 5.125,2.172c1.218,1.448 1.828,3.521 1.828,6.219l0,1.203l-11.453,0c0.041,1.667 0.528,3.013 1.461,4.039c0.932,1.026 2.117,1.539 3.554,1.539c1.021,0 1.886,-0.208 2.594,-0.625c0.708,-0.417 1.328,-0.969 1.859,-1.656l1.766,1.375c-1.417,2.177 -3.542,3.266 -6.375,3.266Zm-0.359,-15.157c-1.167,0 -2.146,0.425 -2.938,1.274c-0.791,0.849 -1.281,2.039 -1.469,3.57l8.469,0l0,-0.219c-0.083,-1.468 -0.479,-2.607 -1.187,-3.414c-0.709,-0.807 -1.667,-1.211 -2.875,-1.211Z" style="fill:#fff;fill-rule:nonzero;"/><path d="M779.836,155.094l0.094,2.125c1.291,-1.625 2.979,-2.438 5.062,-2.438c3.573,0 5.375,2.016 5.406,6.047l0,11.172l-2.89,0l0,-11.188c-0.011,-1.218 -0.289,-2.119 -0.836,-2.703c-0.547,-0.583 -1.399,-0.875 -2.555,-0.875c-0.937,0 -1.76,0.25 -2.469,0.75c-0.708,0.5 -1.26,1.157 -1.656,1.969l0,12.047l-2.89,0l0,-16.906l2.734,0Z" style="fill:#fff;fill-rule:nonzero;"/><path d="M798.68,151l0,4.094l3.156,0l0,2.234l-3.156,0l0,10.484c0,0.678 0.14,1.185 0.422,1.524c0.281,0.338 0.76,0.508 1.437,0.508c0.333,0 0.792,-0.063 1.375,-0.188l0,2.344c-0.76,0.208 -1.5,0.312 -2.219,0.312c-1.291,0 -2.265,-0.39 -2.922,-1.171c-0.656,-0.782 -0.984,-1.891 -0.984,-3.329l0,-10.484l-3.078,0l0,-2.234l3.078,0l0,-4.094l2.891,0Z" style="fill:#fff;fill-rule:nonzero;"/></g><path d="M240,92.375l0,-4.75l30.5,0l0,-7.125l9.5,9.5l-9.5,9.5l0,-7.125l-30.5,0Z" style="fill:#2d2e44;"/><path d="M240,232.375l0,-4.75l30.5,0l0,-7.125l9.5,9.5l-9.5,9.5l0,-7.125l-30.5,0Z" style="fill:#2d2e44;"/><path d="M580,162.375l0,-4.75l30.5,0l0,-7.125l9.5,9.5l-9.5,9.5l0,-7.125l-30.5,0Z" style="fill:#2d2e44;"/></svg>