<?xml version="1.0" encoding="UTF-8" standalone="no"?><!DOCTYPE svg PUBLIC "-//W3C//DTD SVG 1.1//EN" "http://www.w3.org/Graphics/SVG/1.1/DTD/svg11.dtd"><svg width="100%" height="100%" viewBox="0 0 860 320" version="1.1" xmlns="http://www.w3.org/2000/svg" xmlns:xlink="http://www.w3.org/1999/xlink" xml:space="preserve" xmlns:serif="http://www.serif.com/" style="fill-rule:evenodd;clip-rule:evenodd;stroke-linecap:round;stroke-linejoin:round;stroke-miterlimit:1.5;"><g><path d="M240,65c0,-13.798 -11.202,-25 -25,-25l-150,0c-13.798,0 -25,11.202 -25,25l0,50c0,13.798 11.202,25 25,25l150,0c13.798,0 25,-11.202 25,-25l0,-50Z" style="fill:#27c278;"/><text x="98.297px" y="102px" style="font-family:'Roboto-Regular', 'Roboto';font-size:32px;fill:#fff;">Pr<tspan x="129px " y="102px ">o</tspan>ps</text></g><g><path d="M240,205c0,-13.798 -11.202,-25 -25,-25l-150,0c-13.798,0 -25,11.202 -25,25l0,50c0,13.798 11.202,25 25,25l150,0c13.798,0 25,-11.202 25,-25l0,-50Z" style="fill:#fff;stroke:#27c278;stroke-width:4px;"/><text x="102.875px" y="242px" style="font-family:'Roboto-Regular', 'Roboto';font-size:32px;fill:#27c278;">State</text></g><g><path d="M580,65c0,-13.798 -11.202,-25 -25,-25l-250,0c-13.798,0 -25,11.202 -25,25l0,190c0,13.798 11.202,25 25,25l250,0c13.798,0 25,-11.202 25,-25l0,-190Z" style="fill:#27c278;"/><g transform="matrix(1,0,0,1,104,-296)"><text x="242.187px" y="424px" style="font-family:'Roboto-Medium', 'Roboto';font-weight:500;font-size:32px;fill:#fff;">La<tspan x="276.578px 291.922px " y="424px 424px ">yo</tspan>utSpec</text><text x="298.281px" y="468px" style="font-family:'Roboto-Regular', 'Roboto';font-size:32px;fill:#fff;">или</text><text x="244.148px" y="512px" style="font-family:'Roboto-Medium', 'Roboto';font-weight:500;font-size:32px;fill:#fff;">MountSpec</text></g></g><g><path d="M820,135c0,-13.798 -11.202,-25 -25,-25l-150,0c-13.798,0 -25,11.202 -25,25l0,50c0,13.798 11.202,25 25,25l150,0c13.798,0 25,-11.202 25,-25l0,-50Z" style="fill:#27c278;"/><text x="636.977px" y="172px" style="font-family:'Roboto-Regular', 'Roboto';font-size:32px;fill:#fff;">Component</text></g><path d="M240,92.375l0,-4.75l30.5,0l0,-7.125l9.5,9.5l-9.5,9.5l0,-7.125l-30.5,0Z" style="fill:#2d2e44;"/><path d="M240,232.375l0,-4.75l30.5,0l0,-7.125l9.5,9.5l-9.5,9.5l0,-7.125l-30.5,0Z" style="fill:#2d2e44;"/><path d="M580,162.375l0,-4.75l30.5,0l0,-7.125l9.5,9.5l-9.5,9.5l0,-7.125l-30.5,0Z" style="fill:#2d2e44;"/></svg>