<?xml version="1.0" encoding="UTF-8" standalone="no"?><!DOCTYPE svg PUBLIC "-//W3C//DTD SVG 1.1//EN" "http://www.w3.org/Graphics/SVG/1.1/DTD/svg11.dtd"><svg width="100%" height="100%" viewBox="0 0 850 320" version="1.1" xmlns="http://www.w3.org/2000/svg" xmlns:xlink="http://www.w3.org/1999/xlink" xml:space="preserve" xmlns:serif="http://www.serif.com/" style="fill-rule:evenodd;clip-rule:evenodd;stroke-linecap:round;stroke-linejoin:round;stroke-miterlimit:1.5;"><g><path d="M320,80c0,-22.077 -17.923,-40 -40,-40l-200,0c-22.077,0 -40,17.923 -40,40l0,160c0,22.077 17.923,40 40,40l200,0c22.077,0 40,-17.923 40,-40l0,-160Z" style="fill:#27c278;"/><path d="M89.703,161.938l9.781,3.953l0,3.062l-12.781,-5.922l0,-2.281l12.781,-5.906l0,3.062l-9.781,4.032Z" style="fill:#fff;fill-rule:nonzero;"/><path d="M121.969,172l-3.016,0l-11.453,-17.531l0,17.531l-3.016,0l0,-22.75l3.016,0l11.484,17.609l0,-17.609l2.985,0l0,22.75Z" style="fill:#fff;fill-rule:nonzero;"/><path d="M137.281,172c-0.166,-0.333 -0.302,-0.927 -0.406,-1.781c-1.344,1.396 -2.948,2.094 -4.812,2.094c-1.667,0 -3.034,-0.472 -4.102,-1.415c-1.068,-0.942 -1.602,-2.138 -1.602,-3.585c0,-1.761 0.67,-3.128 2.008,-4.102c1.339,-0.974 3.222,-1.461 5.649,-1.461l2.812,0l0,-1.328c0,-1.011 -0.302,-1.815 -0.906,-2.414c-0.604,-0.599 -1.495,-0.899 -2.672,-0.899c-1.031,0 -1.896,0.261 -2.594,0.782c-0.698,0.52 -1.047,1.151 -1.047,1.89l-2.906,0c0,-0.843 0.3,-1.659 0.899,-2.445c0.599,-0.787 1.411,-1.409 2.437,-1.867c1.026,-0.459 2.154,-0.688 3.383,-0.688c1.948,0 3.474,0.487 4.578,1.461c1.104,0.974 1.677,2.315 1.719,4.024l0,7.781c0,1.552 0.198,2.786 0.594,3.703l0,0.25l-3.032,0Zm-4.797,-2.203c0.907,0 1.766,-0.234 2.579,-0.703c0.812,-0.469 1.401,-1.078 1.765,-1.828l0,-3.469l-2.265,0c-3.542,0 -5.313,1.036 -5.313,3.109c0,0.907 0.302,1.615 0.906,2.125c0.604,0.511 1.38,0.766 2.328,0.766Z" style="fill:#fff;fill-rule:nonzero;"/><path d="M146.969,155.094l0.078,1.875c1.239,-1.459 2.911,-2.188 5.016,-2.188c2.364,0 3.973,0.907 4.828,2.719c0.562,-0.812 1.294,-1.469 2.195,-1.969c0.901,-0.5 1.966,-0.75 3.195,-0.75c3.709,0 5.594,1.964 5.657,5.891l0,11.328l-2.891,0l0,-11.156c0,-1.209 -0.276,-2.112 -0.828,-2.711c-0.552,-0.599 -1.479,-0.899 -2.781,-0.899c-1.073,0 -1.964,0.321 -2.672,0.961c-0.709,0.641 -1.12,1.503 -1.235,2.586l0,11.219l-2.906,0l0,-11.078c0,-2.458 -1.203,-3.688 -3.609,-3.688c-1.896,0 -3.193,0.808 -3.891,2.422l0,12.344l-2.891,0l0,-16.906l2.735,0Z" style="fill:#fff;fill-rule:nonzero;"/><path d="M179.313,172.313c-2.292,0 -4.157,-0.753 -5.594,-2.258c-1.438,-1.506 -2.156,-3.519 -2.156,-6.039l0,-0.532c0,-1.677 0.32,-3.174 0.96,-4.492c0.641,-1.318 1.537,-2.349 2.688,-3.094c1.151,-0.744 2.398,-1.117 3.742,-1.117c2.198,0 3.906,0.724 5.125,2.172c1.219,1.448 1.828,3.521 1.828,6.219l0,1.203l-11.453,0c0.042,1.667 0.529,3.013 1.461,4.039c0.932,1.026 2.117,1.539 3.555,1.539c1.021,0 1.885,-0.208 2.594,-0.625c0.708,-0.417 1.328,-0.969 1.859,-1.656l1.766,1.375c-1.417,2.177 -3.542,3.266 -6.375,3.266Zm-0.36,-15.157c-1.167,0 -2.146,0.425 -2.937,1.274c-0.792,0.849 -1.282,2.039 -1.469,3.57l8.469,0l0,-0.219c-0.084,-1.468 -0.48,-2.607 -1.188,-3.414c-0.708,-0.807 -1.667,-1.211 -2.875,-1.211Z" style="fill:#fff;fill-rule:nonzero;"/><path d="M199.484,161.844l-10.328,-4.047l0,-2.969l13.344,5.906l0,2.282l-13.344,5.922l0,-3l10.328,-4.094Z" style="fill:#fff;fill-rule:nonzero;"/><path d="M213.125,161.859c-2.573,-0.739 -4.445,-1.648 -5.617,-2.726c-1.172,-1.078 -1.758,-2.409 -1.758,-3.992c0,-1.792 0.716,-3.274 2.148,-4.446c1.433,-1.172 3.295,-1.757 5.586,-1.757c1.563,0 2.956,0.302 4.18,0.906c1.224,0.604 2.172,1.437 2.844,2.5c0.672,1.062 1.008,2.224 1.008,3.484l-3.016,0c0,-1.375 -0.437,-2.456 -1.312,-3.242c-0.875,-0.787 -2.11,-1.18 -3.704,-1.18c-1.479,0 -2.632,0.326 -3.461,0.977c-0.828,0.651 -1.242,1.555 -1.242,2.711c0,0.927 0.393,1.711 1.18,2.351c0.786,0.641 2.125,1.227 4.016,1.758c1.89,0.531 3.369,1.117 4.437,1.758c1.068,0.641 1.859,1.388 2.375,2.242c0.516,0.854 0.774,1.86 0.774,3.016c0,1.844 -0.719,3.32 -2.157,4.429c-1.437,1.11 -3.359,1.665 -5.765,1.665c-1.563,0 -3.021,-0.3 -4.375,-0.899c-1.355,-0.599 -2.399,-1.419 -3.133,-2.461c-0.735,-1.042 -1.102,-2.224 -1.102,-3.547l3.016,0c0,1.375 0.508,2.461 1.523,3.258c1.016,0.797 2.373,1.195 4.071,1.195c1.583,0 2.797,-0.323 3.64,-0.968c0.844,-0.646 1.266,-1.526 1.266,-2.641c0,-1.115 -0.391,-1.977 -1.172,-2.586c-0.781,-0.609 -2.198,-1.211 -4.25,-1.805Z" style="fill:#fff;fill-rule:nonzero;"/><path d="M239.234,163.734c0,2.573 -0.588,4.646 -1.765,6.219c-1.177,1.573 -2.771,2.36 -4.781,2.36c-2.053,0 -3.667,-0.652 -4.844,-1.954l0,8.141l-2.891,0l0,-23.406l2.641,0l0.14,1.875c1.177,-1.459 2.813,-2.188 4.907,-2.188c2.031,0 3.638,0.766 4.82,2.297c1.182,1.531 1.773,3.662 1.773,6.391l0,0.265Zm-2.89,-0.328c0,-1.906 -0.406,-3.411 -1.219,-4.515c-0.812,-1.105 -1.927,-1.657 -3.344,-1.657c-1.75,0 -3.062,0.776 -3.937,2.329l0,8.078c0.864,1.541 2.187,2.312 3.969,2.312c1.385,0 2.486,-0.549 3.304,-1.648c0.818,-1.099 1.227,-2.732 1.227,-4.899Z" style="fill:#fff;fill-rule:nonzero;"/><path d="M249.922,172.313c-2.292,0 -4.156,-0.753 -5.594,-2.258c-1.437,-1.506 -2.156,-3.519 -2.156,-6.039l0,-0.532c0,-1.677 0.32,-3.174 0.961,-4.492c0.64,-1.318 1.536,-2.349 2.687,-3.094c1.151,-0.744 2.399,-1.117 3.743,-1.117c2.197,0 3.906,0.724 5.125,2.172c1.218,1.448 1.828,3.521 1.828,6.219l0,1.203l-11.453,0c0.041,1.667 0.528,3.013 1.46,4.039c0.933,1.026 2.118,1.539 3.555,1.539c1.021,0 1.886,-0.208 2.594,-0.625c0.708,-0.417 1.328,-0.969 1.859,-1.656l1.766,1.375c-1.417,2.177 -3.542,3.266 -6.375,3.266Zm-0.359,-15.157c-1.167,0 -2.146,0.425 -2.938,1.274c-0.792,0.849 -1.281,2.039 -1.469,3.57l8.469,0l0,-0.219c-0.083,-1.468 -0.479,-2.607 -1.187,-3.414c-0.709,-0.807 -1.667,-1.211 -2.875,-1.211Z" style="fill:#fff;fill-rule:nonzero;"/><path d="M266.641,169.953c1.031,0 1.932,-0.312 2.703,-0.937c0.771,-0.625 1.198,-1.407 1.281,-2.344l2.734,0c-0.052,0.969 -0.385,1.891 -1,2.766c-0.614,0.875 -1.435,1.572 -2.461,2.093c-1.026,0.521 -2.112,0.782 -3.257,0.782c-2.302,0 -4.133,-0.769 -5.493,-2.305c-1.359,-1.537 -2.039,-3.638 -2.039,-6.305l0,-0.484c0,-1.646 0.302,-3.11 0.907,-4.391c0.604,-1.281 1.471,-2.276 2.601,-2.984c1.13,-0.709 2.466,-1.063 4.008,-1.063c1.896,0 3.471,0.568 4.727,1.703c1.255,1.136 1.924,2.61 2.007,4.422l-2.734,0c-0.083,-1.093 -0.497,-1.992 -1.242,-2.695c-0.745,-0.703 -1.664,-1.055 -2.758,-1.055c-1.469,0 -2.607,0.529 -3.414,1.586c-0.807,1.057 -1.211,2.586 -1.211,4.586l0,0.547c0,1.948 0.401,3.448 1.203,4.5c0.802,1.052 1.948,1.578 3.438,1.578Z" style="fill:#fff;fill-rule:nonzero;"/></g><path d="M810,80c0,-22.077 -17.923,-40 -40,-40l-200,0c-22.077,0 -40,17.923 -40,40l0,160c0,22.077 17.923,40 40,40l200,0c22.077,0 40,-17.923 40,-40l0,-160Z" style="fill:#fff;"/><clipPath id="_clip1"><path d="M810,80c0,-22.077 -17.923,-40 -40,-40l-200,0c-22.077,0 -40,17.923 -40,40l0,160c0,22.077 17.923,40 40,40l200,0c22.077,0 40,-17.923 40,-40l0,-160Z"/></clipPath><g clip-path="url(#_clip1)"><g transform="matrix(1,0,0,1,354,-276)"><path d="M261.859,350.141l9.219,3.5l0,3.796l-13.078,-5.828l0,-3.015l13.078,-5.813l0,3.797l-9.219,3.563Z" style="fill:#2d2e44;fill-rule:nonzero;"/><path d="M293.641,360l-3.954,0l-10.14,-16.141l0,16.141l-3.953,0l0,-22.75l3.953,0l10.172,16.203l0,-16.203l3.922,0l0,22.75Z" style="fill:#2d2e44;fill-rule:nonzero;"/><path d="M308.047,360c-0.167,-0.323 -0.313,-0.849 -0.438,-1.578c-1.208,1.26 -2.687,1.89 -4.437,1.89c-1.698,0 -3.083,-0.484 -4.156,-1.453c-1.073,-0.968 -1.61,-2.166 -1.61,-3.593c0,-1.802 0.67,-3.185 2.008,-4.149c1.339,-0.963 3.253,-1.445 5.742,-1.445l2.328,0l0,-1.11c0,-0.875 -0.244,-1.575 -0.734,-2.101c-0.49,-0.526 -1.234,-0.789 -2.234,-0.789c-0.865,0 -1.573,0.216 -2.125,0.648c-0.552,0.433 -0.829,0.982 -0.829,1.649l-3.796,0c0,-0.927 0.307,-1.795 0.921,-2.602c0.615,-0.807 1.451,-1.44 2.508,-1.898c1.058,-0.459 2.237,-0.688 3.539,-0.688c1.98,0 3.558,0.498 4.735,1.492c1.177,0.995 1.781,2.394 1.812,4.196l0,7.625c0,1.521 0.214,2.734 0.641,3.64l0,0.266l-3.875,0Zm-4.172,-2.734c0.75,0 1.456,-0.183 2.117,-0.547c0.662,-0.365 1.159,-0.854 1.492,-1.469l0,-3.188l-2.047,0c-1.406,0 -2.463,0.245 -3.171,0.735c-0.709,0.489 -1.063,1.182 -1.063,2.078c0,0.729 0.242,1.31 0.727,1.742c0.484,0.432 1.132,0.649 1.945,0.649Z" style="fill:#2d2e44;fill-rule:nonzero;"/><path d="M318.828,343.094l0.109,1.765c1.188,-1.385 2.813,-2.078 4.875,-2.078c2.261,0 3.808,0.865 4.641,2.594c1.229,-1.729 2.958,-2.594 5.188,-2.594c1.864,0 3.252,0.516 4.164,1.547c0.911,1.031 1.377,2.552 1.398,4.563l0,11.109l-3.797,0l0,-11c0,-1.073 -0.234,-1.859 -0.703,-2.359c-0.469,-0.5 -1.245,-0.75 -2.328,-0.75c-0.865,0 -1.57,0.231 -2.117,0.695c-0.547,0.463 -0.93,1.07 -1.149,1.82l0.016,11.594l-3.797,0l0,-11.125c-0.052,-1.99 -1.068,-2.984 -3.047,-2.984c-1.521,0 -2.599,0.619 -3.234,1.859l0,12.25l-3.797,0l0,-16.906l3.578,0Z" style="fill:#2d2e44;fill-rule:nonzero;"/><path d="M350.547,360.313c-2.406,0 -4.357,-0.758 -5.852,-2.274c-1.494,-1.516 -2.242,-3.534 -2.242,-6.055l0,-0.468c0,-1.688 0.326,-3.196 0.977,-4.524c0.651,-1.328 1.565,-2.362 2.742,-3.101c1.177,-0.74 2.489,-1.11 3.937,-1.11c2.302,0 4.081,0.735 5.336,2.203c1.256,1.469 1.883,3.547 1.883,6.235l0,1.531l-11.047,0c0.115,1.396 0.581,2.5 1.399,3.313c0.817,0.812 1.846,1.218 3.086,1.218c1.739,0 3.156,-0.703 4.25,-2.109l2.046,1.953c-0.677,1.01 -1.58,1.794 -2.71,2.352c-1.131,0.557 -2.399,0.836 -3.805,0.836Zm-0.453,-14.485c-1.042,0 -1.883,0.365 -2.524,1.094c-0.64,0.729 -1.049,1.745 -1.226,3.047l7.234,0l0,-0.281c-0.083,-1.271 -0.422,-2.232 -1.016,-2.883c-0.593,-0.651 -1.416,-0.977 -2.468,-0.977Z" style="fill:#2d2e44;fill-rule:nonzero;"/><path d="M369.984,350.063l-9.656,-3.547l0,-3.735l13.5,5.813l0,3.015l-13.5,5.813l0,-3.734l9.656,-3.625Z" style="fill:#2d2e44;fill-rule:nonzero;"/><path d="M252.375,396.594c-0.229,2.427 -1.125,4.32 -2.688,5.679c-1.562,1.36 -3.64,2.04 -6.234,2.04c-1.812,0 -3.409,-0.43 -4.789,-1.29c-1.38,-0.859 -2.445,-2.08 -3.195,-3.664c-0.75,-1.583 -1.141,-3.421 -1.172,-5.515l0,-2.125c0,-2.146 0.38,-4.037 1.14,-5.672c0.761,-1.636 1.852,-2.896 3.274,-3.781c1.422,-0.886 3.065,-1.328 4.93,-1.328c2.51,0 4.531,0.682 6.062,2.046c1.531,1.365 2.422,3.292 2.672,5.782l-3.938,0c-0.187,-1.636 -0.664,-2.815 -1.429,-3.539c-0.766,-0.724 -1.888,-1.086 -3.367,-1.086c-1.719,0 -3.039,0.627 -3.961,1.882c-0.922,1.256 -1.394,3.097 -1.414,5.524l0,2.016c0,2.458 0.44,4.333 1.32,5.625c0.88,1.291 2.169,1.937 3.867,1.937c1.552,0 2.719,-0.349 3.5,-1.047c0.781,-0.698 1.276,-1.859 1.484,-3.484l3.938,0Z" style="fill:#9697a1;fill-rule:nonzero;"/><path d="M254.828,395.391c0,-1.657 0.328,-3.149 0.984,-4.477c0.657,-1.328 1.579,-2.349 2.766,-3.062c1.188,-0.714 2.552,-1.071 4.094,-1.071c2.281,0 4.133,0.735 5.555,2.203c1.421,1.469 2.19,3.417 2.304,5.844l0.016,0.891c0,1.666 -0.32,3.156 -0.961,4.469c-0.641,1.312 -1.557,2.328 -2.75,3.046c-1.193,0.719 -2.57,1.079 -4.133,1.079c-2.385,0 -4.294,-0.795 -5.726,-2.383c-1.433,-1.589 -2.149,-3.706 -2.149,-6.352l0,-0.187Zm3.797,0.328c0,1.739 0.359,3.101 1.078,4.086c0.719,0.984 1.719,1.476 3,1.476c1.281,0 2.279,-0.5 2.992,-1.5c0.714,-1 1.071,-2.463 1.071,-4.39c0,-1.709 -0.368,-3.063 -1.102,-4.063c-0.734,-1 -1.732,-1.5 -2.992,-1.5c-1.24,0 -2.224,0.492 -2.953,1.477c-0.729,0.984 -1.094,2.455 -1.094,4.414Z" style="fill:#9697a1;fill-rule:nonzero;"/><path d="M277.328,387.094l0.109,1.765c1.188,-1.385 2.813,-2.078 4.875,-2.078c2.261,0 3.808,0.865 4.641,2.594c1.229,-1.729 2.958,-2.594 5.188,-2.594c1.864,0 3.252,0.516 4.164,1.547c0.911,1.031 1.377,2.552 1.398,4.563l0,11.109l-3.797,0l0,-11c0,-1.073 -0.234,-1.859 -0.703,-2.359c-0.469,-0.5 -1.245,-0.75 -2.328,-0.75c-0.865,0 -1.57,0.231 -2.117,0.695c-0.547,0.463 -0.93,1.07 -1.149,1.82l0.016,11.594l-3.797,0l0,-11.125c-0.052,-1.99 -1.068,-2.984 -3.047,-2.984c-1.521,0 -2.599,0.619 -3.234,1.859l0,12.25l-3.797,0l0,-16.906l3.578,0Z" style="fill:#9697a1;fill-rule:nonzero;"/><path d="M316.406,395.719c0,2.614 -0.594,4.7 -1.781,6.258c-1.188,1.557 -2.781,2.336 -4.781,2.336c-1.854,0 -3.339,-0.61 -4.453,-1.829l0,8.016l-3.797,0l0,-23.406l3.5,0l0.156,1.719c1.115,-1.355 2.63,-2.032 4.547,-2.032c2.062,0 3.68,0.768 4.851,2.305c1.172,1.536 1.758,3.669 1.758,6.398l0,0.235Zm-3.781,-0.328c0,-1.688 -0.336,-3.026 -1.008,-4.016c-0.672,-0.99 -1.633,-1.484 -2.883,-1.484c-1.552,0 -2.666,0.64 -3.343,1.921l0,7.5c0.687,1.313 1.812,1.969 3.375,1.969c1.208,0 2.153,-0.487 2.836,-1.461c0.682,-0.974 1.023,-2.45 1.023,-4.429Z" style="fill:#9697a1;fill-rule:nonzero;"/><path d="M318.906,395.391c0,-1.657 0.328,-3.149 0.985,-4.477c0.656,-1.328 1.578,-2.349 2.765,-3.062c1.188,-0.714 2.552,-1.071 4.094,-1.071c2.281,0 4.133,0.735 5.555,2.203c1.422,1.469 2.19,3.417 2.304,5.844l0.016,0.891c0,1.666 -0.32,3.156 -0.961,4.469c-0.641,1.312 -1.557,2.328 -2.75,3.046c-1.193,0.719 -2.57,1.079 -4.133,1.079c-2.385,0 -4.294,-0.795 -5.726,-2.383c-1.433,-1.589 -2.149,-3.706 -2.149,-6.352l0,-0.187Zm3.797,0.328c0,1.739 0.359,3.101 1.078,4.086c0.719,0.984 1.719,1.476 3,1.476c1.281,0 2.279,-0.5 2.992,-1.5c0.714,-1 1.071,-2.463 1.071,-4.39c0,-1.709 -0.367,-3.063 -1.102,-4.063c-0.734,-1 -1.732,-1.5 -2.992,-1.5c-1.24,0 -2.224,0.492 -2.953,1.477c-0.729,0.984 -1.094,2.455 -1.094,4.414Z" style="fill:#9697a1;fill-rule:nonzero;"/><path d="M341.359,387.094l0.11,1.953c1.25,-1.511 2.89,-2.266 4.922,-2.266c3.52,0 5.312,2.016 5.375,6.047l0,11.172l-3.797,0l0,-10.953c0,-1.073 -0.232,-1.867 -0.696,-2.383c-0.463,-0.516 -1.221,-0.773 -2.273,-0.773c-1.531,0 -2.672,0.692 -3.422,2.078l0,12.031l-3.797,0l0,-16.906l3.578,0Z" style="fill:#9697a1;fill-rule:nonzero;"/><path d="M363.078,404.313c-2.406,0 -4.357,-0.758 -5.851,-2.274c-1.495,-1.516 -2.243,-3.534 -2.243,-6.055l0,-0.468c0,-1.688 0.326,-3.196 0.977,-4.524c0.651,-1.328 1.565,-2.362 2.742,-3.101c1.177,-0.74 2.49,-1.11 3.938,-1.11c2.302,0 4.08,0.735 5.336,2.203c1.255,1.469 1.882,3.547 1.882,6.235l0,1.531l-11.047,0c0.115,1.396 0.581,2.5 1.399,3.313c0.818,0.812 1.846,1.218 3.086,1.218c1.739,0 3.156,-0.703 4.25,-2.109l2.047,1.953c-0.677,1.01 -1.581,1.794 -2.711,2.352c-1.13,0.557 -2.399,0.836 -3.805,0.836Zm-0.453,-14.485c-1.042,0 -1.883,0.365 -2.523,1.094c-0.641,0.729 -1.05,1.745 -1.227,3.047l7.234,0l0,-0.281c-0.083,-1.271 -0.422,-2.232 -1.015,-2.883c-0.594,-0.651 -1.417,-0.977 -2.469,-0.977Z" style="fill:#9697a1;fill-rule:nonzero;"/><path d="M376.328,387.094l0.109,1.953c1.25,-1.511 2.891,-2.266 4.922,-2.266c3.521,0 5.313,2.016 5.375,6.047l0,11.172l-3.797,0l0,-10.953c0,-1.073 -0.231,-1.867 -0.695,-2.383c-0.463,-0.516 -1.221,-0.773 -2.273,-0.773c-1.532,0 -2.672,0.692 -3.422,2.078l0,12.031l-3.797,0l0,-16.906l3.578,0Z" style="fill:#9697a1;fill-rule:nonzero;"/><path d="M395.359,382.984l0,4.11l2.985,0l0,2.812l-2.985,0l0,9.438c0,0.646 0.128,1.112 0.383,1.398c0.255,0.287 0.711,0.43 1.367,0.43c0.438,0 0.881,-0.052 1.328,-0.156l0,2.937c-0.864,0.24 -1.697,0.359 -2.5,0.359c-2.916,0 -4.375,-1.609 -4.375,-4.828l0,-9.578l-2.781,0l0,-2.812l2.781,0l0,-4.11l3.797,0Z" style="fill:#9697a1;fill-rule:nonzero;"/></g><g><path d="M770,190.5c0,-9.659 -7.841,-17.5 -17.5,-17.5l-165,0c-9.659,0 -17.5,7.841 -17.5,17.5l0,35c0,9.659 7.841,17.5 17.5,17.5l165,0c9.659,0 17.5,-7.841 17.5,-17.5l0,-35Z" style="fill:#27c278;"/><path d="M623.18,220l0,-22.75l7.437,0c2.469,0 4.326,0.51 5.57,1.531c1.245,1.021 1.868,2.532 1.868,4.532c0,1.062 -0.302,2.002 -0.907,2.82c-0.604,0.818 -1.427,1.45 -2.468,1.898c1.229,0.344 2.2,0.998 2.914,1.961c0.713,0.964 1.07,2.112 1.07,3.446c0,2.041 -0.661,3.645 -1.984,4.812c-1.323,1.167 -3.193,1.75 -5.61,1.75l-7.89,0Zm3,-10.641l0,8.188l4.953,0c1.396,0 2.497,-0.362 3.304,-1.086c0.808,-0.724 1.211,-1.721 1.211,-2.992c0,-2.74 -1.489,-4.11 -4.468,-4.11l-5,0Zm0,-2.406l4.531,0c1.312,0 2.362,-0.328 3.148,-0.984c0.787,-0.656 1.18,-1.547 1.18,-2.672c0,-1.25 -0.365,-2.159 -1.094,-2.727c-0.729,-0.567 -1.838,-0.851 -3.328,-0.851l-4.437,0l0,7.234Z" style="fill:#fff;fill-rule:nonzero;"/><path d="M653.086,218.328c-1.125,1.323 -2.776,1.985 -4.953,1.985c-1.802,0 -3.175,-0.524 -4.117,-1.571c-0.943,-1.047 -1.42,-2.596 -1.43,-4.648l0,-11l2.891,0l0,10.922c0,2.562 1.041,3.843 3.125,3.843c2.208,0 3.677,-0.823 4.406,-2.468l0,-12.297l2.89,0l0,16.906l-2.75,0l-0.062,-1.672Z" style="fill:#fff;fill-rule:nonzero;"/><path d="M663.43,220l-2.891,0l0,-16.906l2.891,0l0,16.906Zm-3.125,-21.391c0,-0.468 0.143,-0.864 0.429,-1.187c0.287,-0.323 0.711,-0.484 1.274,-0.484c0.562,0 0.989,0.161 1.281,0.484c0.292,0.323 0.438,0.719 0.438,1.187c0,0.469 -0.146,0.86 -0.438,1.172c-0.292,0.313 -0.719,0.469 -1.281,0.469c-0.563,0 -0.987,-0.156 -1.274,-0.469c-0.286,-0.312 -0.429,-0.703 -0.429,-1.172Z" style="fill:#fff;fill-rule:nonzero;"/><rect x="668.305" y="196" width="2.891" height="24" style="fill:#fff;fill-rule:nonzero;"/><path d="M675.117,211.406c0,-2.593 0.615,-4.679 1.844,-6.258c1.229,-1.578 2.838,-2.367 4.828,-2.367c1.979,0 3.547,0.677 4.703,2.032l0,-8.813l2.891,0l0,24l-2.656,0l-0.141,-1.812c-1.156,1.416 -2.766,2.125 -4.828,2.125c-1.959,0 -3.555,-0.803 -4.789,-2.407c-1.235,-1.604 -1.852,-3.698 -1.852,-6.281l0,-0.219Zm2.891,0.328c0,1.917 0.396,3.417 1.187,4.5c0.792,1.084 1.886,1.625 3.282,1.625c1.833,0 3.171,-0.823 4.015,-2.468l0,-7.766c-0.864,-1.594 -2.193,-2.391 -3.984,-2.391c-1.417,0 -2.521,0.547 -3.313,1.641c-0.791,1.094 -1.187,2.714 -1.187,4.859Z" style="fill:#fff;fill-rule:nonzero;"/><path d="M700.883,220.313c-2.292,0 -4.156,-0.753 -5.594,-2.258c-1.437,-1.506 -2.156,-3.519 -2.156,-6.039l0,-0.532c0,-1.677 0.32,-3.174 0.961,-4.492c0.64,-1.318 1.536,-2.349 2.687,-3.094c1.151,-0.744 2.399,-1.117 3.742,-1.117c2.198,0 3.907,0.724 5.125,2.172c1.219,1.448 1.829,3.521 1.829,6.219l0,1.203l-11.454,0c0.042,1.667 0.529,3.013 1.461,4.039c0.933,1.026 2.118,1.539 3.555,1.539c1.021,0 1.885,-0.208 2.594,-0.625c0.708,-0.417 1.328,-0.969 1.859,-1.656l1.766,1.375c-1.417,2.177 -3.542,3.266 -6.375,3.266Zm-0.36,-15.157c-1.166,0 -2.145,0.425 -2.937,1.274c-0.792,0.849 -1.281,2.039 -1.469,3.57l8.469,0l0,-0.219c-0.083,-1.468 -0.479,-2.607 -1.188,-3.414c-0.708,-0.807 -1.666,-1.211 -2.875,-1.211Z" style="fill:#fff;fill-rule:nonzero;"/><path d="M718.992,205.688c-0.437,-0.073 -0.911,-0.11 -1.422,-0.11c-1.896,0 -3.182,0.807 -3.859,2.422l0,12l-2.891,0l0,-16.906l2.813,0l0.047,1.953c0.948,-1.511 2.291,-2.266 4.031,-2.266c0.562,0 0.99,0.073 1.281,0.219l0,2.688Z" style="fill:#fff;fill-rule:nonzero;"/></g></g><path d="M810,80c0,-22.077 -17.923,-40 -40,-40l-200,0c-22.077,0 -40,17.923 -40,40l0,160c0,22.077 17.923,40 40,40l200,0c22.077,0 40,-17.923 40,-40l0,-160Z" style="fill:none;stroke:#27c278;stroke-width:4px;"/><path d="M429.901,110.241c-3.259,-0.321 -6.543,-0.321 -9.802,0l-1.473,7.74c-3.12,0.473 -6.177,1.292 -9.116,2.442l-5.145,-5.966c-2.984,1.351 -5.827,2.993 -8.489,4.901l2.595,7.439c-2.466,1.97 -4.704,4.208 -6.674,6.674l-7.439,-2.595c-1.908,2.662 -3.55,5.505 -4.901,8.489l5.966,5.145c-1.15,2.939 -1.969,5.996 -2.442,9.116l-7.74,1.473c-0.321,3.259 -0.321,6.543 0,9.802l7.74,1.473c0.473,3.12 1.292,6.177 2.442,9.116l-5.966,5.145c1.351,2.984 2.993,5.827 4.901,8.489l7.439,-2.595c1.97,2.466 4.208,4.704 6.674,6.674l-2.595,7.439c2.662,1.908 5.505,3.55 8.489,4.901l5.145,-5.966c2.939,1.15 5.996,1.969 9.116,2.442l1.473,7.74c3.259,0.321 6.543,0.321 9.802,0l1.473,-7.74c3.12,-0.473 6.177,-1.292 9.116,-2.442l5.145,5.966c2.984,-1.351 5.827,-2.993 8.489,-4.901l-2.595,-7.439c2.466,-1.97 4.704,-4.208 6.674,-6.674l7.439,2.595c1.908,-2.662 3.55,-5.505 4.901,-8.489l-5.966,-5.145c1.15,-2.939 1.969,-5.996 2.442,-9.116l7.74,-1.473c0.321,-3.259 0.321,-6.543 0,-9.802l-7.74,-1.473c-0.473,-3.12 -1.292,-6.177 -2.442,-9.116l5.966,-5.145c-1.351,-2.984 -2.993,-5.827 -4.901,-8.489l-7.439,2.595c-1.97,-2.466 -4.208,-4.704 -6.674,-6.674l2.595,-7.439c-2.662,-1.908 -5.505,-3.55 -8.489,-4.901l-5.145,5.966c-2.939,-1.15 -5.996,-1.969 -9.116,-2.442l-1.473,-7.74Zm-4.901,39.759c5.519,0 10,4.481 10,10c0,5.519 -4.481,10 -10,10c-5.519,0 -10,-4.481 -10,-10c0,-5.519 4.481,-10 10,-10Z" style="fill:#27c278;"/><path d="M340,145l15,15l-15,15" style="fill:none;stroke:#2d2e44;stroke-width:4px;"/><path d="M495,145l15,15l-15,15" style="fill:none;stroke:#2d2e44;stroke-width:4px;"/></svg>