<?xml version="1.0" encoding="UTF-8" standalone="no"?><!DOCTYPE svg PUBLIC "-//W3C//DTD SVG 1.1//EN" "http://www.w3.org/Graphics/SVG/1.1/DTD/svg11.dtd"><svg width="100%" height="100%" viewBox="0 0 1000 320" version="1.1" xmlns="http://www.w3.org/2000/svg" xmlns:xlink="http://www.w3.org/1999/xlink" xml:space="preserve" xmlns:serif="http://www.serif.com/" style="fill-rule:evenodd;clip-rule:evenodd;stroke-linecap:round;stroke-linejoin:round;stroke-miterlimit:1.5;"><g><path d="M960,100c0,-33.115 -26.885,-60 -60,-60l-800,0c-33.115,0 -60,26.885 -60,60l0,120c0,33.115 26.885,60 60,60l800,0c33.115,0 60,-26.885 60,-60l0,-120Z" style="fill:#fff;stroke:#27c278;stroke-width:4px;"/><text x="344.531px" y="93.596px" style="font-family:'Roboto-Medium', 'Roboto';font-weight:500;font-size:32px;fill:#2d2e44;">La<tspan x="378.922px 394.266px " y="93.596px 93.596px ">yo</tspan>ut Component</text></g><g><path d="M320,165c0,-13.798 -11.202,-25 -25,-25l-190,0c-13.798,0 -25,11.202 -25,25l0,50c0,13.798 11.202,25 25,25l190,0c13.798,0 25,-11.202 25,-25l0,-50Z" style="fill:#27c278;"/><text x="104.031px" y="202px" style="font-family:'Roboto-Regular', 'Roboto';font-size:32px;fill:#fff;">Component 1</text></g><g><path d="M600,165c0,-13.798 -11.202,-25 -25,-25l-190,0c-13.798,0 -25,11.202 -25,25l0,50c0,13.798 11.202,25 25,25l190,0c13.798,0 25,-11.202 25,-25l0,-50Z" style="fill:#27c278;"/><text x="384.031px" y="202px" style="font-family:'Roboto-Regular', 'Roboto';font-size:32px;fill:#fff;">Component 2</text></g><g><path d="M920,165c0,-13.798 -11.202,-25 -25,-25l-190,0c-13.798,0 -25,11.202 -25,25l0,50c0,13.798 11.202,25 25,25l190,0c13.798,0 25,-11.202 25,-25l0,-50Z" style="fill:#27c278;"/><text x="701.609px" y="202px" style="font-family:'Roboto-Regular', 'Roboto';font-size:32px;fill:#fff;">Component N</text></g><circle cx="640" cy="190" r="3" style="fill:#2d2e44;"/><circle cx="630" cy="190" r="3" style="fill:#2d2e44;"/><circle cx="650" cy="190" r="3" style="fill:#2d2e44;"/></svg>