<?xml version="1.0" encoding="UTF-8" standalone="no"?><!DOCTYPE svg PUBLIC "-//W3C//DTD SVG 1.1//EN" "http://www.w3.org/Graphics/SVG/1.1/DTD/svg11.dtd"><svg width="100%" height="100%" viewBox="0 0 740 320" version="1.1" xmlns="http://www.w3.org/2000/svg" xmlns:xlink="http://www.w3.org/1999/xlink" xml:space="preserve" xmlns:serif="http://www.serif.com/" style="fill-rule:evenodd;clip-rule:evenodd;stroke-linecap:round;stroke-linejoin:round;stroke-miterlimit:1.5;"><g><path d="M700,100c0,-33.115 -26.885,-60 -60,-60l-540,0c-33.115,0 -60,26.885 -60,60l0,120c0,33.115 26.885,60 60,60l540,0c33.115,0 60,-26.885 60,-60l0,-120Z" style="fill:#fff;stroke:#27c278;stroke-width:4px;"/><path d="M354.922,185.094l3.781,0l0,16.906l-3.781,0l0,-11.281l-6.625,11.281l-3.781,0l0,-16.906l3.781,0l0,11.281l6.625,-11.281Z" style="fill:#2d2e44;fill-rule:nonzero;"/><path d="M377.109,185.094l0,16.906l-3.796,0l0,-13.844l-4.782,0l-0.312,5.891c-0.198,2.833 -0.742,4.867 -1.633,6.101c-0.891,1.235 -2.253,1.852 -4.086,1.852l-1.172,0l-0.015,-3.156l0.781,-0.078c0.833,-0.115 1.44,-0.623 1.82,-1.524c0.38,-0.901 0.622,-2.544 0.727,-4.929l0.312,-7.219l12.156,0Z" style="fill:#2d2e44;fill-rule:nonzero;"/><path d="M391.703,185.094l3.781,0l0,16.906l-3.781,0l0,-11.281l-6.625,11.281l-3.781,0l0,-16.906l3.781,0l0,11.281l6.625,-11.281Z" style="fill:#2d2e44;fill-rule:nonzero;"/><path d="M243.93,70.846l6.562,17.438l6.547,-17.438l5.109,0l0,22.75l-3.937,0l0,-7.5l0.391,-10.031l-6.719,17.531l-2.828,0l-6.703,-17.515l0.39,10.015l0,7.5l-3.937,0l0,-22.75l5.125,0Z" style="fill:#2d2e44;fill-rule:nonzero;"/><path d="M265.742,84.987c0,-1.656 0.328,-3.149 0.985,-4.477c0.656,-1.328 1.578,-2.349 2.765,-3.062c1.188,-0.714 2.552,-1.07 4.094,-1.07c2.281,0 4.133,0.734 5.555,2.203c1.422,1.468 2.19,3.416 2.304,5.843l0.016,0.891c0,1.667 -0.32,3.156 -0.961,4.469c-0.641,1.312 -1.557,2.328 -2.75,3.047c-1.193,0.718 -2.57,1.078 -4.133,1.078c-2.385,0 -4.294,-0.794 -5.726,-2.383c-1.433,-1.589 -2.149,-3.706 -2.149,-6.352l0,-0.187Zm3.797,0.328c0,1.74 0.359,3.102 1.078,4.086c0.719,0.984 1.719,1.477 3,1.477c1.281,0 2.279,-0.5 2.992,-1.5c0.714,-1 1.071,-2.464 1.071,-4.391c0,-1.708 -0.367,-3.063 -1.102,-4.063c-0.734,-1 -1.732,-1.5 -2.992,-1.5c-1.24,0 -2.224,0.493 -2.953,1.477c-0.729,0.984 -1.094,2.456 -1.094,4.414Z" style="fill:#2d2e44;fill-rule:nonzero;"/><path d="M294.914,91.94c-1.115,1.313 -2.698,1.969 -4.75,1.969c-1.833,0 -3.221,-0.537 -4.164,-1.61c-0.943,-1.072 -1.414,-2.625 -1.414,-4.656l0,-10.953l3.797,0l0,10.906c0,2.146 0.89,3.219 2.672,3.219c1.843,0 3.088,-0.661 3.734,-1.984l0,-12.141l3.797,0l0,16.906l-3.578,0l-0.094,-1.656Z" style="fill:#2d2e44;fill-rule:nonzero;"/><path d="M305.977,76.69l0.109,1.953c1.25,-1.51 2.891,-2.265 4.922,-2.265c3.521,0 5.312,2.015 5.375,6.046l0,11.172l-3.797,0l0,-10.953c0,-1.073 -0.232,-1.867 -0.695,-2.383c-0.464,-0.515 -1.222,-0.773 -2.274,-0.773c-1.531,0 -2.672,0.693 -3.422,2.078l0,12.031l-3.797,0l0,-16.906l3.579,0Z" style="fill:#2d2e44;fill-rule:nonzero;"/><path d="M325.008,72.581l0,4.109l2.984,0l0,2.813l-2.984,0l0,9.437c0,0.646 0.127,1.112 0.383,1.398c0.255,0.287 0.711,0.43 1.367,0.43c0.437,0 0.88,-0.052 1.328,-0.156l0,2.937c-0.865,0.24 -1.698,0.36 -2.5,0.36c-2.917,0 -4.375,-1.61 -4.375,-4.828l0,-9.578l-2.781,0l0,-2.813l2.781,0l0,-4.109l3.797,0Z" style="fill:#2d2e44;fill-rule:nonzero;"/><path d="M356.586,86.19c-0.229,2.427 -1.125,4.32 -2.688,5.68c-1.562,1.359 -3.64,2.039 -6.234,2.039c-1.812,0 -3.409,-0.43 -4.789,-1.289c-1.38,-0.86 -2.445,-2.081 -3.195,-3.664c-0.75,-1.584 -1.141,-3.422 -1.172,-5.516l0,-2.125c0,-2.146 0.38,-4.036 1.14,-5.672c0.761,-1.635 1.852,-2.896 3.274,-3.781c1.422,-0.885 3.065,-1.328 4.93,-1.328c2.51,0 4.531,0.682 6.062,2.047c1.531,1.364 2.422,3.291 2.672,5.781l-3.938,0c-0.187,-1.635 -0.664,-2.815 -1.429,-3.539c-0.766,-0.724 -1.888,-1.086 -3.367,-1.086c-1.719,0 -3.039,0.628 -3.961,1.883c-0.922,1.255 -1.394,3.096 -1.414,5.523l0,2.016c0,2.458 0.44,4.333 1.32,5.625c0.88,1.291 2.169,1.937 3.867,1.937c1.552,0 2.719,-0.349 3.5,-1.047c0.781,-0.697 1.276,-1.859 1.484,-3.484l3.938,0Z" style="fill:#2d2e44;fill-rule:nonzero;"/><path d="M359.039,84.987c0,-1.656 0.328,-3.149 0.984,-4.477c0.657,-1.328 1.579,-2.349 2.766,-3.062c1.188,-0.714 2.552,-1.07 4.094,-1.07c2.281,0 4.133,0.734 5.555,2.203c1.421,1.468 2.19,3.416 2.304,5.843l0.016,0.891c0,1.667 -0.32,3.156 -0.961,4.469c-0.641,1.312 -1.557,2.328 -2.75,3.047c-1.193,0.718 -2.57,1.078 -4.133,1.078c-2.385,0 -4.294,-0.794 -5.726,-2.383c-1.433,-1.589 -2.149,-3.706 -2.149,-6.352l0,-0.187Zm3.797,0.328c0,1.74 0.359,3.102 1.078,4.086c0.719,0.984 1.719,1.477 3,1.477c1.281,0 2.279,-0.5 2.992,-1.5c0.714,-1 1.071,-2.464 1.071,-4.391c0,-1.708 -0.368,-3.063 -1.102,-4.063c-0.734,-1 -1.732,-1.5 -2.992,-1.5c-1.24,0 -2.224,0.493 -2.953,1.477c-0.729,0.984 -1.094,2.456 -1.094,4.414Z" style="fill:#2d2e44;fill-rule:nonzero;"/><path d="M381.539,76.69l0.109,1.766c1.188,-1.386 2.813,-2.078 4.875,-2.078c2.261,0 3.808,0.864 4.641,2.593c1.229,-1.729 2.958,-2.593 5.188,-2.593c1.864,0 3.252,0.515 4.164,1.546c0.911,1.032 1.377,2.553 1.398,4.563l0,11.109l-3.797,0l0,-11c0,-1.073 -0.234,-1.859 -0.703,-2.359c-0.469,-0.5 -1.245,-0.75 -2.328,-0.75c-0.865,0 -1.57,0.232 -2.117,0.695c-0.547,0.464 -0.93,1.071 -1.149,1.821l0.016,11.593l-3.797,0l0,-11.125c-0.052,-1.989 -1.068,-2.984 -3.047,-2.984c-1.521,0 -2.599,0.62 -3.234,1.859l0,12.25l-3.797,0l0,-16.906l3.578,0Z" style="fill:#2d2e44;fill-rule:nonzero;"/><path d="M420.617,85.315c0,2.615 -0.594,4.701 -1.781,6.258c-1.188,1.557 -2.781,2.336 -4.781,2.336c-1.854,0 -3.339,-0.61 -4.453,-1.828l0,8.015l-3.797,0l0,-23.406l3.5,0l0.156,1.719c1.115,-1.354 2.63,-2.031 4.547,-2.031c2.062,0 3.68,0.768 4.851,2.304c1.172,1.537 1.758,3.67 1.758,6.399l0,0.234Zm-3.781,-0.328c0,-1.688 -0.336,-3.026 -1.008,-4.016c-0.672,-0.989 -1.633,-1.484 -2.883,-1.484c-1.552,0 -2.666,0.641 -3.343,1.922l0,7.5c0.687,1.312 1.812,1.969 3.375,1.969c1.208,0 2.153,-0.487 2.836,-1.461c0.682,-0.974 1.023,-2.451 1.023,-4.43Z" style="fill:#2d2e44;fill-rule:nonzero;"/><path d="M423.117,84.987c0,-1.656 0.328,-3.149 0.985,-4.477c0.656,-1.328 1.578,-2.349 2.765,-3.062c1.188,-0.714 2.552,-1.07 4.094,-1.07c2.281,0 4.133,0.734 5.555,2.203c1.422,1.468 2.19,3.416 2.304,5.843l0.016,0.891c0,1.667 -0.32,3.156 -0.961,4.469c-0.641,1.312 -1.557,2.328 -2.75,3.047c-1.193,0.718 -2.57,1.078 -4.133,1.078c-2.385,0 -4.294,-0.794 -5.726,-2.383c-1.433,-1.589 -2.149,-3.706 -2.149,-6.352l0,-0.187Zm3.797,0.328c0,1.74 0.359,3.102 1.078,4.086c0.719,0.984 1.719,1.477 3,1.477c1.281,0 2.279,-0.5 2.992,-1.5c0.714,-1 1.071,-2.464 1.071,-4.391c0,-1.708 -0.367,-3.063 -1.102,-4.063c-0.734,-1 -1.732,-1.5 -2.992,-1.5c-1.24,0 -2.224,0.493 -2.953,1.477c-0.729,0.984 -1.094,2.456 -1.094,4.414Z" style="fill:#2d2e44;fill-rule:nonzero;"/><path d="M445.57,76.69l0.11,1.953c1.25,-1.51 2.89,-2.265 4.922,-2.265c3.52,0 5.312,2.015 5.375,6.046l0,11.172l-3.797,0l0,-10.953c0,-1.073 -0.232,-1.867 -0.696,-2.383c-0.463,-0.515 -1.221,-0.773 -2.273,-0.773c-1.531,0 -2.672,0.693 -3.422,2.078l0,12.031l-3.797,0l0,-16.906l3.578,0Z" style="fill:#2d2e44;fill-rule:nonzero;"/><path d="M467.289,93.909c-2.406,0 -4.357,-0.758 -5.851,-2.274c-1.495,-1.515 -2.243,-3.533 -2.243,-6.054l0,-0.469c0,-1.688 0.326,-3.195 0.977,-4.524c0.651,-1.328 1.565,-2.361 2.742,-3.101c1.177,-0.74 2.49,-1.109 3.938,-1.109c2.302,0 4.08,0.734 5.336,2.203c1.255,1.468 1.882,3.547 1.882,6.234l0,1.531l-11.047,0c0.115,1.396 0.581,2.5 1.399,3.313c0.818,0.812 1.846,1.219 3.086,1.219c1.739,0 3.156,-0.704 4.25,-2.11l2.047,1.953c-0.677,1.011 -1.581,1.795 -2.711,2.352c-1.13,0.557 -2.399,0.836 -3.805,0.836Zm-0.453,-14.485c-1.042,0 -1.883,0.365 -2.523,1.094c-0.641,0.729 -1.05,1.745 -1.227,3.047l7.234,0l0,-0.281c-0.083,-1.271 -0.422,-2.232 -1.015,-2.883c-0.594,-0.651 -1.417,-0.977 -2.469,-0.977Z" style="fill:#2d2e44;fill-rule:nonzero;"/><path d="M480.539,76.69l0.109,1.953c1.25,-1.51 2.891,-2.265 4.922,-2.265c3.521,0 5.313,2.015 5.375,6.046l0,11.172l-3.797,0l0,-10.953c0,-1.073 -0.231,-1.867 -0.695,-2.383c-0.463,-0.515 -1.221,-0.773 -2.273,-0.773c-1.532,0 -2.672,0.693 -3.422,2.078l0,12.031l-3.797,0l0,-16.906l3.578,0Z" style="fill:#2d2e44;fill-rule:nonzero;"/><path d="M499.57,72.581l0,4.109l2.985,0l0,2.813l-2.985,0l0,9.437c0,0.646 0.128,1.112 0.383,1.398c0.255,0.287 0.711,0.43 1.367,0.43c0.438,0 0.881,-0.052 1.328,-0.156l0,2.937c-0.864,0.24 -1.697,0.36 -2.5,0.36c-2.916,0 -4.375,-1.61 -4.375,-4.828l0,-9.578l-2.781,0l0,-2.813l2.781,0l0,-4.109l3.797,0Z" style="fill:#2d2e44;fill-rule:nonzero;"/></g><g><path d="M320,165c0,-13.798 -11.202,-25 -25,-25l-190,0c-13.798,0 -25,11.202 -25,25l0,50c0,13.798 11.202,25 25,25l190,0c13.798,0 25,-11.202 25,-25l0,-50Z" style="fill:#27c278;"/><path d="M136.281,202l0,-22.75l6.422,0c1.979,0 3.729,0.437 5.25,1.312c1.521,0.875 2.695,2.12 3.524,3.735c0.828,1.614 1.247,3.469 1.257,5.562l0,1.453c0,2.146 -0.414,4.027 -1.242,5.641c-0.828,1.615 -2.01,2.854 -3.547,3.719c-1.536,0.864 -3.325,1.307 -5.367,1.328l-6.297,0Zm3,-20.281l0,17.828l3.156,0c2.313,0 4.112,-0.719 5.399,-2.156c1.286,-1.438 1.93,-3.485 1.93,-6.141l0,-1.328c0,-2.583 -0.607,-4.591 -1.821,-6.024c-1.213,-1.432 -2.935,-2.158 -5.164,-2.179l-3.5,0Z" style="fill:#fff;fill-rule:nonzero;"/><path d="M164.984,187.687c-0.437,-0.072 -0.911,-0.109 -1.422,-0.109c-1.895,0 -3.182,0.807 -3.859,2.422l0,12l-2.891,0l0,-16.906l2.813,0l0.047,1.953c0.948,-1.511 2.292,-2.266 4.031,-2.266c0.563,0 0.99,0.073 1.281,0.219l0,2.687Z" style="fill:#fff;fill-rule:nonzero;"/><path d="M177.453,202c-0.167,-0.333 -0.302,-0.927 -0.406,-1.781c-1.344,1.396 -2.948,2.093 -4.813,2.093c-1.666,0 -3.033,-0.471 -4.101,-1.414c-1.068,-0.942 -1.602,-2.138 -1.602,-3.586c0,-1.76 0.67,-3.127 2.008,-4.101c1.339,-0.974 3.221,-1.461 5.648,-1.461l2.813,0l0,-1.328c0,-1.011 -0.302,-1.815 -0.906,-2.414c-0.604,-0.599 -1.495,-0.899 -2.672,-0.899c-1.031,0 -1.896,0.261 -2.594,0.782c-0.698,0.52 -1.047,1.151 -1.047,1.89l-2.906,0c0,-0.844 0.299,-1.659 0.898,-2.445c0.599,-0.787 1.412,-1.409 2.438,-1.867c1.026,-0.459 2.154,-0.688 3.383,-0.688c1.948,0 3.474,0.487 4.578,1.461c1.104,0.974 1.677,2.315 1.719,4.024l0,7.781c0,1.552 0.198,2.786 0.593,3.703l0,0.25l-3.031,0Zm-4.797,-2.203c0.907,0 1.766,-0.235 2.578,-0.703c0.813,-0.469 1.401,-1.078 1.766,-1.828l0,-3.469l-2.266,0c-3.541,0 -5.312,1.036 -5.312,3.109c0,0.906 0.302,1.615 0.906,2.125c0.604,0.511 1.38,0.766 2.328,0.766Z" style="fill:#fff;fill-rule:nonzero;"/><path d="M199.391,198.016l3.25,-12.922l2.89,0l-4.922,16.906l-2.343,0l-4.11,-12.813l-4,12.813l-2.343,0l-4.907,-16.906l2.875,0l3.328,12.656l3.938,-12.656l2.328,0l4.016,12.922Z" style="fill:#fff;fill-rule:nonzero;"/><path d="M218.906,202c-0.166,-0.333 -0.302,-0.927 -0.406,-1.781c-1.344,1.396 -2.948,2.093 -4.813,2.093c-1.666,0 -3.033,-0.471 -4.101,-1.414c-1.068,-0.942 -1.602,-2.138 -1.602,-3.586c0,-1.76 0.67,-3.127 2.008,-4.101c1.339,-0.974 3.222,-1.461 5.649,-1.461l2.812,0l0,-1.328c0,-1.011 -0.302,-1.815 -0.906,-2.414c-0.604,-0.599 -1.495,-0.899 -2.672,-0.899c-1.031,0 -1.896,0.261 -2.594,0.782c-0.698,0.52 -1.047,1.151 -1.047,1.89l-2.906,0c0,-0.844 0.3,-1.659 0.899,-2.445c0.599,-0.787 1.411,-1.409 2.437,-1.867c1.026,-0.459 2.154,-0.688 3.383,-0.688c1.948,0 3.474,0.487 4.578,1.461c1.104,0.974 1.677,2.315 1.719,4.024l0,7.781c0,1.552 0.198,2.786 0.593,3.703l0,0.25l-3.031,0Zm-4.797,-2.203c0.907,0 1.766,-0.235 2.578,-0.703c0.813,-0.469 1.402,-1.078 1.766,-1.828l0,-3.469l-2.266,0c-3.541,0 -5.312,1.036 -5.312,3.109c0,0.906 0.302,1.615 0.906,2.125c0.604,0.511 1.38,0.766 2.328,0.766Z" style="fill:#fff;fill-rule:nonzero;"/><path d="M240.188,193.734c-0.001,2.584 -0.594,4.659 -1.782,6.227c-1.187,1.568 -2.781,2.351 -4.781,2.351c-2.135,0 -3.786,-0.755 -4.953,-2.265l-0.141,1.953l-2.656,0l0,-24l2.891,0l0,8.953c1.166,-1.448 2.776,-2.172 4.828,-2.172c2.052,0 3.664,0.776 4.836,2.328c1.172,1.552 1.757,3.677 1.757,6.375l0,0.25Zm-2.89,-0.328c0,-1.969 -0.38,-3.489 -1.141,-4.562c-0.76,-1.073 -1.854,-1.61 -3.281,-1.61c-1.906,0 -3.276,0.886 -4.109,2.657l0,7.312c0.885,1.771 2.265,2.656 4.14,2.656c1.386,0 2.464,-0.536 3.235,-1.609c0.77,-1.073 1.156,-2.688 1.156,-4.844Z" style="fill:#fff;fill-rule:nonzero;"/><rect x="244.078" y="178" width="2.891" height="24" style="fill:#fff;fill-rule:nonzero;"/><path d="M258.609,202.312c-2.291,0 -4.156,-0.752 -5.593,-2.257c-1.438,-1.506 -2.157,-3.519 -2.157,-6.039l0,-0.532c0,-1.677 0.321,-3.174 0.961,-4.492c0.641,-1.318 1.537,-2.349 2.688,-3.094c1.151,-0.744 2.398,-1.117 3.742,-1.117c2.198,0 3.906,0.724 5.125,2.172c1.219,1.448 1.828,3.521 1.828,6.219l0,1.203l-11.453,0c0.042,1.667 0.529,3.013 1.461,4.039c0.932,1.026 2.117,1.539 3.555,1.539c1.02,0 1.885,-0.208 2.593,-0.625c0.709,-0.417 1.329,-0.969 1.86,-1.656l1.765,1.375c-1.416,2.177 -3.541,3.265 -6.375,3.265Zm-0.359,-15.156c-1.167,0 -2.146,0.425 -2.938,1.274c-0.791,0.849 -1.281,2.039 -1.468,3.57l8.468,0l0,-0.219c-0.083,-1.469 -0.479,-2.607 -1.187,-3.414c-0.708,-0.807 -1.667,-1.211 -2.875,-1.211Z" style="fill:#fff;fill-rule:nonzero;"/></g><g><path d="M660,165c0,-13.798 -11.202,-25 -25,-25l-190,0c-13.798,0 -25,11.202 -25,25l0,50c0,13.798 11.202,25 25,25l190,0c13.798,0 25,-11.202 25,-25l0,-50Z" style="fill:#27c278;"/><path d="M515.609,198.016l6.5,-18.766l3.282,0l-8.438,22.75l-2.656,0l-8.422,-22.75l3.266,0l6.468,18.766Z" style="fill:#fff;fill-rule:nonzero;"/><path d="M531.125,202l-2.891,0l0,-16.906l2.891,0l0,16.906Zm-3.125,-21.391c0,-0.468 0.143,-0.864 0.43,-1.187c0.286,-0.323 0.711,-0.485 1.273,-0.485c0.563,0 0.99,0.162 1.281,0.485c0.292,0.323 0.438,0.719 0.438,1.187c0,0.469 -0.146,0.86 -0.438,1.172c-0.291,0.313 -0.718,0.469 -1.281,0.469c-0.562,0 -0.987,-0.156 -1.273,-0.469c-0.287,-0.312 -0.43,-0.703 -0.43,-1.172Z" style="fill:#fff;fill-rule:nonzero;"/><path d="M542.766,202.312c-2.292,0 -4.157,-0.752 -5.594,-2.257c-1.438,-1.506 -2.156,-3.519 -2.156,-6.039l0,-0.532c0,-1.677 0.32,-3.174 0.961,-4.492c0.64,-1.318 1.536,-2.349 2.687,-3.094c1.151,-0.744 2.399,-1.117 3.742,-1.117c2.198,0 3.907,0.724 5.125,2.172c1.219,1.448 1.828,3.521 1.828,6.219l0,1.203l-11.453,0c0.042,1.667 0.529,3.013 1.461,4.039c0.932,1.026 2.117,1.539 3.555,1.539c1.021,0 1.885,-0.208 2.594,-0.625c0.708,-0.417 1.328,-0.969 1.859,-1.656l1.766,1.375c-1.417,2.177 -3.542,3.265 -6.375,3.265Zm-0.36,-15.156c-1.166,0 -2.146,0.425 -2.937,1.274c-0.792,0.849 -1.281,2.039 -1.469,3.57l8.469,0l0,-0.219c-0.084,-1.469 -0.479,-2.607 -1.188,-3.414c-0.708,-0.807 -1.666,-1.211 -2.875,-1.211Z" style="fill:#fff;fill-rule:nonzero;"/><path d="M567.672,198.016l3.25,-12.922l2.89,0l-4.921,16.906l-2.344,0l-4.109,-12.813l-4,12.813l-2.344,0l-4.906,-16.906l2.875,0l3.328,12.656l3.937,-12.656l2.328,0l4.016,12.922Z" style="fill:#fff;fill-rule:nonzero;"/></g></svg>