<?xml version="1.0" encoding="UTF-8" standalone="no"?><!DOCTYPE svg PUBLIC "-//W3C//DTD SVG 1.1//EN" "http://www.w3.org/Graphics/SVG/1.1/DTD/svg11.dtd"><svg width="100%" height="100%" viewBox="0 0 850 320" version="1.1" xmlns="http://www.w3.org/2000/svg" xmlns:xlink="http://www.w3.org/1999/xlink" xml:space="preserve" xmlns:serif="http://www.serif.com/" style="fill-rule:evenodd;clip-rule:evenodd;stroke-linecap:round;stroke-linejoin:round;stroke-miterlimit:1.5;"><g><path d="M320,80c0,-22.077 -17.923,-40 -40,-40l-200,0c-22.077,0 -40,17.923 -40,40l0,160c0,22.077 17.923,40 40,40l200,0c22.077,0 40,-17.923 40,-40l0,-160Z" style="fill:#27c278;"/><text x="85.578px" y="172px" style="font-family:'Roboto-Regular', 'Roboto';font-size:32px;fill:#fff;">&lt;Name&gt;Spec</text></g><path d="M810,80c0,-22.077 -17.923,-40 -40,-40l-200,0c-22.077,0 -40,17.923 -40,40l0,160c0,22.077 17.923,40 40,40l200,0c22.077,0 40,-17.923 40,-40l0,-160Z" style="fill:#fff;"/><clipPath id="_clip1"><path d="M810,80c0,-22.077 -17.923,-40 -40,-40l-200,0c-22.077,0 -40,17.923 -40,40l0,160c0,22.077 17.923,40 40,40l200,0c22.077,0 40,-17.923 40,-40l0,-160Z"/></clipPath><g clip-path="url(#_clip1)"><g transform="matrix(1,0,0,1,354,-276)"><text x="257.016px" y="360px" style="font-family:'Roboto-Medium', 'Roboto';font-weight:500;font-size:32px;fill:#2d2e44;">&lt;Name&gt;</text><text x="232.703px" y="404px" style="font-family:'Roboto-Medium', 'Roboto';font-weight:500;font-size:32px;fill:#9697a1;">Component</text></g><g><path d="M770,190.5c0,-9.659 -7.841,-17.5 -17.5,-17.5l-165,0c-9.659,0 -17.5,7.841 -17.5,17.5l0,35c0,9.659 7.841,17.5 17.5,17.5l165,0c9.659,0 17.5,-7.841 17.5,-17.5l0,-35Z" style="fill:#27c278;"/><text x="620.539px" y="220px" style="font-family:'Roboto-Regular', 'Roboto';font-size:32px;fill:#fff;">Builder</text></g></g><path d="M810,80c0,-22.077 -17.923,-40 -40,-40l-200,0c-22.077,0 -40,17.923 -40,40l0,160c0,22.077 17.923,40 40,40l200,0c22.077,0 40,-17.923 40,-40l0,-160Z" style="fill:none;stroke:#27c278;stroke-width:4px;"/><path d="M429.901,110.241c-3.259,-0.321 -6.543,-0.321 -9.802,0l-1.473,7.74c-3.12,0.473 -6.177,1.292 -9.116,2.442l-5.145,-5.966c-2.984,1.351 -5.827,2.993 -8.489,4.901l2.595,7.439c-2.466,1.97 -4.704,4.208 -6.674,6.674l-7.439,-2.595c-1.908,2.662 -3.55,5.505 -4.901,8.489l5.966,5.145c-1.15,2.939 -1.969,5.996 -2.442,9.116l-7.74,1.473c-0.321,3.259 -0.321,6.543 0,9.802l7.74,1.473c0.473,3.12 1.292,6.177 2.442,9.116l-5.966,5.145c1.351,2.984 2.993,5.827 4.901,8.489l7.439,-2.595c1.97,2.466 4.208,4.704 6.674,6.674l-2.595,7.439c2.662,1.908 5.505,3.55 8.489,4.901l5.145,-5.966c2.939,1.15 5.996,1.969 9.116,2.442l1.473,7.74c3.259,0.321 6.543,0.321 9.802,0l1.473,-7.74c3.12,-0.473 6.177,-1.292 9.116,-2.442l5.145,5.966c2.984,-1.351 5.827,-2.993 8.489,-4.901l-2.595,-7.439c2.466,-1.97 4.704,-4.208 6.674,-6.674l7.439,2.595c1.908,-2.662 3.55,-5.505 4.901,-8.489l-5.966,-5.145c1.15,-2.939 1.969,-5.996 2.442,-9.116l7.74,-1.473c0.321,-3.259 0.321,-6.543 0,-9.802l-7.74,-1.473c-0.473,-3.12 -1.292,-6.177 -2.442,-9.116l5.966,-5.145c-1.351,-2.984 -2.993,-5.827 -4.901,-8.489l-7.439,2.595c-1.97,-2.466 -4.208,-4.704 -6.674,-6.674l2.595,-7.439c-2.662,-1.908 -5.505,-3.55 -8.489,-4.901l-5.145,5.966c-2.939,-1.15 -5.996,-1.969 -9.116,-2.442l-1.473,-7.74Zm-4.901,39.759c5.519,0 10,4.481 10,10c0,5.519 -4.481,10 -10,10c-5.519,0 -10,-4.481 -10,-10c0,-5.519 4.481,-10 10,-10Z" style="fill:#27c278;"/><path d="M340,145l15,15l-15,15" style="fill:none;stroke:#2d2e44;stroke-width:4px;"/><path d="M495,145l15,15l-15,15" style="fill:none;stroke:#2d2e44;stroke-width:4px;"/></svg>