<?xml version="1.0" encoding="UTF-8" standalone="no"?><!DOCTYPE svg PUBLIC "-//W3C//DTD SVG 1.1//EN" "http://www.w3.org/Graphics/SVG/1.1/DTD/svg11.dtd"><svg width="100%" height="100%" viewBox="0 0 120 120" version="1.1" xmlns="http://www.w3.org/2000/svg" xmlns:xlink="http://www.w3.org/1999/xlink" xml:space="preserve" xmlns:serif="http://www.serif.com/" style="fill-rule:evenodd;clip-rule:evenodd;stroke-linejoin:round;stroke-miterlimit:1.41421;"><circle cx="60" cy="60" r="60" style="fill:url(#_Linear1);"/><path d="M49,87.5c-1.944,0 -1.614,-0.734 -2.284,-2.585l-5.716,-18.812l44,-26.103" style="fill:#c8daea;fill-rule:nonzero;"/><path d="M49,87.5c1.5,0 2.163,-0.686 3,-1.5l8,-7.779l-9.979,-6.017" style="fill:#a9c9dd;fill-rule:nonzero;"/><path d="M50.02,72.205l24.18,17.865c2.759,1.522 4.751,0.734 5.438,-2.562l9.843,-46.382c1.007,-4.04 -1.541,-5.872 -4.18,-4.674l-57.795,22.286c-3.945,1.582 -3.922,3.783 -0.719,4.764l14.831,4.629l34.337,-21.663c1.621,-0.983 3.108,-0.454 1.887,0.629" style="fill:url(#_Linear2);fill-rule:nonzero;"/><defs><linearGradient id="_Linear1" x1="0" y1="0" x2="1" y2="0" gradientUnits="userSpaceOnUse" gradientTransform="matrix(-0.125,0.29165,-0.29165,-0.125,0.33335,0.08335)"><stop offset="0" style="stop-color:#37aee2;stop-opacity:1"/><stop offset="1" style="stop-color:#1e96c8;stop-opacity:1"/></linearGradient><linearGradient id="_Linear2" x1="0" y1="0" x2="1" y2="0" gradientUnits="userSpaceOnUse" gradientTransform="matrix(0.09575,0.18275,-0.18275,0.09575,0.32985,0.21845)"><stop offset="0" style="stop-color:#eff7fc;stop-opacity:1"/><stop offset="1" style="stop-color:#fff;stop-opacity:1"/></linearGradient></defs></svg>