<?xml version="1.0" encoding="UTF-8" standalone="no"?><!DOCTYPE svg PUBLIC "-//W3C//DTD SVG 1.1//EN" "http://www.w3.org/Graphics/SVG/1.1/DTD/svg11.dtd"><svg width="100%" height="100%" viewBox="0 0 1000 400" version="1.1" xmlns="http://www.w3.org/2000/svg" xmlns:xlink="http://www.w3.org/1999/xlink" xml:space="preserve" xmlns:serif="http://www.serif.com/" style="fill-rule:evenodd;clip-rule:evenodd;stroke-linecap:round;stroke-linejoin:round;stroke-miterlimit:1.5;"><g><path d="M320,80c0,-22.077 -17.923,-40 -40,-40l-200,0c-22.077,0 -40,17.923 -40,40l0,200c0,22.077 17.923,40 40,40l200,0c22.077,0 40,-17.923 40,-40l0,-200Z" style="fill:#fff;stroke:#27c278;stroke-width:4px;"/><text x="96.703px" y="88px" style="font-family:'Roboto-Medium', 'Roboto';font-weight:500;font-size:32px;fill:#2d2e44;">Component</text><g><path d="M285.66,137.5c0,-9.659 -7.841,-17.5 -17.5,-17.5l-176.32,0c-9.659,0 -17.5,7.841 -17.5,17.5l0,35c0,9.659 7.841,17.5 17.5,17.5l176.32,0c9.659,0 17.5,-7.841 17.5,-17.5l0,-35Z" style="fill:#27c278;"/><text x="146.547px" y="167px" style="font-family:'Roboto-Regular', 'Roboto';font-size:32px;fill:#fff;">Pr<tspan x="177.25px " y="167px ">o</tspan>p</text></g><g><path d="M285.66,237.5c0,-9.659 -7.841,-17.5 -17.5,-17.5l-176.32,0c-9.659,0 -17.5,7.841 -17.5,17.5l0,35c0,9.659 7.841,17.5 17.5,17.5l176.32,0c9.659,0 17.5,-7.841 17.5,-17.5l0,-35Z" style="fill:#27c278;"/><text x="115.367px" y="267px" style="font-family:'Roboto-Regular', 'Roboto';font-size:32px;fill:#fff;">T<tspan x="133.289px 143.82px " y="267px 267px ">re</tspan>ePr<tspan x="208.43px " y="267px ">o</tspan>p</text></g></g><g><path d="M640,80c0,-22.077 -17.923,-40 -40,-40l-200,0c-22.077,0 -40,17.923 -40,40l0,200c0,22.077 17.923,40 40,40l200,0c22.077,0 40,-17.923 40,-40l0,-200Z" style="fill:#fff;stroke:#27c278;stroke-width:4px;"/><g transform="matrix(1,0,0,1,184,-272)"><text x="288.445px" y="360px" style="font-family:'Roboto-Medium', 'Roboto';font-weight:500;font-size:32px;fill:#2d2e44;">Sub</text><text x="232.703px" y="392px" style="font-family:'Roboto-Medium', 'Roboto';font-weight:500;font-size:32px;fill:#2d2e44;">Component</text></g><g><path d="M605.66,237.5c0,-9.659 -7.841,-17.5 -17.5,-17.5l-176.32,0c-9.659,0 -17.5,7.841 -17.5,17.5l0,35c0,9.659 7.841,17.5 17.5,17.5l176.32,0c9.659,0 17.5,-7.841 17.5,-17.5l0,-35Z" style="fill:#27c278;"/><text x="435.367px" y="267px" style="font-family:'Roboto-Regular', 'Roboto';font-size:32px;fill:#fff;">T<tspan x="453.289px 463.82px " y="267px 267px ">re</tspan>ePr<tspan x="528.43px " y="267px ">o</tspan>p</text></g></g><g><path d="M960,80c0,-22.077 -17.923,-40 -40,-40l-200,0c-22.077,0 -40,17.923 -40,40l0,200c0,22.077 17.923,40 40,40l200,0c22.077,0 40,-17.923 40,-40l0,-200Z" style="fill:#fff;stroke:#27c278;stroke-width:4px;"/><g transform="matrix(1,0,0,1,504,-270.577)"><text x="288.445px" y="360px" style="font-family:'Roboto-Medium', 'Roboto';font-weight:500;font-size:32px;fill:#2d2e44;">Sub</text><text x="288.445px" y="392px" style="font-family:'Roboto-Medium', 'Roboto';font-weight:500;font-size:32px;fill:#2d2e44;">Sub</text><text x="232.703px" y="424px" style="font-family:'Roboto-Medium', 'Roboto';font-weight:500;font-size:32px;fill:#2d2e44;">Component</text></g><g><path d="M925.66,237.5c0,-9.659 -7.841,-17.5 -17.5,-17.5l-176.32,0c-9.659,0 -17.5,7.841 -17.5,17.5l0,35c0,9.659 7.841,17.5 17.5,17.5l176.32,0c9.659,0 17.5,-7.841 17.5,-17.5l0,-35Z" style="fill:#27c278;"/><text x="755.367px" y="267px" style="font-family:'Roboto-Regular', 'Roboto';font-size:32px;fill:#fff;">T<tspan x="773.289px 783.82px " y="267px 267px ">re</tspan>ePr<tspan x="848.43px " y="267px ">o</tspan>p</text></g></g><path d="M180,290l0,60l320,0l0,-51" style="fill:none;stroke:#9697a1;stroke-width:4px;stroke-dasharray:8,8,0,0;"/><path d="M177.625,190l4.75,0l0,20.5l7.125,0l-9.5,9.5l-9.5,-9.5l7.125,0l0,-20.5Z" style="fill:#2d2e44;"/><path d="M502.375,299l-4.75,0l0,0l-7.125,0l9.5,-9l9.5,9l-7.125,0l0,0Z" style="fill:#9697a1;"/><path d="M822.375,299l-4.75,0l0,0l-7.125,0l9.5,-9l9.5,9l-7.125,0l0,0Z" style="fill:#9697a1;"/><path d="M500,350l320,0l0,-51" style="fill:none;stroke:#9697a1;stroke-width:4px;stroke-dasharray:8,8,0,0;stroke-dashoffset:12;"/></svg>