<?xml version="1.0" encoding="UTF-8" standalone="no"?><!DOCTYPE svg PUBLIC "-//W3C//DTD SVG 1.1//EN" "http://www.w3.org/Graphics/SVG/1.1/DTD/svg11.dtd"><svg width="100%" height="100%" viewBox="0 0 1240 310" version="1.1" xmlns="http://www.w3.org/2000/svg" xmlns:xlink="http://www.w3.org/1999/xlink" xml:space="preserve" xmlns:serif="http://www.serif.com/" style="fill-rule:evenodd;clip-rule:evenodd;stroke-linecap:round;stroke-linejoin:round;stroke-miterlimit:1.5;"><g><path d="M240,140c0,-13.798 -11.202,-25 -25,-25l-150,0c-13.798,0 -25,11.202 -25,25l0,50c0,13.798 11.202,25 25,25l150,0c13.798,0 25,-11.202 25,-25l0,-50Z" style="fill:#27c278;"/><rect x="98.188" y="154.25" width="3" height="22.75" style="fill:#fff;fill-rule:nonzero;"/><path d="M108.953,160.094l0.094,2.125c1.292,-1.625 2.979,-2.438 5.062,-2.438c3.573,0 5.375,2.016 5.407,6.047l0,11.172l-2.891,0l0,-11.188c-0.01,-1.218 -0.289,-2.119 -0.836,-2.703c-0.547,-0.583 -1.398,-0.875 -2.555,-0.875c-0.937,0 -1.76,0.25 -2.468,0.75c-0.709,0.5 -1.261,1.157 -1.657,1.969l0,12.047l-2.89,0l0,-16.906l2.734,0Z" style="fill:#fff;fill-rule:nonzero;"/><path d="M134.438,155.453c-1.292,-0.208 -2.334,-0.312 -3.125,-0.312c-2.084,0 -3.125,1.093 -3.125,3.281l0,1.672l3.609,0l0,2.234l-3.609,0l0,14.672l-2.891,0l0,-14.672l-2.672,0l0,-2.234l2.672,0l0,-1.844c0.01,-1.802 0.516,-3.182 1.516,-4.141c1,-0.958 2.421,-1.437 4.265,-1.437c1.052,0 3.136,0.318 6.25,0.953l0,23.375l-2.89,0l0,-21.547Z" style="fill:#fff;fill-rule:nonzero;"/><path d="M152.484,177c-0.166,-0.333 -0.302,-0.927 -0.406,-1.781c-1.344,1.396 -2.948,2.093 -4.812,2.093c-1.667,0 -3.034,-0.471 -4.102,-1.414c-1.068,-0.942 -1.601,-2.138 -1.601,-3.586c0,-1.76 0.669,-3.127 2.007,-4.101c1.339,-0.974 3.222,-1.461 5.649,-1.461l2.812,0l0,-1.328c0,-1.011 -0.302,-1.815 -0.906,-2.414c-0.604,-0.599 -1.495,-0.899 -2.672,-0.899c-1.031,0 -1.896,0.261 -2.594,0.782c-0.698,0.52 -1.046,1.151 -1.046,1.89l-2.907,0c0,-0.844 0.3,-1.659 0.899,-2.445c0.599,-0.787 1.411,-1.409 2.437,-1.867c1.026,-0.459 2.154,-0.688 3.383,-0.688c1.948,0 3.474,0.487 4.578,1.461c1.104,0.974 1.677,2.315 1.719,4.024l0,7.781c0,1.552 0.198,2.786 0.594,3.703l0,0.25l-3.032,0Zm-4.796,-2.203c0.906,0 1.765,-0.235 2.578,-0.703c0.812,-0.469 1.401,-1.078 1.765,-1.828l0,-3.469l-2.265,0c-3.542,0 -5.313,1.036 -5.313,3.109c0,0.906 0.302,1.615 0.906,2.125c0.605,0.511 1.381,0.766 2.329,0.766Z" style="fill:#fff;fill-rule:nonzero;"/><path d="M163.375,156l0,4.094l3.156,0l0,2.234l-3.156,0l0,10.484c0,0.678 0.141,1.185 0.422,1.524c0.281,0.338 0.76,0.508 1.437,0.508c0.334,0 0.792,-0.063 1.375,-0.188l0,2.344c-0.76,0.208 -1.5,0.312 -2.218,0.312c-1.292,0 -2.266,-0.39 -2.922,-1.171c-0.656,-0.782 -0.985,-1.891 -0.985,-3.329l0,-10.484l-3.078,0l0,-2.234l3.078,0l0,-4.094l2.891,0Z" style="fill:#fff;fill-rule:nonzero;"/><path d="M176.922,177.312c-2.292,0 -4.156,-0.752 -5.594,-2.257c-1.437,-1.506 -2.156,-3.519 -2.156,-6.039l0,-0.532c0,-1.677 0.32,-3.174 0.961,-4.492c0.64,-1.318 1.536,-2.349 2.687,-3.094c1.151,-0.744 2.399,-1.117 3.743,-1.117c2.197,0 3.906,0.724 5.125,2.172c1.218,1.448 1.828,3.521 1.828,6.219l0,1.203l-11.453,0c0.041,1.667 0.528,3.013 1.46,4.039c0.933,1.026 2.118,1.539 3.555,1.539c1.021,0 1.886,-0.208 2.594,-0.625c0.708,-0.417 1.328,-0.969 1.859,-1.656l1.766,1.375c-1.417,2.177 -3.542,3.265 -6.375,3.265Zm-0.359,-15.156c-1.167,0 -2.146,0.425 -2.938,1.274c-0.792,0.849 -1.281,2.039 -1.469,3.57l8.469,0l0,-0.219c-0.083,-1.469 -0.479,-2.607 -1.187,-3.414c-0.709,-0.807 -1.667,-1.211 -2.875,-1.211Z" style="fill:#fff;fill-rule:nonzero;"/></g><g><path d="M480,140c0,-13.798 -11.202,-25 -25,-25l-150,0c-13.798,0 -25,11.202 -25,25l0,50c0,13.798 11.202,25 25,25l150,0c13.798,0 25,-11.202 25,-25l0,-50Z" style="fill:#fff;stroke:#27c278;stroke-width:4px;"/><path d="M330.609,169.781c-0.281,2.407 -1.169,4.263 -2.664,5.571c-1.494,1.307 -3.481,1.961 -5.961,1.961c-2.687,0 -4.841,-0.964 -6.461,-2.891c-1.619,-1.927 -2.429,-4.505 -2.429,-7.734l0,-2.188c0,-2.115 0.377,-3.974 1.133,-5.578c0.755,-1.604 1.825,-2.836 3.21,-3.695c1.386,-0.86 2.99,-1.29 4.813,-1.29c2.417,0 4.354,0.675 5.812,2.024c1.459,1.349 2.308,3.216 2.547,5.601l-3.015,0c-0.261,-1.812 -0.826,-3.125 -1.696,-3.937c-0.869,-0.813 -2.086,-1.219 -3.648,-1.219c-1.917,0 -3.419,0.709 -4.508,2.125c-1.088,1.417 -1.633,3.433 -1.633,6.047l0,2.203c0,2.469 0.516,4.433 1.547,5.891c1.031,1.458 2.474,2.187 4.328,2.187c1.667,0 2.946,-0.377 3.836,-1.132c0.891,-0.756 1.482,-2.071 1.774,-3.946l3.015,0Z" style="fill:#27c278;fill-rule:nonzero;"/><path d="M333.484,168.391c0,-1.657 0.326,-3.146 0.977,-4.469c0.651,-1.323 1.557,-2.344 2.719,-3.063c1.161,-0.718 2.487,-1.078 3.976,-1.078c2.302,0 4.164,0.797 5.586,2.391c1.422,1.594 2.133,3.713 2.133,6.359l0,0.203c0,1.646 -0.315,3.123 -0.945,4.43c-0.631,1.307 -1.532,2.326 -2.703,3.055c-1.172,0.729 -2.519,1.094 -4.04,1.094c-2.291,0 -4.148,-0.797 -5.57,-2.391c-1.422,-1.594 -2.133,-3.703 -2.133,-6.328l0,-0.203Zm2.907,0.343c0,1.875 0.435,3.381 1.304,4.516c0.87,1.135 2.034,1.703 3.492,1.703c1.469,0 2.636,-0.575 3.5,-1.726c0.865,-1.151 1.297,-2.763 1.297,-4.836c0,-1.855 -0.44,-3.357 -1.32,-4.508c-0.88,-1.151 -2.049,-1.727 -3.508,-1.727c-1.427,0 -2.578,0.568 -3.453,1.703c-0.875,1.136 -1.312,2.761 -1.312,4.875Z" style="fill:#27c278;fill-rule:nonzero;"/><path d="M355.234,160.094l0.094,2.125c1.292,-1.625 2.979,-2.438 5.063,-2.438c3.573,0 5.375,2.016 5.406,6.047l0,11.172l-2.891,0l0,-11.187c-0.01,-1.219 -0.289,-2.12 -0.836,-2.704c-0.547,-0.583 -1.398,-0.875 -2.554,-0.875c-0.938,0 -1.761,0.25 -2.469,0.75c-0.708,0.5 -1.261,1.157 -1.656,1.969l0,12.047l-2.891,0l0,-16.906l2.734,0Z" style="fill:#27c278;fill-rule:nonzero;"/><path d="M371.125,177l0,-14.672l-2.672,0l0,-2.234l2.672,0l0,-1.438c0,-1.885 0.539,-3.354 1.617,-4.406c1.078,-1.052 2.602,-1.578 4.57,-1.578c1.167,0 2.641,0.318 4.422,0.953l-0.484,2.438c-1.302,-0.521 -2.542,-0.782 -3.719,-0.782c-1.239,0 -2.133,0.279 -2.679,0.836c-0.547,0.557 -0.821,1.393 -0.821,2.508l0,1.469l3.453,0l0,2.234l-3.453,0l0,14.672l-2.906,0Zm12.047,0l-2.906,0l0,-16.906l2.906,0l0,16.906Z" style="fill:#27c278;fill-rule:nonzero;"/><path d="M387.187,168.406c0,-2.635 0.61,-4.732 1.829,-6.289c1.218,-1.557 2.833,-2.336 4.843,-2.336c2.063,0 3.672,0.729 4.828,2.188l0.141,-1.875l2.641,0l0,16.5c0,2.187 -0.649,3.911 -1.946,5.172c-1.296,1.26 -3.039,1.89 -5.226,1.89c-1.219,0 -2.412,-0.26 -3.578,-0.781c-1.167,-0.521 -2.058,-1.234 -2.672,-2.141l1.5,-1.734c1.239,1.531 2.755,2.297 4.547,2.297c1.406,0 2.502,-0.396 3.289,-1.188c0.786,-0.791 1.179,-1.906 1.179,-3.343l0,-1.453c-1.156,1.333 -2.734,2 -4.734,2c-1.979,0 -3.581,-0.797 -4.805,-2.391c-1.224,-1.594 -1.836,-3.766 -1.836,-6.516Zm2.907,0.328c0,1.907 0.39,3.404 1.172,4.493c0.781,1.088 1.875,1.632 3.281,1.632c1.823,0 3.161,-0.828 4.015,-2.484l0,-7.719c-0.885,-1.614 -2.213,-2.422 -3.984,-2.422c-1.406,0 -2.505,0.547 -3.297,1.641c-0.791,1.094 -1.187,2.714 -1.187,4.859Z" style="fill:#27c278;fill-rule:nonzero;"/><path d="M416.266,175.328c-1.125,1.323 -2.776,1.985 -4.954,1.985c-1.802,0 -3.174,-0.524 -4.117,-1.571c-0.942,-1.047 -1.419,-2.596 -1.429,-4.648l0,-11l2.89,0l0,10.922c0,2.562 1.042,3.843 3.125,3.843c2.209,0 3.677,-0.823 4.406,-2.468l0,-12.297l2.891,0l0,16.906l-2.75,0l-0.062,-1.672Z" style="fill:#27c278;fill-rule:nonzero;"/><path d="M431.641,162.688c-0.438,-0.073 -0.912,-0.11 -1.422,-0.11c-1.896,0 -3.183,0.807 -3.86,2.422l0,12l-2.89,0l0,-16.906l2.812,0l0.047,1.953c0.948,-1.511 2.292,-2.266 4.031,-2.266c0.563,0 0.99,0.073 1.282,0.219l0,2.688Z" style="fill:#27c278;fill-rule:nonzero;"/><path d="M441.016,177.313c-2.292,0 -4.157,-0.753 -5.594,-2.258c-1.438,-1.506 -2.156,-3.519 -2.156,-6.039l0,-0.532c0,-1.677 0.32,-3.174 0.961,-4.492c0.64,-1.318 1.536,-2.349 2.687,-3.094c1.151,-0.744 2.398,-1.117 3.742,-1.117c2.198,0 3.906,0.724 5.125,2.172c1.219,1.448 1.828,3.521 1.828,6.219l0,1.203l-11.453,0c0.042,1.667 0.529,3.013 1.461,4.039c0.932,1.026 2.117,1.539 3.555,1.539c1.021,0 1.885,-0.208 2.594,-0.625c0.708,-0.417 1.328,-0.969 1.859,-1.656l1.766,1.375c-1.417,2.177 -3.542,3.266 -6.375,3.266Zm-0.36,-15.157c-1.166,0 -2.146,0.425 -2.937,1.274c-0.792,0.849 -1.282,2.039 -1.469,3.57l8.469,0l0,-0.219c-0.084,-1.468 -0.479,-2.607 -1.188,-3.414c-0.708,-0.807 -1.666,-1.211 -2.875,-1.211Z" style="fill:#27c278;fill-rule:nonzero;"/></g><g><path d="M720,140c0,-13.798 -11.202,-25 -25,-25l-150,0c-13.798,0 -25,11.202 -25,25l0,50c0,13.798 11.202,25 25,25l150,0c13.798,0 25,-11.202 25,-25l0,-50Z" style="fill:#27c278;"/><path d="M564.555,154.25l7.437,18.563l7.438,-18.563l3.89,0l0,22.75l-3,0l0,-8.859l0.282,-9.563l-7.469,18.422l-2.297,0l-7.453,-18.375l0.297,9.516l0,8.859l-3,0l0,-22.75l3.875,0Z" style="fill:#fff;fill-rule:nonzero;"/><path d="M595.18,177.313c-2.292,0 -4.157,-0.753 -5.594,-2.258c-1.438,-1.506 -2.156,-3.519 -2.156,-6.039l0,-0.532c0,-1.677 0.32,-3.174 0.961,-4.492c0.64,-1.318 1.536,-2.349 2.687,-3.094c1.151,-0.744 2.399,-1.117 3.742,-1.117c2.198,0 3.907,0.724 5.125,2.172c1.219,1.448 1.828,3.521 1.828,6.219l0,1.203l-11.453,0c0.042,1.667 0.529,3.013 1.461,4.039c0.933,1.026 2.117,1.539 3.555,1.539c1.021,0 1.885,-0.208 2.594,-0.625c0.708,-0.417 1.328,-0.969 1.859,-1.656l1.766,1.375c-1.417,2.177 -3.542,3.266 -6.375,3.266Zm-0.36,-15.157c-1.166,0 -2.146,0.425 -2.937,1.274c-0.792,0.849 -1.281,2.039 -1.469,3.57l8.469,0l0,-0.219c-0.084,-1.468 -0.479,-2.607 -1.188,-3.414c-0.708,-0.807 -1.666,-1.211 -2.875,-1.211Z" style="fill:#fff;fill-rule:nonzero;"/><path d="M615.555,177c-0.167,-0.333 -0.302,-0.927 -0.407,-1.781c-1.343,1.396 -2.947,2.094 -4.812,2.094c-1.667,0 -3.034,-0.472 -4.102,-1.415c-1.067,-0.942 -1.601,-2.138 -1.601,-3.585c0,-1.761 0.669,-3.128 2.008,-4.102c1.338,-0.974 3.221,-1.461 5.648,-1.461l2.813,0l0,-1.328c0,-1.011 -0.303,-1.815 -0.907,-2.414c-0.604,-0.599 -1.494,-0.899 -2.672,-0.899c-1.031,0 -1.895,0.261 -2.593,0.782c-0.698,0.52 -1.047,1.151 -1.047,1.89l-2.906,0c0,-0.843 0.299,-1.659 0.898,-2.445c0.599,-0.787 1.411,-1.409 2.437,-1.867c1.027,-0.459 2.154,-0.688 3.383,-0.688c1.948,0 3.474,0.487 4.578,1.461c1.105,0.974 1.678,2.315 1.719,4.024l0,7.781c0,1.552 0.198,2.786 0.594,3.703l0,0.25l-3.031,0Zm-4.797,-2.203c0.906,0 1.765,-0.234 2.578,-0.703c0.812,-0.469 1.401,-1.078 1.766,-1.828l0,-3.469l-2.266,0c-3.542,0 -5.313,1.036 -5.313,3.109c0,0.906 0.303,1.615 0.907,2.125c0.604,0.511 1.38,0.766 2.328,0.766Z" style="fill:#fff;fill-rule:nonzero;"/><path d="M632.367,172.516c0,-0.782 -0.294,-1.388 -0.883,-1.821c-0.588,-0.432 -1.614,-0.804 -3.078,-1.117c-1.463,-0.312 -2.625,-0.687 -3.484,-1.125c-0.86,-0.437 -1.495,-0.958 -1.906,-1.562c-0.412,-0.605 -0.618,-1.323 -0.618,-2.157c0,-1.385 0.586,-2.557 1.758,-3.515c1.172,-0.959 2.67,-1.438 4.492,-1.438c1.917,0 3.472,0.495 4.664,1.485c1.193,0.989 1.79,2.255 1.79,3.797l-2.907,0c0,-0.792 -0.336,-1.474 -1.008,-2.047c-0.671,-0.573 -1.518,-0.86 -2.539,-0.86c-1.052,0 -1.875,0.229 -2.468,0.688c-0.594,0.458 -0.891,1.057 -0.891,1.797c0,0.698 0.276,1.224 0.828,1.578c0.552,0.354 1.55,0.692 2.992,1.015c1.443,0.323 2.612,0.709 3.508,1.157c0.896,0.448 1.56,0.987 1.992,1.617c0.433,0.63 0.649,1.398 0.649,2.305c0,1.51 -0.604,2.721 -1.813,3.632c-1.208,0.912 -2.776,1.368 -4.703,1.368c-1.354,0 -2.552,-0.24 -3.594,-0.719c-1.041,-0.479 -1.856,-1.149 -2.445,-2.008c-0.588,-0.859 -0.883,-1.789 -0.883,-2.789l2.891,0c0.052,0.969 0.44,1.737 1.164,2.305c0.724,0.567 1.68,0.851 2.867,0.851c1.094,0 1.972,-0.221 2.633,-0.664c0.661,-0.443 0.992,-1.034 0.992,-1.773Z" style="fill:#fff;fill-rule:nonzero;"/><path d="M649.461,175.328c-1.125,1.323 -2.776,1.985 -4.953,1.985c-1.802,0 -3.175,-0.524 -4.117,-1.571c-0.943,-1.047 -1.42,-2.596 -1.43,-4.648l0,-11l2.891,0l0,10.922c0,2.562 1.041,3.843 3.125,3.843c2.208,0 3.677,-0.823 4.406,-2.468l0,-12.297l2.89,0l0,16.906l-2.75,0l-0.062,-1.672Z" style="fill:#fff;fill-rule:nonzero;"/><path d="M664.836,162.688c-0.438,-0.073 -0.912,-0.11 -1.422,-0.11c-1.896,0 -3.182,0.807 -3.859,2.422l0,12l-2.891,0l0,-16.906l2.813,0l0.046,1.953c0.948,-1.511 2.292,-2.266 4.032,-2.266c0.562,0 0.989,0.073 1.281,0.219l0,2.688Z" style="fill:#fff;fill-rule:nonzero;"/><path d="M674.211,177.313c-2.292,0 -4.156,-0.753 -5.594,-2.258c-1.437,-1.506 -2.156,-3.519 -2.156,-6.039l0,-0.532c0,-1.677 0.32,-3.174 0.961,-4.492c0.64,-1.318 1.536,-2.349 2.687,-3.094c1.151,-0.744 2.399,-1.117 3.743,-1.117c2.197,0 3.906,0.724 5.125,2.172c1.218,1.448 1.828,3.521 1.828,6.219l0,1.203l-11.453,0c0.041,1.667 0.528,3.013 1.46,4.039c0.933,1.026 2.118,1.539 3.555,1.539c1.021,0 1.886,-0.208 2.594,-0.625c0.708,-0.417 1.328,-0.969 1.859,-1.656l1.766,1.375c-1.417,2.177 -3.542,3.266 -6.375,3.266Zm-0.359,-15.157c-1.167,0 -2.146,0.425 -2.938,1.274c-0.792,0.849 -1.281,2.039 -1.469,3.57l8.469,0l0,-0.219c-0.083,-1.468 -0.479,-2.607 -1.187,-3.414c-0.709,-0.807 -1.667,-1.211 -2.875,-1.211Z" style="fill:#fff;fill-rule:nonzero;"/></g><g><path d="M960,140c0,-13.798 -11.202,-25 -25,-25l-150,0c-13.798,0 -25,11.202 -25,25l0,50c0,13.798 11.202,25 25,25l150,0c13.798,0 25,-11.202 25,-25l0,-50Z" style="fill:#27c278;"/><path d="M817.836,174.547l10.781,0l0,2.453l-13.797,0l0,-22.75l3.016,0l0,20.297Z" style="fill:#fff;fill-rule:nonzero;"/><path d="M842.023,177c-0.166,-0.333 -0.302,-0.927 -0.406,-1.781c-1.344,1.396 -2.948,2.094 -4.812,2.094c-1.667,0 -3.034,-0.472 -4.102,-1.415c-1.068,-0.942 -1.601,-2.138 -1.601,-3.585c0,-1.761 0.669,-3.128 2.007,-4.102c1.339,-0.974 3.222,-1.461 5.649,-1.461l2.812,0l0,-1.328c0,-1.011 -0.302,-1.815 -0.906,-2.414c-0.604,-0.599 -1.495,-0.899 -2.672,-0.899c-1.031,0 -1.896,0.261 -2.594,0.782c-0.697,0.52 -1.046,1.151 -1.046,1.89l-2.907,0c0,-0.843 0.3,-1.659 0.899,-2.445c0.599,-0.787 1.411,-1.409 2.437,-1.867c1.026,-0.459 2.154,-0.688 3.383,-0.688c1.948,0 3.474,0.487 4.578,1.461c1.104,0.974 1.677,2.315 1.719,4.024l0,7.781c0,1.552 0.198,2.786 0.594,3.703l0,0.25l-3.032,0Zm-4.796,-2.203c0.906,0 1.765,-0.234 2.578,-0.703c0.812,-0.469 1.401,-1.078 1.765,-1.828l0,-3.469l-2.265,0c-3.542,0 -5.313,1.036 -5.313,3.109c0,0.906 0.302,1.615 0.906,2.125c0.605,0.511 1.381,0.766 2.329,0.766Z" style="fill:#fff;fill-rule:nonzero;"/><path d="M854.289,172.766l3.938,-12.672l3.093,0l-6.797,19.515c-1.052,2.813 -2.724,4.219 -5.015,4.219l-0.547,-0.047l-1.078,-0.203l0,-2.344l0.781,0.063c0.979,0 1.742,-0.198 2.289,-0.594c0.547,-0.396 0.998,-1.12 1.352,-2.172l0.64,-1.718l-6.031,-16.719l3.156,0l4.219,12.672Z" style="fill:#fff;fill-rule:nonzero;"/><path d="M862.898,168.391c0,-1.657 0.326,-3.146 0.977,-4.469c0.651,-1.323 1.557,-2.344 2.719,-3.063c1.161,-0.718 2.487,-1.078 3.976,-1.078c2.302,0 4.164,0.797 5.586,2.391c1.422,1.594 2.133,3.713 2.133,6.359l0,0.203c0,1.646 -0.315,3.123 -0.945,4.43c-0.63,1.307 -1.532,2.326 -2.703,3.055c-1.172,0.729 -2.519,1.094 -4.039,1.094c-2.292,0 -4.149,-0.797 -5.571,-2.391c-1.422,-1.594 -2.133,-3.703 -2.133,-6.328l0,-0.203Zm2.907,0.343c0,1.875 0.435,3.381 1.304,4.516c0.87,1.135 2.034,1.703 3.493,1.703c1.468,0 2.635,-0.575 3.5,-1.726c0.864,-1.151 1.296,-2.763 1.296,-4.836c0,-1.855 -0.44,-3.357 -1.32,-4.508c-0.88,-1.151 -2.049,-1.727 -3.508,-1.727c-1.427,0 -2.578,0.568 -3.453,1.703c-0.875,1.136 -1.312,2.761 -1.312,4.875Z" style="fill:#fff;fill-rule:nonzero;"/><path d="M892.352,175.328c-1.125,1.323 -2.776,1.985 -4.954,1.985c-1.802,0 -3.174,-0.524 -4.117,-1.571c-0.942,-1.047 -1.419,-2.596 -1.429,-4.648l0,-11l2.89,0l0,10.922c0,2.562 1.042,3.843 3.125,3.843c2.209,0 3.677,-0.823 4.406,-2.468l0,-12.297l2.891,0l0,16.906l-2.75,0l-0.062,-1.672Z" style="fill:#fff;fill-rule:nonzero;"/><path d="M903.477,156l0,4.094l3.156,0l0,2.234l-3.156,0l0,10.485c0,0.677 0.14,1.184 0.421,1.523c0.282,0.338 0.761,0.508 1.438,0.508c0.333,0 0.792,-0.063 1.375,-0.188l0,2.344c-0.76,0.208 -1.5,0.313 -2.219,0.313c-1.291,0 -2.265,-0.391 -2.922,-1.172c-0.656,-0.782 -0.984,-1.891 -0.984,-3.328l0,-10.485l-3.078,0l0,-2.234l3.078,0l0,-4.094l2.891,0Z" style="fill:#fff;fill-rule:nonzero;"/></g><g><path d="M1200,140c0,-13.798 -11.202,-25 -25,-25l-150,0c-13.798,0 -25,11.202 -25,25l0,50c0,13.798 11.202,25 25,25l150,0c13.798,0 25,-11.202 25,-25l0,-50Z" style="fill:#27c278;"/><path d="M1066.32,177l0,-22.75l6.422,0c1.979,0 3.729,0.438 5.25,1.313c1.521,0.875 2.695,2.119 3.524,3.734c0.828,1.614 1.247,3.469 1.257,5.562l0,1.454c0,2.145 -0.414,4.026 -1.242,5.64c-0.828,1.615 -2.01,2.854 -3.547,3.719c-1.536,0.864 -3.325,1.307 -5.367,1.328l-6.297,0Zm3,-20.281l0,17.828l3.157,0c2.312,0 4.112,-0.719 5.398,-2.156c1.286,-1.438 1.93,-3.485 1.93,-6.141l0,-1.328c0,-2.583 -0.607,-4.591 -1.821,-6.024c-1.213,-1.432 -2.935,-2.158 -5.164,-2.179l-3.5,0Z" style="fill:#fff;fill-rule:nonzero;"/><path d="M1095.02,162.688c-0.437,-0.073 -0.911,-0.11 -1.421,-0.11c-1.896,0 -3.183,0.807 -3.86,2.422l0,12l-2.89,0l0,-16.906l2.812,0l0.047,1.953c0.948,-1.511 2.292,-2.266 4.031,-2.266c0.563,0 0.99,0.073 1.281,0.219l0,2.688Z" style="fill:#fff;fill-rule:nonzero;"/><path d="M1107.49,177c-0.166,-0.333 -0.302,-0.927 -0.406,-1.781c-1.344,1.396 -2.948,2.094 -4.813,2.094c-1.666,0 -3.033,-0.472 -4.101,-1.415c-1.068,-0.942 -1.602,-2.138 -1.602,-3.585c0,-1.761 0.67,-3.128 2.008,-4.102c1.339,-0.974 3.221,-1.461 5.649,-1.461l2.812,0l0,-1.328c0,-1.011 -0.302,-1.815 -0.906,-2.414c-0.604,-0.599 -1.495,-0.899 -2.672,-0.899c-1.031,0 -1.896,0.261 -2.594,0.782c-0.698,0.52 -1.047,1.151 -1.047,1.89l-2.906,0c0,-0.843 0.3,-1.659 0.899,-2.445c0.598,-0.787 1.411,-1.409 2.437,-1.867c1.026,-0.459 2.154,-0.688 3.383,-0.688c1.948,0 3.474,0.487 4.578,1.461c1.104,0.974 1.677,2.315 1.719,4.024l0,7.781c0,1.552 0.198,2.786 0.593,3.703l0,0.25l-3.031,0Zm-4.797,-2.203c0.907,0 1.766,-0.234 2.578,-0.703c0.813,-0.469 1.401,-1.078 1.766,-1.828l0,-3.469l-2.266,0c-3.541,0 -5.312,1.036 -5.312,3.109c0,0.906 0.302,1.615 0.906,2.125c0.604,0.511 1.38,0.766 2.328,0.766Z" style="fill:#fff;fill-rule:nonzero;"/><path d="M1129.43,173.016l3.25,-12.922l2.89,0l-4.922,16.906l-2.343,0l-4.11,-12.812l-4,12.812l-2.343,0l-4.907,-16.906l2.875,0l3.328,12.656l3.938,-12.656l2.328,0l4.016,12.922Z" style="fill:#fff;fill-rule:nonzero;"/></g><path d="M63.674,41.797l0,22.236c-0.015,3.085 -0.985,5.608 -2.909,7.57c-1.924,1.961 -4.533,3.062 -7.828,3.301l-1.145,0.045c-3.579,0 -6.431,-0.966 -8.558,-2.897c-2.126,-1.932 -3.204,-4.59 -3.234,-7.974l0,-22.281l4.268,0l0,22.146c0,2.366 0.651,4.204 1.954,5.515c1.302,1.31 3.159,1.965 5.57,1.965c2.441,0 4.309,-0.652 5.604,-1.954c1.295,-1.303 1.943,-3.137 1.943,-5.503l0,-22.169l4.335,0Z" style="fill:#2d2e44;fill-rule:nonzero;"/><rect x="70.794" y="41.797" width="4.313" height="32.703" style="fill:#2d2e44;fill-rule:nonzero;"/><path d="M99.364,44.313l0,5.884l4.537,0l0,3.212l-4.537,0l0,15.071c0,0.974 0.202,1.704 0.607,2.19c0.404,0.487 1.093,0.73 2.066,0.73c0.479,0 1.138,-0.089 1.977,-0.269l0,3.369c-1.093,0.299 -2.157,0.449 -3.19,0.449c-1.857,0 -3.257,-0.561 -4.2,-1.684c-0.943,-1.123 -1.415,-2.718 -1.415,-4.785l0,-15.071l-4.425,0l0,-3.212l4.425,0l0,-5.885l4.155,0Z" style="fill:#2d2e44;fill-rule:nonzero;"/><path d="M112.908,53.14c1.842,-2.261 4.238,-3.392 7.188,-3.392c5.136,0 7.726,2.898 7.771,8.692l0,16.06l-4.155,0l0,-16.082c-0.015,-1.752 -0.416,-3.047 -1.202,-3.886c-0.786,-0.838 -2.01,-1.258 -3.672,-1.258c-1.348,0 -2.531,0.36 -3.549,1.079c-1.018,0.718 -1.812,1.662 -2.381,2.83l0,17.317l-4.155,0l0,-34.5l4.155,0l0,13.14Z" style="fill:#2d2e44;fill-rule:nonzero;"/><path d="M145.836,53.926c-0.629,-0.105 -1.31,-0.157 -2.044,-0.157c-2.725,0 -4.575,1.16 -5.548,3.481l0,17.25l-4.155,0l0,-24.303l4.043,0l0.067,2.808c1.363,-2.171 3.294,-3.257 5.795,-3.257c0.809,0 1.423,0.105 1.842,0.314l0,3.864Z" style="fill:#2d2e44;fill-rule:nonzero;"/><path d="M159.313,74.949c-3.295,0 -5.975,-1.082 -8.042,-3.245c-2.066,-2.164 -3.099,-5.058 -3.099,-8.682l0,-0.763c0,-2.411 0.46,-4.564 1.381,-6.458c0.921,-1.894 2.209,-3.376 3.864,-4.447c1.654,-1.071 3.447,-1.606 5.379,-1.606c3.159,0 5.615,1.041 7.367,3.122c1.752,2.081 2.628,5.061 2.628,8.94l0,1.729l-16.464,0c0.06,2.396 0.76,4.331 2.1,5.806c1.34,1.475 3.044,2.213 5.11,2.213c1.468,0 2.71,-0.3 3.729,-0.899c1.018,-0.599 1.909,-1.392 2.672,-2.381l2.539,1.977c-2.037,3.129 -5.092,4.694 -9.165,4.694Zm-0.516,-21.787c-1.677,0 -3.085,0.61 -4.223,1.831c-1.138,1.22 -1.842,2.931 -2.111,5.132l12.174,0l0,-0.314c-0.12,-2.112 -0.689,-3.748 -1.707,-4.908c-1.019,-1.161 -2.396,-1.741 -4.133,-1.741Z" style="fill:#2d2e44;fill-rule:nonzero;"/><path d="M188.602,74.5c-0.24,-0.479 -0.435,-1.333 -0.584,-2.561c-1.932,2.007 -4.238,3.01 -6.918,3.01c-2.396,0 -4.362,-0.677 -5.896,-2.032c-1.535,-1.356 -2.303,-3.074 -2.303,-5.155c0,-2.531 0.962,-4.496 2.887,-5.896c1.924,-1.4 4.63,-2.1 8.119,-2.1l4.043,0l0,-1.91c0,-1.452 -0.434,-2.609 -1.303,-3.47c-0.868,-0.861 -2.148,-1.291 -3.84,-1.291c-1.483,0 -2.726,0.374 -3.729,1.123c-1.003,0.748 -1.505,1.654 -1.505,2.718l-4.177,0c0,-1.213 0.43,-2.385 1.291,-3.516c0.861,-1.13 2.029,-2.025 3.504,-2.684c1.475,-0.659 3.096,-0.988 4.863,-0.988c2.8,0 4.994,0.7 6.581,2.1c1.587,1.4 2.411,3.328 2.47,5.784l0,11.185c0,2.232 0.285,4.006 0.854,5.324l0,0.359l-4.357,0Zm-6.896,-3.167c1.303,0 2.538,-0.337 3.706,-1.011c1.168,-0.674 2.014,-1.55 2.538,-2.628l0,-4.986l-3.257,0c-5.091,0 -7.636,1.49 -7.636,4.47c0,1.302 0.434,2.321 1.302,3.054c0.869,0.734 1.984,1.101 3.347,1.101Z" style="fill:#2d2e44;fill-rule:nonzero;"/><path d="M197.608,62.146c0,-3.728 0.884,-6.727 2.651,-8.995c1.767,-2.269 4.08,-3.403 6.94,-3.403c2.845,0 5.099,0.973 6.761,2.92l0,-12.668l4.155,0l0,34.5l-3.818,0l-0.202,-2.605c-1.662,2.036 -3.976,3.054 -6.941,3.054c-2.815,0 -5.11,-1.153 -6.884,-3.459c-1.774,-2.306 -2.662,-5.316 -2.662,-9.029l0,-0.315Zm4.156,0.472c0,2.755 0.569,4.912 1.707,6.469c1.138,1.557 2.71,2.336 4.717,2.336c2.635,0 4.559,-1.183 5.772,-3.549l0,-11.163c-1.243,-2.291 -3.152,-3.437 -5.728,-3.437c-2.036,0 -3.623,0.787 -4.761,2.359c-1.138,1.572 -1.707,3.901 -1.707,6.985Z" style="fill:#2d2e44;fill-rule:nonzero;"/><path d="M240,167.375l0,-4.75l28.5,0l0,-7.125l9.5,9.5l-9.5,9.5l0,-7.125l-28.5,0Z" style="fill:#2d2e44;"/><path d="M482,167.375l0,-4.75l28.5,0l0,-7.125l9.5,9.5l-9.5,9.5l0,-7.125l-28.5,0Z" style="fill:#2d2e44;"/><path d="M382.375,255l-4.75,0l0,-29l-7.125,0l9.5,-9.5l9.5,9.5l-7.125,0l0,29Z" style="fill:#2d2e44;"/><path d="M1095.25,73.499l4.75,0l0.002,32l7.125,0l-9.499,9.5l-9.501,-9.499l7.125,-0.001l-0.002,-32Z" style="fill:#2d2e44;"/><path d="M720,167.375l0,-4.75l30.5,0l0,-7.125l9.5,9.5l-9.5,9.5l0,-7.125l-30.5,0Z" style="fill:#2d2e44;"/><path d="M960,167.375l0,-4.75l30.5,0l0,-7.125l9.5,9.5l-9.5,9.5l0,-7.125l-30.5,0Z" style="fill:#2d2e44;"/><path d="M1097.62,215l4.75,0l0,40l-4.75,0l0,-40Z" style="fill:#2d2e44;"/><path d="M377.625,73.5l4.75,0l0,39.574l-4.75,0l0,-39.574Z" style="fill:#2d2e44;"/><path d="M857.625,215l4.75,0l0,40l-4.75,0l0,-40Z" style="fill:#2d2e44;"/><path d="M617.625,215l4.75,0l0,40l-4.75,0l0,-40Z" style="fill:#2d2e44;"/><path d="M617.625,73.5l4.75,0l0,41.5l-4.75,0l0,-41.5Z" style="fill:#2d2e44;"/><rect x="380" y="250.25" width="722.375" height="4.75" style="fill:#2d2e44;"/><rect x="377.625" y="73.5" width="722.375" height="4.75" style="fill:#2d2e44;"/></svg>