<?xml version="1.0" encoding="UTF-8" standalone="no"?><!DOCTYPE svg PUBLIC "-//W3C//DTD SVG 1.1//EN" "http://www.w3.org/Graphics/SVG/1.1/DTD/svg11.dtd"><svg width="100%" height="100%" viewBox="0 0 1240 310" version="1.1" xmlns="http://www.w3.org/2000/svg" xmlns:xlink="http://www.w3.org/1999/xlink" xml:space="preserve" xmlns:serif="http://www.serif.com/" style="fill-rule:evenodd;clip-rule:evenodd;stroke-linecap:round;stroke-linejoin:round;stroke-miterlimit:1.5;"><g><path d="M240,140c0,-13.798 -11.202,-25 -25,-25l-150,0c-13.798,0 -25,11.202 -25,25l0,50c0,13.798 11.202,25 25,25l150,0c13.798,0 25,-11.202 25,-25l0,-50Z" style="fill:#27c278;"/><text x="95.328px" y="177px" style="font-family:'Roboto-Regular', 'Roboto';font-size:32px;fill:#fff;">Inﬂate</text></g><g><path d="M480,140c0,-13.798 -11.202,-25 -25,-25l-150,0c-13.798,0 -25,11.202 -25,25l0,50c0,13.798 11.202,25 25,25l150,0c13.798,0 25,-11.202 25,-25l0,-50Z" style="fill:#fff;stroke:#27c278;stroke-width:4px;"/><text x="311.234px" y="177px" style="font-family:'Roboto-Regular', 'Roboto';font-size:32px;fill:#27c278;">Conﬁgur<tspan x="431.812px " y="177px ">e</tspan></text></g><g><path d="M720,140c0,-13.798 -11.202,-25 -25,-25l-150,0c-13.798,0 -25,11.202 -25,25l0,50c0,13.798 11.202,25 25,25l150,0c13.798,0 25,-11.202 25,-25l0,-50Z" style="fill:#27c278;"/><text x="558.039px" y="177px" style="font-family:'Roboto-Regular', 'Roboto';font-size:32px;fill:#fff;">Measur<tspan x="665.008px " y="177px ">e</tspan></text></g><g><path d="M960,140c0,-13.798 -11.202,-25 -25,-25l-150,0c-13.798,0 -25,11.202 -25,25l0,50c0,13.798 11.202,25 25,25l150,0c13.798,0 25,-11.202 25,-25l0,-50Z" style="fill:#27c278;"/><text x="812.18px" y="177px" style="font-family:'Roboto-Regular', 'Roboto';font-size:32px;fill:#fff;">La<tspan x="846.57px 861.477px " y="177px 177px ">yo</tspan>ut</text></g><g><path d="M1200,140c0,-13.798 -11.202,-25 -25,-25l-150,0c-13.798,0 -25,11.202 -25,25l0,50c0,13.798 11.202,25 25,25l150,0c13.798,0 25,-11.202 25,-25l0,-50Z" style="fill:#27c278;"/><text x="1063.68px" y="177px" style="font-family:'Roboto-Regular', 'Roboto';font-size:32px;fill:#fff;">Dr<tspan x="1094.87px " y="177px ">a</tspan>w</text></g><text x="36.855px" y="74.5px" style="font-family:'Roboto-Regular', 'Roboto';font-size:46px;fill:#2d2e44;">UI thr<tspan x="146.083px " y="74.5px ">e</tspan>ad</text><path d="M240,167.375l0,-4.75l28.5,0l0,-7.125l9.5,9.5l-9.5,9.5l0,-7.125l-28.5,0Z" style="fill:#2d2e44;"/><path d="M482,167.375l0,-4.75l28.5,0l0,-7.125l9.5,9.5l-9.5,9.5l0,-7.125l-28.5,0Z" style="fill:#2d2e44;"/><path d="M382.375,255l-4.75,0l0,-29l-7.125,0l9.5,-9.5l9.5,9.5l-7.125,0l0,29Z" style="fill:#2d2e44;"/><path d="M1095.25,73.499l4.75,0l0.002,32l7.125,0l-9.499,9.5l-9.501,-9.499l7.125,-0.001l-0.002,-32Z" style="fill:#2d2e44;"/><path d="M720,167.375l0,-4.75l30.5,0l0,-7.125l9.5,9.5l-9.5,9.5l0,-7.125l-30.5,0Z" style="fill:#2d2e44;"/><path d="M960,167.375l0,-4.75l30.5,0l0,-7.125l9.5,9.5l-9.5,9.5l0,-7.125l-30.5,0Z" style="fill:#2d2e44;"/><path d="M1097.62,215l4.75,0l0,40l-4.75,0l0,-40Z" style="fill:#2d2e44;"/><path d="M377.625,73.5l4.75,0l0,39.574l-4.75,0l0,-39.574Z" style="fill:#2d2e44;"/><path d="M857.625,215l4.75,0l0,40l-4.75,0l0,-40Z" style="fill:#2d2e44;"/><path d="M617.625,215l4.75,0l0,40l-4.75,0l0,-40Z" style="fill:#2d2e44;"/><path d="M617.625,73.5l4.75,0l0,41.5l-4.75,0l0,-41.5Z" style="fill:#2d2e44;"/><rect x="380" y="250.25" width="722.375" height="4.75" style="fill:#2d2e44;"/><rect x="377.625" y="73.5" width="722.375" height="4.75" style="fill:#2d2e44;"/></svg>